ISO-10303-21;
HEADER;
/* Generated by software containing ST-Developer
 * from STEP Tools, Inc. (www.steptools.com) 
 */

FILE_DESCRIPTION(
/* description */ (''),
/* implementation_level */ '2;1');

FILE_NAME(
/* name */ 'Pulley v6.step',
/* time_stamp */ '2026-03-10T16:00:37-04:00',
/* author */ (''),
/* organization */ (''),
/* preprocessor_version */ 'ST-DEVELOPER v20.1',
/* originating_system */ 'Autodesk Translation Framework v14.24.0.0',
/* authorisation */ '');

FILE_SCHEMA (('AUTOMOTIVE_DESIGN { 1 0 10303 214 3 1 1 }'));
ENDSEC;

DATA;
#10=MECHANICAL_DESIGN_GEOMETRIC_PRESENTATION_REPRESENTATION('',(#27,#28,
#29,#30,#31,#32,#33,#34,#35,#36,#37,#38,#39,#40),#1621);
#11=ITEM_DEFINED_TRANSFORMATION($,$,#897,#1040);
#12=(
REPRESENTATION_RELATIONSHIP($,$,#1632,#1631)
REPRESENTATION_RELATIONSHIP_WITH_TRANSFORMATION(#11)
SHAPE_REPRESENTATION_RELATIONSHIP()
);
#13=CONTEXT_DEPENDENT_SHAPE_REPRESENTATION(#12,#1630);
#14=NEXT_ASSEMBLY_USAGE_OCCURRENCE(
'4668K216_Permanently Lubricated Stainless Steel Ball Bearing:1',
'4668K216_Permanently Lubricated Stainless Steel Ball Bearing:1',
'4668K216_Permanently Lubricated Stainless Steel Ball Bearing:1',#1634,
#1635,'4668K216_Permanently Lubricated Stainless Steel Ball Bearing:1');
#15=SHAPE_REPRESENTATION_RELATIONSHIP('SRR','None',#1632,#17);
#16=SHAPE_REPRESENTATION_RELATIONSHIP('SRR','None',#1631,#18);
#17=ADVANCED_BREP_SHAPE_REPRESENTATION('',(#41,#42,#43,#44,#45,#46,#47,
#48,#49,#50,#51,#52,#53),#1620);
#18=ADVANCED_BREP_SHAPE_REPRESENTATION('',(#54),#1619);
#19=SPHERICAL_SURFACE('',#929,0.749999999999999);
#20=SPHERICAL_SURFACE('',#944,0.749999999999999);
#21=SPHERICAL_SURFACE('',#946,0.749999999999999);
#22=SPHERICAL_SURFACE('',#948,0.749999999999999);
#23=SPHERICAL_SURFACE('',#950,0.749999999999999);
#24=SPHERICAL_SURFACE('',#952,0.749999999999999);
#25=SPHERICAL_SURFACE('',#954,0.749999999999999);
#26=SPHERICAL_SURFACE('',#956,0.749999999999999);
#27=STYLED_ITEM('',(#1645),#41);
#28=STYLED_ITEM('',(#1645),#42);
#29=STYLED_ITEM('',(#1645),#43);
#30=STYLED_ITEM('',(#1645),#44);
#31=STYLED_ITEM('',(#1645),#45);
#32=STYLED_ITEM('',(#1645),#46);
#33=STYLED_ITEM('',(#1645),#47);
#34=STYLED_ITEM('',(#1645),#48);
#35=STYLED_ITEM('',(#1645),#49);
#36=STYLED_ITEM('',(#1645),#50);
#37=STYLED_ITEM('',(#1645),#51);
#38=STYLED_ITEM('',(#1645),#52);
#39=STYLED_ITEM('',(#1645),#53);
#40=STYLED_ITEM('',(#1645),#54);
#41=MANIFOLD_SOLID_BREP('Body1',#870);
#42=MANIFOLD_SOLID_BREP('Body2',#871);
#43=MANIFOLD_SOLID_BREP('Body4',#872);
#44=MANIFOLD_SOLID_BREP('Body6',#873);
#45=MANIFOLD_SOLID_BREP('Body7',#874);
#46=MANIFOLD_SOLID_BREP('Body8',#875);
#47=MANIFOLD_SOLID_BREP('Body9',#876);
#48=MANIFOLD_SOLID_BREP('Body10',#877);
#49=MANIFOLD_SOLID_BREP('Body11',#878);
#50=MANIFOLD_SOLID_BREP('Body12',#879);
#51=MANIFOLD_SOLID_BREP('Body3',#880);
#52=MANIFOLD_SOLID_BREP('Body5',#881);
#53=MANIFOLD_SOLID_BREP('Body13',#882);
#54=MANIFOLD_SOLID_BREP('Body2',#883);
#55=FACE_BOUND('',#242,.T.);
#56=FACE_BOUND('',#244,.T.);
#57=FACE_BOUND('',#251,.T.);
#58=FACE_BOUND('',#253,.T.);
#59=FACE_BOUND('',#266,.T.);
#60=FACE_BOUND('',#268,.T.);
#61=FACE_BOUND('',#280,.T.);
#62=FACE_BOUND('',#282,.T.);
#63=FACE_BOUND('',#290,.T.);
#64=FACE_BOUND('',#294,.T.);
#65=FACE_BOUND('',#298,.T.);
#66=PLANE('',#927);
#67=PLANE('',#928);
#68=PLANE('',#942);
#69=PLANE('',#943);
#70=PLANE('',#970);
#71=PLANE('',#971);
#72=PLANE('',#997);
#73=PLANE('',#998);
#74=PLANE('',#1016);
#75=PLANE('',#1022);
#76=PLANE('',#1029);
#77=CYLINDRICAL_SURFACE('',#907,1.5);
#78=CYLINDRICAL_SURFACE('',#918,2.12833333333334);
#79=CYLINDRICAL_SURFACE('',#919,2.12833333333334);
#80=CYLINDRICAL_SURFACE('',#931,3.115);
#81=CYLINDRICAL_SURFACE('',#934,2.20833333333334);
#82=CYLINDRICAL_SURFACE('',#958,2.20833333333334);
#83=CYLINDRICAL_SURFACE('',#968,3.115);
#84=CYLINDRICAL_SURFACE('',#981,3.5);
#85=CYLINDRICAL_SURFACE('',#991,3.115);
#86=CYLINDRICAL_SURFACE('',#996,3.115);
#87=CYLINDRICAL_SURFACE('',#999,2.12833333333334);
#88=CYLINDRICAL_SURFACE('',#1005,2.18833333333334);
#89=CYLINDRICAL_SURFACE('',#1014,2.20833333333334);
#90=CYLINDRICAL_SURFACE('',#1020,25.);
#91=CYLINDRICAL_SURFACE('',#1027,25.);
#92=CYLINDRICAL_SURFACE('',#1039,3.50000000000001);
#93=LINE('',#1375,#124);
#94=LINE('',#1382,#125);
#95=LINE('',#1386,#126);
#96=LINE('',#1399,#127);
#97=LINE('',#1402,#128);
#98=LINE('',#1422,#129);
#99=LINE('',#1428,#130);
#100=LINE('',#1436,#131);
#101=LINE('',#1472,#132);
#102=LINE('',#1483,#133);
#103=LINE('',#1488,#134);
#104=LINE('',#1496,#135);
#105=LINE('',#1500,#136);
#106=LINE('',#1507,#137);
#107=LINE('',#1512,#138);
#108=LINE('',#1516,#139);
#109=LINE('',#1522,#140);
#110=LINE('',#1528,#141);
#111=LINE('',#1532,#142);
#112=LINE('',#1539,#143);
#113=LINE('',#1546,#144);
#114=LINE('',#1554,#145);
#115=LINE('',#1566,#146);
#116=LINE('',#1570,#147);
#117=LINE('',#1577,#148);
#118=LINE('',#1582,#149);
#119=LINE('',#1590,#150);
#120=LINE('',#1594,#151);
#121=LINE('',#1601,#152);
#122=LINE('',#1607,#153);
#123=LINE('',#1614,#154);
#124=VECTOR('',#1057,1.5);
#125=VECTOR('',#1066,1.5);
#126=VECTOR('',#1071,1.59291666666667);
#127=VECTOR('',#1090,2.12833333333334);
#128=VECTOR('',#1093,2.12833333333334);
#129=VECTOR('',#1120,3.115);
#130=VECTOR('',#1127,2.20833333333334);
#131=VECTOR('',#1138,3.075);
#132=VECTOR('',#1177,2.20833333333334);
#133=VECTOR('',#1190,3.115);
#134=VECTOR('',#1197,3.115);
#135=VECTOR('',#1208,3.1742396265452);
#136=VECTOR('',#1213,3.2492396265452);
#137=VECTOR('',#1220,3.5);
#138=VECTOR('',#1227,3.5);
#139=VECTOR('',#1232,3.41339745962156);
#140=VECTOR('',#1239,3.1742396265452);
#141=VECTOR('',#1246,3.115);
#142=VECTOR('',#1251,3.115);
#143=VECTOR('',#1262,3.115);
#144=VECTOR('',#1271,2.12833333333334);
#145=VECTOR('',#1282,2.18833333333334);
#146=VECTOR('',#1297,2.20833333333334);
#147=VECTOR('',#1302,2.20833333333334);
#148=VECTOR('',#1311,23.75);
#149=VECTOR('',#1318,25.);
#150=VECTOR('',#1327,23.75);
#151=VECTOR('',#1332,25.);
#152=VECTOR('',#1341,24.8806394239305);
#153=VECTOR('',#1348,24.8806394239305);
#154=VECTOR('',#1359,3.50000000000001);
#155=CONICAL_SURFACE('',#902,1.5,0.261799387799153);
#156=CONICAL_SURFACE('',#909,1.59291666666667,0.261799387799151);
#157=CONICAL_SURFACE('',#940,3.075,0.523598775598298);
#158=CONICAL_SURFACE('',#964,3.115,0.523598775598299);
#159=CONICAL_SURFACE('',#972,3.1742396265452,0.349065850398856);
#160=CONICAL_SURFACE('',#975,3.2492396265452,0.785398163397447);
#161=CONICAL_SURFACE('',#977,3.5,0.523598775598296);
#162=CONICAL_SURFACE('',#983,3.41339745962156,0.523598775598297);
#163=CONICAL_SURFACE('',#985,3.1742396265452,0.785398163397448);
#164=CONICAL_SURFACE('',#988,3.115,0.349065850398861);
#165=CONICAL_SURFACE('',#1011,2.20833333333334,0.174532925199437);
#166=CONICAL_SURFACE('',#1017,23.75,0.785398163397448);
#167=CONICAL_SURFACE('',#1024,23.75,0.785398163397448);
#168=CONICAL_SURFACE('',#1031,24.8806394239305,0.634635492421489);
#169=CONICAL_SURFACE('',#1034,24.8806394239305,0.634635492421488);
#170=FACE_OUTER_BOUND('',#231,.T.);
#171=FACE_OUTER_BOUND('',#232,.T.);
#172=FACE_OUTER_BOUND('',#233,.T.);
#173=FACE_OUTER_BOUND('',#234,.T.);
#174=FACE_OUTER_BOUND('',#235,.T.);
#175=FACE_OUTER_BOUND('',#236,.T.);
#176=FACE_OUTER_BOUND('',#237,.T.);
#177=FACE_OUTER_BOUND('',#238,.T.);
#178=FACE_OUTER_BOUND('',#239,.T.);
#179=FACE_OUTER_BOUND('',#240,.T.);
#180=FACE_OUTER_BOUND('',#241,.T.);
#181=FACE_OUTER_BOUND('',#243,.T.);
#182=FACE_OUTER_BOUND('',#245,.T.);
#183=FACE_OUTER_BOUND('',#246,.T.);
#184=FACE_OUTER_BOUND('',#247,.T.);
#185=FACE_OUTER_BOUND('',#248,.T.);
#186=FACE_OUTER_BOUND('',#249,.T.);
#187=FACE_OUTER_BOUND('',#250,.T.);
#188=FACE_OUTER_BOUND('',#252,.T.);
#189=FACE_OUTER_BOUND('',#254,.T.);
#190=FACE_OUTER_BOUND('',#255,.T.);
#191=FACE_OUTER_BOUND('',#256,.T.);
#192=FACE_OUTER_BOUND('',#257,.T.);
#193=FACE_OUTER_BOUND('',#258,.T.);
#194=FACE_OUTER_BOUND('',#259,.T.);
#195=FACE_OUTER_BOUND('',#260,.T.);
#196=FACE_OUTER_BOUND('',#261,.T.);
#197=FACE_OUTER_BOUND('',#262,.T.);
#198=FACE_OUTER_BOUND('',#263,.T.);
#199=FACE_OUTER_BOUND('',#264,.T.);
#200=FACE_OUTER_BOUND('',#265,.T.);
#201=FACE_OUTER_BOUND('',#267,.T.);
#202=FACE_OUTER_BOUND('',#269,.T.);
#203=FACE_OUTER_BOUND('',#270,.T.);
#204=FACE_OUTER_BOUND('',#271,.T.);
#205=FACE_OUTER_BOUND('',#272,.T.);
#206=FACE_OUTER_BOUND('',#273,.T.);
#207=FACE_OUTER_BOUND('',#274,.T.);
#208=FACE_OUTER_BOUND('',#275,.T.);
#209=FACE_OUTER_BOUND('',#276,.T.);
#210=FACE_OUTER_BOUND('',#277,.T.);
#211=FACE_OUTER_BOUND('',#278,.T.);
#212=FACE_OUTER_BOUND('',#279,.T.);
#213=FACE_OUTER_BOUND('',#281,.T.);
#214=FACE_OUTER_BOUND('',#283,.T.);
#215=FACE_OUTER_BOUND('',#284,.T.);
#216=FACE_OUTER_BOUND('',#285,.T.);
#217=FACE_OUTER_BOUND('',#286,.T.);
#218=FACE_OUTER_BOUND('',#287,.T.);
#219=FACE_OUTER_BOUND('',#288,.T.);
#220=FACE_OUTER_BOUND('',#289,.T.);
#221=FACE_OUTER_BOUND('',#291,.T.);
#222=FACE_OUTER_BOUND('',#292,.T.);
#223=FACE_OUTER_BOUND('',#293,.T.);
#224=FACE_OUTER_BOUND('',#295,.T.);
#225=FACE_OUTER_BOUND('',#296,.T.);
#226=FACE_OUTER_BOUND('',#297,.T.);
#227=FACE_OUTER_BOUND('',#299,.T.);
#228=FACE_OUTER_BOUND('',#300,.T.);
#229=FACE_OUTER_BOUND('',#301,.T.);
#230=FACE_OUTER_BOUND('',#302,.T.);
#231=EDGE_LOOP('',(#574,#575,#576,#577));
#232=EDGE_LOOP('',(#578,#579,#580,#581,#582,#583));
#233=EDGE_LOOP('',(#584,#585,#586,#587,#588));
#234=EDGE_LOOP('',(#589,#590,#591,#592));
#235=EDGE_LOOP('',(#593,#594,#595,#596));
#236=EDGE_LOOP('',(#597,#598,#599,#600));
#237=EDGE_LOOP('',(#601,#602,#603,#604));
#238=EDGE_LOOP('',(#605,#606,#607,#608));
#239=EDGE_LOOP('',(#609,#610,#611,#612));
#240=EDGE_LOOP('',(#613,#614,#615,#616,#617));
#241=EDGE_LOOP('',(#618));
#242=EDGE_LOOP('',(#619));
#243=EDGE_LOOP('',(#620));
#244=EDGE_LOOP('',(#621));
#245=EDGE_LOOP('',(#622,#623));
#246=EDGE_LOOP('',(#624,#625,#626,#627));
#247=EDGE_LOOP('',(#628,#629,#630,#631));
#248=EDGE_LOOP('',(#632,#633,#634,#635));
#249=EDGE_LOOP('',(#636,#637,#638,#639));
#250=EDGE_LOOP('',(#640));
#251=EDGE_LOOP('',(#641));
#252=EDGE_LOOP('',(#642));
#253=EDGE_LOOP('',(#643));
#254=EDGE_LOOP('',(#644,#645));
#255=EDGE_LOOP('',(#646,#647));
#256=EDGE_LOOP('',(#648,#649));
#257=EDGE_LOOP('',(#650,#651));
#258=EDGE_LOOP('',(#652,#653));
#259=EDGE_LOOP('',(#654,#655));
#260=EDGE_LOOP('',(#656,#657));
#261=EDGE_LOOP('',(#658,#659,#660,#661));
#262=EDGE_LOOP('',(#662,#663,#664,#665));
#263=EDGE_LOOP('',(#666,#667,#668,#669,#670));
#264=EDGE_LOOP('',(#671,#672,#673,#674,#675));
#265=EDGE_LOOP('',(#676));
#266=EDGE_LOOP('',(#677));
#267=EDGE_LOOP('',(#678));
#268=EDGE_LOOP('',(#679));
#269=EDGE_LOOP('',(#680,#681,#682,#683));
#270=EDGE_LOOP('',(#684,#685,#686,#687));
#271=EDGE_LOOP('',(#688,#689,#690,#691,#692));
#272=EDGE_LOOP('',(#693,#694,#695,#696,#697));
#273=EDGE_LOOP('',(#698,#699,#700,#701));
#274=EDGE_LOOP('',(#702,#703,#704,#705));
#275=EDGE_LOOP('',(#706,#707,#708,#709,#710));
#276=EDGE_LOOP('',(#711,#712,#713,#714,#715));
#277=EDGE_LOOP('',(#716,#717,#718,#719));
#278=EDGE_LOOP('',(#720,#721,#722,#723));
#279=EDGE_LOOP('',(#724));
#280=EDGE_LOOP('',(#725));
#281=EDGE_LOOP('',(#726));
#282=EDGE_LOOP('',(#727));
#283=EDGE_LOOP('',(#728,#729,#730,#731));
#284=EDGE_LOOP('',(#732,#733,#734,#735));
#285=EDGE_LOOP('',(#736,#737,#738,#739));
#286=EDGE_LOOP('',(#740,#741,#742,#743,#744));
#287=EDGE_LOOP('',(#745,#746,#747,#748,#749,#750));
#288=EDGE_LOOP('',(#751,#752,#753,#754,#755));
#289=EDGE_LOOP('',(#756));
#290=EDGE_LOOP('',(#757));
#291=EDGE_LOOP('',(#758,#759,#760,#761));
#292=EDGE_LOOP('',(#762,#763,#764,#765));
#293=EDGE_LOOP('',(#766));
#294=EDGE_LOOP('',(#767));
#295=EDGE_LOOP('',(#768,#769,#770,#771));
#296=EDGE_LOOP('',(#772,#773,#774,#775));
#297=EDGE_LOOP('',(#776));
#298=EDGE_LOOP('',(#777));
#299=EDGE_LOOP('',(#778,#779,#780,#781,#782));
#300=EDGE_LOOP('',(#783,#784,#785,#786,#787));
#301=EDGE_LOOP('',(#788,#789,#790,#791,#792,#793));
#302=EDGE_LOOP('',(#794,#795,#796,#797));
#303=CIRCLE('',#899,2.12833333333334);
#304=CIRCLE('',#900,0.749999999999999);
#305=CIRCLE('',#901,2.12833333333334);
#306=CIRCLE('',#903,1.5);
#307=CIRCLE('',#904,1.59291666666666);
#308=CIRCLE('',#905,1.59291666666666);
#309=CIRCLE('',#906,1.5);
#310=CIRCLE('',#908,1.5);
#311=CIRCLE('',#910,1.59291666666667);
#312=CIRCLE('',#912,0.0961944117631038);
#313=CIRCLE('',#913,1.68583333333333);
#314=CIRCLE('',#915,2.03213892157023);
#315=CIRCLE('',#916,0.0961944117631035);
#316=CIRCLE('',#917,2.12833333333334);
#317=CIRCLE('',#920,2.12833333333334);
#318=CIRCLE('',#922,0.0961944117631035);
#319=CIRCLE('',#923,2.03213892157023);
#320=CIRCLE('',#925,1.68583333333333);
#321=CIRCLE('',#926,0.0961944117631034);
#322=CIRCLE('',#930,0.75);
#323=CIRCLE('',#932,3.115);
#324=CIRCLE('',#933,3.115);
#325=CIRCLE('',#935,2.20833333333334);
#326=CIRCLE('',#936,2.20833333333334);
#327=CIRCLE('',#938,2.22433333333334);
#328=CIRCLE('',#939,0.0159999999999993);
#329=CIRCLE('',#941,3.075);
#330=CIRCLE('',#945,0.749999999999999);
#331=CIRCLE('',#947,0.75);
#332=CIRCLE('',#949,0.749999999999999);
#333=CIRCLE('',#951,0.75);
#334=CIRCLE('',#953,0.749999999999999);
#335=CIRCLE('',#955,0.75);
#336=CIRCLE('',#957,0.749999999999999);
#337=CIRCLE('',#959,2.20833333333334);
#338=CIRCLE('',#960,2.20833333333334);
#339=CIRCLE('',#962,0.0159999999999997);
#340=CIRCLE('',#963,2.22433333333334);
#341=CIRCLE('',#965,3.115);
#342=CIRCLE('',#966,3.075);
#343=CIRCLE('',#967,3.115);
#344=CIRCLE('',#969,3.115);
#345=CIRCLE('',#973,3.115);
#346=CIRCLE('',#974,3.1742396265452);
#347=CIRCLE('',#976,3.2492396265452);
#348=CIRCLE('',#978,3.5);
#349=CIRCLE('',#979,3.41339745962156);
#350=CIRCLE('',#980,3.5);
#351=CIRCLE('',#982,3.5);
#352=CIRCLE('',#984,3.41339745962156);
#353=CIRCLE('',#986,3.1742396265452);
#354=CIRCLE('',#987,3.2492396265452);
#355=CIRCLE('',#989,3.115);
#356=CIRCLE('',#990,3.115);
#357=CIRCLE('',#992,3.115);
#358=CIRCLE('',#994,0.749999999999999);
#359=CIRCLE('',#995,3.115);
#360=CIRCLE('',#1000,2.12833333333334);
#361=CIRCLE('',#1001,2.12833333333334);
#362=CIRCLE('',#1003,0.0300000000000001);
#363=CIRCLE('',#1004,2.18833333333334);
#364=CIRCLE('',#1006,2.18833333333334);
#365=CIRCLE('',#1008,0.00832676939193702);
#366=CIRCLE('',#1009,2.20486036978);
#367=CIRCLE('',#1010,2.20486036978);
#368=CIRCLE('',#1012,2.20833333333334);
#369=CIRCLE('',#1013,2.20833333333334);
#370=CIRCLE('',#1015,2.20833333333334);
#371=CIRCLE('',#1018,22.5);
#372=CIRCLE('',#1019,25.);
#373=CIRCLE('',#1021,25.);
#374=CIRCLE('',#1023,3.50000000000001);
#375=CIRCLE('',#1025,22.5);
#376=CIRCLE('',#1026,25.);
#377=CIRCLE('',#1028,25.);
#378=CIRCLE('',#1030,3.50000000000001);
#379=CIRCLE('',#1032,24.7612788478609);
#380=CIRCLE('',#1033,24.7612788478609);
#381=CIRCLE('',#1035,24.7612788478609);
#382=CIRCLE('',#1036,24.7612788478609);
#383=CIRCLE('',#1038,1.25);
#384=VERTEX_POINT('',#1365);
#385=VERTEX_POINT('',#1367);
#386=VERTEX_POINT('',#1371);
#387=VERTEX_POINT('',#1372);
#388=VERTEX_POINT('',#1374);
#389=VERTEX_POINT('',#1376);
#390=VERTEX_POINT('',#1381);
#391=VERTEX_POINT('',#1385);
#392=VERTEX_POINT('',#1389);
#393=VERTEX_POINT('',#1393);
#394=VERTEX_POINT('',#1395);
#395=VERTEX_POINT('',#1401);
#396=VERTEX_POINT('',#1405);
#397=VERTEX_POINT('',#1409);
#398=VERTEX_POINT('',#1415);
#399=VERTEX_POINT('',#1416);
#400=VERTEX_POINT('',#1419);
#401=VERTEX_POINT('',#1421);
#402=VERTEX_POINT('',#1425);
#403=VERTEX_POINT('',#1427);
#404=VERTEX_POINT('',#1431);
#405=VERTEX_POINT('',#1435);
#406=VERTEX_POINT('',#1441);
#407=VERTEX_POINT('',#1442);
#408=VERTEX_POINT('',#1445);
#409=VERTEX_POINT('',#1446);
#410=VERTEX_POINT('',#1449);
#411=VERTEX_POINT('',#1450);
#412=VERTEX_POINT('',#1453);
#413=VERTEX_POINT('',#1454);
#414=VERTEX_POINT('',#1457);
#415=VERTEX_POINT('',#1458);
#416=VERTEX_POINT('',#1461);
#417=VERTEX_POINT('',#1462);
#418=VERTEX_POINT('',#1465);
#419=VERTEX_POINT('',#1466);
#420=VERTEX_POINT('',#1469);
#421=VERTEX_POINT('',#1471);
#422=VERTEX_POINT('',#1475);
#423=VERTEX_POINT('',#1479);
#424=VERTEX_POINT('',#1480);
#425=VERTEX_POINT('',#1482);
#426=VERTEX_POINT('',#1487);
#427=VERTEX_POINT('',#1493);
#428=VERTEX_POINT('',#1495);
#429=VERTEX_POINT('',#1499);
#430=VERTEX_POINT('',#1503);
#431=VERTEX_POINT('',#1504);
#432=VERTEX_POINT('',#1506);
#433=VERTEX_POINT('',#1511);
#434=VERTEX_POINT('',#1515);
#435=VERTEX_POINT('',#1519);
#436=VERTEX_POINT('',#1521);
#437=VERTEX_POINT('',#1525);
#438=VERTEX_POINT('',#1526);
#439=VERTEX_POINT('',#1531);
#440=VERTEX_POINT('',#1535);
#441=VERTEX_POINT('',#1543);
#442=VERTEX_POINT('',#1545);
#443=VERTEX_POINT('',#1549);
#444=VERTEX_POINT('',#1553);
#445=VERTEX_POINT('',#1557);
#446=VERTEX_POINT('',#1559);
#447=VERTEX_POINT('',#1563);
#448=VERTEX_POINT('',#1564);
#449=VERTEX_POINT('',#1569);
#450=VERTEX_POINT('',#1574);
#451=VERTEX_POINT('',#1576);
#452=VERTEX_POINT('',#1580);
#453=VERTEX_POINT('',#1584);
#454=VERTEX_POINT('',#1587);
#455=VERTEX_POINT('',#1589);
#456=VERTEX_POINT('',#1593);
#457=VERTEX_POINT('',#1597);
#458=VERTEX_POINT('',#1600);
#459=VERTEX_POINT('',#1602);
#460=VERTEX_POINT('',#1606);
#461=VERTEX_POINT('',#1608);
#462=EDGE_CURVE('',#384,#384,#303,.T.);
#463=EDGE_CURVE('',#384,#385,#304,.T.);
#464=EDGE_CURVE('',#385,#385,#305,.T.);
#465=EDGE_CURVE('',#386,#387,#306,.T.);
#466=EDGE_CURVE('',#387,#388,#93,.T.);
#467=EDGE_CURVE('',#389,#388,#307,.T.);
#468=EDGE_CURVE('',#388,#389,#308,.T.);
#469=EDGE_CURVE('',#387,#386,#309,.T.);
#470=EDGE_CURVE('',#386,#390,#94,.T.);
#471=EDGE_CURVE('',#390,#390,#310,.T.);
#472=EDGE_CURVE('',#390,#391,#95,.T.);
#473=EDGE_CURVE('',#391,#391,#311,.T.);
#474=EDGE_CURVE('',#391,#392,#312,.T.);
#475=EDGE_CURVE('',#392,#392,#313,.T.);
#476=EDGE_CURVE('',#393,#393,#314,.T.);
#477=EDGE_CURVE('',#393,#394,#315,.T.);
#478=EDGE_CURVE('',#394,#394,#316,.T.);
#479=EDGE_CURVE('',#394,#384,#96,.T.);
#480=EDGE_CURVE('',#385,#395,#97,.T.);
#481=EDGE_CURVE('',#395,#395,#317,.T.);
#482=EDGE_CURVE('',#395,#396,#318,.T.);
#483=EDGE_CURVE('',#396,#396,#319,.T.);
#484=EDGE_CURVE('',#397,#397,#320,.T.);
#485=EDGE_CURVE('',#397,#389,#321,.T.);
#486=EDGE_CURVE('',#398,#399,#322,.T.);
#487=EDGE_CURVE('',#400,#400,#323,.T.);
#488=EDGE_CURVE('',#400,#401,#98,.T.);
#489=EDGE_CURVE('',#401,#401,#324,.T.);
#490=EDGE_CURVE('',#402,#402,#325,.T.);
#491=EDGE_CURVE('',#402,#403,#99,.T.);
#492=EDGE_CURVE('',#403,#403,#326,.T.);
#493=EDGE_CURVE('',#404,#404,#327,.T.);
#494=EDGE_CURVE('',#404,#402,#328,.T.);
#495=EDGE_CURVE('',#401,#405,#100,.T.);
#496=EDGE_CURVE('',#405,#405,#329,.T.);
#497=EDGE_CURVE('',#406,#407,#330,.T.);
#498=EDGE_CURVE('',#408,#409,#331,.T.);
#499=EDGE_CURVE('',#410,#411,#332,.T.);
#500=EDGE_CURVE('',#412,#413,#333,.T.);
#501=EDGE_CURVE('',#414,#415,#334,.T.);
#502=EDGE_CURVE('',#416,#417,#335,.T.);
#503=EDGE_CURVE('',#418,#419,#336,.T.);
#504=EDGE_CURVE('',#420,#420,#337,.T.);
#505=EDGE_CURVE('',#420,#421,#101,.T.);
#506=EDGE_CURVE('',#421,#421,#338,.T.);
#507=EDGE_CURVE('',#421,#422,#339,.T.);
#508=EDGE_CURVE('',#422,#422,#340,.T.);
#509=EDGE_CURVE('',#423,#424,#341,.T.);
#510=EDGE_CURVE('',#424,#425,#102,.T.);
#511=EDGE_CURVE('',#425,#425,#342,.T.);
#512=EDGE_CURVE('',#424,#423,#343,.T.);
#513=EDGE_CURVE('',#423,#426,#103,.T.);
#514=EDGE_CURVE('',#426,#426,#344,.T.);
#515=EDGE_CURVE('',#427,#427,#345,.T.);
#516=EDGE_CURVE('',#427,#428,#104,.T.);
#517=EDGE_CURVE('',#428,#428,#346,.T.);
#518=EDGE_CURVE('',#428,#429,#105,.T.);
#519=EDGE_CURVE('',#429,#429,#347,.T.);
#520=EDGE_CURVE('',#430,#431,#348,.T.);
#521=EDGE_CURVE('',#431,#432,#106,.T.);
#522=EDGE_CURVE('',#432,#432,#349,.T.);
#523=EDGE_CURVE('',#431,#430,#350,.T.);
#524=EDGE_CURVE('',#430,#433,#107,.T.);
#525=EDGE_CURVE('',#433,#433,#351,.T.);
#526=EDGE_CURVE('',#433,#434,#108,.T.);
#527=EDGE_CURVE('',#434,#434,#352,.T.);
#528=EDGE_CURVE('',#435,#435,#353,.T.);
#529=EDGE_CURVE('',#435,#436,#109,.T.);
#530=EDGE_CURVE('',#436,#436,#354,.T.);
#531=EDGE_CURVE('',#437,#438,#355,.T.);
#532=EDGE_CURVE('',#438,#435,#110,.T.);
#533=EDGE_CURVE('',#438,#437,#356,.T.);
#534=EDGE_CURVE('',#437,#439,#111,.T.);
#535=EDGE_CURVE('',#439,#439,#357,.T.);
#536=EDGE_CURVE('',#439,#440,#358,.T.);
#537=EDGE_CURVE('',#440,#440,#359,.T.);
#538=EDGE_CURVE('',#440,#427,#112,.T.);
#539=EDGE_CURVE('',#441,#441,#360,.T.);
#540=EDGE_CURVE('',#441,#442,#113,.T.);
#541=EDGE_CURVE('',#442,#442,#361,.T.);
#542=EDGE_CURVE('',#442,#443,#362,.T.);
#543=EDGE_CURVE('',#443,#443,#363,.T.);
#544=EDGE_CURVE('',#443,#444,#114,.T.);
#545=EDGE_CURVE('',#444,#444,#364,.T.);
#546=EDGE_CURVE('',#444,#445,#365,.T.);
#547=EDGE_CURVE('',#445,#446,#366,.T.);
#548=EDGE_CURVE('',#446,#445,#367,.T.);
#549=EDGE_CURVE('',#447,#448,#368,.T.);
#550=EDGE_CURVE('',#448,#446,#115,.T.);
#551=EDGE_CURVE('',#448,#447,#369,.T.);
#552=EDGE_CURVE('',#447,#449,#116,.T.);
#553=EDGE_CURVE('',#449,#449,#370,.T.);
#554=EDGE_CURVE('',#450,#450,#371,.T.);
#555=EDGE_CURVE('',#450,#451,#117,.T.);
#556=EDGE_CURVE('',#451,#451,#372,.T.);
#557=EDGE_CURVE('',#452,#452,#373,.T.);
#558=EDGE_CURVE('',#452,#451,#118,.T.);
#559=EDGE_CURVE('',#453,#453,#374,.T.);
#560=EDGE_CURVE('',#454,#454,#375,.T.);
#561=EDGE_CURVE('',#454,#455,#119,.T.);
#562=EDGE_CURVE('',#455,#455,#376,.T.);
#563=EDGE_CURVE('',#455,#456,#120,.T.);
#564=EDGE_CURVE('',#456,#456,#377,.T.);
#565=EDGE_CURVE('',#457,#457,#378,.T.);
#566=EDGE_CURVE('',#452,#458,#121,.T.);
#567=EDGE_CURVE('',#458,#459,#379,.T.);
#568=EDGE_CURVE('',#459,#458,#380,.T.);
#569=EDGE_CURVE('',#456,#460,#122,.T.);
#570=EDGE_CURVE('',#460,#461,#381,.T.);
#571=EDGE_CURVE('',#461,#460,#382,.T.);
#572=EDGE_CURVE('',#459,#461,#383,.T.);
#573=EDGE_CURVE('',#457,#453,#123,.T.);
#574=ORIENTED_EDGE('',*,*,#462,.F.);
#575=ORIENTED_EDGE('',*,*,#463,.T.);
#576=ORIENTED_EDGE('',*,*,#464,.T.);
#577=ORIENTED_EDGE('',*,*,#463,.F.);
#578=ORIENTED_EDGE('',*,*,#465,.T.);
#579=ORIENTED_EDGE('',*,*,#466,.T.);
#580=ORIENTED_EDGE('',*,*,#467,.F.);
#581=ORIENTED_EDGE('',*,*,#468,.F.);
#582=ORIENTED_EDGE('',*,*,#466,.F.);
#583=ORIENTED_EDGE('',*,*,#469,.T.);
#584=ORIENTED_EDGE('',*,*,#465,.F.);
#585=ORIENTED_EDGE('',*,*,#470,.T.);
#586=ORIENTED_EDGE('',*,*,#471,.T.);
#587=ORIENTED_EDGE('',*,*,#470,.F.);
#588=ORIENTED_EDGE('',*,*,#469,.F.);
#589=ORIENTED_EDGE('',*,*,#471,.F.);
#590=ORIENTED_EDGE('',*,*,#472,.T.);
#591=ORIENTED_EDGE('',*,*,#473,.T.);
#592=ORIENTED_EDGE('',*,*,#472,.F.);
#593=ORIENTED_EDGE('',*,*,#473,.F.);
#594=ORIENTED_EDGE('',*,*,#474,.T.);
#595=ORIENTED_EDGE('',*,*,#475,.T.);
#596=ORIENTED_EDGE('',*,*,#474,.F.);
#597=ORIENTED_EDGE('',*,*,#476,.F.);
#598=ORIENTED_EDGE('',*,*,#477,.T.);
#599=ORIENTED_EDGE('',*,*,#478,.T.);
#600=ORIENTED_EDGE('',*,*,#477,.F.);
#601=ORIENTED_EDGE('',*,*,#478,.F.);
#602=ORIENTED_EDGE('',*,*,#479,.T.);
#603=ORIENTED_EDGE('',*,*,#462,.T.);
#604=ORIENTED_EDGE('',*,*,#479,.F.);
#605=ORIENTED_EDGE('',*,*,#464,.F.);
#606=ORIENTED_EDGE('',*,*,#480,.T.);
#607=ORIENTED_EDGE('',*,*,#481,.T.);
#608=ORIENTED_EDGE('',*,*,#480,.F.);
#609=ORIENTED_EDGE('',*,*,#481,.F.);
#610=ORIENTED_EDGE('',*,*,#482,.T.);
#611=ORIENTED_EDGE('',*,*,#483,.T.);
#612=ORIENTED_EDGE('',*,*,#482,.F.);
#613=ORIENTED_EDGE('',*,*,#484,.F.);
#614=ORIENTED_EDGE('',*,*,#485,.T.);
#615=ORIENTED_EDGE('',*,*,#467,.T.);
#616=ORIENTED_EDGE('',*,*,#468,.T.);
#617=ORIENTED_EDGE('',*,*,#485,.F.);
#618=ORIENTED_EDGE('',*,*,#483,.F.);
#619=ORIENTED_EDGE('',*,*,#484,.T.);
#620=ORIENTED_EDGE('',*,*,#476,.T.);
#621=ORIENTED_EDGE('',*,*,#475,.F.);
#622=ORIENTED_EDGE('',*,*,#486,.T.);
#623=ORIENTED_EDGE('',*,*,#486,.F.);
#624=ORIENTED_EDGE('',*,*,#487,.F.);
#625=ORIENTED_EDGE('',*,*,#488,.T.);
#626=ORIENTED_EDGE('',*,*,#489,.T.);
#627=ORIENTED_EDGE('',*,*,#488,.F.);
#628=ORIENTED_EDGE('',*,*,#490,.F.);
#629=ORIENTED_EDGE('',*,*,#491,.T.);
#630=ORIENTED_EDGE('',*,*,#492,.T.);
#631=ORIENTED_EDGE('',*,*,#491,.F.);
#632=ORIENTED_EDGE('',*,*,#493,.F.);
#633=ORIENTED_EDGE('',*,*,#494,.T.);
#634=ORIENTED_EDGE('',*,*,#490,.T.);
#635=ORIENTED_EDGE('',*,*,#494,.F.);
#636=ORIENTED_EDGE('',*,*,#489,.F.);
#637=ORIENTED_EDGE('',*,*,#495,.T.);
#638=ORIENTED_EDGE('',*,*,#496,.T.);
#639=ORIENTED_EDGE('',*,*,#495,.F.);
#640=ORIENTED_EDGE('',*,*,#496,.F.);
#641=ORIENTED_EDGE('',*,*,#493,.T.);
#642=ORIENTED_EDGE('',*,*,#487,.T.);
#643=ORIENTED_EDGE('',*,*,#492,.F.);
#644=ORIENTED_EDGE('',*,*,#497,.T.);
#645=ORIENTED_EDGE('',*,*,#497,.F.);
#646=ORIENTED_EDGE('',*,*,#498,.T.);
#647=ORIENTED_EDGE('',*,*,#498,.F.);
#648=ORIENTED_EDGE('',*,*,#499,.T.);
#649=ORIENTED_EDGE('',*,*,#499,.F.);
#650=ORIENTED_EDGE('',*,*,#500,.T.);
#651=ORIENTED_EDGE('',*,*,#500,.F.);
#652=ORIENTED_EDGE('',*,*,#501,.T.);
#653=ORIENTED_EDGE('',*,*,#501,.F.);
#654=ORIENTED_EDGE('',*,*,#502,.T.);
#655=ORIENTED_EDGE('',*,*,#502,.F.);
#656=ORIENTED_EDGE('',*,*,#503,.T.);
#657=ORIENTED_EDGE('',*,*,#503,.F.);
#658=ORIENTED_EDGE('',*,*,#504,.F.);
#659=ORIENTED_EDGE('',*,*,#505,.T.);
#660=ORIENTED_EDGE('',*,*,#506,.T.);
#661=ORIENTED_EDGE('',*,*,#505,.F.);
#662=ORIENTED_EDGE('',*,*,#506,.F.);
#663=ORIENTED_EDGE('',*,*,#507,.T.);
#664=ORIENTED_EDGE('',*,*,#508,.T.);
#665=ORIENTED_EDGE('',*,*,#507,.F.);
#666=ORIENTED_EDGE('',*,*,#509,.T.);
#667=ORIENTED_EDGE('',*,*,#510,.T.);
#668=ORIENTED_EDGE('',*,*,#511,.F.);
#669=ORIENTED_EDGE('',*,*,#510,.F.);
#670=ORIENTED_EDGE('',*,*,#512,.T.);
#671=ORIENTED_EDGE('',*,*,#509,.F.);
#672=ORIENTED_EDGE('',*,*,#513,.T.);
#673=ORIENTED_EDGE('',*,*,#514,.T.);
#674=ORIENTED_EDGE('',*,*,#513,.F.);
#675=ORIENTED_EDGE('',*,*,#512,.F.);
#676=ORIENTED_EDGE('',*,*,#514,.F.);
#677=ORIENTED_EDGE('',*,*,#504,.T.);
#678=ORIENTED_EDGE('',*,*,#511,.T.);
#679=ORIENTED_EDGE('',*,*,#508,.F.);
#680=ORIENTED_EDGE('',*,*,#515,.F.);
#681=ORIENTED_EDGE('',*,*,#516,.T.);
#682=ORIENTED_EDGE('',*,*,#517,.T.);
#683=ORIENTED_EDGE('',*,*,#516,.F.);
#684=ORIENTED_EDGE('',*,*,#517,.F.);
#685=ORIENTED_EDGE('',*,*,#518,.T.);
#686=ORIENTED_EDGE('',*,*,#519,.T.);
#687=ORIENTED_EDGE('',*,*,#518,.F.);
#688=ORIENTED_EDGE('',*,*,#520,.T.);
#689=ORIENTED_EDGE('',*,*,#521,.T.);
#690=ORIENTED_EDGE('',*,*,#522,.F.);
#691=ORIENTED_EDGE('',*,*,#521,.F.);
#692=ORIENTED_EDGE('',*,*,#523,.T.);
#693=ORIENTED_EDGE('',*,*,#520,.F.);
#694=ORIENTED_EDGE('',*,*,#524,.T.);
#695=ORIENTED_EDGE('',*,*,#525,.T.);
#696=ORIENTED_EDGE('',*,*,#524,.F.);
#697=ORIENTED_EDGE('',*,*,#523,.F.);
#698=ORIENTED_EDGE('',*,*,#525,.F.);
#699=ORIENTED_EDGE('',*,*,#526,.T.);
#700=ORIENTED_EDGE('',*,*,#527,.T.);
#701=ORIENTED_EDGE('',*,*,#526,.F.);
#702=ORIENTED_EDGE('',*,*,#528,.T.);
#703=ORIENTED_EDGE('',*,*,#529,.T.);
#704=ORIENTED_EDGE('',*,*,#530,.F.);
#705=ORIENTED_EDGE('',*,*,#529,.F.);
#706=ORIENTED_EDGE('',*,*,#531,.T.);
#707=ORIENTED_EDGE('',*,*,#532,.T.);
#708=ORIENTED_EDGE('',*,*,#528,.F.);
#709=ORIENTED_EDGE('',*,*,#532,.F.);
#710=ORIENTED_EDGE('',*,*,#533,.T.);
#711=ORIENTED_EDGE('',*,*,#531,.F.);
#712=ORIENTED_EDGE('',*,*,#534,.T.);
#713=ORIENTED_EDGE('',*,*,#535,.T.);
#714=ORIENTED_EDGE('',*,*,#534,.F.);
#715=ORIENTED_EDGE('',*,*,#533,.F.);
#716=ORIENTED_EDGE('',*,*,#535,.F.);
#717=ORIENTED_EDGE('',*,*,#536,.T.);
#718=ORIENTED_EDGE('',*,*,#537,.T.);
#719=ORIENTED_EDGE('',*,*,#536,.F.);
#720=ORIENTED_EDGE('',*,*,#537,.F.);
#721=ORIENTED_EDGE('',*,*,#538,.T.);
#722=ORIENTED_EDGE('',*,*,#515,.T.);
#723=ORIENTED_EDGE('',*,*,#538,.F.);
#724=ORIENTED_EDGE('',*,*,#527,.F.);
#725=ORIENTED_EDGE('',*,*,#530,.T.);
#726=ORIENTED_EDGE('',*,*,#522,.T.);
#727=ORIENTED_EDGE('',*,*,#519,.F.);
#728=ORIENTED_EDGE('',*,*,#539,.F.);
#729=ORIENTED_EDGE('',*,*,#540,.T.);
#730=ORIENTED_EDGE('',*,*,#541,.T.);
#731=ORIENTED_EDGE('',*,*,#540,.F.);
#732=ORIENTED_EDGE('',*,*,#541,.F.);
#733=ORIENTED_EDGE('',*,*,#542,.T.);
#734=ORIENTED_EDGE('',*,*,#543,.T.);
#735=ORIENTED_EDGE('',*,*,#542,.F.);
#736=ORIENTED_EDGE('',*,*,#543,.F.);
#737=ORIENTED_EDGE('',*,*,#544,.T.);
#738=ORIENTED_EDGE('',*,*,#545,.T.);
#739=ORIENTED_EDGE('',*,*,#544,.F.);
#740=ORIENTED_EDGE('',*,*,#545,.F.);
#741=ORIENTED_EDGE('',*,*,#546,.T.);
#742=ORIENTED_EDGE('',*,*,#547,.T.);
#743=ORIENTED_EDGE('',*,*,#548,.T.);
#744=ORIENTED_EDGE('',*,*,#546,.F.);
#745=ORIENTED_EDGE('',*,*,#549,.T.);
#746=ORIENTED_EDGE('',*,*,#550,.T.);
#747=ORIENTED_EDGE('',*,*,#547,.F.);
#748=ORIENTED_EDGE('',*,*,#548,.F.);
#749=ORIENTED_EDGE('',*,*,#550,.F.);
#750=ORIENTED_EDGE('',*,*,#551,.T.);
#751=ORIENTED_EDGE('',*,*,#549,.F.);
#752=ORIENTED_EDGE('',*,*,#552,.T.);
#753=ORIENTED_EDGE('',*,*,#553,.T.);
#754=ORIENTED_EDGE('',*,*,#552,.F.);
#755=ORIENTED_EDGE('',*,*,#551,.F.);
#756=ORIENTED_EDGE('',*,*,#553,.F.);
#757=ORIENTED_EDGE('',*,*,#539,.T.);
#758=ORIENTED_EDGE('',*,*,#554,.T.);
#759=ORIENTED_EDGE('',*,*,#555,.T.);
#760=ORIENTED_EDGE('',*,*,#556,.T.);
#761=ORIENTED_EDGE('',*,*,#555,.F.);
#762=ORIENTED_EDGE('',*,*,#557,.F.);
#763=ORIENTED_EDGE('',*,*,#558,.T.);
#764=ORIENTED_EDGE('',*,*,#556,.F.);
#765=ORIENTED_EDGE('',*,*,#558,.F.);
#766=ORIENTED_EDGE('',*,*,#554,.F.);
#767=ORIENTED_EDGE('',*,*,#559,.T.);
#768=ORIENTED_EDGE('',*,*,#560,.T.);
#769=ORIENTED_EDGE('',*,*,#561,.T.);
#770=ORIENTED_EDGE('',*,*,#562,.T.);
#771=ORIENTED_EDGE('',*,*,#561,.F.);
#772=ORIENTED_EDGE('',*,*,#562,.F.);
#773=ORIENTED_EDGE('',*,*,#563,.T.);
#774=ORIENTED_EDGE('',*,*,#564,.F.);
#775=ORIENTED_EDGE('',*,*,#563,.F.);
#776=ORIENTED_EDGE('',*,*,#560,.F.);
#777=ORIENTED_EDGE('',*,*,#565,.T.);
#778=ORIENTED_EDGE('',*,*,#557,.T.);
#779=ORIENTED_EDGE('',*,*,#566,.T.);
#780=ORIENTED_EDGE('',*,*,#567,.T.);
#781=ORIENTED_EDGE('',*,*,#568,.T.);
#782=ORIENTED_EDGE('',*,*,#566,.F.);
#783=ORIENTED_EDGE('',*,*,#564,.T.);
#784=ORIENTED_EDGE('',*,*,#569,.T.);
#785=ORIENTED_EDGE('',*,*,#570,.T.);
#786=ORIENTED_EDGE('',*,*,#571,.T.);
#787=ORIENTED_EDGE('',*,*,#569,.F.);
#788=ORIENTED_EDGE('',*,*,#567,.F.);
#789=ORIENTED_EDGE('',*,*,#568,.F.);
#790=ORIENTED_EDGE('',*,*,#572,.T.);
#791=ORIENTED_EDGE('',*,*,#570,.F.);
#792=ORIENTED_EDGE('',*,*,#571,.F.);
#793=ORIENTED_EDGE('',*,*,#572,.F.);
#794=ORIENTED_EDGE('',*,*,#565,.F.);
#795=ORIENTED_EDGE('',*,*,#573,.T.);
#796=ORIENTED_EDGE('',*,*,#559,.F.);
#797=ORIENTED_EDGE('',*,*,#573,.F.);
#798=TOROIDAL_SURFACE('',#898,2.62166666666667,0.749999999999999);
#799=TOROIDAL_SURFACE('',#911,1.68583333333333,0.0961944117631038);
#800=TOROIDAL_SURFACE('',#914,2.03213892157023,0.0961944117631035);
#801=TOROIDAL_SURFACE('',#921,2.03213892157023,0.0961944117631035);
#802=TOROIDAL_SURFACE('',#924,1.68583333333333,0.0961944117631034);
#803=TOROIDAL_SURFACE('',#937,2.22433333333334,0.0159999999999993);
#804=TOROIDAL_SURFACE('',#961,2.22433333333334,0.0159999999999997);
#805=TOROIDAL_SURFACE('',#993,2.62166666666667,0.749999999999999);
#806=TOROIDAL_SURFACE('',#1002,2.15833333333334,0.0300000000000001);
#807=TOROIDAL_SURFACE('',#1007,2.19666010272527,0.00832676939193702);
#808=TOROIDAL_SURFACE('',#1037,25.25,1.25);
#809=ADVANCED_FACE('',(#170),#798,.F.);
#810=ADVANCED_FACE('',(#171),#155,.F.);
#811=ADVANCED_FACE('',(#172),#77,.F.);
#812=ADVANCED_FACE('',(#173),#156,.F.);
#813=ADVANCED_FACE('',(#174),#799,.T.);
#814=ADVANCED_FACE('',(#175),#800,.T.);
#815=ADVANCED_FACE('',(#176),#78,.T.);
#816=ADVANCED_FACE('',(#177),#79,.T.);
#817=ADVANCED_FACE('',(#178),#801,.T.);
#818=ADVANCED_FACE('',(#179),#802,.T.);
#819=ADVANCED_FACE('',(#180,#55),#66,.F.);
#820=ADVANCED_FACE('',(#181,#56),#67,.F.);
#821=ADVANCED_FACE('',(#182),#19,.T.);
#822=ADVANCED_FACE('',(#183),#80,.T.);
#823=ADVANCED_FACE('',(#184),#81,.F.);
#824=ADVANCED_FACE('',(#185),#803,.T.);
#825=ADVANCED_FACE('',(#186),#157,.T.);
#826=ADVANCED_FACE('',(#187,#57),#68,.F.);
#827=ADVANCED_FACE('',(#188,#58),#69,.F.);
#828=ADVANCED_FACE('',(#189),#20,.T.);
#829=ADVANCED_FACE('',(#190),#21,.T.);
#830=ADVANCED_FACE('',(#191),#22,.T.);
#831=ADVANCED_FACE('',(#192),#23,.T.);
#832=ADVANCED_FACE('',(#193),#24,.T.);
#833=ADVANCED_FACE('',(#194),#25,.T.);
#834=ADVANCED_FACE('',(#195),#26,.T.);
#835=ADVANCED_FACE('',(#196),#82,.F.);
#836=ADVANCED_FACE('',(#197),#804,.T.);
#837=ADVANCED_FACE('',(#198),#158,.T.);
#838=ADVANCED_FACE('',(#199),#83,.T.);
#839=ADVANCED_FACE('',(#200,#59),#70,.F.);
#840=ADVANCED_FACE('',(#201,#60),#71,.F.);
#841=ADVANCED_FACE('',(#202),#159,.F.);
#842=ADVANCED_FACE('',(#203),#160,.F.);
#843=ADVANCED_FACE('',(#204),#161,.T.);
#844=ADVANCED_FACE('',(#205),#84,.T.);
#845=ADVANCED_FACE('',(#206),#162,.T.);
#846=ADVANCED_FACE('',(#207),#163,.F.);
#847=ADVANCED_FACE('',(#208),#164,.F.);
#848=ADVANCED_FACE('',(#209),#85,.F.);
#849=ADVANCED_FACE('',(#210),#805,.F.);
#850=ADVANCED_FACE('',(#211),#86,.F.);
#851=ADVANCED_FACE('',(#212,#61),#72,.F.);
#852=ADVANCED_FACE('',(#213,#62),#73,.F.);
#853=ADVANCED_FACE('',(#214),#87,.F.);
#854=ADVANCED_FACE('',(#215),#806,.T.);
#855=ADVANCED_FACE('',(#216),#88,.T.);
#856=ADVANCED_FACE('',(#217),#807,.T.);
#857=ADVANCED_FACE('',(#218),#165,.T.);
#858=ADVANCED_FACE('',(#219),#89,.T.);
#859=ADVANCED_FACE('',(#220,#63),#74,.F.);
#860=ADVANCED_FACE('',(#221),#166,.T.);
#861=ADVANCED_FACE('',(#222),#90,.T.);
#862=ADVANCED_FACE('',(#223,#64),#75,.F.);
#863=ADVANCED_FACE('',(#224),#167,.T.);
#864=ADVANCED_FACE('',(#225),#91,.T.);
#865=ADVANCED_FACE('',(#226,#65),#76,.T.);
#866=ADVANCED_FACE('',(#227),#168,.T.);
#867=ADVANCED_FACE('',(#228),#169,.T.);
#868=ADVANCED_FACE('',(#229),#808,.F.);
#869=ADVANCED_FACE('',(#230),#92,.F.);
#870=CLOSED_SHELL('',(#809,#810,#811,#812,#813,#814,#815,#816,#817,#818,
#819,#820));
#871=CLOSED_SHELL('',(#821));
#872=CLOSED_SHELL('',(#822,#823,#824,#825,#826,#827));
#873=CLOSED_SHELL('',(#828));
#874=CLOSED_SHELL('',(#829));
#875=CLOSED_SHELL('',(#830));
#876=CLOSED_SHELL('',(#831));
#877=CLOSED_SHELL('',(#832));
#878=CLOSED_SHELL('',(#833));
#879=CLOSED_SHELL('',(#834));
#880=CLOSED_SHELL('',(#835,#836,#837,#838,#839,#840));
#881=CLOSED_SHELL('',(#841,#842,#843,#844,#845,#846,#847,#848,#849,#850,
#851,#852));
#882=CLOSED_SHELL('',(#853,#854,#855,#856,#857,#858,#859));
#883=CLOSED_SHELL('',(#860,#861,#862,#863,#864,#865,#866,#867,#868,#869));
#884=DERIVED_UNIT_ELEMENT(#886,1.);
#885=DERIVED_UNIT_ELEMENT(#1623,-3.);
#886=(
MASS_UNIT()
NAMED_UNIT(*)
SI_UNIT(.KILO.,.GRAM.)
);
#887=DERIVED_UNIT((#884,#885));
#888=MEASURE_REPRESENTATION_ITEM('density measure',
POSITIVE_RATIO_MEASURE(7850.),#887);
#889=PROPERTY_DEFINITION_REPRESENTATION(#894,#891);
#890=PROPERTY_DEFINITION_REPRESENTATION(#895,#892);
#891=REPRESENTATION('material name',(#893),#1620);
#892=REPRESENTATION('density',(#888),#1620);
#893=DESCRIPTIVE_REPRESENTATION_ITEM('Steel','Steel');
#894=PROPERTY_DEFINITION('material property','material name',#1635);
#895=PROPERTY_DEFINITION('material property','density of part',#1635);
#896=AXIS2_PLACEMENT_3D('',#1362,#1041,#1042);
#897=AXIS2_PLACEMENT_3D('',#1363,#1043,#1044);
#898=AXIS2_PLACEMENT_3D('',#1364,#1045,#1046);
#899=AXIS2_PLACEMENT_3D('',#1366,#1047,#1048);
#900=AXIS2_PLACEMENT_3D('',#1368,#1049,#1050);
#901=AXIS2_PLACEMENT_3D('',#1369,#1051,#1052);
#902=AXIS2_PLACEMENT_3D('',#1370,#1053,#1054);
#903=AXIS2_PLACEMENT_3D('',#1373,#1055,#1056);
#904=AXIS2_PLACEMENT_3D('',#1377,#1058,#1059);
#905=AXIS2_PLACEMENT_3D('',#1378,#1060,#1061);
#906=AXIS2_PLACEMENT_3D('',#1379,#1062,#1063);
#907=AXIS2_PLACEMENT_3D('',#1380,#1064,#1065);
#908=AXIS2_PLACEMENT_3D('',#1383,#1067,#1068);
#909=AXIS2_PLACEMENT_3D('',#1384,#1069,#1070);
#910=AXIS2_PLACEMENT_3D('',#1387,#1072,#1073);
#911=AXIS2_PLACEMENT_3D('',#1388,#1074,#1075);
#912=AXIS2_PLACEMENT_3D('',#1390,#1076,#1077);
#913=AXIS2_PLACEMENT_3D('',#1391,#1078,#1079);
#914=AXIS2_PLACEMENT_3D('',#1392,#1080,#1081);
#915=AXIS2_PLACEMENT_3D('',#1394,#1082,#1083);
#916=AXIS2_PLACEMENT_3D('',#1396,#1084,#1085);
#917=AXIS2_PLACEMENT_3D('',#1397,#1086,#1087);
#918=AXIS2_PLACEMENT_3D('',#1398,#1088,#1089);
#919=AXIS2_PLACEMENT_3D('',#1400,#1091,#1092);
#920=AXIS2_PLACEMENT_3D('',#1403,#1094,#1095);
#921=AXIS2_PLACEMENT_3D('',#1404,#1096,#1097);
#922=AXIS2_PLACEMENT_3D('',#1406,#1098,#1099);
#923=AXIS2_PLACEMENT_3D('',#1407,#1100,#1101);
#924=AXIS2_PLACEMENT_3D('',#1408,#1102,#1103);
#925=AXIS2_PLACEMENT_3D('',#1410,#1104,#1105);
#926=AXIS2_PLACEMENT_3D('',#1411,#1106,#1107);
#927=AXIS2_PLACEMENT_3D('',#1412,#1108,#1109);
#928=AXIS2_PLACEMENT_3D('',#1413,#1110,#1111);
#929=AXIS2_PLACEMENT_3D('',#1414,#1112,#1113);
#930=AXIS2_PLACEMENT_3D('',#1417,#1114,#1115);
#931=AXIS2_PLACEMENT_3D('',#1418,#1116,#1117);
#932=AXIS2_PLACEMENT_3D('',#1420,#1118,#1119);
#933=AXIS2_PLACEMENT_3D('',#1423,#1121,#1122);
#934=AXIS2_PLACEMENT_3D('',#1424,#1123,#1124);
#935=AXIS2_PLACEMENT_3D('',#1426,#1125,#1126);
#936=AXIS2_PLACEMENT_3D('',#1429,#1128,#1129);
#937=AXIS2_PLACEMENT_3D('',#1430,#1130,#1131);
#938=AXIS2_PLACEMENT_3D('',#1432,#1132,#1133);
#939=AXIS2_PLACEMENT_3D('',#1433,#1134,#1135);
#940=AXIS2_PLACEMENT_3D('',#1434,#1136,#1137);
#941=AXIS2_PLACEMENT_3D('',#1437,#1139,#1140);
#942=AXIS2_PLACEMENT_3D('',#1438,#1141,#1142);
#943=AXIS2_PLACEMENT_3D('',#1439,#1143,#1144);
#944=AXIS2_PLACEMENT_3D('',#1440,#1145,#1146);
#945=AXIS2_PLACEMENT_3D('',#1443,#1147,#1148);
#946=AXIS2_PLACEMENT_3D('',#1444,#1149,#1150);
#947=AXIS2_PLACEMENT_3D('',#1447,#1151,#1152);
#948=AXIS2_PLACEMENT_3D('',#1448,#1153,#1154);
#949=AXIS2_PLACEMENT_3D('',#1451,#1155,#1156);
#950=AXIS2_PLACEMENT_3D('',#1452,#1157,#1158);
#951=AXIS2_PLACEMENT_3D('',#1455,#1159,#1160);
#952=AXIS2_PLACEMENT_3D('',#1456,#1161,#1162);
#953=AXIS2_PLACEMENT_3D('',#1459,#1163,#1164);
#954=AXIS2_PLACEMENT_3D('',#1460,#1165,#1166);
#955=AXIS2_PLACEMENT_3D('',#1463,#1167,#1168);
#956=AXIS2_PLACEMENT_3D('',#1464,#1169,#1170);
#957=AXIS2_PLACEMENT_3D('',#1467,#1171,#1172);
#958=AXIS2_PLACEMENT_3D('',#1468,#1173,#1174);
#959=AXIS2_PLACEMENT_3D('',#1470,#1175,#1176);
#960=AXIS2_PLACEMENT_3D('',#1473,#1178,#1179);
#961=AXIS2_PLACEMENT_3D('',#1474,#1180,#1181);
#962=AXIS2_PLACEMENT_3D('',#1476,#1182,#1183);
#963=AXIS2_PLACEMENT_3D('',#1477,#1184,#1185);
#964=AXIS2_PLACEMENT_3D('',#1478,#1186,#1187);
#965=AXIS2_PLACEMENT_3D('',#1481,#1188,#1189);
#966=AXIS2_PLACEMENT_3D('',#1484,#1191,#1192);
#967=AXIS2_PLACEMENT_3D('',#1485,#1193,#1194);
#968=AXIS2_PLACEMENT_3D('',#1486,#1195,#1196);
#969=AXIS2_PLACEMENT_3D('',#1489,#1198,#1199);
#970=AXIS2_PLACEMENT_3D('',#1490,#1200,#1201);
#971=AXIS2_PLACEMENT_3D('',#1491,#1202,#1203);
#972=AXIS2_PLACEMENT_3D('',#1492,#1204,#1205);
#973=AXIS2_PLACEMENT_3D('',#1494,#1206,#1207);
#974=AXIS2_PLACEMENT_3D('',#1497,#1209,#1210);
#975=AXIS2_PLACEMENT_3D('',#1498,#1211,#1212);
#976=AXIS2_PLACEMENT_3D('',#1501,#1214,#1215);
#977=AXIS2_PLACEMENT_3D('',#1502,#1216,#1217);
#978=AXIS2_PLACEMENT_3D('',#1505,#1218,#1219);
#979=AXIS2_PLACEMENT_3D('',#1508,#1221,#1222);
#980=AXIS2_PLACEMENT_3D('',#1509,#1223,#1224);
#981=AXIS2_PLACEMENT_3D('',#1510,#1225,#1226);
#982=AXIS2_PLACEMENT_3D('',#1513,#1228,#1229);
#983=AXIS2_PLACEMENT_3D('',#1514,#1230,#1231);
#984=AXIS2_PLACEMENT_3D('',#1517,#1233,#1234);
#985=AXIS2_PLACEMENT_3D('',#1518,#1235,#1236);
#986=AXIS2_PLACEMENT_3D('',#1520,#1237,#1238);
#987=AXIS2_PLACEMENT_3D('',#1523,#1240,#1241);
#988=AXIS2_PLACEMENT_3D('',#1524,#1242,#1243);
#989=AXIS2_PLACEMENT_3D('',#1527,#1244,#1245);
#990=AXIS2_PLACEMENT_3D('',#1529,#1247,#1248);
#991=AXIS2_PLACEMENT_3D('',#1530,#1249,#1250);
#992=AXIS2_PLACEMENT_3D('',#1533,#1252,#1253);
#993=AXIS2_PLACEMENT_3D('',#1534,#1254,#1255);
#994=AXIS2_PLACEMENT_3D('',#1536,#1256,#1257);
#995=AXIS2_PLACEMENT_3D('',#1537,#1258,#1259);
#996=AXIS2_PLACEMENT_3D('',#1538,#1260,#1261);
#997=AXIS2_PLACEMENT_3D('',#1540,#1263,#1264);
#998=AXIS2_PLACEMENT_3D('',#1541,#1265,#1266);
#999=AXIS2_PLACEMENT_3D('',#1542,#1267,#1268);
#1000=AXIS2_PLACEMENT_3D('',#1544,#1269,#1270);
#1001=AXIS2_PLACEMENT_3D('',#1547,#1272,#1273);
#1002=AXIS2_PLACEMENT_3D('',#1548,#1274,#1275);
#1003=AXIS2_PLACEMENT_3D('',#1550,#1276,#1277);
#1004=AXIS2_PLACEMENT_3D('',#1551,#1278,#1279);
#1005=AXIS2_PLACEMENT_3D('',#1552,#1280,#1281);
#1006=AXIS2_PLACEMENT_3D('',#1555,#1283,#1284);
#1007=AXIS2_PLACEMENT_3D('',#1556,#1285,#1286);
#1008=AXIS2_PLACEMENT_3D('',#1558,#1287,#1288);
#1009=AXIS2_PLACEMENT_3D('',#1560,#1289,#1290);
#1010=AXIS2_PLACEMENT_3D('',#1561,#1291,#1292);
#1011=AXIS2_PLACEMENT_3D('',#1562,#1293,#1294);
#1012=AXIS2_PLACEMENT_3D('',#1565,#1295,#1296);
#1013=AXIS2_PLACEMENT_3D('',#1567,#1298,#1299);
#1014=AXIS2_PLACEMENT_3D('',#1568,#1300,#1301);
#1015=AXIS2_PLACEMENT_3D('',#1571,#1303,#1304);
#1016=AXIS2_PLACEMENT_3D('',#1572,#1305,#1306);
#1017=AXIS2_PLACEMENT_3D('',#1573,#1307,#1308);
#1018=AXIS2_PLACEMENT_3D('',#1575,#1309,#1310);
#1019=AXIS2_PLACEMENT_3D('',#1578,#1312,#1313);
#1020=AXIS2_PLACEMENT_3D('',#1579,#1314,#1315);
#1021=AXIS2_PLACEMENT_3D('',#1581,#1316,#1317);
#1022=AXIS2_PLACEMENT_3D('',#1583,#1319,#1320);
#1023=AXIS2_PLACEMENT_3D('',#1585,#1321,#1322);
#1024=AXIS2_PLACEMENT_3D('',#1586,#1323,#1324);
#1025=AXIS2_PLACEMENT_3D('',#1588,#1325,#1326);
#1026=AXIS2_PLACEMENT_3D('',#1591,#1328,#1329);
#1027=AXIS2_PLACEMENT_3D('',#1592,#1330,#1331);
#1028=AXIS2_PLACEMENT_3D('',#1595,#1333,#1334);
#1029=AXIS2_PLACEMENT_3D('',#1596,#1335,#1336);
#1030=AXIS2_PLACEMENT_3D('',#1598,#1337,#1338);
#1031=AXIS2_PLACEMENT_3D('',#1599,#1339,#1340);
#1032=AXIS2_PLACEMENT_3D('',#1603,#1342,#1343);
#1033=AXIS2_PLACEMENT_3D('',#1604,#1344,#1345);
#1034=AXIS2_PLACEMENT_3D('',#1605,#1346,#1347);
#1035=AXIS2_PLACEMENT_3D('',#1609,#1349,#1350);
#1036=AXIS2_PLACEMENT_3D('',#1610,#1351,#1352);
#1037=AXIS2_PLACEMENT_3D('',#1611,#1353,#1354);
#1038=AXIS2_PLACEMENT_3D('',#1612,#1355,#1356);
#1039=AXIS2_PLACEMENT_3D('',#1613,#1357,#1358);
#1040=AXIS2_PLACEMENT_3D('',#1615,#1360,#1361);
#1041=DIRECTION('axis',(0.,0.,1.));
#1042=DIRECTION('refdir',(1.,0.,0.));
#1043=DIRECTION('axis',(0.,0.,1.));
#1044=DIRECTION('refdir',(1.,0.,0.));
#1045=DIRECTION('center_axis',(0.,-1.83697019872103E-16,1.));
#1046=DIRECTION('ref_axis',(0.,-1.,-1.83697019872103E-16));
#1047=DIRECTION('center_axis',(0.,-1.83697019872103E-16,1.));
#1048=DIRECTION('ref_axis',(0.,-1.,-1.83697019872103E-16));
#1049=DIRECTION('center_axis',(1.,1.22464679914735E-16,2.24963967399279E-32));
#1050=DIRECTION('ref_axis',(-1.22464679914735E-16,1.,1.83697019872103E-16));
#1051=DIRECTION('center_axis',(0.,-1.83697019872103E-16,1.));
#1052=DIRECTION('ref_axis',(0.,-1.,-1.83697019872103E-16));
#1053=DIRECTION('center_axis',(0.,1.83697019872103E-16,-1.));
#1054=DIRECTION('ref_axis',(0.,1.,1.83697019872103E-16));
#1055=DIRECTION('center_axis',(0.,-1.83697019872103E-16,1.));
#1056=DIRECTION('ref_axis',(0.,-1.,-1.83697019872103E-16));
#1057=DIRECTION('',(-3.16961915143181E-17,-0.258819045102524,-0.965925826289067));
#1058=DIRECTION('center_axis',(0.,-1.83697019872103E-16,1.));
#1059=DIRECTION('ref_axis',(0.,-1.,-1.83697019872103E-16));
#1060=DIRECTION('center_axis',(0.,-1.83697019872103E-16,1.));
#1061=DIRECTION('ref_axis',(0.,-1.,-1.83697019872103E-16));
#1062=DIRECTION('center_axis',(0.,-1.83697019872103E-16,1.));
#1063=DIRECTION('ref_axis',(0.,-1.,-1.83697019872103E-16));
#1064=DIRECTION('center_axis',(0.,-1.83697019872103E-16,1.));
#1065=DIRECTION('ref_axis',(0.,-1.,-1.83697019872103E-16));
#1066=DIRECTION('',(0.,-1.83697019872103E-16,1.));
#1067=DIRECTION('center_axis',(0.,-1.83697019872103E-16,1.));
#1068=DIRECTION('ref_axis',(0.,-1.,-1.83697019872103E-16));
#1069=DIRECTION('center_axis',(0.,-1.83697019872103E-16,1.));
#1070=DIRECTION('ref_axis',(0.,-1.,-1.83697019872103E-16));
#1071=DIRECTION('',(-3.16961915143178E-17,0.258819045102522,0.965925826289068));
#1072=DIRECTION('center_axis',(0.,-1.83697019872103E-16,1.));
#1073=DIRECTION('ref_axis',(0.,-1.,-1.83697019872103E-16));
#1074=DIRECTION('center_axis',(0.,-1.83697019872103E-16,1.));
#1075=DIRECTION('ref_axis',(0.,-1.,-1.24602215389758E-16));
#1076=DIRECTION('center_axis',(-1.,-1.22464679914735E-16,-2.24963967399279E-32));
#1077=DIRECTION('ref_axis',(-1.22464679914735E-16,1.,1.55752769237198E-16));
#1078=DIRECTION('center_axis',(0.,-1.83697019872103E-16,1.));
#1079=DIRECTION('ref_axis',(0.,-1.,-1.83697019872103E-16));
#1080=DIRECTION('center_axis',(0.,-1.83697019872103E-16,1.));
#1081=DIRECTION('ref_axis',(0.,-1.,-2.08655854275675E-16));
#1082=DIRECTION('center_axis',(0.,-1.83697019872103E-16,1.));
#1083=DIRECTION('ref_axis',(0.,-1.,-1.83697019872103E-16));
#1084=DIRECTION('center_axis',(-1.,-1.22464679914735E-16,-2.24963967399279E-32));
#1085=DIRECTION('ref_axis',(-1.22464679914735E-16,1.,1.30409908922297E-16));
#1086=DIRECTION('center_axis',(0.,-1.83697019872103E-16,1.));
#1087=DIRECTION('ref_axis',(0.,-1.,-1.83697019872103E-16));
#1088=DIRECTION('center_axis',(0.,-1.83697019872103E-16,1.));
#1089=DIRECTION('ref_axis',(0.,-1.,-1.83697019872103E-16));
#1090=DIRECTION('',(0.,1.83697019872103E-16,-1.));
#1091=DIRECTION('center_axis',(0.,-1.83697019872103E-16,1.));
#1092=DIRECTION('ref_axis',(0.,-1.,-1.83697019872103E-16));
#1093=DIRECTION('',(0.,1.83697019872103E-16,-1.));
#1094=DIRECTION('center_axis',(0.,-1.83697019872103E-16,1.));
#1095=DIRECTION('ref_axis',(0.,-1.,-1.83697019872103E-16));
#1096=DIRECTION('center_axis',(0.,-1.83697019872103E-16,1.));
#1097=DIRECTION('ref_axis',(0.,-1.,-2.08655854275675E-16));
#1098=DIRECTION('center_axis',(-1.,-1.22464679914735E-16,-2.24963967399279E-32));
#1099=DIRECTION('ref_axis',(-1.22464679914735E-16,1.,1.30409908922297E-16));
#1100=DIRECTION('center_axis',(0.,-1.83697019872103E-16,1.));
#1101=DIRECTION('ref_axis',(0.,-1.,-1.83697019872103E-16));
#1102=DIRECTION('center_axis',(0.,-1.83697019872103E-16,1.));
#1103=DIRECTION('ref_axis',(0.,-1.,-1.24602215389758E-16));
#1104=DIRECTION('center_axis',(0.,-1.83697019872103E-16,1.));
#1105=DIRECTION('ref_axis',(0.,-1.,-1.83697019872103E-16));
#1106=DIRECTION('center_axis',(-1.,-1.22464679914735E-16,-2.24963967399279E-32));
#1107=DIRECTION('ref_axis',(-1.22464679914735E-16,1.,1.55752769237198E-16));
#1108=DIRECTION('center_axis',(0.,-1.83697019872103E-16,1.));
#1109=DIRECTION('ref_axis',(0.,-1.,-1.83697019872103E-16));
#1110=DIRECTION('center_axis',(0.,1.83697019872103E-16,-1.));
#1111=DIRECTION('ref_axis',(0.,1.,1.83697019872103E-16));
#1112=DIRECTION('center_axis',(-1.,0.,0.));
#1113=DIRECTION('ref_axis',(0.,1.,0.));
#1114=DIRECTION('center_axis',(0.,1.22464679914735E-16,1.));
#1115=DIRECTION('ref_axis',(0.,-1.,1.22464679914735E-16));
#1116=DIRECTION('center_axis',(0.,-1.83697019872103E-16,1.));
#1117=DIRECTION('ref_axis',(0.,-1.,-1.83697019872103E-16));
#1118=DIRECTION('center_axis',(0.,-1.83697019872103E-16,1.));
#1119=DIRECTION('ref_axis',(0.,-1.,-1.83697019872103E-16));
#1120=DIRECTION('',(0.,1.83697019872103E-16,-1.));
#1121=DIRECTION('center_axis',(0.,-1.83697019872103E-16,1.));
#1122=DIRECTION('ref_axis',(0.,-1.,-1.83697019872103E-16));
#1123=DIRECTION('center_axis',(0.,-1.83697019872103E-16,1.));
#1124=DIRECTION('ref_axis',(0.,-1.,-1.83697019872103E-16));
#1125=DIRECTION('center_axis',(0.,-1.83697019872103E-16,1.));
#1126=DIRECTION('ref_axis',(0.,-1.,-1.83697019872103E-16));
#1127=DIRECTION('',(0.,-1.83697019872103E-16,1.));
#1128=DIRECTION('center_axis',(0.,-1.83697019872103E-16,1.));
#1129=DIRECTION('ref_axis',(0.,-1.,-1.83697019872103E-16));
#1130=DIRECTION('center_axis',(0.,-1.83697019872103E-16,1.));
#1131=DIRECTION('ref_axis',(0.,-1.,-1.98224613829815E-16));
#1132=DIRECTION('center_axis',(0.,-1.83697019872103E-16,1.));
#1133=DIRECTION('ref_axis',(0.,-1.,-1.83697019872103E-16));
#1134=DIRECTION('center_axis',(-1.,-1.22464679914735E-16,-2.24963967399279E-32));
#1135=DIRECTION('ref_axis',(-1.22464679914735E-16,1.,1.23890383643634E-16));
#1136=DIRECTION('center_axis',(0.,-1.83697019872103E-16,1.));
#1137=DIRECTION('ref_axis',(0.,-1.,-1.83697019872103E-16));
#1138=DIRECTION('',(6.12323399573675E-17,-0.499999999999999,-0.866025403784439));
#1139=DIRECTION('center_axis',(0.,-1.83697019872103E-16,1.));
#1140=DIRECTION('ref_axis',(0.,-1.,-1.83697019872103E-16));
#1141=DIRECTION('center_axis',(0.,-1.83697019872103E-16,1.));
#1142=DIRECTION('ref_axis',(0.,-1.,-1.83697019872103E-16));
#1143=DIRECTION('center_axis',(0.,1.83697019872103E-16,-1.));
#1144=DIRECTION('ref_axis',(0.,1.,1.83697019872103E-16));
#1145=DIRECTION('center_axis',(-0.707106781186547,0.707106781186549,1.29893408435324E-16));
#1146=DIRECTION('ref_axis',(0.707106781186549,0.707106781186546,-5.38036114367793E-17));
#1147=DIRECTION('center_axis',(2.16489014058874E-16,3.279199418677E-17,
1.));
#1148=DIRECTION('ref_axis',(-0.707106781186549,-0.707106781186547,1.76268291351515E-16));
#1149=DIRECTION('center_axis',(3.5527136788005E-15,1.,1.83697019872103E-16));
#1150=DIRECTION('ref_axis',(1.,-3.49148133884313E-15,-1.83697019872104E-16));
#1151=DIRECTION('center_axis',(3.06161699786838E-16,-1.83697019872104E-16,
1.));
#1152=DIRECTION('ref_axis',(-1.,3.49148133884313E-15,3.06161699786839E-16));
#1153=DIRECTION('center_axis',(0.707106781186551,0.707106781186544,1.29893408435323E-16));
#1154=DIRECTION('ref_axis',(0.707106781186544,-0.707106781186551,-3.13590428307428E-16));
#1155=DIRECTION('center_axis',(2.16489014058872E-16,-4.00186033930977E-16,
1.));
#1156=DIRECTION('ref_axis',(-0.707106781186544,0.707106781186551,4.36055108222163E-16));
#1157=DIRECTION('center_axis',(1.,0.,0.));
#1158=DIRECTION('ref_axis',(0.,-1.,-3.67394039744206E-16));
#1159=DIRECTION('center_axis',(0.,-4.89858719658941E-16,1.));
#1160=DIRECTION('ref_axis',(0.,1.,4.89858719658941E-16));
#1161=DIRECTION('center_axis',(0.707106781186542,-0.707106781186553,-1.29893408435325E-16));
#1162=DIRECTION('ref_axis',(-0.707106781186554,-0.707106781186541,-3.13590428307426E-16));
#1163=DIRECTION('center_axis',(-2.16489014058875E-16,-4.00186033930975E-16,
1.));
#1164=DIRECTION('ref_axis',(0.707106781186554,0.707106781186542,4.36055108222161E-16));
#1165=DIRECTION('center_axis',(-1.06581410364015E-14,-1.,-1.83697019872103E-16));
#1166=DIRECTION('ref_axis',(-1.,1.04744440165294E-14,-1.83697019872101E-16));
#1167=DIRECTION('center_axis',(-3.06161699786838E-16,-1.836970198721E-16,
1.));
#1168=DIRECTION('ref_axis',(1.,-1.04744440165294E-14,3.06161699786836E-16));
#1169=DIRECTION('center_axis',(-0.707106781186556,-0.707106781186539,-1.29893408435322E-16));
#1170=DIRECTION('ref_axis',(-0.707106781186539,0.707106781186556,-5.38036114367774E-17));
#1171=DIRECTION('center_axis',(-2.16489014058871E-16,3.2791994186773E-17,
1.));
#1172=DIRECTION('ref_axis',(0.707106781186539,-0.707106781186556,1.76268291351513E-16));
#1173=DIRECTION('center_axis',(0.,-1.83697019872103E-16,1.));
#1174=DIRECTION('ref_axis',(0.,-1.,-1.83697019872103E-16));
#1175=DIRECTION('center_axis',(0.,-1.83697019872103E-16,1.));
#1176=DIRECTION('ref_axis',(0.,-1.,-1.83697019872103E-16));
#1177=DIRECTION('',(0.,-1.83697019872103E-16,1.));
#1178=DIRECTION('center_axis',(0.,-1.83697019872103E-16,1.));
#1179=DIRECTION('ref_axis',(0.,-1.,-1.83697019872103E-16));
#1180=DIRECTION('center_axis',(0.,-1.83697019872103E-16,1.));
#1181=DIRECTION('ref_axis',(0.,-1.,-1.98224613829815E-16));
#1182=DIRECTION('center_axis',(-1.,-1.22464679914735E-16,-2.24963967399279E-32));
#1183=DIRECTION('ref_axis',(-1.22464679914735E-16,1.,1.23890383643634E-16));
#1184=DIRECTION('center_axis',(0.,-1.83697019872103E-16,1.));
#1185=DIRECTION('ref_axis',(0.,-1.,-1.83697019872103E-16));
#1186=DIRECTION('center_axis',(0.,1.83697019872103E-16,-1.));
#1187=DIRECTION('ref_axis',(0.,1.,1.83697019872103E-16));
#1188=DIRECTION('center_axis',(0.,-1.83697019872103E-16,1.));
#1189=DIRECTION('ref_axis',(0.,-1.,-1.83697019872103E-16));
#1190=DIRECTION('',(6.12323399573677E-17,0.5,0.866025403784439));
#1191=DIRECTION('center_axis',(0.,-1.83697019872103E-16,1.));
#1192=DIRECTION('ref_axis',(0.,-1.,-1.83697019872103E-16));
#1193=DIRECTION('center_axis',(0.,-1.83697019872103E-16,1.));
#1194=DIRECTION('ref_axis',(0.,-1.,-1.83697019872103E-16));
#1195=DIRECTION('center_axis',(0.,-1.83697019872103E-16,1.));
#1196=DIRECTION('ref_axis',(0.,-1.,-1.83697019872103E-16));
#1197=DIRECTION('',(0.,1.83697019872103E-16,-1.));
#1198=DIRECTION('center_axis',(0.,-1.83697019872103E-16,1.));
#1199=DIRECTION('ref_axis',(0.,-1.,-1.83697019872103E-16));
#1200=DIRECTION('center_axis',(0.,-1.83697019872103E-16,1.));
#1201=DIRECTION('ref_axis',(0.,-1.,-1.83697019872103E-16));
#1202=DIRECTION('center_axis',(0.,1.83697019872103E-16,-1.));
#1203=DIRECTION('ref_axis',(0.,1.,1.83697019872103E-16));
#1204=DIRECTION('center_axis',(0.,-1.83697019872103E-16,1.));
#1205=DIRECTION('ref_axis',(0.,-1.,-1.83697019872103E-16));
#1206=DIRECTION('center_axis',(0.,-1.83697019872103E-16,1.));
#1207=DIRECTION('ref_axis',(0.,-1.,-1.83697019872103E-16));
#1208=DIRECTION('',(-4.18853873767688E-17,0.34202014332566,0.939692620785912));
#1209=DIRECTION('center_axis',(0.,-1.83697019872103E-16,1.));
#1210=DIRECTION('ref_axis',(0.,-1.,-1.83697019872103E-16));
#1211=DIRECTION('center_axis',(0.,-1.83697019872103E-16,1.));
#1212=DIRECTION('ref_axis',(0.,-1.,-1.83697019872103E-16));
#1213=DIRECTION('',(-8.65956056235492E-17,0.707106781186546,0.707106781186549));
#1214=DIRECTION('center_axis',(0.,-1.83697019872103E-16,1.));
#1215=DIRECTION('ref_axis',(0.,-1.,-1.83697019872103E-16));
#1216=DIRECTION('center_axis',(0.,1.83697019872103E-16,-1.));
#1217=DIRECTION('ref_axis',(0.,1.,1.83697019872103E-16));
#1218=DIRECTION('center_axis',(0.,-1.83697019872103E-16,1.));
#1219=DIRECTION('ref_axis',(0.,-1.,-1.83697019872103E-16));
#1220=DIRECTION('',(6.12323399573674E-17,0.499999999999998,0.86602540378444));
#1221=DIRECTION('center_axis',(0.,-1.83697019872103E-16,1.));
#1222=DIRECTION('ref_axis',(0.,-1.,-1.83697019872103E-16));
#1223=DIRECTION('center_axis',(0.,-1.83697019872103E-16,1.));
#1224=DIRECTION('ref_axis',(0.,-1.,-1.83697019872103E-16));
#1225=DIRECTION('center_axis',(0.,-1.83697019872103E-16,1.));
#1226=DIRECTION('ref_axis',(0.,-1.,-1.83697019872103E-16));
#1227=DIRECTION('',(0.,1.83697019872103E-16,-1.));
#1228=DIRECTION('center_axis',(0.,-1.83697019872103E-16,1.));
#1229=DIRECTION('ref_axis',(0.,-1.,-1.83697019872103E-16));
#1230=DIRECTION('center_axis',(0.,-1.83697019872103E-16,1.));
#1231=DIRECTION('ref_axis',(0.,-1.,-1.83697019872103E-16));
#1232=DIRECTION('',(6.12323399573675E-17,-0.499999999999998,-0.86602540378444));
#1233=DIRECTION('center_axis',(0.,-1.83697019872103E-16,1.));
#1234=DIRECTION('ref_axis',(0.,-1.,-1.83697019872103E-16));
#1235=DIRECTION('center_axis',(0.,1.83697019872103E-16,-1.));
#1236=DIRECTION('ref_axis',(0.,1.,1.83697019872103E-16));
#1237=DIRECTION('center_axis',(0.,-1.83697019872103E-16,1.));
#1238=DIRECTION('ref_axis',(0.,-1.,-1.83697019872103E-16));
#1239=DIRECTION('',(-8.65956056235493E-17,-0.707106781186547,-0.707106781186548));
#1240=DIRECTION('center_axis',(0.,-1.83697019872103E-16,1.));
#1241=DIRECTION('ref_axis',(0.,-1.,-1.83697019872103E-16));
#1242=DIRECTION('center_axis',(0.,1.83697019872103E-16,-1.));
#1243=DIRECTION('ref_axis',(0.,1.,1.83697019872103E-16));
#1244=DIRECTION('center_axis',(0.,-1.83697019872103E-16,1.));
#1245=DIRECTION('ref_axis',(0.,-1.,-1.83697019872103E-16));
#1246=DIRECTION('',(-4.18853873767694E-17,-0.342020143325664,-0.93969262078591));
#1247=DIRECTION('center_axis',(0.,-1.83697019872103E-16,1.));
#1248=DIRECTION('ref_axis',(0.,-1.,-1.83697019872103E-16));
#1249=DIRECTION('center_axis',(0.,-1.83697019872103E-16,1.));
#1250=DIRECTION('ref_axis',(0.,-1.,-1.83697019872103E-16));
#1251=DIRECTION('',(0.,-1.83697019872103E-16,1.));
#1252=DIRECTION('center_axis',(0.,-1.83697019872103E-16,1.));
#1253=DIRECTION('ref_axis',(0.,-1.,-1.83697019872103E-16));
#1254=DIRECTION('center_axis',(0.,-1.83697019872103E-16,1.));
#1255=DIRECTION('ref_axis',(0.,-1.,-1.83697019872103E-16));
#1256=DIRECTION('center_axis',(1.,1.22464679914735E-16,2.24963967399279E-32));
#1257=DIRECTION('ref_axis',(-1.22464679914735E-16,1.,1.83697019872103E-16));
#1258=DIRECTION('center_axis',(0.,-1.83697019872103E-16,1.));
#1259=DIRECTION('ref_axis',(0.,-1.,-1.83697019872103E-16));
#1260=DIRECTION('center_axis',(0.,-1.83697019872103E-16,1.));
#1261=DIRECTION('ref_axis',(0.,-1.,-1.83697019872103E-16));
#1262=DIRECTION('',(0.,-1.83697019872103E-16,1.));
#1263=DIRECTION('center_axis',(0.,-1.83697019872103E-16,1.));
#1264=DIRECTION('ref_axis',(0.,-1.,-1.83697019872103E-16));
#1265=DIRECTION('center_axis',(0.,1.83697019872103E-16,-1.));
#1266=DIRECTION('ref_axis',(0.,1.,1.83697019872103E-16));
#1267=DIRECTION('center_axis',(0.,-1.83697019872103E-16,1.));
#1268=DIRECTION('ref_axis',(0.,-1.,-1.83697019872103E-16));
#1269=DIRECTION('center_axis',(0.,-1.83697019872103E-16,1.));
#1270=DIRECTION('ref_axis',(0.,-1.,-1.83697019872103E-16));
#1271=DIRECTION('',(0.,-1.83697019872103E-16,1.));
#1272=DIRECTION('center_axis',(0.,-1.83697019872103E-16,1.));
#1273=DIRECTION('ref_axis',(0.,-1.,-1.83697019872103E-16));
#1274=DIRECTION('center_axis',(0.,-1.83697019872103E-16,1.));
#1275=DIRECTION('ref_axis',(0.,-1.,-2.02934901683197E-16));
#1276=DIRECTION('center_axis',(-1.,-1.22464679914735E-16,-2.24963967399279E-32));
#1277=DIRECTION('ref_axis',(-1.22464679914735E-16,1.,1.26834313551998E-16));
#1278=DIRECTION('center_axis',(0.,-1.83697019872103E-16,1.));
#1279=DIRECTION('ref_axis',(0.,-1.,-1.83697019872103E-16));
#1280=DIRECTION('center_axis',(0.,-1.83697019872103E-16,1.));
#1281=DIRECTION('ref_axis',(0.,-1.,-1.83697019872103E-16));
#1282=DIRECTION('',(0.,1.83697019872103E-16,-1.));
#1283=DIRECTION('center_axis',(0.,-1.83697019872103E-16,1.));
#1284=DIRECTION('ref_axis',(0.,-1.,-1.83697019872103E-16));
#1285=DIRECTION('center_axis',(0.,-1.83697019872103E-16,1.));
#1286=DIRECTION('ref_axis',(0.,-1.,-2.01402201285512E-16));
#1287=DIRECTION('center_axis',(-1.,-1.22464679914735E-16,-2.24963967399279E-32));
#1288=DIRECTION('ref_axis',(-1.22464679914735E-16,1.,1.25876375803445E-16));
#1289=DIRECTION('center_axis',(0.,-1.83697019872103E-16,1.));
#1290=DIRECTION('ref_axis',(0.,-1.,-1.83697019872103E-16));
#1291=DIRECTION('center_axis',(0.,-1.83697019872103E-16,1.));
#1292=DIRECTION('ref_axis',(0.,-1.,-1.83697019872103E-16));
#1293=DIRECTION('center_axis',(0.,1.83697019872103E-16,-1.));
#1294=DIRECTION('ref_axis',(0.,1.,1.83697019872103E-16));
#1295=DIRECTION('center_axis',(0.,-1.83697019872103E-16,1.));
#1296=DIRECTION('ref_axis',(0.,-1.,-1.83697019872103E-16));
#1297=DIRECTION('',(2.12657684957583E-17,0.173648177666935,0.984807753012207));
#1298=DIRECTION('center_axis',(0.,-1.83697019872103E-16,1.));
#1299=DIRECTION('ref_axis',(0.,-1.,-1.83697019872103E-16));
#1300=DIRECTION('center_axis',(0.,-1.83697019872103E-16,1.));
#1301=DIRECTION('ref_axis',(0.,-1.,-1.83697019872103E-16));
#1302=DIRECTION('',(0.,1.83697019872103E-16,-1.));
#1303=DIRECTION('center_axis',(0.,-1.83697019872103E-16,1.));
#1304=DIRECTION('ref_axis',(0.,-1.,-1.83697019872103E-16));
#1305=DIRECTION('center_axis',(0.,-1.83697019872103E-16,1.));
#1306=DIRECTION('ref_axis',(0.,-1.,-1.83697019872103E-16));
#1307=DIRECTION('center_axis',(0.,1.,-5.55111512312576E-17));
#1308=DIRECTION('ref_axis',(-1.,0.,0.));
#1309=DIRECTION('center_axis',(0.,1.,-5.55111512312576E-17));
#1310=DIRECTION('ref_axis',(-1.,0.,0.));
#1311=DIRECTION('',(0.707106781186547,0.707106781186547,4.73432941564551E-17));
#1312=DIRECTION('center_axis',(0.,-1.,5.55111512312576E-17));
#1313=DIRECTION('ref_axis',(-1.,0.,0.));
#1314=DIRECTION('center_axis',(0.,1.,-5.55111512312576E-17));
#1315=DIRECTION('ref_axis',(-1.,0.,0.));
#1316=DIRECTION('center_axis',(0.,1.,-5.55111512312576E-17));
#1317=DIRECTION('ref_axis',(-1.,0.,0.));
#1318=DIRECTION('',(0.,-1.,5.55111512312576E-17));
#1319=DIRECTION('center_axis',(0.,1.,-5.55111512312576E-17));
#1320=DIRECTION('ref_axis',(-1.,0.,0.));
#1321=DIRECTION('center_axis',(0.,1.,-5.55111512312576E-17));
#1322=DIRECTION('ref_axis',(-1.,0.,0.));
#1323=DIRECTION('center_axis',(0.,-1.,5.55111512312576E-17));
#1324=DIRECTION('ref_axis',(-1.,0.,0.));
#1325=DIRECTION('center_axis',(0.,-1.,5.55111512312576E-17));
#1326=DIRECTION('ref_axis',(-1.,0.,0.));
#1327=DIRECTION('',(0.707106781186547,-0.707106781186547,-4.73432941564551E-17));
#1328=DIRECTION('center_axis',(0.,1.,-5.55111512312576E-17));
#1329=DIRECTION('ref_axis',(-1.,0.,0.));
#1330=DIRECTION('center_axis',(0.,1.,-5.55111512312576E-17));
#1331=DIRECTION('ref_axis',(-1.,0.,0.));
#1332=DIRECTION('',(0.,-1.,5.55111512312576E-17));
#1333=DIRECTION('center_axis',(0.,-1.,5.55111512312576E-17));
#1334=DIRECTION('ref_axis',(-1.,0.,0.));
#1335=DIRECTION('center_axis',(0.,1.,-5.55111512312576E-17));
#1336=DIRECTION('ref_axis',(-1.,0.,0.));
#1337=DIRECTION('center_axis',(0.,-1.,5.55111512312576E-17));
#1338=DIRECTION('ref_axis',(-1.,0.,0.));
#1339=DIRECTION('center_axis',(0.,-1.,2.52478743153511E-16));
#1340=DIRECTION('ref_axis',(-1.,0.,1.28343994354638E-18));
#1341=DIRECTION('',(-0.592884020221207,0.805287860684823,-2.75164487671993E-16));
#1342=DIRECTION('center_axis',(0.,-1.,5.55111512312576E-17));
#1343=DIRECTION('ref_axis',(-1.,0.,2.57925341044375E-18));
#1344=DIRECTION('center_axis',(0.,-1.,5.55111512312576E-17));
#1345=DIRECTION('ref_axis',(-1.,0.,2.57925341044375E-18));
#1346=DIRECTION('center_axis',(0.,1.,-2.52478743153511E-16));
#1347=DIRECTION('ref_axis',(-1.,0.,-1.28343994354638E-18));
#1348=DIRECTION('',(-0.592884020221207,-0.805287860684823,2.75164487671993E-16));
#1349=DIRECTION('center_axis',(0.,1.,-5.55111512312576E-17));
#1350=DIRECTION('ref_axis',(-1.,0.,-2.57925341044375E-18));
#1351=DIRECTION('center_axis',(0.,1.,-5.55111512312576E-17));
#1352=DIRECTION('ref_axis',(-1.,0.,-2.57925341044375E-18));
#1353=DIRECTION('center_axis',(0.,-1.,0.));
#1354=DIRECTION('ref_axis',(0.,0.,-1.));
#1355=DIRECTION('center_axis',(1.,0.,1.22464679914735E-16));
#1356=DIRECTION('ref_axis',(-1.22464679914735E-16,0.,1.));
#1357=DIRECTION('center_axis',(0.,1.,-5.55111512312576E-17));
#1358=DIRECTION('ref_axis',(-1.,0.,0.));
#1359=DIRECTION('',(0.,-1.,5.55111512312576E-17));
#1360=DIRECTION('',(0.,1.,-5.55111512312578E-17));
#1361=DIRECTION('',(0.999999999999999,0.,0.));
#1362=CARTESIAN_POINT('',(0.,0.,0.));
#1363=CARTESIAN_POINT('',(0.,0.,0.));
#1364=CARTESIAN_POINT('Origin',(0.,4.33680868994202E-16,-1.58219545879456E-15));
#1365=CARTESIAN_POINT('',(2.60645660418529E-16,2.12833333333334,0.564909038892301));
#1366=CARTESIAN_POINT('Origin',(0.,1.71773422864825E-16,0.564909038892301));
#1367=CARTESIAN_POINT('',(-2.60645660418529E-16,2.12833333333334,-0.564909038892302));
#1368=CARTESIAN_POINT('Origin',(-3.21061569176464E-16,2.62166666666667,
-1.10060310502986E-15));
#1369=CARTESIAN_POINT('Origin',(0.,3.79317636751484E-16,-0.564909038892303));
#1370=CARTESIAN_POINT('Origin',(0.,4.74293363288165E-16,-1.08193281316369));
#1371=CARTESIAN_POINT('',(1.83697019872103E-16,1.5,-1.08193281316369));
#1372=CARTESIAN_POINT('',(-1.83697019872103E-16,-1.5,-1.08193281316369));
#1373=CARTESIAN_POINT('Origin',(0.,4.74293363288165E-16,-1.08193281316369));
#1374=CARTESIAN_POINT('',(-1.9507602971418E-16,-1.59291666666666,-1.42870253403363));
#1375=CARTESIAN_POINT('',(-1.83697019872103E-16,-1.5,-1.08193281316369));
#1376=CARTESIAN_POINT('',(2.00765534635219E-16,1.59291666666667,-1.42870253403363));
#1377=CARTESIAN_POINT('Origin',(0.,5.37993927593853E-16,-1.42870253403363));
#1378=CARTESIAN_POINT('Origin',(0.,5.37993927593853E-16,-1.42870253403363));
#1379=CARTESIAN_POINT('Origin',(0.,4.74293363288165E-16,-1.08193281316369));
#1380=CARTESIAN_POINT('Origin',(0.,0.,1.5));
#1381=CARTESIAN_POINT('',(-1.83697019872103E-16,1.5,1.08193281316369));
#1382=CARTESIAN_POINT('',(-1.83697019872103E-16,1.5,1.5));
#1383=CARTESIAN_POINT('Origin',(0.,7.67976963281439E-17,1.08193281316369));
#1384=CARTESIAN_POINT('Origin',(0.,1.30971320224557E-17,1.42870253403363));
#1385=CARTESIAN_POINT('',(-1.9507602971418E-16,1.59291666666667,1.42870253403363));
#1386=CARTESIAN_POINT('',(-1.9507602971418E-16,1.59291666666667,1.42870253403363));
#1387=CARTESIAN_POINT('Origin',(0.,1.30971320224557E-17,1.42870253403363));
#1388=CARTESIAN_POINT('Origin',(0.,0.,1.4038055882369));
#1389=CARTESIAN_POINT('',(-2.06455039556258E-16,1.68583333333333,1.5));
#1390=CARTESIAN_POINT('Origin',(-2.06455039556258E-16,1.68583333333333,
1.4038055882369));
#1391=CARTESIAN_POINT('Origin',(0.,-6.99938127236806E-31,1.5));
#1392=CARTESIAN_POINT('Origin',(0.,0.,1.4038055882369));
#1393=CARTESIAN_POINT('',(-2.48865242572374E-16,2.03213892157023,1.5));
#1394=CARTESIAN_POINT('Origin',(0.,-5.68753360562791E-31,1.5));
#1395=CARTESIAN_POINT('',(-2.60645660418529E-16,2.12833333333334,1.4038055882369));
#1396=CARTESIAN_POINT('Origin',(-2.48865242572374E-16,2.03213892157023,
1.4038055882369));
#1397=CARTESIAN_POINT('Origin',(0.,1.76706267692315E-17,1.4038055882369));
#1398=CARTESIAN_POINT('Origin',(0.,0.,1.5));
#1399=CARTESIAN_POINT('',(-2.60645660418529E-16,2.12833333333334,1.5));
#1400=CARTESIAN_POINT('Origin',(0.,0.,1.5));
#1401=CARTESIAN_POINT('',(-2.60645660418529E-16,2.12833333333334,-1.4038055882369));
#1402=CARTESIAN_POINT('',(-2.60645660418529E-16,2.12833333333334,1.5));
#1403=CARTESIAN_POINT('Origin',(0.,5.33420432847078E-16,-1.4038055882369));
#1404=CARTESIAN_POINT('Origin',(0.,4.33680868994202E-16,-1.4038055882369));
#1405=CARTESIAN_POINT('',(-2.48865242572374E-16,2.03213892157023,-1.5));
#1406=CARTESIAN_POINT('Origin',(-2.48865242572374E-16,2.03213892157023,
-1.4038055882369));
#1407=CARTESIAN_POINT('Origin',(0.,5.5109105961631E-16,-1.5));
#1408=CARTESIAN_POINT('Origin',(0.,4.33680868994202E-16,-1.4038055882369));
#1409=CARTESIAN_POINT('',(-2.06455039556258E-16,1.68583333333333,-1.5));
#1410=CARTESIAN_POINT('Origin',(0.,5.5109105961631E-16,-1.5));
#1411=CARTESIAN_POINT('Origin',(-2.06455039556258E-16,1.68583333333333,
-1.4038055882369));
#1412=CARTESIAN_POINT('Origin',(0.,1.68583333333333,-1.5));
#1413=CARTESIAN_POINT('Origin',(0.,1.68583333333333,1.5));
#1414=CARTESIAN_POINT('Origin',(0.,2.62166666666667,-1.14851458980036E-15));
#1415=CARTESIAN_POINT('',(-0.75,2.62166666666667,-1.14851458980036E-15));
#1416=CARTESIAN_POINT('',(0.75,2.62166666666667,-1.14851458980036E-15));
#1417=CARTESIAN_POINT('Origin',(0.,2.62166666666667,-1.14851458980036E-15));
#1418=CARTESIAN_POINT('Origin',(0.,0.,1.5));
#1419=CARTESIAN_POINT('',(-3.814774779344E-16,3.115,-0.750000000000002));
#1420=CARTESIAN_POINT('Origin',(0.,4.13318294712232E-16,-0.750000000000002));
#1421=CARTESIAN_POINT('',(-3.814774779344E-16,3.115,-1.43071796769725));
#1422=CARTESIAN_POINT('',(-3.814774779344E-16,3.115,1.5));
#1423=CARTESIAN_POINT('Origin',(0.,5.38364156751611E-16,-1.43071796769725));
#1424=CARTESIAN_POINT('Origin',(0.,0.,1.5));
#1425=CARTESIAN_POINT('',(-2.70442834811708E-16,2.20833333333334,-1.48400000000001));
#1426=CARTESIAN_POINT('Origin',(0.,5.48151907298356E-16,-1.48400000000001));
#1427=CARTESIAN_POINT('',(-2.70442834811708E-16,2.20833333333334,-0.750000000000002));
#1428=CARTESIAN_POINT('',(-2.70442834811708E-16,2.20833333333334,1.5));
#1429=CARTESIAN_POINT('Origin',(0.,4.13318294712232E-16,-0.750000000000002));
#1430=CARTESIAN_POINT('Origin',(0.,4.33680868994202E-16,-1.48400000000001));
#1431=CARTESIAN_POINT('',(-2.72402269690343E-16,2.22433333333334,-1.50000000000001));
#1432=CARTESIAN_POINT('Origin',(0.,5.5109105961631E-16,-1.50000000000001));
#1433=CARTESIAN_POINT('Origin',(-2.72402269690343E-16,2.22433333333334,
-1.48400000000001));
#1434=CARTESIAN_POINT('Origin',(0.,5.5109105961631E-16,-1.50000000000001));
#1435=CARTESIAN_POINT('',(-3.76578890737811E-16,3.075,-1.50000000000001));
#1436=CARTESIAN_POINT('',(-3.76578890737811E-16,3.075,-1.50000000000001));
#1437=CARTESIAN_POINT('Origin',(0.,5.5109105961631E-16,-1.50000000000001));
#1438=CARTESIAN_POINT('Origin',(0.,3.075,-1.50000000000001));
#1439=CARTESIAN_POINT('Origin',(0.,3.115,-0.750000000000001));
#1440=CARTESIAN_POINT('Origin',(1.85379827801074,1.85379827801073,-1.28956972445045E-15));
#1441=CARTESIAN_POINT('',(1.32346819212083,2.38412836390064,-1.19214966812396E-15));
#1442=CARTESIAN_POINT('',(2.38412836390065,1.32346819212082,-1.38698978077694E-15));
#1443=CARTESIAN_POINT('Origin',(1.85379827801074,1.85379827801073,-1.28956972445045E-15));
#1444=CARTESIAN_POINT('Origin',(2.62166666666667,-9.15350024333375E-15,
-1.63010694356506E-15));
#1445=CARTESIAN_POINT('',(2.62166666666667,0.74999999999999,-1.49233417866098E-15));
#1446=CARTESIAN_POINT('',(2.62166666666666,-0.750000000000009,-1.76787970846914E-15));
#1447=CARTESIAN_POINT('Origin',(2.62166666666667,-9.15350024333375E-15,
-1.63010694356506E-15));
#1448=CARTESIAN_POINT('Origin',(1.85379827801072,-1.85379827801074,-1.97064416267967E-15));
#1449=CARTESIAN_POINT('',(2.38412836390064,-1.32346819212083,-1.87322410635317E-15));
#1450=CARTESIAN_POINT('',(1.32346819212081,-2.38412836390065,-2.06806421900616E-15));
#1451=CARTESIAN_POINT('Origin',(1.85379827801072,-1.85379827801074,-1.97064416267967E-15));
#1452=CARTESIAN_POINT('Origin',(0.,-2.62166666666667,-2.11169929732975E-15));
#1453=CARTESIAN_POINT('',(0.75,-2.62166666666667,-2.11169929732975E-15));
#1454=CARTESIAN_POINT('',(-0.75,-2.62166666666667,-2.11169929732975E-15));
#1455=CARTESIAN_POINT('Origin',(0.,-2.62166666666667,-2.11169929732975E-15));
#1456=CARTESIAN_POINT('Origin',(-1.85379827801075,-1.85379827801072,-1.97064416267966E-15));
#1457=CARTESIAN_POINT('',(-1.32346819212084,-2.38412836390063,-2.06806421900616E-15));
#1458=CARTESIAN_POINT('',(-2.38412836390065,-1.3234681921208,-1.87322410635317E-15));
#1459=CARTESIAN_POINT('Origin',(-1.85379827801075,-1.85379827801072,-1.97064416267966E-15));
#1460=CARTESIAN_POINT('Origin',(-2.62166666666667,2.74605007300012E-14,
-1.63010694356505E-15));
#1461=CARTESIAN_POINT('',(-2.62166666666668,-0.749999999999972,-1.76787970846913E-15));
#1462=CARTESIAN_POINT('',(-2.62166666666666,0.750000000000027,-1.49233417866097E-15));
#1463=CARTESIAN_POINT('Origin',(-2.62166666666667,2.74605007300012E-14,
-1.63010694356505E-15));
#1464=CARTESIAN_POINT('Origin',(-1.85379827801071,1.85379827801076,-1.28956972445044E-15));
#1465=CARTESIAN_POINT('',(-2.38412836390063,1.32346819212085,-1.38698978077694E-15));
#1466=CARTESIAN_POINT('',(-1.32346819212079,2.38412836390066,-1.19214966812395E-15));
#1467=CARTESIAN_POINT('Origin',(-1.85379827801071,1.85379827801076,-1.28956972445044E-15));
#1468=CARTESIAN_POINT('Origin',(0.,0.,1.5));
#1469=CARTESIAN_POINT('',(-2.70442834811708E-16,2.20833333333334,0.749999999999999));
#1470=CARTESIAN_POINT('Origin',(0.,1.37772764904077E-16,0.749999999999999));
#1471=CARTESIAN_POINT('',(-2.70442834811708E-16,2.20833333333334,1.484));
#1472=CARTESIAN_POINT('',(-2.70442834811708E-16,2.20833333333334,1.5));
#1473=CARTESIAN_POINT('Origin',(0.,2.93915231795312E-18,1.484));
#1474=CARTESIAN_POINT('Origin',(0.,0.,1.484));
#1475=CARTESIAN_POINT('',(-2.72402269690343E-16,2.22433333333334,1.5));
#1476=CARTESIAN_POINT('Origin',(-2.72402269690343E-16,2.22433333333334,
1.484));
#1477=CARTESIAN_POINT('Origin',(0.,-5.22434896350571E-31,1.5));
#1478=CARTESIAN_POINT('Origin',(0.,1.27269028646984E-17,1.43071796769725));
#1479=CARTESIAN_POINT('',(3.81477477934401E-16,3.115,1.43071796769725));
#1480=CARTESIAN_POINT('',(-3.81477477934401E-16,-3.115,1.43071796769725));
#1481=CARTESIAN_POINT('Origin',(0.,1.27269028646984E-17,1.43071796769725));
#1482=CARTESIAN_POINT('',(-3.76578890737811E-16,-3.075,1.5));
#1483=CARTESIAN_POINT('',(-3.81477477934401E-16,-3.115,1.43071796769725));
#1484=CARTESIAN_POINT('Origin',(0.,-5.33562435715313E-31,1.5));
#1485=CARTESIAN_POINT('Origin',(0.,1.27269028646984E-17,1.43071796769725));
#1486=CARTESIAN_POINT('Origin',(0.,0.,1.5));
#1487=CARTESIAN_POINT('',(-3.81477477934401E-16,3.115,0.749999999999999));
#1488=CARTESIAN_POINT('',(-3.81477477934401E-16,3.115,1.5));
#1489=CARTESIAN_POINT('Origin',(0.,1.37772764904077E-16,0.749999999999999));
#1490=CARTESIAN_POINT('Origin',(0.,3.115,0.749999999999999));
#1491=CARTESIAN_POINT('Origin',(0.,3.075,1.5));
#1492=CARTESIAN_POINT('Origin',(0.,1.37772764904074E-17,1.425));
#1493=CARTESIAN_POINT('',(-3.81477477934401E-16,3.115,1.26224046373013));
#1494=CARTESIAN_POINT('Origin',(0.,4.36757182589488E-17,1.26224046373013));
#1495=CARTESIAN_POINT('',(-3.88732239837527E-16,3.1742396265452,1.425));
#1496=CARTESIAN_POINT('',(-3.88732239837527E-16,3.1742396265452,1.425));
#1497=CARTESIAN_POINT('Origin',(0.,1.37772764904074E-17,1.425));
#1498=CARTESIAN_POINT('Origin',(0.,-8.95204324116631E-32,1.5));
#1499=CARTESIAN_POINT('',(-3.97917090831132E-16,3.2492396265452,1.5));
#1500=CARTESIAN_POINT('',(-3.97917090831132E-16,3.2492396265452,1.5));
#1501=CARTESIAN_POINT('Origin',(0.,-8.95204324116631E-32,1.5));
#1502=CARTESIAN_POINT('Origin',(0.,2.75545529808153E-17,1.35));
#1503=CARTESIAN_POINT('',(4.28626379701574E-16,3.5,1.35));
#1504=CARTESIAN_POINT('',(-4.28626379701574E-16,-3.5,1.35));
#1505=CARTESIAN_POINT('Origin',(0.,2.75545529808153E-17,1.35));
#1506=CARTESIAN_POINT('',(-4.18020627314325E-16,-3.41339745962156,1.5));
#1507=CARTESIAN_POINT('',(-4.28626379701574E-16,-3.5,1.35));
#1508=CARTESIAN_POINT('Origin',(0.,-1.23813934405274E-31,1.5));
#1509=CARTESIAN_POINT('Origin',(0.,2.75545529808153E-17,1.35));
#1510=CARTESIAN_POINT('Origin',(0.,0.,1.5));
#1511=CARTESIAN_POINT('',(-4.28626379701574E-16,3.5,-1.35));
#1512=CARTESIAN_POINT('',(-4.28626379701574E-16,3.5,1.5));
#1513=CARTESIAN_POINT('Origin',(0.,5.23536506635494E-16,-1.35));
#1514=CARTESIAN_POINT('Origin',(0.,5.5109105961631E-16,-1.5));
#1515=CARTESIAN_POINT('',(-4.18020627314325E-16,3.41339745962156,-1.5));
#1516=CARTESIAN_POINT('',(-4.18020627314325E-16,3.41339745962156,-1.5));
#1517=CARTESIAN_POINT('Origin',(0.,5.5109105961631E-16,-1.5));
#1518=CARTESIAN_POINT('Origin',(0.,5.37313783125902E-16,-1.425));
#1519=CARTESIAN_POINT('',(-3.88732239837527E-16,-3.1742396265452,-1.42500000000001));
#1520=CARTESIAN_POINT('Origin',(0.,5.37313783125902E-16,-1.425));
#1521=CARTESIAN_POINT('',(-3.97917090831132E-16,-3.2492396265452,-1.5));
#1522=CARTESIAN_POINT('',(-3.88732239837527E-16,-3.1742396265452,-1.42500000000001));
#1523=CARTESIAN_POINT('Origin',(0.,5.51091059616309E-16,-1.5));
#1524=CARTESIAN_POINT('Origin',(0.,5.07415341357361E-16,-1.26224046373013));
#1525=CARTESIAN_POINT('',(3.814774779344E-16,3.115,-1.26224046373013));
#1526=CARTESIAN_POINT('',(-3.814774779344E-16,-3.115,-1.26224046373013));
#1527=CARTESIAN_POINT('Origin',(0.,5.07415341357361E-16,-1.26224046373013));
#1528=CARTESIAN_POINT('',(-3.814774779344E-16,-3.115,-1.26224046373013));
#1529=CARTESIAN_POINT('Origin',(0.,5.07415341357361E-16,-1.26224046373013));
#1530=CARTESIAN_POINT('Origin',(0.,0.,1.5));
#1531=CARTESIAN_POINT('',(-3.814774779344E-16,3.115,-0.564909038892301));
#1532=CARTESIAN_POINT('',(-3.814774779344E-16,3.115,1.5));
#1533=CARTESIAN_POINT('Origin',(0.,3.79317636751484E-16,-0.564909038892302));
#1534=CARTESIAN_POINT('Origin',(0.,4.33680868994202E-16,-1.58219545879456E-15));
#1535=CARTESIAN_POINT('',(-3.814774779344E-16,3.115,0.564909038892299));
#1536=CARTESIAN_POINT('Origin',(-3.21061569176464E-16,2.62166666666667,
-1.10060310502986E-15));
#1537=CARTESIAN_POINT('Origin',(0.,1.71773422864825E-16,0.564909038892298));
#1538=CARTESIAN_POINT('Origin',(0.,0.,1.5));
#1539=CARTESIAN_POINT('',(-3.81477477934401E-16,3.115,1.5));
#1540=CARTESIAN_POINT('Origin',(0.,3.41339745962156,-1.5));
#1541=CARTESIAN_POINT('Origin',(0.,3.41339745962156,1.5));
#1542=CARTESIAN_POINT('Origin',(0.,0.,1.5));
#1543=CARTESIAN_POINT('',(-2.60645660418529E-16,2.12833333333334,0.749999999999999));
#1544=CARTESIAN_POINT('Origin',(0.,1.37772764904077E-16,0.749999999999999));
#1545=CARTESIAN_POINT('',(-2.60645660418529E-16,2.12833333333334,1.47));
#1546=CARTESIAN_POINT('',(-2.60645660418529E-16,2.12833333333334,1.5));
#1547=CARTESIAN_POINT('Origin',(0.,5.51091059616258E-18,1.47));
#1548=CARTESIAN_POINT('Origin',(0.,0.,1.47));
#1549=CARTESIAN_POINT('',(-2.67993541213413E-16,2.18833333333334,1.47));
#1550=CARTESIAN_POINT('Origin',(-2.64319600815971E-16,2.15833333333334,
1.47));
#1551=CARTESIAN_POINT('Origin',(0.,5.51091059616254E-18,1.47));
#1552=CARTESIAN_POINT('Origin',(0.,0.,1.5));
#1553=CARTESIAN_POINT('',(-2.67993541213413E-16,2.18833333333334,1.445));
#1554=CARTESIAN_POINT('',(-2.67993541213413E-16,2.18833333333334,1.5));
#1555=CARTESIAN_POINT('Origin',(0.,1.01033360929651E-17,1.445));
#1556=CARTESIAN_POINT('Origin',(0.,0.,1.445));
#1557=CARTESIAN_POINT('',(-2.70017519441793E-16,2.20486036978,1.44644592833077));
#1558=CARTESIAN_POINT('Origin',(-2.6901327636172E-16,2.19666010272527,1.445));
#1559=CARTESIAN_POINT('',(2.7023017712675E-16,-2.20486036978,1.44644592833076));
#1560=CARTESIAN_POINT('Origin',(0.,9.83772336765543E-18,1.44644592833077));
#1561=CARTESIAN_POINT('Origin',(0.,9.83772336765543E-18,1.44644592833077));
#1562=CARTESIAN_POINT('Origin',(0.,1.34558483551611E-17,1.42674977327052));
#1563=CARTESIAN_POINT('',(2.70442834811708E-16,2.20833333333334,1.42674977327052));
#1564=CARTESIAN_POINT('',(-2.70442834811708E-16,-2.20833333333334,1.42674977327052));
#1565=CARTESIAN_POINT('Origin',(0.,1.34558483551611E-17,1.42674977327052));
#1566=CARTESIAN_POINT('',(-2.70442834811708E-16,-2.20833333333334,1.42674977327052));
#1567=CARTESIAN_POINT('Origin',(0.,1.34558483551611E-17,1.42674977327052));
#1568=CARTESIAN_POINT('Origin',(0.,0.,1.5));
#1569=CARTESIAN_POINT('',(-2.70442834811708E-16,2.20833333333334,0.749999999999999));
#1570=CARTESIAN_POINT('',(-2.70442834811708E-16,2.20833333333334,1.5));
#1571=CARTESIAN_POINT('Origin',(0.,1.37772764904077E-16,0.749999999999999));
#1572=CARTESIAN_POINT('Origin',(0.,2.12833333333334,0.749999999999999));
#1573=CARTESIAN_POINT('Origin',(0.,-6.74999999999999,1.8242146784972E-16));
#1574=CARTESIAN_POINT('',(22.5,-7.99999999999999,-2.50364489119275E-15));
#1575=CARTESIAN_POINT('Origin',(0.,-7.99999999999999,2.51810406888792E-16));
#1576=CARTESIAN_POINT('',(25.,-5.49999999999999,3.17464952667903E-15));
#1577=CARTESIAN_POINT('',(23.75,-6.74999999999999,3.09095761582468E-15));
#1578=CARTESIAN_POINT('Origin',(0.,-5.49999999999999,1.13032528810648E-16));
#1579=CARTESIAN_POINT('Origin',(0.,3.00000000000001,-3.58812256655042E-16));
#1580=CARTESIAN_POINT('',(25.,-1.47474487139158,-2.97975221228504E-15));
#1581=CARTESIAN_POINT('Origin',(0.,-1.47474487139158,8.18647855833401E-17));
#1582=CARTESIAN_POINT('',(25.,3.00000000000001,-3.42042925452343E-15));
#1583=CARTESIAN_POINT('Origin',(0.,-7.99999999999999,5.27355936696947E-16));
#1584=CARTESIAN_POINT('',(3.50000000000001,-7.99999999999999,-1.76815972812783E-16));
#1585=CARTESIAN_POINT('Origin',(0.,-7.99999999999999,2.51810406888792E-16));
#1586=CARTESIAN_POINT('Origin',(0.,6.75000000000001,-5.66979073772258E-16));
#1587=CARTESIAN_POINT('',(22.5,8.00000000000001,2.11908728527021E-15));
#1588=CARTESIAN_POINT('Origin',(0.,8.00000000000001,-6.3636801281133E-16));
#1589=CARTESIAN_POINT('',(25.,5.50000000000001,-3.55920713260157E-15));
#1590=CARTESIAN_POINT('',(23.75,6.75000000000001,-3.47551522174722E-15));
#1591=CARTESIAN_POINT('Origin',(0.,5.50000000000001,-4.97590134733186E-16));
#1592=CARTESIAN_POINT('Origin',(0.,3.00000000000001,-3.58812256655042E-16));
#1593=CARTESIAN_POINT('',(25.,1.4747448713916,2.97975221228504E-15));
#1594=CARTESIAN_POINT('',(25.,3.00000000000001,-3.42042925452343E-15));
#1595=CARTESIAN_POINT('Origin',(0.,1.4747448713916,-8.18647855833401E-17));
#1596=CARTESIAN_POINT('Origin',(0.,8.00000000000001,-3.60822483003175E-16));
#1597=CARTESIAN_POINT('',(3.50000000000001,8.00000000000001,-1.0649943925129E-15));
#1598=CARTESIAN_POINT('Origin',(0.,8.00000000000001,-6.3636801281133E-16));
#1599=CARTESIAN_POINT('Origin',(0.,-1.31262273675,4.093239279167E-17));
#1600=CARTESIAN_POINT('',(24.7612788478609,-1.15050060210842,2.9685164754675E-15));
#1601=CARTESIAN_POINT('',(24.8806394239305,-1.31262273675,3.05599912945961E-15));
#1602=CARTESIAN_POINT('',(-3.0323820883828E-15,-1.15050060210842,24.7612788478609));
#1603=CARTESIAN_POINT('Origin',(0.,-1.15050060210842,0.));
#1604=CARTESIAN_POINT('Origin',(0.,-1.15050060210842,0.));
#1605=CARTESIAN_POINT('Origin',(0.,1.31262273675002,-4.093239279167E-17));
#1606=CARTESIAN_POINT('',(24.7612788478609,1.15050060210844,-2.9685164754675E-15));
#1607=CARTESIAN_POINT('',(24.8806394239305,1.31262273675002,-3.05599912945961E-15));
#1608=CARTESIAN_POINT('',(-3.0323820883828E-15,1.15050060210844,24.7612788478609));
#1609=CARTESIAN_POINT('Origin',(0.,1.15050060210844,0.));
#1610=CARTESIAN_POINT('Origin',(0.,1.15050060210844,0.));
#1611=CARTESIAN_POINT('Origin',(0.,8.88178419700125E-15,0.));
#1612=CARTESIAN_POINT('Origin',(-3.09223316784707E-15,8.88178419700125E-15,
25.25));
#1613=CARTESIAN_POINT('Origin',(0.,3.00000000000001,-3.58812256655042E-16));
#1614=CARTESIAN_POINT('',(3.50000000000001,3.00000000000001,-7.87438636356616E-16));
#1615=CARTESIAN_POINT('',(0.,0.,0.));
#1616=UNCERTAINTY_MEASURE_WITH_UNIT(LENGTH_MEASURE(0.01),#1622,
'DISTANCE_ACCURACY_VALUE',
'Maximum model space distance between geometric entities at asserted c
onnectivities');
#1617=UNCERTAINTY_MEASURE_WITH_UNIT(LENGTH_MEASURE(0.01),#1622,
'DISTANCE_ACCURACY_VALUE',
'Maximum model space distance between geometric entities at asserted c
onnectivities');
#1618=UNCERTAINTY_MEASURE_WITH_UNIT(LENGTH_MEASURE(0.01),#1622,
'DISTANCE_ACCURACY_VALUE',
'Maximum model space distance between geometric entities at asserted c
onnectivities');
#1619=(
GEOMETRIC_REPRESENTATION_CONTEXT(3)
GLOBAL_UNCERTAINTY_ASSIGNED_CONTEXT((#1616))
GLOBAL_UNIT_ASSIGNED_CONTEXT((#1622,#1624,#1625))
REPRESENTATION_CONTEXT('','3D')
);
#1620=(
GEOMETRIC_REPRESENTATION_CONTEXT(3)
GLOBAL_UNCERTAINTY_ASSIGNED_CONTEXT((#1617))
GLOBAL_UNIT_ASSIGNED_CONTEXT((#1622,#1624,#1625))
REPRESENTATION_CONTEXT('','3D')
);
#1621=(
GEOMETRIC_REPRESENTATION_CONTEXT(3)
GLOBAL_UNCERTAINTY_ASSIGNED_CONTEXT((#1618))
GLOBAL_UNIT_ASSIGNED_CONTEXT((#1622,#1624,#1625))
REPRESENTATION_CONTEXT('','3D')
);
#1622=(
LENGTH_UNIT()
NAMED_UNIT(*)
SI_UNIT(.MILLI.,.METRE.)
);
#1623=(
LENGTH_UNIT()
NAMED_UNIT(*)
SI_UNIT($,.METRE.)
);
#1624=(
NAMED_UNIT(*)
PLANE_ANGLE_UNIT()
SI_UNIT($,.RADIAN.)
);
#1625=(
NAMED_UNIT(*)
SI_UNIT($,.STERADIAN.)
SOLID_ANGLE_UNIT()
);
#1626=SHAPE_DEFINITION_REPRESENTATION(#1628,#1631);
#1627=SHAPE_DEFINITION_REPRESENTATION(#1629,#1632);
#1628=PRODUCT_DEFINITION_SHAPE('',$,#1634);
#1629=PRODUCT_DEFINITION_SHAPE('',$,#1635);
#1630=PRODUCT_DEFINITION_SHAPE($,$,#14);
#1631=SHAPE_REPRESENTATION('',(#896,#1040),#1619);
#1632=SHAPE_REPRESENTATION('',(#897),#1620);
#1633=PRODUCT_DEFINITION_CONTEXT('part definition',#1641,'design');
#1634=PRODUCT_DEFINITION('Pulley','Pulley v6',#1636,#1633);
#1635=PRODUCT_DEFINITION(
'4668K216_Permanently Lubricated Stainless Steel Ball Bearing',
'4668K216_Permanently Lubricated Stainless Steel Ball Bearing',#1637,#1633);
#1636=PRODUCT_DEFINITION_FORMATION('',$,#1643);
#1637=PRODUCT_DEFINITION_FORMATION('',$,#1644);
#1638=PRODUCT_RELATED_PRODUCT_CATEGORY('Pulley v6','Pulley v6',(#1643));
#1639=PRODUCT_RELATED_PRODUCT_CATEGORY(
'4668K216_Permanently Lubricated Stainless Steel Ball Bearing',
'4668K216_Permanently Lubricated Stainless Steel Ball Bearing',(#1644));
#1640=APPLICATION_PROTOCOL_DEFINITION('international standard',
'automotive_design',2009,#1641);
#1641=APPLICATION_CONTEXT(
'Core Data for Automotive Mechanical Design Process');
#1642=PRODUCT_CONTEXT('part definition',#1641,'mechanical');
#1643=PRODUCT('Pulley','Pulley v6',$,(#1642));
#1644=PRODUCT(
'4668K216_Permanently Lubricated Stainless Steel Ball Bearing',
'4668K216_Permanently Lubricated Stainless Steel Ball Bearing',$,(#1642));
#1645=PRESENTATION_STYLE_ASSIGNMENT((#1646));
#1646=SURFACE_STYLE_USAGE(.BOTH.,#1647);
#1647=SURFACE_SIDE_STYLE('',(#1648));
#1648=SURFACE_STYLE_FILL_AREA(#1649);
#1649=FILL_AREA_STYLE('Steel - Satin',(#1650));
#1650=FILL_AREA_STYLE_COLOUR('Steel - Satin',#1651);
#1651=COLOUR_RGB('Steel - Satin',0.627450980392157,0.627450980392157,0.627450980392157);
ENDSEC;
END-ISO-10303-21;
