ISO-10303-21;
HEADER;
/* Generated by software containing ST-Developer
 * from STEP Tools, Inc. (www.steptools.com) 
 */

FILE_DESCRIPTION(
/* description */ (''),
/* implementation_level */ '2;1');

FILE_NAME(
/* name */ 'central arm mount v6.step',
/* time_stamp */ '2026-03-10T16:04:57-04:00',
/* author */ (''),
/* organization */ (''),
/* preprocessor_version */ 'ST-DEVELOPER v20.1',
/* originating_system */ 'Autodesk Translation Framework v14.24.0.0',
/* authorisation */ '');

FILE_SCHEMA (('AUTOMOTIVE_DESIGN { 1 0 10303 214 3 1 1 }'));
ENDSEC;

DATA;
#10=MECHANICAL_DESIGN_GEOMETRIC_PRESENTATION_REPRESENTATION('',(#13),#1341);
#11=SHAPE_REPRESENTATION_RELATIONSHIP('SRR','None',#1347,#12);
#12=ADVANCED_BREP_SHAPE_REPRESENTATION('',(#14),#1340);
#13=STYLED_ITEM('',(#1356),#14);
#14=MANIFOLD_SOLID_BREP('Body1',#809);
#15=CYLINDRICAL_SURFACE('',#828,20.);
#16=CYLINDRICAL_SURFACE('',#837,20.);
#17=CYLINDRICAL_SURFACE('',#840,20.);
#18=CYLINDRICAL_SURFACE('',#846,3.25);
#19=CYLINDRICAL_SURFACE('',#847,1.7);
#20=CYLINDRICAL_SURFACE('',#852,3.25);
#21=CYLINDRICAL_SURFACE('',#853,1.7);
#22=CYLINDRICAL_SURFACE('',#858,3.25);
#23=CYLINDRICAL_SURFACE('',#859,1.7);
#24=CYLINDRICAL_SURFACE('',#863,10.);
#25=CYLINDRICAL_SURFACE('',#869,10.);
#26=CYLINDRICAL_SURFACE('',#876,10.);
#27=FACE_BOUND('',#114,.T.);
#28=FACE_BOUND('',#115,.T.);
#29=FACE_BOUND('',#116,.T.);
#30=FACE_BOUND('',#134,.T.);
#31=FACE_BOUND('',#138,.T.);
#32=FACE_BOUND('',#142,.T.);
#33=FACE_BOUND('',#149,.T.);
#34=FACE_BOUND('',#154,.T.);
#35=FACE_BOUND('',#160,.T.);
#36=CIRCLE('',#813,20.);
#37=CIRCLE('',#814,25.);
#38=CIRCLE('',#817,25.);
#39=CIRCLE('',#818,25.);
#40=CIRCLE('',#819,3.25);
#41=CIRCLE('',#820,3.25);
#42=CIRCLE('',#821,3.25);
#43=CIRCLE('',#825,20.);
#44=CIRCLE('',#829,20.);
#45=CIRCLE('',#834,20.);
#46=CIRCLE('',#838,20.);
#47=CIRCLE('',#841,20.);
#48=CIRCLE('',#844,3.25);
#49=CIRCLE('',#845,1.7);
#50=CIRCLE('',#848,1.7);
#51=CIRCLE('',#850,3.25);
#52=CIRCLE('',#851,1.7);
#53=CIRCLE('',#854,1.7);
#54=CIRCLE('',#856,3.25);
#55=CIRCLE('',#857,1.7);
#56=CIRCLE('',#860,1.7);
#57=CIRCLE('',#864,10.);
#58=CIRCLE('',#865,10.);
#59=CIRCLE('',#870,10.);
#60=CIRCLE('',#871,10.);
#61=CIRCLE('',#877,10.);
#62=CIRCLE('',#878,10.);
#63=CONICAL_SURFACE('',#812,22.5,0.785398163397448);
#64=CONICAL_SURFACE('',#824,22.5,0.785398163397448);
#65=CONICAL_SURFACE('',#833,22.5,0.78539816339745);
#66=FACE_OUTER_BOUND('',#110,.T.);
#67=FACE_OUTER_BOUND('',#111,.T.);
#68=FACE_OUTER_BOUND('',#112,.T.);
#69=FACE_OUTER_BOUND('',#113,.T.);
#70=FACE_OUTER_BOUND('',#117,.T.);
#71=FACE_OUTER_BOUND('',#118,.T.);
#72=FACE_OUTER_BOUND('',#119,.T.);
#73=FACE_OUTER_BOUND('',#120,.T.);
#74=FACE_OUTER_BOUND('',#121,.T.);
#75=FACE_OUTER_BOUND('',#122,.T.);
#76=FACE_OUTER_BOUND('',#123,.T.);
#77=FACE_OUTER_BOUND('',#124,.T.);
#78=FACE_OUTER_BOUND('',#125,.T.);
#79=FACE_OUTER_BOUND('',#126,.T.);
#80=FACE_OUTER_BOUND('',#127,.T.);
#81=FACE_OUTER_BOUND('',#128,.T.);
#82=FACE_OUTER_BOUND('',#129,.T.);
#83=FACE_OUTER_BOUND('',#130,.T.);
#84=FACE_OUTER_BOUND('',#131,.T.);
#85=FACE_OUTER_BOUND('',#132,.T.);
#86=FACE_OUTER_BOUND('',#133,.T.);
#87=FACE_OUTER_BOUND('',#135,.T.);
#88=FACE_OUTER_BOUND('',#136,.T.);
#89=FACE_OUTER_BOUND('',#137,.T.);
#90=FACE_OUTER_BOUND('',#139,.T.);
#91=FACE_OUTER_BOUND('',#140,.T.);
#92=FACE_OUTER_BOUND('',#141,.T.);
#93=FACE_OUTER_BOUND('',#143,.T.);
#94=FACE_OUTER_BOUND('',#144,.T.);
#95=FACE_OUTER_BOUND('',#145,.T.);
#96=FACE_OUTER_BOUND('',#146,.T.);
#97=FACE_OUTER_BOUND('',#147,.T.);
#98=FACE_OUTER_BOUND('',#148,.T.);
#99=FACE_OUTER_BOUND('',#150,.T.);
#100=FACE_OUTER_BOUND('',#151,.T.);
#101=FACE_OUTER_BOUND('',#152,.T.);
#102=FACE_OUTER_BOUND('',#153,.T.);
#103=FACE_OUTER_BOUND('',#155,.T.);
#104=FACE_OUTER_BOUND('',#156,.T.);
#105=FACE_OUTER_BOUND('',#157,.T.);
#106=FACE_OUTER_BOUND('',#158,.T.);
#107=FACE_OUTER_BOUND('',#159,.T.);
#108=FACE_OUTER_BOUND('',#161,.T.);
#109=FACE_OUTER_BOUND('',#162,.T.);
#110=EDGE_LOOP('',(#514,#515,#516,#517));
#111=EDGE_LOOP('',(#518,#519,#520,#521));
#112=EDGE_LOOP('',(#522,#523,#524,#525));
#113=EDGE_LOOP('',(#526,#527,#528,#529,#530,#531,#532,#533,#534,#535,#536,
#537));
#114=EDGE_LOOP('',(#538));
#115=EDGE_LOOP('',(#539));
#116=EDGE_LOOP('',(#540));
#117=EDGE_LOOP('',(#541,#542,#543,#544,#545,#546,#547,#548,#549,#550));
#118=EDGE_LOOP('',(#551,#552,#553,#554));
#119=EDGE_LOOP('',(#555,#556,#557,#558));
#120=EDGE_LOOP('',(#559,#560,#561,#562));
#121=EDGE_LOOP('',(#563,#564,#565,#566));
#122=EDGE_LOOP('',(#567,#568,#569,#570));
#123=EDGE_LOOP('',(#571,#572,#573,#574));
#124=EDGE_LOOP('',(#575,#576,#577,#578,#579,#580,#581,#582,#583,#584));
#125=EDGE_LOOP('',(#585,#586,#587,#588));
#126=EDGE_LOOP('',(#589,#590,#591,#592));
#127=EDGE_LOOP('',(#593,#594,#595,#596));
#128=EDGE_LOOP('',(#597,#598,#599,#600));
#129=EDGE_LOOP('',(#601,#602,#603,#604));
#130=EDGE_LOOP('',(#605,#606,#607,#608));
#131=EDGE_LOOP('',(#609,#610,#611,#612));
#132=EDGE_LOOP('',(#613,#614,#615,#616));
#133=EDGE_LOOP('',(#617));
#134=EDGE_LOOP('',(#618));
#135=EDGE_LOOP('',(#619,#620,#621,#622));
#136=EDGE_LOOP('',(#623,#624,#625,#626));
#137=EDGE_LOOP('',(#627));
#138=EDGE_LOOP('',(#628));
#139=EDGE_LOOP('',(#629,#630,#631,#632));
#140=EDGE_LOOP('',(#633,#634,#635,#636));
#141=EDGE_LOOP('',(#637));
#142=EDGE_LOOP('',(#638));
#143=EDGE_LOOP('',(#639,#640,#641,#642));
#144=EDGE_LOOP('',(#643,#644,#645,#646));
#145=EDGE_LOOP('',(#647,#648,#649,#650));
#146=EDGE_LOOP('',(#651,#652,#653,#654));
#147=EDGE_LOOP('',(#655,#656,#657,#658));
#148=EDGE_LOOP('',(#659,#660,#661,#662));
#149=EDGE_LOOP('',(#663));
#150=EDGE_LOOP('',(#664,#665,#666,#667));
#151=EDGE_LOOP('',(#668,#669,#670,#671));
#152=EDGE_LOOP('',(#672,#673,#674,#675));
#153=EDGE_LOOP('',(#676,#677,#678,#679));
#154=EDGE_LOOP('',(#680));
#155=EDGE_LOOP('',(#681,#682,#683,#684,#685,#686,#687,#688,#689,#690));
#156=EDGE_LOOP('',(#691,#692,#693,#694));
#157=EDGE_LOOP('',(#695,#696,#697,#698));
#158=EDGE_LOOP('',(#699,#700,#701,#702));
#159=EDGE_LOOP('',(#703,#704,#705,#706));
#160=EDGE_LOOP('',(#707));
#161=EDGE_LOOP('',(#708,#709,#710,#711));
#162=EDGE_LOOP('',(#712,#713,#714,#715,#716,#717,#718,#719,#720,#721,#722,
#723,#724,#725,#726,#727,#728,#729,#730,#731,#732,#733,#734,#735));
#163=LINE('',#1114,#247);
#164=LINE('',#1116,#248);
#165=LINE('',#1118,#249);
#166=LINE('',#1119,#250);
#167=LINE('',#1124,#251);
#168=LINE('',#1129,#252);
#169=LINE('',#1130,#253);
#170=LINE('',#1131,#254);
#171=LINE('',#1134,#255);
#172=LINE('',#1136,#256);
#173=LINE('',#1140,#257);
#174=LINE('',#1142,#258);
#175=LINE('',#1144,#259);
#176=LINE('',#1148,#260);
#177=LINE('',#1149,#261);
#178=LINE('',#1158,#262);
#179=LINE('',#1160,#263);
#180=LINE('',#1162,#264);
#181=LINE('',#1164,#265);
#182=LINE('',#1166,#266);
#183=LINE('',#1168,#267);
#184=LINE('',#1170,#268);
#185=LINE('',#1171,#269);
#186=LINE('',#1174,#270);
#187=LINE('',#1176,#271);
#188=LINE('',#1177,#272);
#189=LINE('',#1181,#273);
#190=LINE('',#1184,#274);
#191=LINE('',#1185,#275);
#192=LINE('',#1188,#276);
#193=LINE('',#1190,#277);
#194=LINE('',#1191,#278);
#195=LINE('',#1194,#279);
#196=LINE('',#1198,#280);
#197=LINE('',#1199,#281);
#198=LINE('',#1202,#282);
#199=LINE('',#1204,#283);
#200=LINE('',#1206,#284);
#201=LINE('',#1208,#285);
#202=LINE('',#1210,#286);
#203=LINE('',#1212,#287);
#204=LINE('',#1213,#288);
#205=LINE('',#1216,#289);
#206=LINE('',#1217,#290);
#207=LINE('',#1221,#291);
#208=LINE('',#1223,#292);
#209=LINE('',#1226,#293);
#210=LINE('',#1227,#294);
#211=LINE('',#1230,#295);
#212=LINE('',#1233,#296);
#213=LINE('',#1236,#297);
#214=LINE('',#1239,#298);
#215=LINE('',#1241,#299);
#216=LINE('',#1248,#300);
#217=LINE('',#1251,#301);
#218=LINE('',#1259,#302);
#219=LINE('',#1262,#303);
#220=LINE('',#1270,#304);
#221=LINE('',#1273,#305);
#222=LINE('',#1277,#306);
#223=LINE('',#1279,#307);
#224=LINE('',#1280,#308);
#225=LINE('',#1283,#309);
#226=LINE('',#1285,#310);
#227=LINE('',#1286,#311);
#228=LINE('',#1294,#312);
#229=LINE('',#1296,#313);
#230=LINE('',#1298,#314);
#231=LINE('',#1299,#315);
#232=LINE('',#1303,#316);
#233=LINE('',#1305,#317);
#234=LINE('',#1307,#318);
#235=LINE('',#1308,#319);
#236=LINE('',#1313,#320);
#237=LINE('',#1315,#321);
#238=LINE('',#1317,#322);
#239=LINE('',#1318,#323);
#240=LINE('',#1321,#324);
#241=LINE('',#1323,#325);
#242=LINE('',#1324,#326);
#243=LINE('',#1327,#327);
#244=LINE('',#1329,#328);
#245=LINE('',#1330,#329);
#246=LINE('',#1336,#330);
#247=VECTOR('',#886,10.);
#248=VECTOR('',#887,10.);
#249=VECTOR('',#888,10.);
#250=VECTOR('',#889,10.);
#251=VECTOR('',#894,10.);
#252=VECTOR('',#899,10.);
#253=VECTOR('',#900,10.);
#254=VECTOR('',#901,10.);
#255=VECTOR('',#904,10.);
#256=VECTOR('',#905,10.);
#257=VECTOR('',#908,10.);
#258=VECTOR('',#909,10.);
#259=VECTOR('',#910,10.);
#260=VECTOR('',#913,10.);
#261=VECTOR('',#914,10.);
#262=VECTOR('',#923,10.);
#263=VECTOR('',#924,10.);
#264=VECTOR('',#925,10.);
#265=VECTOR('',#926,10.);
#266=VECTOR('',#927,10.);
#267=VECTOR('',#928,10.);
#268=VECTOR('',#929,10.);
#269=VECTOR('',#930,10.);
#270=VECTOR('',#933,10.);
#271=VECTOR('',#934,10.);
#272=VECTOR('',#935,10.);
#273=VECTOR('',#940,10.);
#274=VECTOR('',#943,10.);
#275=VECTOR('',#944,10.);
#276=VECTOR('',#947,10.);
#277=VECTOR('',#948,10.);
#278=VECTOR('',#949,10.);
#279=VECTOR('',#952,10.);
#280=VECTOR('',#957,10.);
#281=VECTOR('',#958,10.);
#282=VECTOR('',#961,10.);
#283=VECTOR('',#962,10.);
#284=VECTOR('',#963,10.);
#285=VECTOR('',#964,10.);
#286=VECTOR('',#965,10.);
#287=VECTOR('',#966,10.);
#288=VECTOR('',#967,10.);
#289=VECTOR('',#970,10.);
#290=VECTOR('',#971,10.);
#291=VECTOR('',#976,10.);
#292=VECTOR('',#979,10.);
#293=VECTOR('',#982,10.);
#294=VECTOR('',#983,10.);
#295=VECTOR('',#986,10.);
#296=VECTOR('',#991,10.);
#297=VECTOR('',#994,10.);
#298=VECTOR('',#997,10.);
#299=VECTOR('',#1000,10.);
#300=VECTOR('',#1009,3.25);
#301=VECTOR('',#1012,1.7);
#302=VECTOR('',#1023,3.25);
#303=VECTOR('',#1026,1.7);
#304=VECTOR('',#1037,3.25);
#305=VECTOR('',#1040,1.7);
#306=VECTOR('',#1045,10.);
#307=VECTOR('',#1046,10.);
#308=VECTOR('',#1047,10.);
#309=VECTOR('',#1050,10.);
#310=VECTOR('',#1051,10.);
#311=VECTOR('',#1052,10.);
#312=VECTOR('',#1063,10.);
#313=VECTOR('',#1064,10.);
#314=VECTOR('',#1065,10.);
#315=VECTOR('',#1066,10.);
#316=VECTOR('',#1069,10.);
#317=VECTOR('',#1070,10.);
#318=VECTOR('',#1071,10.);
#319=VECTOR('',#1072,10.);
#320=VECTOR('',#1081,10.);
#321=VECTOR('',#1084,10.);
#322=VECTOR('',#1085,10.);
#323=VECTOR('',#1086,10.);
#324=VECTOR('',#1089,10.);
#325=VECTOR('',#1090,10.);
#326=VECTOR('',#1091,10.);
#327=VECTOR('',#1094,10.);
#328=VECTOR('',#1095,10.);
#329=VECTOR('',#1096,10.);
#330=VECTOR('',#1107,10.);
#331=VERTEX_POINT('',#1112);
#332=VERTEX_POINT('',#1113);
#333=VERTEX_POINT('',#1115);
#334=VERTEX_POINT('',#1117);
#335=VERTEX_POINT('',#1121);
#336=VERTEX_POINT('',#1123);
#337=VERTEX_POINT('',#1127);
#338=VERTEX_POINT('',#1128);
#339=VERTEX_POINT('',#1133);
#340=VERTEX_POINT('',#1135);
#341=VERTEX_POINT('',#1137);
#342=VERTEX_POINT('',#1139);
#343=VERTEX_POINT('',#1141);
#344=VERTEX_POINT('',#1143);
#345=VERTEX_POINT('',#1145);
#346=VERTEX_POINT('',#1147);
#347=VERTEX_POINT('',#1150);
#348=VERTEX_POINT('',#1152);
#349=VERTEX_POINT('',#1154);
#350=VERTEX_POINT('',#1157);
#351=VERTEX_POINT('',#1159);
#352=VERTEX_POINT('',#1161);
#353=VERTEX_POINT('',#1163);
#354=VERTEX_POINT('',#1165);
#355=VERTEX_POINT('',#1167);
#356=VERTEX_POINT('',#1169);
#357=VERTEX_POINT('',#1173);
#358=VERTEX_POINT('',#1175);
#359=VERTEX_POINT('',#1179);
#360=VERTEX_POINT('',#1183);
#361=VERTEX_POINT('',#1187);
#362=VERTEX_POINT('',#1189);
#363=VERTEX_POINT('',#1193);
#364=VERTEX_POINT('',#1197);
#365=VERTEX_POINT('',#1201);
#366=VERTEX_POINT('',#1203);
#367=VERTEX_POINT('',#1205);
#368=VERTEX_POINT('',#1207);
#369=VERTEX_POINT('',#1209);
#370=VERTEX_POINT('',#1211);
#371=VERTEX_POINT('',#1215);
#372=VERTEX_POINT('',#1219);
#373=VERTEX_POINT('',#1225);
#374=VERTEX_POINT('',#1229);
#375=VERTEX_POINT('',#1235);
#376=VERTEX_POINT('',#1237);
#377=VERTEX_POINT('',#1243);
#378=VERTEX_POINT('',#1245);
#379=VERTEX_POINT('',#1250);
#380=VERTEX_POINT('',#1254);
#381=VERTEX_POINT('',#1256);
#382=VERTEX_POINT('',#1261);
#383=VERTEX_POINT('',#1265);
#384=VERTEX_POINT('',#1267);
#385=VERTEX_POINT('',#1272);
#386=VERTEX_POINT('',#1276);
#387=VERTEX_POINT('',#1278);
#388=VERTEX_POINT('',#1282);
#389=VERTEX_POINT('',#1284);
#390=VERTEX_POINT('',#1292);
#391=VERTEX_POINT('',#1293);
#392=VERTEX_POINT('',#1295);
#393=VERTEX_POINT('',#1297);
#394=VERTEX_POINT('',#1301);
#395=VERTEX_POINT('',#1302);
#396=VERTEX_POINT('',#1304);
#397=VERTEX_POINT('',#1306);
#398=VERTEX_POINT('',#1316);
#399=VERTEX_POINT('',#1320);
#400=VERTEX_POINT('',#1322);
#401=VERTEX_POINT('',#1326);
#402=VERTEX_POINT('',#1328);
#403=EDGE_CURVE('',#331,#332,#163,.T.);
#404=EDGE_CURVE('',#332,#333,#164,.T.);
#405=EDGE_CURVE('',#333,#334,#165,.T.);
#406=EDGE_CURVE('',#334,#331,#166,.T.);
#407=EDGE_CURVE('',#333,#335,#36,.T.);
#408=EDGE_CURVE('',#335,#336,#167,.T.);
#409=EDGE_CURVE('',#336,#334,#37,.T.);
#410=EDGE_CURVE('',#337,#338,#168,.T.);
#411=EDGE_CURVE('',#338,#336,#169,.T.);
#412=EDGE_CURVE('',#335,#337,#170,.T.);
#413=EDGE_CURVE('',#338,#339,#171,.T.);
#414=EDGE_CURVE('',#340,#339,#172,.T.);
#415=EDGE_CURVE('',#341,#340,#38,.T.);
#416=EDGE_CURVE('',#342,#341,#173,.T.);
#417=EDGE_CURVE('',#342,#343,#174,.T.);
#418=EDGE_CURVE('',#344,#343,#175,.T.);
#419=EDGE_CURVE('',#345,#344,#39,.T.);
#420=EDGE_CURVE('',#346,#345,#176,.T.);
#421=EDGE_CURVE('',#346,#331,#177,.T.);
#422=EDGE_CURVE('',#347,#347,#40,.T.);
#423=EDGE_CURVE('',#348,#348,#41,.T.);
#424=EDGE_CURVE('',#349,#349,#42,.T.);
#425=EDGE_CURVE('',#350,#337,#178,.T.);
#426=EDGE_CURVE('',#350,#351,#179,.T.);
#427=EDGE_CURVE('',#351,#352,#180,.T.);
#428=EDGE_CURVE('',#352,#353,#181,.T.);
#429=EDGE_CURVE('',#353,#354,#182,.T.);
#430=EDGE_CURVE('',#354,#355,#183,.T.);
#431=EDGE_CURVE('',#355,#356,#184,.T.);
#432=EDGE_CURVE('',#339,#356,#185,.T.);
#433=EDGE_CURVE('',#343,#357,#186,.T.);
#434=EDGE_CURVE('',#357,#358,#187,.T.);
#435=EDGE_CURVE('',#358,#344,#188,.T.);
#436=EDGE_CURVE('',#358,#359,#43,.T.);
#437=EDGE_CURVE('',#359,#345,#189,.T.);
#438=EDGE_CURVE('',#360,#346,#190,.T.);
#439=EDGE_CURVE('',#359,#360,#191,.T.);
#440=EDGE_CURVE('',#361,#359,#192,.T.);
#441=EDGE_CURVE('',#362,#361,#193,.T.);
#442=EDGE_CURVE('',#362,#360,#194,.T.);
#443=EDGE_CURVE('',#358,#363,#195,.T.);
#444=EDGE_CURVE('',#363,#361,#44,.T.);
#445=EDGE_CURVE('',#364,#357,#196,.T.);
#446=EDGE_CURVE('',#364,#363,#197,.T.);
#447=EDGE_CURVE('',#365,#342,#198,.T.);
#448=EDGE_CURVE('',#366,#365,#199,.T.);
#449=EDGE_CURVE('',#367,#366,#200,.T.);
#450=EDGE_CURVE('',#367,#368,#201,.T.);
#451=EDGE_CURVE('',#368,#369,#202,.T.);
#452=EDGE_CURVE('',#369,#370,#203,.T.);
#453=EDGE_CURVE('',#364,#370,#204,.T.);
#454=EDGE_CURVE('',#356,#371,#205,.T.);
#455=EDGE_CURVE('',#371,#340,#206,.T.);
#456=EDGE_CURVE('',#371,#372,#45,.T.);
#457=EDGE_CURVE('',#372,#341,#207,.T.);
#458=EDGE_CURVE('',#372,#365,#208,.T.);
#459=EDGE_CURVE('',#373,#372,#209,.T.);
#460=EDGE_CURVE('',#366,#373,#210,.T.);
#461=EDGE_CURVE('',#371,#374,#211,.T.);
#462=EDGE_CURVE('',#374,#373,#46,.T.);
#463=EDGE_CURVE('',#355,#374,#212,.T.);
#464=EDGE_CURVE('',#333,#375,#213,.T.);
#465=EDGE_CURVE('',#375,#376,#47,.T.);
#466=EDGE_CURVE('',#376,#335,#214,.T.);
#467=EDGE_CURVE('',#350,#376,#215,.T.);
#468=EDGE_CURVE('',#377,#377,#48,.T.);
#469=EDGE_CURVE('',#378,#378,#49,.T.);
#470=EDGE_CURVE('',#349,#377,#216,.T.);
#471=EDGE_CURVE('',#378,#379,#217,.T.);
#472=EDGE_CURVE('',#379,#379,#50,.T.);
#473=EDGE_CURVE('',#380,#380,#51,.T.);
#474=EDGE_CURVE('',#381,#381,#52,.T.);
#475=EDGE_CURVE('',#348,#380,#218,.T.);
#476=EDGE_CURVE('',#381,#382,#219,.T.);
#477=EDGE_CURVE('',#382,#382,#53,.T.);
#478=EDGE_CURVE('',#383,#383,#54,.T.);
#479=EDGE_CURVE('',#384,#384,#55,.T.);
#480=EDGE_CURVE('',#347,#383,#220,.T.);
#481=EDGE_CURVE('',#384,#385,#221,.T.);
#482=EDGE_CURVE('',#385,#385,#56,.T.);
#483=EDGE_CURVE('',#386,#369,#222,.T.);
#484=EDGE_CURVE('',#387,#386,#223,.T.);
#485=EDGE_CURVE('',#370,#387,#224,.T.);
#486=EDGE_CURVE('',#368,#388,#225,.T.);
#487=EDGE_CURVE('',#389,#367,#226,.T.);
#488=EDGE_CURVE('',#389,#388,#227,.T.);
#489=EDGE_CURVE('',#388,#386,#57,.T.);
#490=EDGE_CURVE('',#387,#389,#58,.T.);
#491=EDGE_CURVE('',#390,#391,#228,.T.);
#492=EDGE_CURVE('',#392,#390,#229,.T.);
#493=EDGE_CURVE('',#393,#392,#230,.T.);
#494=EDGE_CURVE('',#391,#393,#231,.T.);
#495=EDGE_CURVE('',#394,#395,#232,.T.);
#496=EDGE_CURVE('',#396,#394,#233,.T.);
#497=EDGE_CURVE('',#397,#396,#234,.T.);
#498=EDGE_CURVE('',#397,#395,#235,.T.);
#499=EDGE_CURVE('',#395,#390,#59,.T.);
#500=EDGE_CURVE('',#392,#397,#60,.T.);
#501=EDGE_CURVE('',#394,#391,#236,.T.);
#502=EDGE_CURVE('',#362,#396,#237,.T.);
#503=EDGE_CURVE('',#393,#398,#238,.T.);
#504=EDGE_CURVE('',#398,#332,#239,.T.);
#505=EDGE_CURVE('',#399,#353,#240,.T.);
#506=EDGE_CURVE('',#400,#399,#241,.T.);
#507=EDGE_CURVE('',#354,#400,#242,.T.);
#508=EDGE_CURVE('',#352,#401,#243,.T.);
#509=EDGE_CURVE('',#402,#351,#244,.T.);
#510=EDGE_CURVE('',#402,#401,#245,.T.);
#511=EDGE_CURVE('',#401,#399,#61,.T.);
#512=EDGE_CURVE('',#400,#402,#62,.T.);
#513=EDGE_CURVE('',#398,#375,#246,.T.);
#514=ORIENTED_EDGE('',*,*,#403,.T.);
#515=ORIENTED_EDGE('',*,*,#404,.T.);
#516=ORIENTED_EDGE('',*,*,#405,.T.);
#517=ORIENTED_EDGE('',*,*,#406,.T.);
#518=ORIENTED_EDGE('',*,*,#405,.F.);
#519=ORIENTED_EDGE('',*,*,#407,.T.);
#520=ORIENTED_EDGE('',*,*,#408,.T.);
#521=ORIENTED_EDGE('',*,*,#409,.T.);
#522=ORIENTED_EDGE('',*,*,#410,.T.);
#523=ORIENTED_EDGE('',*,*,#411,.T.);
#524=ORIENTED_EDGE('',*,*,#408,.F.);
#525=ORIENTED_EDGE('',*,*,#412,.T.);
#526=ORIENTED_EDGE('',*,*,#406,.F.);
#527=ORIENTED_EDGE('',*,*,#409,.F.);
#528=ORIENTED_EDGE('',*,*,#411,.F.);
#529=ORIENTED_EDGE('',*,*,#413,.T.);
#530=ORIENTED_EDGE('',*,*,#414,.F.);
#531=ORIENTED_EDGE('',*,*,#415,.F.);
#532=ORIENTED_EDGE('',*,*,#416,.F.);
#533=ORIENTED_EDGE('',*,*,#417,.T.);
#534=ORIENTED_EDGE('',*,*,#418,.F.);
#535=ORIENTED_EDGE('',*,*,#419,.F.);
#536=ORIENTED_EDGE('',*,*,#420,.F.);
#537=ORIENTED_EDGE('',*,*,#421,.T.);
#538=ORIENTED_EDGE('',*,*,#422,.T.);
#539=ORIENTED_EDGE('',*,*,#423,.T.);
#540=ORIENTED_EDGE('',*,*,#424,.T.);
#541=ORIENTED_EDGE('',*,*,#410,.F.);
#542=ORIENTED_EDGE('',*,*,#425,.F.);
#543=ORIENTED_EDGE('',*,*,#426,.T.);
#544=ORIENTED_EDGE('',*,*,#427,.T.);
#545=ORIENTED_EDGE('',*,*,#428,.T.);
#546=ORIENTED_EDGE('',*,*,#429,.T.);
#547=ORIENTED_EDGE('',*,*,#430,.T.);
#548=ORIENTED_EDGE('',*,*,#431,.T.);
#549=ORIENTED_EDGE('',*,*,#432,.F.);
#550=ORIENTED_EDGE('',*,*,#413,.F.);
#551=ORIENTED_EDGE('',*,*,#433,.T.);
#552=ORIENTED_EDGE('',*,*,#434,.T.);
#553=ORIENTED_EDGE('',*,*,#435,.T.);
#554=ORIENTED_EDGE('',*,*,#418,.T.);
#555=ORIENTED_EDGE('',*,*,#435,.F.);
#556=ORIENTED_EDGE('',*,*,#436,.T.);
#557=ORIENTED_EDGE('',*,*,#437,.T.);
#558=ORIENTED_EDGE('',*,*,#419,.T.);
#559=ORIENTED_EDGE('',*,*,#438,.T.);
#560=ORIENTED_EDGE('',*,*,#420,.T.);
#561=ORIENTED_EDGE('',*,*,#437,.F.);
#562=ORIENTED_EDGE('',*,*,#439,.T.);
#563=ORIENTED_EDGE('',*,*,#439,.F.);
#564=ORIENTED_EDGE('',*,*,#440,.F.);
#565=ORIENTED_EDGE('',*,*,#441,.F.);
#566=ORIENTED_EDGE('',*,*,#442,.T.);
#567=ORIENTED_EDGE('',*,*,#436,.F.);
#568=ORIENTED_EDGE('',*,*,#443,.T.);
#569=ORIENTED_EDGE('',*,*,#444,.T.);
#570=ORIENTED_EDGE('',*,*,#440,.T.);
#571=ORIENTED_EDGE('',*,*,#434,.F.);
#572=ORIENTED_EDGE('',*,*,#445,.F.);
#573=ORIENTED_EDGE('',*,*,#446,.T.);
#574=ORIENTED_EDGE('',*,*,#443,.F.);
#575=ORIENTED_EDGE('',*,*,#433,.F.);
#576=ORIENTED_EDGE('',*,*,#417,.F.);
#577=ORIENTED_EDGE('',*,*,#447,.F.);
#578=ORIENTED_EDGE('',*,*,#448,.F.);
#579=ORIENTED_EDGE('',*,*,#449,.F.);
#580=ORIENTED_EDGE('',*,*,#450,.T.);
#581=ORIENTED_EDGE('',*,*,#451,.T.);
#582=ORIENTED_EDGE('',*,*,#452,.T.);
#583=ORIENTED_EDGE('',*,*,#453,.F.);
#584=ORIENTED_EDGE('',*,*,#445,.T.);
#585=ORIENTED_EDGE('',*,*,#432,.T.);
#586=ORIENTED_EDGE('',*,*,#454,.T.);
#587=ORIENTED_EDGE('',*,*,#455,.T.);
#588=ORIENTED_EDGE('',*,*,#414,.T.);
#589=ORIENTED_EDGE('',*,*,#455,.F.);
#590=ORIENTED_EDGE('',*,*,#456,.T.);
#591=ORIENTED_EDGE('',*,*,#457,.T.);
#592=ORIENTED_EDGE('',*,*,#415,.T.);
#593=ORIENTED_EDGE('',*,*,#447,.T.);
#594=ORIENTED_EDGE('',*,*,#416,.T.);
#595=ORIENTED_EDGE('',*,*,#457,.F.);
#596=ORIENTED_EDGE('',*,*,#458,.T.);
#597=ORIENTED_EDGE('',*,*,#458,.F.);
#598=ORIENTED_EDGE('',*,*,#459,.F.);
#599=ORIENTED_EDGE('',*,*,#460,.F.);
#600=ORIENTED_EDGE('',*,*,#448,.T.);
#601=ORIENTED_EDGE('',*,*,#456,.F.);
#602=ORIENTED_EDGE('',*,*,#461,.T.);
#603=ORIENTED_EDGE('',*,*,#462,.T.);
#604=ORIENTED_EDGE('',*,*,#459,.T.);
#605=ORIENTED_EDGE('',*,*,#454,.F.);
#606=ORIENTED_EDGE('',*,*,#431,.F.);
#607=ORIENTED_EDGE('',*,*,#463,.T.);
#608=ORIENTED_EDGE('',*,*,#461,.F.);
#609=ORIENTED_EDGE('',*,*,#407,.F.);
#610=ORIENTED_EDGE('',*,*,#464,.T.);
#611=ORIENTED_EDGE('',*,*,#465,.T.);
#612=ORIENTED_EDGE('',*,*,#466,.T.);
#613=ORIENTED_EDGE('',*,*,#412,.F.);
#614=ORIENTED_EDGE('',*,*,#466,.F.);
#615=ORIENTED_EDGE('',*,*,#467,.F.);
#616=ORIENTED_EDGE('',*,*,#425,.T.);
#617=ORIENTED_EDGE('',*,*,#468,.F.);
#618=ORIENTED_EDGE('',*,*,#469,.T.);
#619=ORIENTED_EDGE('',*,*,#424,.F.);
#620=ORIENTED_EDGE('',*,*,#470,.T.);
#621=ORIENTED_EDGE('',*,*,#468,.T.);
#622=ORIENTED_EDGE('',*,*,#470,.F.);
#623=ORIENTED_EDGE('',*,*,#469,.F.);
#624=ORIENTED_EDGE('',*,*,#471,.T.);
#625=ORIENTED_EDGE('',*,*,#472,.F.);
#626=ORIENTED_EDGE('',*,*,#471,.F.);
#627=ORIENTED_EDGE('',*,*,#473,.F.);
#628=ORIENTED_EDGE('',*,*,#474,.T.);
#629=ORIENTED_EDGE('',*,*,#423,.F.);
#630=ORIENTED_EDGE('',*,*,#475,.T.);
#631=ORIENTED_EDGE('',*,*,#473,.T.);
#632=ORIENTED_EDGE('',*,*,#475,.F.);
#633=ORIENTED_EDGE('',*,*,#474,.F.);
#634=ORIENTED_EDGE('',*,*,#476,.T.);
#635=ORIENTED_EDGE('',*,*,#477,.F.);
#636=ORIENTED_EDGE('',*,*,#476,.F.);
#637=ORIENTED_EDGE('',*,*,#478,.F.);
#638=ORIENTED_EDGE('',*,*,#479,.T.);
#639=ORIENTED_EDGE('',*,*,#422,.F.);
#640=ORIENTED_EDGE('',*,*,#480,.T.);
#641=ORIENTED_EDGE('',*,*,#478,.T.);
#642=ORIENTED_EDGE('',*,*,#480,.F.);
#643=ORIENTED_EDGE('',*,*,#479,.F.);
#644=ORIENTED_EDGE('',*,*,#481,.T.);
#645=ORIENTED_EDGE('',*,*,#482,.F.);
#646=ORIENTED_EDGE('',*,*,#481,.F.);
#647=ORIENTED_EDGE('',*,*,#483,.F.);
#648=ORIENTED_EDGE('',*,*,#484,.F.);
#649=ORIENTED_EDGE('',*,*,#485,.F.);
#650=ORIENTED_EDGE('',*,*,#452,.F.);
#651=ORIENTED_EDGE('',*,*,#486,.F.);
#652=ORIENTED_EDGE('',*,*,#450,.F.);
#653=ORIENTED_EDGE('',*,*,#487,.F.);
#654=ORIENTED_EDGE('',*,*,#488,.T.);
#655=ORIENTED_EDGE('',*,*,#489,.F.);
#656=ORIENTED_EDGE('',*,*,#488,.F.);
#657=ORIENTED_EDGE('',*,*,#490,.F.);
#658=ORIENTED_EDGE('',*,*,#484,.T.);
#659=ORIENTED_EDGE('',*,*,#486,.T.);
#660=ORIENTED_EDGE('',*,*,#489,.T.);
#661=ORIENTED_EDGE('',*,*,#483,.T.);
#662=ORIENTED_EDGE('',*,*,#451,.F.);
#663=ORIENTED_EDGE('',*,*,#472,.T.);
#664=ORIENTED_EDGE('',*,*,#491,.F.);
#665=ORIENTED_EDGE('',*,*,#492,.F.);
#666=ORIENTED_EDGE('',*,*,#493,.F.);
#667=ORIENTED_EDGE('',*,*,#494,.F.);
#668=ORIENTED_EDGE('',*,*,#495,.F.);
#669=ORIENTED_EDGE('',*,*,#496,.F.);
#670=ORIENTED_EDGE('',*,*,#497,.F.);
#671=ORIENTED_EDGE('',*,*,#498,.T.);
#672=ORIENTED_EDGE('',*,*,#499,.F.);
#673=ORIENTED_EDGE('',*,*,#498,.F.);
#674=ORIENTED_EDGE('',*,*,#500,.F.);
#675=ORIENTED_EDGE('',*,*,#492,.T.);
#676=ORIENTED_EDGE('',*,*,#495,.T.);
#677=ORIENTED_EDGE('',*,*,#499,.T.);
#678=ORIENTED_EDGE('',*,*,#491,.T.);
#679=ORIENTED_EDGE('',*,*,#501,.F.);
#680=ORIENTED_EDGE('',*,*,#477,.T.);
#681=ORIENTED_EDGE('',*,*,#403,.F.);
#682=ORIENTED_EDGE('',*,*,#421,.F.);
#683=ORIENTED_EDGE('',*,*,#438,.F.);
#684=ORIENTED_EDGE('',*,*,#442,.F.);
#685=ORIENTED_EDGE('',*,*,#502,.T.);
#686=ORIENTED_EDGE('',*,*,#496,.T.);
#687=ORIENTED_EDGE('',*,*,#501,.T.);
#688=ORIENTED_EDGE('',*,*,#494,.T.);
#689=ORIENTED_EDGE('',*,*,#503,.T.);
#690=ORIENTED_EDGE('',*,*,#504,.T.);
#691=ORIENTED_EDGE('',*,*,#505,.F.);
#692=ORIENTED_EDGE('',*,*,#506,.F.);
#693=ORIENTED_EDGE('',*,*,#507,.F.);
#694=ORIENTED_EDGE('',*,*,#429,.F.);
#695=ORIENTED_EDGE('',*,*,#508,.F.);
#696=ORIENTED_EDGE('',*,*,#427,.F.);
#697=ORIENTED_EDGE('',*,*,#509,.F.);
#698=ORIENTED_EDGE('',*,*,#510,.T.);
#699=ORIENTED_EDGE('',*,*,#511,.F.);
#700=ORIENTED_EDGE('',*,*,#510,.F.);
#701=ORIENTED_EDGE('',*,*,#512,.F.);
#702=ORIENTED_EDGE('',*,*,#506,.T.);
#703=ORIENTED_EDGE('',*,*,#508,.T.);
#704=ORIENTED_EDGE('',*,*,#511,.T.);
#705=ORIENTED_EDGE('',*,*,#505,.T.);
#706=ORIENTED_EDGE('',*,*,#428,.F.);
#707=ORIENTED_EDGE('',*,*,#482,.T.);
#708=ORIENTED_EDGE('',*,*,#404,.F.);
#709=ORIENTED_EDGE('',*,*,#504,.F.);
#710=ORIENTED_EDGE('',*,*,#513,.T.);
#711=ORIENTED_EDGE('',*,*,#464,.F.);
#712=ORIENTED_EDGE('',*,*,#487,.T.);
#713=ORIENTED_EDGE('',*,*,#449,.T.);
#714=ORIENTED_EDGE('',*,*,#460,.T.);
#715=ORIENTED_EDGE('',*,*,#462,.F.);
#716=ORIENTED_EDGE('',*,*,#463,.F.);
#717=ORIENTED_EDGE('',*,*,#430,.F.);
#718=ORIENTED_EDGE('',*,*,#507,.T.);
#719=ORIENTED_EDGE('',*,*,#512,.T.);
#720=ORIENTED_EDGE('',*,*,#509,.T.);
#721=ORIENTED_EDGE('',*,*,#426,.F.);
#722=ORIENTED_EDGE('',*,*,#467,.T.);
#723=ORIENTED_EDGE('',*,*,#465,.F.);
#724=ORIENTED_EDGE('',*,*,#513,.F.);
#725=ORIENTED_EDGE('',*,*,#503,.F.);
#726=ORIENTED_EDGE('',*,*,#493,.T.);
#727=ORIENTED_EDGE('',*,*,#500,.T.);
#728=ORIENTED_EDGE('',*,*,#497,.T.);
#729=ORIENTED_EDGE('',*,*,#502,.F.);
#730=ORIENTED_EDGE('',*,*,#441,.T.);
#731=ORIENTED_EDGE('',*,*,#444,.F.);
#732=ORIENTED_EDGE('',*,*,#446,.F.);
#733=ORIENTED_EDGE('',*,*,#453,.T.);
#734=ORIENTED_EDGE('',*,*,#485,.T.);
#735=ORIENTED_EDGE('',*,*,#490,.T.);
#736=PLANE('',#811);
#737=PLANE('',#815);
#738=PLANE('',#816);
#739=PLANE('',#822);
#740=PLANE('',#823);
#741=PLANE('',#826);
#742=PLANE('',#827);
#743=PLANE('',#830);
#744=PLANE('',#831);
#745=PLANE('',#832);
#746=PLANE('',#835);
#747=PLANE('',#836);
#748=PLANE('',#839);
#749=PLANE('',#842);
#750=PLANE('',#843);
#751=PLANE('',#849);
#752=PLANE('',#855);
#753=PLANE('',#861);
#754=PLANE('',#862);
#755=PLANE('',#866);
#756=PLANE('',#867);
#757=PLANE('',#868);
#758=PLANE('',#872);
#759=PLANE('',#873);
#760=PLANE('',#874);
#761=PLANE('',#875);
#762=PLANE('',#879);
#763=PLANE('',#880);
#764=PLANE('',#881);
#765=ADVANCED_FACE('',(#66),#736,.T.);
#766=ADVANCED_FACE('',(#67),#63,.F.);
#767=ADVANCED_FACE('',(#68),#737,.T.);
#768=ADVANCED_FACE('',(#69,#27,#28,#29),#738,.T.);
#769=ADVANCED_FACE('',(#70),#739,.T.);
#770=ADVANCED_FACE('',(#71),#740,.T.);
#771=ADVANCED_FACE('',(#72),#64,.F.);
#772=ADVANCED_FACE('',(#73),#741,.T.);
#773=ADVANCED_FACE('',(#74),#742,.T.);
#774=ADVANCED_FACE('',(#75),#15,.F.);
#775=ADVANCED_FACE('',(#76),#743,.T.);
#776=ADVANCED_FACE('',(#77),#744,.T.);
#777=ADVANCED_FACE('',(#78),#745,.T.);
#778=ADVANCED_FACE('',(#79),#65,.F.);
#779=ADVANCED_FACE('',(#80),#746,.T.);
#780=ADVANCED_FACE('',(#81),#747,.T.);
#781=ADVANCED_FACE('',(#82),#16,.F.);
#782=ADVANCED_FACE('',(#83),#748,.T.);
#783=ADVANCED_FACE('',(#84),#17,.F.);
#784=ADVANCED_FACE('',(#85),#749,.T.);
#785=ADVANCED_FACE('',(#86,#30),#750,.F.);
#786=ADVANCED_FACE('',(#87),#18,.F.);
#787=ADVANCED_FACE('',(#88),#19,.F.);
#788=ADVANCED_FACE('',(#89,#31),#751,.F.);
#789=ADVANCED_FACE('',(#90),#20,.F.);
#790=ADVANCED_FACE('',(#91),#21,.F.);
#791=ADVANCED_FACE('',(#92,#32),#752,.F.);
#792=ADVANCED_FACE('',(#93),#22,.F.);
#793=ADVANCED_FACE('',(#94),#23,.F.);
#794=ADVANCED_FACE('',(#95),#753,.F.);
#795=ADVANCED_FACE('',(#96),#754,.F.);
#796=ADVANCED_FACE('',(#97),#24,.F.);
#797=ADVANCED_FACE('',(#98,#33),#755,.F.);
#798=ADVANCED_FACE('',(#99),#756,.F.);
#799=ADVANCED_FACE('',(#100),#757,.F.);
#800=ADVANCED_FACE('',(#101),#25,.F.);
#801=ADVANCED_FACE('',(#102,#34),#758,.F.);
#802=ADVANCED_FACE('',(#103),#759,.T.);
#803=ADVANCED_FACE('',(#104),#760,.F.);
#804=ADVANCED_FACE('',(#105),#761,.F.);
#805=ADVANCED_FACE('',(#106),#26,.F.);
#806=ADVANCED_FACE('',(#107,#35),#762,.F.);
#807=ADVANCED_FACE('',(#108),#763,.T.);
#808=ADVANCED_FACE('',(#109),#764,.T.);
#809=CLOSED_SHELL('',(#765,#766,#767,#768,#769,#770,#771,#772,#773,#774,
#775,#776,#777,#778,#779,#780,#781,#782,#783,#784,#785,#786,#787,#788,#789,
#790,#791,#792,#793,#794,#795,#796,#797,#798,#799,#800,#801,#802,#803,#804,
#805,#806,#807,#808));
#810=AXIS2_PLACEMENT_3D('',#1110,#882,#883);
#811=AXIS2_PLACEMENT_3D('',#1111,#884,#885);
#812=AXIS2_PLACEMENT_3D('',#1120,#890,#891);
#813=AXIS2_PLACEMENT_3D('',#1122,#892,#893);
#814=AXIS2_PLACEMENT_3D('',#1125,#895,#896);
#815=AXIS2_PLACEMENT_3D('',#1126,#897,#898);
#816=AXIS2_PLACEMENT_3D('',#1132,#902,#903);
#817=AXIS2_PLACEMENT_3D('',#1138,#906,#907);
#818=AXIS2_PLACEMENT_3D('',#1146,#911,#912);
#819=AXIS2_PLACEMENT_3D('',#1151,#915,#916);
#820=AXIS2_PLACEMENT_3D('',#1153,#917,#918);
#821=AXIS2_PLACEMENT_3D('',#1155,#919,#920);
#822=AXIS2_PLACEMENT_3D('',#1156,#921,#922);
#823=AXIS2_PLACEMENT_3D('',#1172,#931,#932);
#824=AXIS2_PLACEMENT_3D('',#1178,#936,#937);
#825=AXIS2_PLACEMENT_3D('',#1180,#938,#939);
#826=AXIS2_PLACEMENT_3D('',#1182,#941,#942);
#827=AXIS2_PLACEMENT_3D('',#1186,#945,#946);
#828=AXIS2_PLACEMENT_3D('',#1192,#950,#951);
#829=AXIS2_PLACEMENT_3D('',#1195,#953,#954);
#830=AXIS2_PLACEMENT_3D('',#1196,#955,#956);
#831=AXIS2_PLACEMENT_3D('',#1200,#959,#960);
#832=AXIS2_PLACEMENT_3D('',#1214,#968,#969);
#833=AXIS2_PLACEMENT_3D('',#1218,#972,#973);
#834=AXIS2_PLACEMENT_3D('',#1220,#974,#975);
#835=AXIS2_PLACEMENT_3D('',#1222,#977,#978);
#836=AXIS2_PLACEMENT_3D('',#1224,#980,#981);
#837=AXIS2_PLACEMENT_3D('',#1228,#984,#985);
#838=AXIS2_PLACEMENT_3D('',#1231,#987,#988);
#839=AXIS2_PLACEMENT_3D('',#1232,#989,#990);
#840=AXIS2_PLACEMENT_3D('',#1234,#992,#993);
#841=AXIS2_PLACEMENT_3D('',#1238,#995,#996);
#842=AXIS2_PLACEMENT_3D('',#1240,#998,#999);
#843=AXIS2_PLACEMENT_3D('',#1242,#1001,#1002);
#844=AXIS2_PLACEMENT_3D('',#1244,#1003,#1004);
#845=AXIS2_PLACEMENT_3D('',#1246,#1005,#1006);
#846=AXIS2_PLACEMENT_3D('',#1247,#1007,#1008);
#847=AXIS2_PLACEMENT_3D('',#1249,#1010,#1011);
#848=AXIS2_PLACEMENT_3D('',#1252,#1013,#1014);
#849=AXIS2_PLACEMENT_3D('',#1253,#1015,#1016);
#850=AXIS2_PLACEMENT_3D('',#1255,#1017,#1018);
#851=AXIS2_PLACEMENT_3D('',#1257,#1019,#1020);
#852=AXIS2_PLACEMENT_3D('',#1258,#1021,#1022);
#853=AXIS2_PLACEMENT_3D('',#1260,#1024,#1025);
#854=AXIS2_PLACEMENT_3D('',#1263,#1027,#1028);
#855=AXIS2_PLACEMENT_3D('',#1264,#1029,#1030);
#856=AXIS2_PLACEMENT_3D('',#1266,#1031,#1032);
#857=AXIS2_PLACEMENT_3D('',#1268,#1033,#1034);
#858=AXIS2_PLACEMENT_3D('',#1269,#1035,#1036);
#859=AXIS2_PLACEMENT_3D('',#1271,#1038,#1039);
#860=AXIS2_PLACEMENT_3D('',#1274,#1041,#1042);
#861=AXIS2_PLACEMENT_3D('',#1275,#1043,#1044);
#862=AXIS2_PLACEMENT_3D('',#1281,#1048,#1049);
#863=AXIS2_PLACEMENT_3D('',#1287,#1053,#1054);
#864=AXIS2_PLACEMENT_3D('',#1288,#1055,#1056);
#865=AXIS2_PLACEMENT_3D('',#1289,#1057,#1058);
#866=AXIS2_PLACEMENT_3D('',#1290,#1059,#1060);
#867=AXIS2_PLACEMENT_3D('',#1291,#1061,#1062);
#868=AXIS2_PLACEMENT_3D('',#1300,#1067,#1068);
#869=AXIS2_PLACEMENT_3D('',#1309,#1073,#1074);
#870=AXIS2_PLACEMENT_3D('',#1310,#1075,#1076);
#871=AXIS2_PLACEMENT_3D('',#1311,#1077,#1078);
#872=AXIS2_PLACEMENT_3D('',#1312,#1079,#1080);
#873=AXIS2_PLACEMENT_3D('',#1314,#1082,#1083);
#874=AXIS2_PLACEMENT_3D('',#1319,#1087,#1088);
#875=AXIS2_PLACEMENT_3D('',#1325,#1092,#1093);
#876=AXIS2_PLACEMENT_3D('',#1331,#1097,#1098);
#877=AXIS2_PLACEMENT_3D('',#1332,#1099,#1100);
#878=AXIS2_PLACEMENT_3D('',#1333,#1101,#1102);
#879=AXIS2_PLACEMENT_3D('',#1334,#1103,#1104);
#880=AXIS2_PLACEMENT_3D('',#1335,#1105,#1106);
#881=AXIS2_PLACEMENT_3D('',#1337,#1108,#1109);
#882=DIRECTION('axis',(0.,0.,1.));
#883=DIRECTION('refdir',(1.,0.,0.));
#884=DIRECTION('center_axis',(-0.612372435695794,0.707106781186549,-0.353553390593273));
#885=DIRECTION('ref_axis',(-0.5,0.,0.866025403784439));
#886=DIRECTION('',(-0.612372435695796,-0.707106781186546,-0.353553390593273));
#887=DIRECTION('',(-0.5,0.,0.866025403784439));
#888=DIRECTION('',(0.612372435695795,0.707106781186546,0.353553390593276));
#889=DIRECTION('',(0.5,0.,-0.866025403784439));
#890=DIRECTION('center_axis',(0.,1.,0.));
#891=DIRECTION('ref_axis',(0.500000000000001,0.,0.866025403784438));
#892=DIRECTION('center_axis',(0.,-1.,0.));
#893=DIRECTION('ref_axis',(0.500000000000001,0.,0.866025403784438));
#894=DIRECTION('',(0.,0.707106781186548,0.707106781186547));
#895=DIRECTION('center_axis',(0.,1.,0.));
#896=DIRECTION('ref_axis',(0.500000000000001,0.,0.866025403784438));
#897=DIRECTION('center_axis',(3.14018491736755E-17,0.707106781186547,-0.707106781186548));
#898=DIRECTION('ref_axis',(-1.,0.,-4.44089209850062E-17));
#899=DIRECTION('',(0.,0.707106781186548,0.707106781186547));
#900=DIRECTION('',(1.,0.,4.44089209850062E-17));
#901=DIRECTION('',(-1.,0.,-4.44089209850062E-17));
#902=DIRECTION('center_axis',(0.,1.,0.));
#903=DIRECTION('ref_axis',(0.,0.,1.));
#904=DIRECTION('',(0.,0.,1.));
#905=DIRECTION('',(-1.,0.,-1.77635683940025E-16));
#906=DIRECTION('center_axis',(0.,1.,0.));
#907=DIRECTION('ref_axis',(0.499999999999999,0.,-0.866025403784439));
#908=DIRECTION('',(-0.5,0.,-0.866025403784438));
#909=DIRECTION('',(0.866025403784438,0.,-0.500000000000001));
#910=DIRECTION('',(0.500000000000001,0.,0.866025403784438));
#911=DIRECTION('center_axis',(0.,1.,0.));
#912=DIRECTION('ref_axis',(-1.,0.,0.));
#913=DIRECTION('',(-0.5,0.,0.866025403784439));
#914=DIRECTION('',(-0.86602540378444,0.,-0.499999999999998));
#915=DIRECTION('center_axis',(0.,-1.,0.));
#916=DIRECTION('ref_axis',(0.,0.,1.));
#917=DIRECTION('center_axis',(0.,-1.,0.));
#918=DIRECTION('ref_axis',(-0.866025403784439,0.,-0.5));
#919=DIRECTION('center_axis',(0.,-1.,0.));
#920=DIRECTION('ref_axis',(0.866025403784438,0.,-0.5));
#921=DIRECTION('center_axis',(-1.,0.,0.));
#922=DIRECTION('ref_axis',(0.,0.,1.));
#923=DIRECTION('',(0.,1.,0.));
#924=DIRECTION('',(0.,0.,1.));
#925=DIRECTION('',(0.,1.,0.));
#926=DIRECTION('',(0.,0.,1.));
#927=DIRECTION('',(0.,-1.,0.));
#928=DIRECTION('',(0.,0.,1.));
#929=DIRECTION('',(0.,1.,0.));
#930=DIRECTION('',(0.,-0.707106781186548,0.707106781186548));
#931=DIRECTION('center_axis',(0.612372435695793,0.707106781186549,-0.353553390593274));
#932=DIRECTION('ref_axis',(-0.500000000000001,0.,-0.866025403784438));
#933=DIRECTION('',(0.612372435695795,-0.707106781186546,-0.353553390593275));
#934=DIRECTION('',(-0.500000000000001,0.,-0.866025403784438));
#935=DIRECTION('',(-0.612372435695795,0.707106781186546,0.353553390593276));
#936=DIRECTION('center_axis',(0.,1.,0.));
#937=DIRECTION('ref_axis',(-1.,0.,0.));
#938=DIRECTION('center_axis',(0.,-1.,0.));
#939=DIRECTION('ref_axis',(-1.,0.,0.));
#940=DIRECTION('',(-0.612372435695793,0.707106781186549,-0.353553390593273));
#941=DIRECTION('center_axis',(0.612372435695794,0.707106781186549,0.353553390593273));
#942=DIRECTION('ref_axis',(0.5,0.,-0.866025403784439));
#943=DIRECTION('',(-0.612372435695796,0.707106781186547,-0.353553390593273));
#944=DIRECTION('',(0.5,0.,-0.866025403784439));
#945=DIRECTION('center_axis',(0.866025403784439,0.,0.5));
#946=DIRECTION('ref_axis',(0.5,0.,-0.866025403784439));
#947=DIRECTION('',(0.,1.,0.));
#948=DIRECTION('',(-0.5,0.,0.866025403784438));
#949=DIRECTION('',(0.,1.,0.));
#950=DIRECTION('center_axis',(0.,1.,0.));
#951=DIRECTION('ref_axis',(-1.,0.,0.));
#952=DIRECTION('',(0.,-1.,0.));
#953=DIRECTION('center_axis',(0.,-1.,0.));
#954=DIRECTION('ref_axis',(-1.,0.,0.));
#955=DIRECTION('center_axis',(0.866025403784438,0.,-0.500000000000001));
#956=DIRECTION('ref_axis',(-0.500000000000001,0.,-0.866025403784438));
#957=DIRECTION('',(0.,1.,0.));
#958=DIRECTION('',(-0.500000000000001,0.,-0.866025403784438));
#959=DIRECTION('center_axis',(0.500000000000001,0.,0.866025403784438));
#960=DIRECTION('ref_axis',(0.866025403784438,0.,-0.500000000000001));
#961=DIRECTION('',(0.612372435695795,0.707106781186547,-0.353553390593275));
#962=DIRECTION('',(0.,1.,0.));
#963=DIRECTION('',(-0.866025403784438,0.,0.500000000000001));
#964=DIRECTION('',(0.,1.,0.));
#965=DIRECTION('',(0.866025403784438,0.,-0.500000000000001));
#966=DIRECTION('',(0.,-1.,0.));
#967=DIRECTION('',(-0.866025403784438,0.,0.500000000000001));
#968=DIRECTION('center_axis',(-1.25607396694702E-16,0.707106781186548,0.707106781186548));
#969=DIRECTION('ref_axis',(1.,0.,1.77635683940025E-16));
#970=DIRECTION('',(1.,0.,1.77635683940025E-16));
#971=DIRECTION('',(0.,0.707106781186548,-0.707106781186547));
#972=DIRECTION('center_axis',(0.,1.,0.));
#973=DIRECTION('ref_axis',(0.5,0.,-0.866025403784439));
#974=DIRECTION('center_axis',(0.,-1.,0.));
#975=DIRECTION('ref_axis',(0.499999999999999,0.,-0.866025403784439));
#976=DIRECTION('',(0.612372435695795,0.707106781186546,-0.353553390593276));
#977=DIRECTION('center_axis',(-0.612372435695794,0.707106781186548,0.353553390593274));
#978=DIRECTION('ref_axis',(0.5,0.,0.866025403784438));
#979=DIRECTION('',(0.5,0.,0.866025403784438));
#980=DIRECTION('center_axis',(-0.866025403784438,0.,0.5));
#981=DIRECTION('ref_axis',(0.5,0.,0.866025403784438));
#982=DIRECTION('',(0.,1.,0.));
#983=DIRECTION('',(-0.5,0.,-0.866025403784438));
#984=DIRECTION('center_axis',(0.,1.,0.));
#985=DIRECTION('ref_axis',(0.499999999999999,0.,-0.866025403784439));
#986=DIRECTION('',(0.,-1.,0.));
#987=DIRECTION('center_axis',(0.,-1.,0.));
#988=DIRECTION('ref_axis',(0.499999999999999,0.,-0.866025403784439));
#989=DIRECTION('center_axis',(-1.77635683940025E-16,0.,1.));
#990=DIRECTION('ref_axis',(1.,0.,1.77635683940025E-16));
#991=DIRECTION('',(1.,0.,1.77635683940025E-16));
#992=DIRECTION('center_axis',(0.,1.,0.));
#993=DIRECTION('ref_axis',(0.500000000000001,0.,0.866025403784438));
#994=DIRECTION('',(0.,-1.,0.));
#995=DIRECTION('center_axis',(0.,-1.,0.));
#996=DIRECTION('ref_axis',(0.500000000000001,0.,0.866025403784438));
#997=DIRECTION('',(0.,1.,0.));
#998=DIRECTION('center_axis',(4.44089209850062E-17,0.,-1.));
#999=DIRECTION('ref_axis',(-1.,0.,-4.44089209850062E-17));
#1000=DIRECTION('',(1.,0.,4.44089209850062E-17));
#1001=DIRECTION('center_axis',(0.,-1.,0.));
#1002=DIRECTION('ref_axis',(0.866025403784438,0.,-0.5));
#1003=DIRECTION('center_axis',(0.,-1.,0.));
#1004=DIRECTION('ref_axis',(0.866025403784438,0.,-0.5));
#1005=DIRECTION('center_axis',(0.,-1.,0.));
#1006=DIRECTION('ref_axis',(0.866025403784438,0.,-0.5));
#1007=DIRECTION('center_axis',(0.,-1.,0.));
#1008=DIRECTION('ref_axis',(0.866025403784438,0.,-0.5));
#1009=DIRECTION('',(0.,-1.,0.));
#1010=DIRECTION('center_axis',(0.,-1.,0.));
#1011=DIRECTION('ref_axis',(0.866025403784438,0.,-0.5));
#1012=DIRECTION('',(0.,-1.,0.));
#1013=DIRECTION('center_axis',(0.,1.,0.));
#1014=DIRECTION('ref_axis',(0.866025403784438,0.,-0.5));
#1015=DIRECTION('center_axis',(0.,-1.,0.));
#1016=DIRECTION('ref_axis',(-0.866025403784439,0.,-0.5));
#1017=DIRECTION('center_axis',(0.,-1.,0.));
#1018=DIRECTION('ref_axis',(-0.866025403784439,0.,-0.5));
#1019=DIRECTION('center_axis',(0.,-1.,0.));
#1020=DIRECTION('ref_axis',(-0.866025403784439,0.,-0.5));
#1021=DIRECTION('center_axis',(0.,-1.,0.));
#1022=DIRECTION('ref_axis',(-0.866025403784439,0.,-0.5));
#1023=DIRECTION('',(0.,-1.,0.));
#1024=DIRECTION('center_axis',(0.,-1.,0.));
#1025=DIRECTION('ref_axis',(-0.866025403784439,0.,-0.5));
#1026=DIRECTION('',(0.,-1.,0.));
#1027=DIRECTION('center_axis',(0.,1.,0.));
#1028=DIRECTION('ref_axis',(-0.866025403784439,0.,-0.5));
#1029=DIRECTION('center_axis',(0.,-1.,0.));
#1030=DIRECTION('ref_axis',(0.,0.,1.));
#1031=DIRECTION('center_axis',(0.,-1.,0.));
#1032=DIRECTION('ref_axis',(0.,0.,1.));
#1033=DIRECTION('center_axis',(0.,-1.,0.));
#1034=DIRECTION('ref_axis',(0.,0.,1.));
#1035=DIRECTION('center_axis',(0.,-1.,0.));
#1036=DIRECTION('ref_axis',(0.,0.,1.));
#1037=DIRECTION('',(0.,-1.,0.));
#1038=DIRECTION('center_axis',(0.,-1.,0.));
#1039=DIRECTION('ref_axis',(0.,0.,1.));
#1040=DIRECTION('',(0.,-1.,0.));
#1041=DIRECTION('center_axis',(0.,1.,0.));
#1042=DIRECTION('ref_axis',(0.,0.,1.));
#1043=DIRECTION('center_axis',(0.866025403784438,0.,-0.5));
#1044=DIRECTION('ref_axis',(-0.5,0.,-0.866025403784438));
#1045=DIRECTION('',(0.5,0.,0.866025403784438));
#1046=DIRECTION('',(0.,1.,0.));
#1047=DIRECTION('',(-0.5,0.,-0.866025403784438));
#1048=DIRECTION('center_axis',(-0.866025403784438,0.,0.500000000000001));
#1049=DIRECTION('ref_axis',(0.500000000000001,0.,0.866025403784438));
#1050=DIRECTION('',(-0.500000000000001,0.,-0.866025403784438));
#1051=DIRECTION('',(0.500000000000001,0.,0.866025403784438));
#1052=DIRECTION('',(0.,1.,0.));
#1053=DIRECTION('center_axis',(0.,1.,0.));
#1054=DIRECTION('ref_axis',(-0.500000000000001,0.,-0.866025403784438));
#1055=DIRECTION('center_axis',(0.,-1.,0.));
#1056=DIRECTION('ref_axis',(-0.318800138955254,0.,0.94782196186948));
#1057=DIRECTION('center_axis',(0.,1.,0.));
#1058=DIRECTION('ref_axis',(-0.318800138955254,0.,0.94782196186948));
#1059=DIRECTION('center_axis',(0.,1.,0.));
#1060=DIRECTION('ref_axis',(0.,0.,1.));
#1061=DIRECTION('center_axis',(-0.866025403784439,0.,-0.5));
#1062=DIRECTION('ref_axis',(-0.5,0.,0.866025403784439));
#1063=DIRECTION('',(0.5,0.,-0.866025403784439));
#1064=DIRECTION('',(0.,1.,0.));
#1065=DIRECTION('',(-0.5,0.,0.866025403784439));
#1066=DIRECTION('',(0.,-1.,0.));
#1067=DIRECTION('center_axis',(0.866025403784439,0.,0.499999999999999));
#1068=DIRECTION('ref_axis',(0.499999999999999,0.,-0.866025403784439));
#1069=DIRECTION('',(-0.499999999999999,0.,0.866025403784439));
#1070=DIRECTION('',(0.,1.,0.));
#1071=DIRECTION('',(0.499999999999999,0.,-0.866025403784439));
#1072=DIRECTION('',(0.,1.,0.));
#1073=DIRECTION('center_axis',(0.,1.,0.));
#1074=DIRECTION('ref_axis',(-0.499999999999998,0.,0.86602540378444));
#1075=DIRECTION('center_axis',(0.,-1.,0.));
#1076=DIRECTION('ref_axis',(0.980237966721403,0.,-0.197821961869481));
#1077=DIRECTION('center_axis',(0.,1.,0.));
#1078=DIRECTION('ref_axis',(0.980237966721403,0.,-0.197821961869481));
#1079=DIRECTION('center_axis',(0.,1.,0.));
#1080=DIRECTION('ref_axis',(0.,0.,1.));
#1081=DIRECTION('',(-0.86602540378444,0.,-0.499999999999998));
#1082=DIRECTION('center_axis',(0.499999999999998,0.,-0.86602540378444));
#1083=DIRECTION('ref_axis',(-0.86602540378444,0.,-0.499999999999998));
#1084=DIRECTION('',(-0.86602540378444,0.,-0.499999999999998));
#1085=DIRECTION('',(-0.86602540378444,0.,-0.499999999999998));
#1086=DIRECTION('',(0.,1.,0.));
#1087=DIRECTION('center_axis',(0.,0.,1.));
#1088=DIRECTION('ref_axis',(1.,0.,0.));
#1089=DIRECTION('',(-1.,0.,0.));
#1090=DIRECTION('',(0.,1.,0.));
#1091=DIRECTION('',(1.,0.,0.));
#1092=DIRECTION('center_axis',(-5.29584119764251E-16,0.,-1.));
#1093=DIRECTION('ref_axis',(-1.,0.,5.29584119764251E-16));
#1094=DIRECTION('',(1.,0.,-5.29584119764251E-16));
#1095=DIRECTION('',(-1.,0.,5.29584119764251E-16));
#1096=DIRECTION('',(0.,1.,0.));
#1097=DIRECTION('center_axis',(0.,1.,0.));
#1098=DIRECTION('ref_axis',(1.,0.,-1.11022302462516E-15));
#1099=DIRECTION('center_axis',(0.,-1.,0.));
#1100=DIRECTION('ref_axis',(-0.661437827766148,0.,-0.749999999999999));
#1101=DIRECTION('center_axis',(0.,1.,0.));
#1102=DIRECTION('ref_axis',(-0.661437827766148,0.,-0.749999999999999));
#1103=DIRECTION('center_axis',(0.,1.,0.));
#1104=DIRECTION('ref_axis',(0.,0.,1.));
#1105=DIRECTION('center_axis',(-0.866025403784439,0.,-0.5));
#1106=DIRECTION('ref_axis',(-0.5,0.,0.866025403784439));
#1107=DIRECTION('',(-0.5,0.,0.866025403784439));
#1108=DIRECTION('center_axis',(0.,-1.,0.));
#1109=DIRECTION('ref_axis',(1.,0.,0.));
#1110=CARTESIAN_POINT('',(0.,0.,0.));
#1111=CARTESIAN_POINT('Origin',(193.962087188503,-26.150000205,-7.51361141556923));
#1112=CARTESIAN_POINT('',(223.169618943233,-23.650000205,-53.1025403784439));
#1113=CARTESIAN_POINT('',(218.839491924311,-28.650000205,-55.6025403784439));
#1114=CARTESIAN_POINT('',(226.417214207425,-19.9000002050001,-51.2275403784439));
#1115=CARTESIAN_POINT('',(180.386497308104,-28.650000205,10.9999999999999));
#1116=CARTESIAN_POINT('',(191.797023679042,-28.650000205,-8.76361141556924));
#1117=CARTESIAN_POINT('',(184.716624327026,-23.650000205,13.5));
#1118=CARTESIAN_POINT('',(180.386497308104,-28.650000205,10.9999999999999));
#1119=CARTESIAN_POINT('',(196.127150697964,-23.650000205,-6.26361141556923));
#1120=CARTESIAN_POINT('Origin',(163.065989232415,-26.150000205,0.999999999999934));
#1121=CARTESIAN_POINT('',(163.065989232415,-28.650000205,20.9999999999999));
#1122=CARTESIAN_POINT('Origin',(163.065989232415,-28.650000205,0.999999999999934));
#1123=CARTESIAN_POINT('',(163.065989232415,-23.650000205,25.9999999999999));
#1124=CARTESIAN_POINT('',(163.065989232415,-28.650000205,20.9999999999999));
#1125=CARTESIAN_POINT('Origin',(163.065989232415,-23.650000205,0.999999999999934));
#1126=CARTESIAN_POINT('Origin',(172.216624327026,-26.150000205,23.4999999999999));
#1127=CARTESIAN_POINT('',(86.16,-28.650000205,20.9999999999999));
#1128=CARTESIAN_POINT('',(86.16,-23.650000205,25.9999999999999));
#1129=CARTESIAN_POINT('',(86.16,-29.900000205,19.7499999999999));
#1130=CARTESIAN_POINT('',(172.216624327026,-23.650000205,25.9999999999999));
#1131=CARTESIAN_POINT('',(172.216624327026,-28.650000205,20.9999999999999));
#1132=CARTESIAN_POINT('Origin',(169.820254037844,-23.650000205,41.));
#1133=CARTESIAN_POINT('',(86.16,-23.650000205,55.9999999999999));
#1134=CARTESIAN_POINT('',(86.16,-23.650000205,48.4999999999999));
#1135=CARTESIAN_POINT('',(163.065989232415,-23.650000205,56.));
#1136=CARTESIAN_POINT('',(127.990127018922,-23.650000205,55.9999999999999));
#1137=CARTESIAN_POINT('',(184.716624327026,-23.650000205,68.4999999999999));
#1138=CARTESIAN_POINT('Origin',(163.065989232415,-23.650000205,80.9999999999999));
#1139=CARTESIAN_POINT('',(223.169618943233,-23.650000205,135.102540378444));
#1140=CARTESIAN_POINT('',(174.013902043912,-23.650000205,49.9623412263472));
#1141=CARTESIAN_POINT('',(249.150381056767,-23.650000205,120.102540378444));
#1142=CARTESIAN_POINT('',(242.655190528383,-23.650000205,123.852540378444));
#1143=CARTESIAN_POINT('',(210.697386440559,-23.650000205,53.5));
#1144=CARTESIAN_POINT('',(222.107912811497,-23.650000205,73.2636114155692));
#1145=CARTESIAN_POINT('',(210.697386440559,-23.650000205,28.4999999999999));
#1146=CARTESIAN_POINT('Origin',(232.34802153517,-23.650000205,40.9999999999999));
#1147=CARTESIAN_POINT('',(249.150381056767,-23.650000205,-38.102540378444));
#1148=CARTESIAN_POINT('',(199.994664157445,-23.650000205,47.0376587736527));
#1149=CARTESIAN_POINT('',(229.664809471617,-23.650000205,-49.3525403784439));
#1150=CARTESIAN_POINT('',(101.16,-23.650000205,37.7499999999999));
#1151=CARTESIAN_POINT('Origin',(101.16,-23.650000205,40.9999999999999));
#1152=CARTESIAN_POINT('',(231.474582562299,-23.650000205,-30.9871593216773));
#1153=CARTESIAN_POINT('Origin',(228.66,-23.650000205,-32.6121593216773));
#1154=CARTESIAN_POINT('',(225.845417437701,-23.650000205,116.237159321677));
#1155=CARTESIAN_POINT('Origin',(228.66,-23.650000205,114.612159321677));
#1156=CARTESIAN_POINT('Origin',(86.16,-38.650000205,20.9999999999999));
#1157=CARTESIAN_POINT('',(86.16,-38.650000205,20.9999999999999));
#1158=CARTESIAN_POINT('',(86.16,-38.650000205,20.9999999999999));
#1159=CARTESIAN_POINT('',(86.16,-38.650000205,33.4999999999999));
#1160=CARTESIAN_POINT('',(86.16,-38.650000205,48.4999999999999));
#1161=CARTESIAN_POINT('',(86.16,-30.650000205,33.4999999999999));
#1162=CARTESIAN_POINT('',(86.16,-38.650000205,33.4999999999999));
#1163=CARTESIAN_POINT('',(86.16,-30.650000205,48.4999999999999));
#1164=CARTESIAN_POINT('',(86.16,-30.650000205,30.9999999999999));
#1165=CARTESIAN_POINT('',(86.16,-38.650000205,48.4999999999999));
#1166=CARTESIAN_POINT('',(86.16,-38.650000205,48.4999999999999));
#1167=CARTESIAN_POINT('',(86.16,-38.650000205,60.9999999999999));
#1168=CARTESIAN_POINT('',(86.16,-38.650000205,48.4999999999999));
#1169=CARTESIAN_POINT('',(86.16,-28.650000205,60.9999999999999));
#1170=CARTESIAN_POINT('',(86.16,-38.650000205,60.9999999999999));
#1171=CARTESIAN_POINT('',(86.16,-19.900000205,52.2499999999999));
#1172=CARTESIAN_POINT('Origin',(224.272976320958,-26.150000205,72.0136114155692));
#1173=CARTESIAN_POINT('',(253.480508075689,-28.650000205,117.602540378444));
#1174=CARTESIAN_POINT('',(245.902785792575,-19.900000205,121.977540378444));
#1175=CARTESIAN_POINT('',(215.027513459481,-28.650000205,51.));
#1176=CARTESIAN_POINT('',(226.438039830419,-28.650000205,70.7636114155691));
#1177=CARTESIAN_POINT('',(215.027513459481,-28.650000205,51.));
#1178=CARTESIAN_POINT('Origin',(232.34802153517,-26.150000205,40.9999999999999));
#1179=CARTESIAN_POINT('',(215.027513459481,-28.650000205,30.9999999999999));
#1180=CARTESIAN_POINT('Origin',(232.34802153517,-28.650000205,40.9999999999999));
#1181=CARTESIAN_POINT('',(215.027513459481,-28.650000205,30.9999999999999));
#1182=CARTESIAN_POINT('Origin',(202.159727666906,-26.150000205,48.2876587736527));
#1183=CARTESIAN_POINT('',(253.480508075689,-28.650000205,-35.6025403784439));
#1184=CARTESIAN_POINT('',(254.563039830419,-29.900000205,-34.977540378444));
#1185=CARTESIAN_POINT('',(204.324791176367,-28.650000205,49.5376587736527));
#1186=CARTESIAN_POINT('Origin',(209.254010767585,-38.650000205,41.));
#1187=CARTESIAN_POINT('',(215.027513459481,-38.650000205,30.9999999999999));
#1188=CARTESIAN_POINT('',(215.027513459481,-38.650000205,30.9999999999999));
#1189=CARTESIAN_POINT('',(253.480508075689,-38.650000205,-35.6025403784439));
#1190=CARTESIAN_POINT('',(253.480508075689,-38.650000205,-35.6025403784439));
#1191=CARTESIAN_POINT('',(253.480508075689,-38.650000205,-35.6025403784439));
#1192=CARTESIAN_POINT('Origin',(232.34802153517,-38.650000205,40.9999999999999));
#1193=CARTESIAN_POINT('',(215.027513459481,-38.650000205,51.));
#1194=CARTESIAN_POINT('',(215.027513459481,-38.650000205,51.));
#1195=CARTESIAN_POINT('Origin',(232.34802153517,-38.650000205,40.9999999999999));
#1196=CARTESIAN_POINT('Origin',(253.480508075689,-38.650000205,117.602540378444));
#1197=CARTESIAN_POINT('',(253.480508075689,-38.650000205,117.602540378444));
#1198=CARTESIAN_POINT('',(253.480508075689,-38.650000205,117.602540378444));
#1199=CARTESIAN_POINT('',(253.480508075689,-38.650000205,117.602540378444));
#1200=CARTESIAN_POINT('Origin',(218.839491924311,-38.650000205,137.602540378444));
#1201=CARTESIAN_POINT('',(218.839491924311,-28.650000205,137.602540378444));
#1202=CARTESIAN_POINT('',(217.756960169581,-29.900000205,138.227540378444));
#1203=CARTESIAN_POINT('',(218.839491924311,-38.650000205,137.602540378444));
#1204=CARTESIAN_POINT('',(218.839491924311,-38.650000205,137.602540378444));
#1205=CARTESIAN_POINT('',(229.664809471617,-38.650000205,131.352540378444));
#1206=CARTESIAN_POINT('',(242.655190528383,-38.650000205,123.852540378444));
#1207=CARTESIAN_POINT('',(229.664809471617,-30.650000205,131.352540378444));
#1208=CARTESIAN_POINT('',(229.664809471617,-38.650000205,131.352540378444));
#1209=CARTESIAN_POINT('',(242.655190528383,-30.650000205,123.852540378444));
#1210=CARTESIAN_POINT('',(227.519176532934,-30.650000205,132.591322133174));
#1211=CARTESIAN_POINT('',(242.655190528383,-38.650000205,123.852540378444));
#1212=CARTESIAN_POINT('',(242.655190528383,-38.650000205,123.852540378444));
#1213=CARTESIAN_POINT('',(242.655190528383,-38.650000205,123.852540378444));
#1214=CARTESIAN_POINT('Origin',(127.990127018922,-26.150000205,58.4999999999999));
#1215=CARTESIAN_POINT('',(163.065989232415,-28.650000205,60.9999999999999));
#1216=CARTESIAN_POINT('',(127.990127018922,-28.650000205,60.9999999999999));
#1217=CARTESIAN_POINT('',(163.065989232415,-28.650000205,60.9999999999999));
#1218=CARTESIAN_POINT('Origin',(163.065989232415,-26.150000205,80.9999999999999));
#1219=CARTESIAN_POINT('',(180.386497308104,-28.650000205,70.9999999999999));
#1220=CARTESIAN_POINT('Origin',(163.065989232415,-28.650000205,80.9999999999999));
#1221=CARTESIAN_POINT('',(180.386497308104,-28.650000205,70.9999999999999));
#1222=CARTESIAN_POINT('Origin',(171.848838534451,-26.150000205,51.2123412263472));
#1223=CARTESIAN_POINT('',(169.68377502499,-28.650000205,52.4623412263472));
#1224=CARTESIAN_POINT('Origin',(174.612994616207,-38.650000205,61.));
#1225=CARTESIAN_POINT('',(180.386497308104,-38.650000205,70.9999999999999));
#1226=CARTESIAN_POINT('',(180.386497308104,-38.650000205,70.9999999999999));
#1227=CARTESIAN_POINT('',(218.839491924311,-38.650000205,137.602540378444));
#1228=CARTESIAN_POINT('Origin',(163.065989232415,-38.650000205,80.9999999999999));
#1229=CARTESIAN_POINT('',(163.065989232415,-38.650000205,61.));
#1230=CARTESIAN_POINT('',(163.065989232415,-38.650000205,60.9999999999999));
#1231=CARTESIAN_POINT('Origin',(163.065989232415,-38.650000205,80.9999999999999));
#1232=CARTESIAN_POINT('Origin',(86.16,-38.650000205,60.9999999999999));
#1233=CARTESIAN_POINT('',(86.16,-38.650000205,60.9999999999999));
#1234=CARTESIAN_POINT('Origin',(163.065989232415,-38.650000205,0.999999999999934));
#1235=CARTESIAN_POINT('',(180.386497308104,-38.650000205,10.9999999999999));
#1236=CARTESIAN_POINT('',(180.386497308104,-38.650000205,10.9999999999999));
#1237=CARTESIAN_POINT('',(163.065989232415,-38.650000205,20.9999999999999));
#1238=CARTESIAN_POINT('Origin',(163.065989232415,-38.650000205,0.999999999999934));
#1239=CARTESIAN_POINT('',(163.065989232415,-38.650000205,20.9999999999999));
#1240=CARTESIAN_POINT('Origin',(174.612994616207,-38.650000205,20.9999999999999));
#1241=CARTESIAN_POINT('',(86.16,-38.650000205,20.9999999999999));
#1242=CARTESIAN_POINT('Origin',(228.66,-26.650000205,114.612159321677));
#1243=CARTESIAN_POINT('',(225.845417437701,-26.650000205,116.237159321677));
#1244=CARTESIAN_POINT('Origin',(228.66,-26.650000205,114.612159321677));
#1245=CARTESIAN_POINT('',(227.187756813566,-26.650000205,115.462159321677));
#1246=CARTESIAN_POINT('Origin',(228.66,-26.650000205,114.612159321677));
#1247=CARTESIAN_POINT('Origin',(228.66,-25.150000205,114.612159321677));
#1248=CARTESIAN_POINT('',(225.845417437701,-25.150000205,116.237159321677));
#1249=CARTESIAN_POINT('Origin',(228.66,-33.650000205,114.612159321677));
#1250=CARTESIAN_POINT('',(227.187756813566,-30.650000205,115.462159321677));
#1251=CARTESIAN_POINT('',(227.187756813566,-33.650000205,115.462159321677));
#1252=CARTESIAN_POINT('Origin',(228.66,-30.650000205,114.612159321677));
#1253=CARTESIAN_POINT('Origin',(228.66,-26.650000205,-32.6121593216773));
#1254=CARTESIAN_POINT('',(231.474582562299,-26.650000205,-30.9871593216773));
#1255=CARTESIAN_POINT('Origin',(228.66,-26.650000205,-32.6121593216773));
#1256=CARTESIAN_POINT('',(230.132243186434,-26.650000205,-31.7621593216773));
#1257=CARTESIAN_POINT('Origin',(228.66,-26.650000205,-32.6121593216773));
#1258=CARTESIAN_POINT('Origin',(228.66,-25.150000205,-32.6121593216773));
#1259=CARTESIAN_POINT('',(231.474582562299,-25.150000205,-30.9871593216773));
#1260=CARTESIAN_POINT('Origin',(228.66,-33.650000205,-32.6121593216773));
#1261=CARTESIAN_POINT('',(230.132243186434,-30.650000205,-31.7621593216773));
#1262=CARTESIAN_POINT('',(230.132243186434,-33.650000205,-31.7621593216773));
#1263=CARTESIAN_POINT('Origin',(228.66,-30.650000205,-32.6121593216773));
#1264=CARTESIAN_POINT('Origin',(101.16,-26.650000205,40.9999999999999));
#1265=CARTESIAN_POINT('',(101.16,-26.650000205,37.7499999999999));
#1266=CARTESIAN_POINT('Origin',(101.16,-26.650000205,40.9999999999999));
#1267=CARTESIAN_POINT('',(101.16,-26.650000205,39.2999999999999));
#1268=CARTESIAN_POINT('Origin',(101.16,-26.650000205,40.9999999999999));
#1269=CARTESIAN_POINT('Origin',(101.16,-25.150000205,40.9999999999999));
#1270=CARTESIAN_POINT('',(101.16,-25.150000205,37.7499999999999));
#1271=CARTESIAN_POINT('Origin',(101.16,-33.650000205,40.9999999999999));
#1272=CARTESIAN_POINT('',(101.16,-30.650000205,39.2999999999999));
#1273=CARTESIAN_POINT('',(101.16,-33.650000205,39.2999999999999));
#1274=CARTESIAN_POINT('Origin',(101.16,-30.650000205,40.9999999999999));
#1275=CARTESIAN_POINT('Origin',(242.655190528383,-38.650000205,123.852540378444));
#1276=CARTESIAN_POINT('',(238.462379667214,-30.650000205,116.590378940372));
#1277=CARTESIAN_POINT('',(239.884557589701,-30.650000205,119.053663359522));
#1278=CARTESIAN_POINT('',(238.462379667214,-38.650000205,116.590378940372));
#1279=CARTESIAN_POINT('',(238.462379667214,-38.650000205,116.590378940372));
#1280=CARTESIAN_POINT('',(215.612722283114,-38.650000205,77.0136114155692));
#1281=CARTESIAN_POINT('Origin',(225.471998610447,-38.650000205,124.090378940372));
#1282=CARTESIAN_POINT('',(225.471998610447,-30.650000205,124.090378940372));
#1283=CARTESIAN_POINT('',(224.797771102349,-30.650000205,122.922582640486));
#1284=CARTESIAN_POINT('',(225.471998610447,-38.650000205,124.090378940372));
#1285=CARTESIAN_POINT('',(200.525935795763,-38.650000205,80.8825306965333));
#1286=CARTESIAN_POINT('',(225.471998610447,-38.650000205,124.090378940372));
#1287=CARTESIAN_POINT('Origin',(228.66,-38.650000205,114.612159321677));
#1288=CARTESIAN_POINT('Origin',(228.66,-30.650000205,114.612159321677));
#1289=CARTESIAN_POINT('Origin',(228.66,-38.650000205,114.612159321677));
#1290=CARTESIAN_POINT('Origin',(230.657595264192,-30.650000205,117.982349850061));
#1291=CARTESIAN_POINT('Origin',(229.664809471617,-38.650000205,-49.3525403784439));
#1292=CARTESIAN_POINT('',(225.471998610447,-30.650000205,-42.0903789403721));
#1293=CARTESIAN_POINT('',(229.664809471617,-30.650000205,-49.3525403784439));
#1294=CARTESIAN_POINT('',(226.894176532934,-30.650000205,-44.5536633595217));
#1295=CARTESIAN_POINT('',(225.471998610447,-38.650000205,-42.0903789403721));
#1296=CARTESIAN_POINT('',(225.471998610447,-38.650000205,-42.0903789403721));
#1297=CARTESIAN_POINT('',(229.664809471617,-38.650000205,-49.3525403784439));
#1298=CARTESIAN_POINT('',(202.622341226347,-38.650000205,-2.51361141556919));
#1299=CARTESIAN_POINT('',(229.664809471617,-38.650000205,-49.3525403784439));
#1300=CARTESIAN_POINT('Origin',(238.462379667214,-38.650000205,-34.5903789403721));
#1301=CARTESIAN_POINT('',(242.655190528383,-30.650000205,-41.8525403784439));
#1302=CARTESIAN_POINT('',(238.462379667214,-30.650000205,-34.5903789403721));
#1303=CARTESIAN_POINT('',(237.788152159116,-30.650000205,-33.4225826404858));
#1304=CARTESIAN_POINT('',(242.655190528383,-38.650000205,-41.8525403784439));
#1305=CARTESIAN_POINT('',(242.655190528383,-38.650000205,-41.8525403784439));
#1306=CARTESIAN_POINT('',(238.462379667214,-38.650000205,-34.5903789403721));
#1307=CARTESIAN_POINT('',(213.516316852529,-38.650000205,8.61746930346669));
#1308=CARTESIAN_POINT('',(238.462379667214,-38.650000205,-34.5903789403721));
#1309=CARTESIAN_POINT('Origin',(228.66,-38.650000205,-32.6121593216773));
#1310=CARTESIAN_POINT('Origin',(228.66,-30.650000205,-32.6121593216773));
#1311=CARTESIAN_POINT('Origin',(228.66,-38.650000205,-32.6121593216773));
#1312=CARTESIAN_POINT('Origin',(230.657595264192,-30.650000205,-35.9823498500606));
#1313=CARTESIAN_POINT('',(244.839684608623,-30.650000205,-40.5913221331745));
#1314=CARTESIAN_POINT('Origin',(253.480508075689,-38.650000205,-35.602540378444));
#1315=CARTESIAN_POINT('',(229.664809471617,-38.650000205,-49.3525403784439));
#1316=CARTESIAN_POINT('',(218.839491924311,-38.650000205,-55.6025403784439));
#1317=CARTESIAN_POINT('',(229.664809471617,-38.650000205,-49.3525403784439));
#1318=CARTESIAN_POINT('',(218.839491924311,-38.650000205,-55.6025403784439));
#1319=CARTESIAN_POINT('Origin',(86.16,-38.650000205,48.4999999999999));
#1320=CARTESIAN_POINT('',(94.5456217223385,-30.650000205,48.4999999999999));
#1321=CARTESIAN_POINT('',(92.41,-30.650000205,48.4999999999999));
#1322=CARTESIAN_POINT('',(94.5456217223385,-38.650000205,48.4999999999999));
#1323=CARTESIAN_POINT('',(94.5456217223385,-38.650000205,48.4999999999999));
#1324=CARTESIAN_POINT('',(127.990127018922,-38.650000205,48.4999999999999));
#1325=CARTESIAN_POINT('Origin',(94.5456217223385,-38.650000205,33.4999999999999));
#1326=CARTESIAN_POINT('',(94.5456217223385,-30.650000205,33.4999999999999));
#1327=CARTESIAN_POINT('',(96.6028108611692,-30.650000205,33.4999999999999));
#1328=CARTESIAN_POINT('',(94.5456217223385,-38.650000205,33.4999999999999));
#1329=CARTESIAN_POINT('',(132.182937880091,-38.650000205,33.4999999999999));
#1330=CARTESIAN_POINT('',(94.5456217223385,-38.650000205,33.4999999999999));
#1331=CARTESIAN_POINT('Origin',(101.16,-38.650000205,40.9999999999999));
#1332=CARTESIAN_POINT('Origin',(101.16,-30.650000205,40.9999999999999));
#1333=CARTESIAN_POINT('Origin',(101.16,-38.650000205,40.9999999999999));
#1334=CARTESIAN_POINT('Origin',(98.66,-30.650000205,40.9999999999999));
#1335=CARTESIAN_POINT('Origin',(218.839491924311,-38.650000205,-55.6025403784439));
#1336=CARTESIAN_POINT('',(218.839491924311,-38.650000205,-55.6025403784439));
#1337=CARTESIAN_POINT('Origin',(169.820254037844,-38.650000205,41.));
#1338=UNCERTAINTY_MEASURE_WITH_UNIT(LENGTH_MEASURE(0.01),#1342,
'DISTANCE_ACCURACY_VALUE',
'Maximum model space distance between geometric entities at asserted c
onnectivities');
#1339=UNCERTAINTY_MEASURE_WITH_UNIT(LENGTH_MEASURE(0.01),#1342,
'DISTANCE_ACCURACY_VALUE',
'Maximum model space distance between geometric entities at asserted c
onnectivities');
#1340=(
GEOMETRIC_REPRESENTATION_CONTEXT(3)
GLOBAL_UNCERTAINTY_ASSIGNED_CONTEXT((#1338))
GLOBAL_UNIT_ASSIGNED_CONTEXT((#1342,#1343,#1344))
REPRESENTATION_CONTEXT('','3D')
);
#1341=(
GEOMETRIC_REPRESENTATION_CONTEXT(3)
GLOBAL_UNCERTAINTY_ASSIGNED_CONTEXT((#1339))
GLOBAL_UNIT_ASSIGNED_CONTEXT((#1342,#1343,#1344))
REPRESENTATION_CONTEXT('','3D')
);
#1342=(
LENGTH_UNIT()
NAMED_UNIT(*)
SI_UNIT(.MILLI.,.METRE.)
);
#1343=(
NAMED_UNIT(*)
PLANE_ANGLE_UNIT()
SI_UNIT($,.RADIAN.)
);
#1344=(
NAMED_UNIT(*)
SI_UNIT($,.STERADIAN.)
SOLID_ANGLE_UNIT()
);
#1345=SHAPE_DEFINITION_REPRESENTATION(#1346,#1347);
#1346=PRODUCT_DEFINITION_SHAPE('',$,#1349);
#1347=SHAPE_REPRESENTATION('',(#810),#1340);
#1348=PRODUCT_DEFINITION_CONTEXT('part definition',#1353,'design');
#1349=PRODUCT_DEFINITION('central arm mount','central arm mount v6',#1350,
#1348);
#1350=PRODUCT_DEFINITION_FORMATION('',$,#1355);
#1351=PRODUCT_RELATED_PRODUCT_CATEGORY('central arm mount v6',
'central arm mount v6',(#1355));
#1352=APPLICATION_PROTOCOL_DEFINITION('international standard',
'automotive_design',2009,#1353);
#1353=APPLICATION_CONTEXT(
'Core Data for Automotive Mechanical Design Process');
#1354=PRODUCT_CONTEXT('part definition',#1353,'mechanical');
#1355=PRODUCT('central arm mount','central arm mount v6',$,(#1354));
#1356=PRESENTATION_STYLE_ASSIGNMENT((#1357));
#1357=SURFACE_STYLE_USAGE(.BOTH.,#1358);
#1358=SURFACE_SIDE_STYLE('',(#1359));
#1359=SURFACE_STYLE_FILL_AREA(#1360);
#1360=FILL_AREA_STYLE('Steel - Satin',(#1361));
#1361=FILL_AREA_STYLE_COLOUR('Steel - Satin',#1362);
#1362=COLOUR_RGB('Steel - Satin',0.627450980392157,0.627450980392157,0.627450980392157);
ENDSEC;
END-ISO-10303-21;
