ISO-10303-21;
HEADER;
/* Generated by software containing ST-Developer
 * from STEP Tools, Inc. (www.steptools.com) 
 */

FILE_DESCRIPTION(
/* description */ (''),
/* implementation_level */ '2;1');

FILE_NAME(
/* name */ 'NEMA 17 Through-Pulley.step',
/* time_stamp */ '2026-03-10T16:05:32-04:00',
/* author */ (''),
/* organization */ (''),
/* preprocessor_version */ 'ST-DEVELOPER v20.1',
/* originating_system */ 'Autodesk Translation Framework v14.24.0.0',
/* authorisation */ '');

FILE_SCHEMA (('AUTOMOTIVE_DESIGN { 1 0 10303 214 3 1 1 }'));
ENDSEC;

DATA;
#10=MECHANICAL_DESIGN_GEOMETRIC_PRESENTATION_REPRESENTATION('',(#13),#1098);
#11=SHAPE_REPRESENTATION_RELATIONSHIP('SRR','None',#1104,#12);
#12=ADVANCED_BREP_SHAPE_REPRESENTATION('',(#14),#1097);
#13=STYLED_ITEM('',(#1113),#14);
#14=MANIFOLD_SOLID_BREP('Body1',#338);
#15=CONICAL_SURFACE('',#362,19.,0.785398163397448);
#16=CONICAL_SURFACE('',#363,19.,0.785398163397448);
#17=TOROIDAL_SURFACE('',#351,20.,1.25);
#18=TOROIDAL_SURFACE('',#361,20.,1.25);
#19=CYLINDRICAL_SURFACE('',#347,20.);
#20=CYLINDRICAL_SURFACE('',#354,20.);
#21=CYLINDRICAL_SURFACE('',#358,20.);
#22=CYLINDRICAL_SURFACE('',#367,2.675);
#23=B_SPLINE_CURVE_WITH_KNOTS('',3,(#717,#718,#719,#720,#721,#722,#723,
#724,#725,#726,#727,#728,#729,#730,#731,#732,#733,#734,#735,#736,#737,#738,
#739,#740),.UNSPECIFIED.,.F.,.F.,(4,2,2,2,2,2,2,2,2,2,2,4),(0.194202057343573,
0.19697771275573,0.227791664199276,0.264648475828543,0.292032869164141,
0.321962211617692,0.340598015354174,0.352746530368508,0.368028685307198,
0.372730783720231,0.375650572700137,0.376403933504404),.UNSPECIFIED.);
#24=B_SPLINE_CURVE_WITH_KNOTS('',3,(#742,#743,#744,#745,#746,#747,#748,
#749,#750,#751,#752,#753,#754,#755,#756,#757,#758,#759,#760,#761,#762),
 .UNSPECIFIED.,.F.,.F.,(4,1,1,1,1,1,1,1,1,1,1,1,1,1,1,1,1,1,4),(0.0159678511931387,
0.142857142857143,0.285714285714286,0.357142857142857,0.392857142857143,
0.428571428571429,0.452380952380952,0.476190476190476,0.5,0.511904761904762,
0.523809523809524,0.535714285714286,0.547619047619048,0.55952380952381,
0.56547619047619,0.571428571428571,0.714285714285714,0.857142857142857,
0.984032148806862),.UNSPECIFIED.);
#25=B_SPLINE_CURVE_WITH_KNOTS('',3,(#764,#765,#766,#767,#768,#769,#770,
#771,#772,#773,#774,#775,#776,#777,#778,#779,#780,#781),.UNSPECIFIED.,.F.,
 .F.,(4,2,2,2,2,2,2,2,4),(0.00172008776025842,0.00309730493111942,0.00675025905433484,
0.0133799327818134,0.0409454433090545,0.0754985410254853,0.12580402480273,
0.165232426153252,0.194202057343234),.UNSPECIFIED.);
#26=B_SPLINE_CURVE_WITH_KNOTS('',3,(#783,#784,#785,#786,#787,#788,#789,
#790,#791,#792,#793,#794,#795,#796,#797,#798,#799,#800,#801),
 .UNSPECIFIED.,.F.,.F.,(4,3,3,3,3,3,4),(0.0881527177527751,0.106342263004356,
0.117093099473192,0.135315924271,0.153518176099838,0.171254684895489,0.176308798870092),
 .UNSPECIFIED.);
#27=B_SPLINE_CURVE_WITH_KNOTS('',3,(#803,#804,#805,#806,#807,#808,#809,
#810,#811,#812,#813,#814,#815,#816,#817,#818,#819,#820,#821),
 .UNSPECIFIED.,.F.,.F.,(4,3,3,3,3,3,4),(0.,0.0182353123693169,0.036314612199122,
0.0543939120289271,0.0586253274447927,0.0763300986735823,0.0881527177527751),
 .UNSPECIFIED.);
#28=B_SPLINE_CURVE_WITH_KNOTS('',3,(#823,#824,#825,#826,#827,#828,#829,
#830,#831,#832,#833,#834,#835,#836,#837,#838,#839,#840,#841,#842,#843,#844,
#845,#846,#847,#848,#849,#850,#851,#852,#853,#854,#855,#856,#857,#858),
 .UNSPECIFIED.,.F.,.F.,(4,2,2,2,2,2,2,2,2,2,2,2,2,2,2,2,2,4),(0.00172004240121191,
0.00313281886877662,0.00682711127451319,0.0135285314145294,0.0411271383698867,
0.0758982725337951,0.125138342030543,0.164696272178258,0.197306496682733,
0.229120223473658,0.266891237256927,0.291039417504048,0.320148954282608,
0.354272304808631,0.365991811504503,0.370199484075309,0.372648728476599,
0.373337626777126),.UNSPECIFIED.);
#29=B_SPLINE_CURVE_WITH_KNOTS('',3,(#860,#861,#862,#863,#864,#865,#866,
#867,#868,#869,#870,#871,#872,#873,#874,#875,#876,#877,#878),
 .UNSPECIFIED.,.F.,.F.,(4,3,3,3,3,3,4),(0.0881532565450635,0.105904711653243,
0.117097657895603,0.121910120388083,0.139688945066361,0.157998849541202,
0.176308754016044),.UNSPECIFIED.);
#30=B_SPLINE_CURVE_WITH_KNOTS('',3,(#880,#881,#882,#883,#884,#885,#886,
#887,#888,#889,#890,#891,#892,#893,#894,#895,#896,#897,#898),
 .UNSPECIFIED.,.F.,.F.,(4,3,3,3,3,3,4),(0.,0.0178920992920113,0.0360497165251286,
0.0541436447828408,0.0586297295002664,0.0767656722029293,0.0881532565450635),
 .UNSPECIFIED.);
#31=B_SPLINE_CURVE_WITH_KNOTS('',3,(#899,#900,#901,#902,#903,#904,#905,
#906,#907,#908,#909,#910,#911,#912,#913,#914,#915,#916,#917,#918,#919,#920,
#921,#922),.UNSPECIFIED.,.F.,.F.,(4,2,2,2,2,2,2,2,2,2,2,4),(0.194202057343234,
0.196977712755394,0.227791664198947,0.264648475828234,0.292032869163823,
0.321962211617352,0.340598015353887,0.352746530368195,0.368028685306804,
0.372730783719997,0.375650572699999,0.376403933504224),.UNSPECIFIED.);
#32=B_SPLINE_CURVE_WITH_KNOTS('',3,(#924,#925,#926,#927,#928,#929,#930,
#931,#932,#933,#934,#935,#936,#937,#938,#939,#940,#941),.UNSPECIFIED.,.F.,
 .F.,(4,2,2,2,2,2,2,2,4),(0.00172008776025941,0.00309730493112299,0.00675025905436004,
0.0133799327818891,0.0409454433092686,0.0754985410258309,0.125804024803077,
0.165232426153592,0.194202057343573),.UNSPECIFIED.);
#33=B_SPLINE_CURVE_WITH_KNOTS('',3,(#943,#944,#945,#946,#947,#948,#949,
#950,#951,#952,#953,#954,#955,#956,#957,#958,#959,#960,#961),
 .UNSPECIFIED.,.F.,.F.,(4,3,3,3,3,3,4),(0.088152717752763,0.106289222541701,
0.117093099473175,0.135234958819845,0.153417458727322,0.171213701706433,
0.17630879887007),.UNSPECIFIED.);
#34=B_SPLINE_CURVE_WITH_KNOTS('',3,(#963,#964,#965,#966,#967,#968,#969,
#970,#971,#972,#973,#974,#975,#976,#977,#978,#979,#980,#981),
 .UNSPECIFIED.,.F.,.F.,(4,3,3,3,3,3,4),(0.,0.0182498353775512,0.036321873703236,
0.0543939120289208,0.0586253274447847,0.0763794911455412,0.088152717752763),
 .UNSPECIFIED.);
#35=B_SPLINE_CURVE_WITH_KNOTS('',3,(#983,#984,#985,#986,#987,#988,#989,
#990,#991,#992,#993,#994,#995,#996,#997,#998,#999,#1000,#1001,#1002,#1003,
#1004,#1005,#1006,#1007,#1008,#1009,#1010,#1011,#1012,#1013,#1014,#1015,
#1016,#1017,#1018),.UNSPECIFIED.,.F.,.F.,(4,2,2,2,2,2,2,2,2,2,2,2,2,2,2,
2,2,4),(0.00172004240122997,0.00313281886888574,0.00682711127481478,0.0135285314144293,
0.0411271383679038,0.0758982725296954,0.125138342023992,0.164696272169814,
0.197306496672734,0.229120223462147,0.266891237243612,0.291039417489591,
0.320148954266779,0.354272304791223,0.365991811486495,0.370199484057006,
0.372648728458409,0.37333762675898),.UNSPECIFIED.);
#36=B_SPLINE_CURVE_WITH_KNOTS('',3,(#1020,#1021,#1022,#1023,#1024,#1025,
#1026,#1027,#1028,#1029,#1030,#1031,#1032,#1033,#1034,#1035,#1036,#1037,
#1038),.UNSPECIFIED.,.F.,.F.,(4,3,3,3,3,3,4),(0.0881532565450617,0.105854784319413,
0.117097657895593,0.121910120388073,0.139646703055606,0.157977728535817,
0.176308754016027),.UNSPECIFIED.);
#37=B_SPLINE_CURVE_WITH_KNOTS('',3,(#1039,#1040,#1041,#1042,#1043,#1044,
#1045,#1046,#1047,#1048,#1049,#1050,#1051,#1052,#1053,#1054,#1055,#1056,
#1057),.UNSPECIFIED.,.F.,.F.,(4,3,3,3,3,3,4),(0.,0.0178452507903313,0.0360109798755833,
0.0541977736438184,0.0586297295002674,0.0768189934715281,0.0881532565450617),
 .UNSPECIFIED.);
#38=B_SPLINE_SURFACE_WITH_KNOTS('',3,3,((#484,#485,#486,#487,#488,#489,
#490,#491,#492,#493,#494,#495,#496,#497,#498,#499,#500,#501,#502,#503,#504),
(#505,#506,#507,#508,#509,#510,#511,#512,#513,#514,#515,#516,#517,#518,
#519,#520,#521,#522,#523,#524,#525),(#526,#527,#528,#529,#530,#531,#532,
#533,#534,#535,#536,#537,#538,#539,#540,#541,#542,#543,#544,#545,#546),
(#547,#548,#549,#550,#551,#552,#553,#554,#555,#556,#557,#558,#559,#560,
#561,#562,#563,#564,#565,#566,#567),(#568,#569,#570,#571,#572,#573,#574,
#575,#576,#577,#578,#579,#580,#581,#582,#583,#584,#585,#586,#587,#588),
(#589,#590,#591,#592,#593,#594,#595,#596,#597,#598,#599,#600,#601,#602,
#603,#604,#605,#606,#607,#608,#609),(#610,#611,#612,#613,#614,#615,#616,
#617,#618,#619,#620,#621,#622,#623,#624,#625,#626,#627,#628,#629,#630),
(#631,#632,#633,#634,#635,#636,#637,#638,#639,#640,#641,#642,#643,#644,
#645,#646,#647,#648,#649,#650,#651),(#652,#653,#654,#655,#656,#657,#658,
#659,#660,#661,#662,#663,#664,#665,#666,#667,#668,#669,#670,#671,#672),
(#673,#674,#675,#676,#677,#678,#679,#680,#681,#682,#683,#684,#685,#686,
#687,#688,#689,#690,#691,#692,#693),(#694,#695,#696,#697,#698,#699,#700,
#701,#702,#703,#704,#705,#706,#707,#708,#709,#710,#711,#712,#713,#714)),
 .UNSPECIFIED.,.T.,.F.,.F.,(4,1,1,1,1,1,1,1,4),(4,1,1,1,1,1,1,1,1,1,1,1,
1,1,1,1,1,1,4),(0.,0.142857142857143,0.25,0.285714285714286,0.428571428571429,
0.571428571428571,0.714285714285714,0.857142857142857,1.),(0.,0.142857142857143,
0.285714285714286,0.357142857142857,0.392857142857143,0.428571428571429,
0.452380952380952,0.476190476190476,0.5,0.511904761904762,0.523809523809524,
0.535714285714286,0.547619047619048,0.55952380952381,0.56547619047619,0.571428571428571,
0.714285714285714,0.857142857142857,1.),.UNSPECIFIED.);
#39=FACE_BOUND('',#75,.T.);
#40=FACE_BOUND('',#86,.T.);
#41=CIRCLE('',#344,18.);
#42=CIRCLE('',#345,2.675);
#43=CIRCLE('',#348,20.);
#44=CIRCLE('',#349,20.);
#45=CIRCLE('',#350,20.);
#46=CIRCLE('',#352,20.);
#47=CIRCLE('',#353,20.);
#48=CIRCLE('',#355,20.);
#49=CIRCLE('',#356,20.);
#50=CIRCLE('',#357,20.);
#51=CIRCLE('',#359,20.);
#52=CIRCLE('',#360,20.);
#53=CIRCLE('',#364,18.);
#54=CIRCLE('',#366,2.675);
#55=FACE_OUTER_BOUND('',#71,.T.);
#56=FACE_OUTER_BOUND('',#72,.T.);
#57=FACE_OUTER_BOUND('',#73,.T.);
#58=FACE_OUTER_BOUND('',#74,.T.);
#59=FACE_OUTER_BOUND('',#76,.T.);
#60=FACE_OUTER_BOUND('',#77,.T.);
#61=FACE_OUTER_BOUND('',#78,.T.);
#62=FACE_OUTER_BOUND('',#79,.T.);
#63=FACE_OUTER_BOUND('',#80,.T.);
#64=FACE_OUTER_BOUND('',#81,.T.);
#65=FACE_OUTER_BOUND('',#82,.T.);
#66=FACE_OUTER_BOUND('',#83,.T.);
#67=FACE_OUTER_BOUND('',#84,.T.);
#68=FACE_OUTER_BOUND('',#85,.T.);
#69=FACE_OUTER_BOUND('',#87,.T.);
#70=FACE_OUTER_BOUND('',#88,.T.);
#71=EDGE_LOOP('',(#215,#216,#217,#218));
#72=EDGE_LOOP('',(#219,#220,#221,#222));
#73=EDGE_LOOP('',(#223,#224,#225,#226));
#74=EDGE_LOOP('',(#227));
#75=EDGE_LOOP('',(#228,#229,#230,#231,#232,#233));
#76=EDGE_LOOP('',(#234,#235,#236,#237));
#77=EDGE_LOOP('',(#238,#239,#240,#241,#242,#243,#244,#245,#246,#247,#248,
#249,#250,#251,#252,#253));
#78=EDGE_LOOP('',(#254,#255,#256,#257,#258,#259,#260));
#79=EDGE_LOOP('',(#261,#262,#263,#264,#265,#266,#267));
#80=EDGE_LOOP('',(#268,#269,#270,#271,#272,#273,#274));
#81=EDGE_LOOP('',(#275,#276,#277,#278,#279,#280,#281,#282,#283,#284));
#82=EDGE_LOOP('',(#285,#286,#287,#288,#289,#290,#291));
#83=EDGE_LOOP('',(#292,#293,#294,#295));
#84=EDGE_LOOP('',(#296,#297,#298,#299));
#85=EDGE_LOOP('',(#300));
#86=EDGE_LOOP('',(#301,#302,#303,#304,#305,#306));
#87=EDGE_LOOP('',(#307,#308,#309,#310));
#88=EDGE_LOOP('',(#311,#312,#313,#314));
#89=LINE('',#454,#110);
#90=LINE('',#456,#111);
#91=LINE('',#458,#112);
#92=LINE('',#459,#113);
#93=LINE('',#462,#114);
#94=LINE('',#464,#115);
#95=LINE('',#465,#116);
#96=LINE('',#468,#117);
#97=LINE('',#470,#118);
#98=LINE('',#471,#119);
#99=LINE('',#476,#120);
#100=LINE('',#479,#121);
#101=LINE('',#482,#122);
#102=LINE('',#483,#123);
#103=LINE('',#1062,#124);
#104=LINE('',#1073,#125);
#105=LINE('',#1079,#126);
#106=LINE('',#1083,#127);
#107=LINE('',#1087,#128);
#108=LINE('',#1090,#129);
#109=LINE('',#1093,#130);
#110=VECTOR('',#373,10.);
#111=VECTOR('',#374,10.);
#112=VECTOR('',#375,10.);
#113=VECTOR('',#376,10.);
#114=VECTOR('',#379,10.);
#115=VECTOR('',#380,10.);
#116=VECTOR('',#381,10.);
#117=VECTOR('',#384,10.);
#118=VECTOR('',#385,10.);
#119=VECTOR('',#386,10.);
#120=VECTOR('',#391,10.);
#121=VECTOR('',#394,10.);
#122=VECTOR('',#397,10.);
#123=VECTOR('',#398,10.);
#124=VECTOR('',#403,20.);
#125=VECTOR('',#418,20.);
#126=VECTOR('',#427,20.);
#127=VECTOR('',#434,19.);
#128=VECTOR('',#439,19.);
#129=VECTOR('',#442,10.);
#130=VECTOR('',#447,10.);
#131=VERTEX_POINT('',#452);
#132=VERTEX_POINT('',#453);
#133=VERTEX_POINT('',#455);
#134=VERTEX_POINT('',#457);
#135=VERTEX_POINT('',#461);
#136=VERTEX_POINT('',#463);
#137=VERTEX_POINT('',#467);
#138=VERTEX_POINT('',#469);
#139=VERTEX_POINT('',#473);
#140=VERTEX_POINT('',#475);
#141=VERTEX_POINT('',#477);
#142=VERTEX_POINT('',#481);
#143=VERTEX_POINT('',#715);
#144=VERTEX_POINT('',#716);
#145=VERTEX_POINT('',#741);
#146=VERTEX_POINT('',#763);
#147=VERTEX_POINT('',#782);
#148=VERTEX_POINT('',#802);
#149=VERTEX_POINT('',#822);
#150=VERTEX_POINT('',#859);
#151=VERTEX_POINT('',#879);
#152=VERTEX_POINT('',#923);
#153=VERTEX_POINT('',#942);
#154=VERTEX_POINT('',#962);
#155=VERTEX_POINT('',#982);
#156=VERTEX_POINT('',#1019);
#157=VERTEX_POINT('',#1059);
#158=VERTEX_POINT('',#1061);
#159=VERTEX_POINT('',#1066);
#160=VERTEX_POINT('',#1070);
#161=VERTEX_POINT('',#1072);
#162=VERTEX_POINT('',#1077);
#163=VERTEX_POINT('',#1085);
#164=VERTEX_POINT('',#1089);
#165=EDGE_CURVE('',#131,#132,#89,.T.);
#166=EDGE_CURVE('',#133,#131,#90,.T.);
#167=EDGE_CURVE('',#134,#133,#91,.T.);
#168=EDGE_CURVE('',#134,#132,#92,.T.);
#169=EDGE_CURVE('',#132,#135,#93,.T.);
#170=EDGE_CURVE('',#136,#134,#94,.T.);
#171=EDGE_CURVE('',#136,#135,#95,.T.);
#172=EDGE_CURVE('',#135,#137,#96,.T.);
#173=EDGE_CURVE('',#138,#136,#97,.T.);
#174=EDGE_CURVE('',#137,#138,#98,.T.);
#175=EDGE_CURVE('',#139,#139,#41,.T.);
#176=EDGE_CURVE('',#133,#140,#99,.F.);
#177=EDGE_CURVE('',#140,#141,#42,.F.);
#178=EDGE_CURVE('',#141,#138,#100,.F.);
#179=EDGE_CURVE('',#142,#131,#101,.T.);
#180=EDGE_CURVE('',#140,#142,#102,.F.);
#181=EDGE_CURVE('',#143,#144,#23,.T.);
#182=EDGE_CURVE('',#143,#145,#24,.T.);
#183=EDGE_CURVE('',#146,#145,#25,.T.);
#184=EDGE_CURVE('',#147,#146,#26,.T.);
#185=EDGE_CURVE('',#148,#147,#27,.T.);
#186=EDGE_CURVE('',#149,#148,#28,.T.);
#187=EDGE_CURVE('',#150,#149,#29,.T.);
#188=EDGE_CURVE('',#151,#150,#30,.T.);
#189=EDGE_CURVE('',#145,#151,#31,.T.);
#190=EDGE_CURVE('',#152,#143,#32,.T.);
#191=EDGE_CURVE('',#153,#152,#33,.T.);
#192=EDGE_CURVE('',#154,#153,#34,.T.);
#193=EDGE_CURVE('',#155,#154,#35,.T.);
#194=EDGE_CURVE('',#156,#155,#36,.T.);
#195=EDGE_CURVE('',#144,#156,#37,.T.);
#196=EDGE_CURVE('',#155,#157,#43,.T.);
#197=EDGE_CURVE('',#157,#158,#103,.T.);
#198=EDGE_CURVE('',#158,#158,#44,.T.);
#199=EDGE_CURVE('',#157,#144,#45,.T.);
#200=EDGE_CURVE('',#159,#154,#46,.T.);
#201=EDGE_CURVE('',#152,#159,#47,.T.);
#202=EDGE_CURVE('',#160,#160,#48,.T.);
#203=EDGE_CURVE('',#160,#161,#104,.T.);
#204=EDGE_CURVE('',#161,#151,#49,.T.);
#205=EDGE_CURVE('',#149,#161,#50,.T.);
#206=EDGE_CURVE('',#146,#162,#51,.T.);
#207=EDGE_CURVE('',#162,#159,#105,.T.);
#208=EDGE_CURVE('',#162,#148,#52,.T.);
#209=EDGE_CURVE('',#139,#158,#106,.T.);
#210=EDGE_CURVE('',#163,#163,#53,.T.);
#211=EDGE_CURVE('',#163,#160,#107,.T.);
#212=EDGE_CURVE('',#137,#164,#108,.T.);
#213=EDGE_CURVE('',#164,#142,#54,.T.);
#214=EDGE_CURVE('',#141,#164,#109,.T.);
#215=ORIENTED_EDGE('',*,*,#165,.F.);
#216=ORIENTED_EDGE('',*,*,#166,.F.);
#217=ORIENTED_EDGE('',*,*,#167,.F.);
#218=ORIENTED_EDGE('',*,*,#168,.T.);
#219=ORIENTED_EDGE('',*,*,#169,.F.);
#220=ORIENTED_EDGE('',*,*,#168,.F.);
#221=ORIENTED_EDGE('',*,*,#170,.F.);
#222=ORIENTED_EDGE('',*,*,#171,.T.);
#223=ORIENTED_EDGE('',*,*,#172,.F.);
#224=ORIENTED_EDGE('',*,*,#171,.F.);
#225=ORIENTED_EDGE('',*,*,#173,.F.);
#226=ORIENTED_EDGE('',*,*,#174,.F.);
#227=ORIENTED_EDGE('',*,*,#175,.F.);
#228=ORIENTED_EDGE('',*,*,#173,.T.);
#229=ORIENTED_EDGE('',*,*,#170,.T.);
#230=ORIENTED_EDGE('',*,*,#167,.T.);
#231=ORIENTED_EDGE('',*,*,#176,.T.);
#232=ORIENTED_EDGE('',*,*,#177,.T.);
#233=ORIENTED_EDGE('',*,*,#178,.T.);
#234=ORIENTED_EDGE('',*,*,#166,.T.);
#235=ORIENTED_EDGE('',*,*,#179,.F.);
#236=ORIENTED_EDGE('',*,*,#180,.F.);
#237=ORIENTED_EDGE('',*,*,#176,.F.);
#238=ORIENTED_EDGE('',*,*,#181,.F.);
#239=ORIENTED_EDGE('',*,*,#182,.T.);
#240=ORIENTED_EDGE('',*,*,#183,.F.);
#241=ORIENTED_EDGE('',*,*,#184,.F.);
#242=ORIENTED_EDGE('',*,*,#185,.F.);
#243=ORIENTED_EDGE('',*,*,#186,.F.);
#244=ORIENTED_EDGE('',*,*,#187,.F.);
#245=ORIENTED_EDGE('',*,*,#188,.F.);
#246=ORIENTED_EDGE('',*,*,#189,.F.);
#247=ORIENTED_EDGE('',*,*,#182,.F.);
#248=ORIENTED_EDGE('',*,*,#190,.F.);
#249=ORIENTED_EDGE('',*,*,#191,.F.);
#250=ORIENTED_EDGE('',*,*,#192,.F.);
#251=ORIENTED_EDGE('',*,*,#193,.F.);
#252=ORIENTED_EDGE('',*,*,#194,.F.);
#253=ORIENTED_EDGE('',*,*,#195,.F.);
#254=ORIENTED_EDGE('',*,*,#194,.T.);
#255=ORIENTED_EDGE('',*,*,#196,.T.);
#256=ORIENTED_EDGE('',*,*,#197,.T.);
#257=ORIENTED_EDGE('',*,*,#198,.F.);
#258=ORIENTED_EDGE('',*,*,#197,.F.);
#259=ORIENTED_EDGE('',*,*,#199,.T.);
#260=ORIENTED_EDGE('',*,*,#195,.T.);
#261=ORIENTED_EDGE('',*,*,#193,.T.);
#262=ORIENTED_EDGE('',*,*,#200,.F.);
#263=ORIENTED_EDGE('',*,*,#201,.F.);
#264=ORIENTED_EDGE('',*,*,#190,.T.);
#265=ORIENTED_EDGE('',*,*,#181,.T.);
#266=ORIENTED_EDGE('',*,*,#199,.F.);
#267=ORIENTED_EDGE('',*,*,#196,.F.);
#268=ORIENTED_EDGE('',*,*,#202,.F.);
#269=ORIENTED_EDGE('',*,*,#203,.T.);
#270=ORIENTED_EDGE('',*,*,#204,.T.);
#271=ORIENTED_EDGE('',*,*,#188,.T.);
#272=ORIENTED_EDGE('',*,*,#187,.T.);
#273=ORIENTED_EDGE('',*,*,#205,.T.);
#274=ORIENTED_EDGE('',*,*,#203,.F.);
#275=ORIENTED_EDGE('',*,*,#185,.T.);
#276=ORIENTED_EDGE('',*,*,#184,.T.);
#277=ORIENTED_EDGE('',*,*,#206,.T.);
#278=ORIENTED_EDGE('',*,*,#207,.T.);
#279=ORIENTED_EDGE('',*,*,#200,.T.);
#280=ORIENTED_EDGE('',*,*,#192,.T.);
#281=ORIENTED_EDGE('',*,*,#191,.T.);
#282=ORIENTED_EDGE('',*,*,#201,.T.);
#283=ORIENTED_EDGE('',*,*,#207,.F.);
#284=ORIENTED_EDGE('',*,*,#208,.T.);
#285=ORIENTED_EDGE('',*,*,#186,.T.);
#286=ORIENTED_EDGE('',*,*,#208,.F.);
#287=ORIENTED_EDGE('',*,*,#206,.F.);
#288=ORIENTED_EDGE('',*,*,#183,.T.);
#289=ORIENTED_EDGE('',*,*,#189,.T.);
#290=ORIENTED_EDGE('',*,*,#204,.F.);
#291=ORIENTED_EDGE('',*,*,#205,.F.);
#292=ORIENTED_EDGE('',*,*,#175,.T.);
#293=ORIENTED_EDGE('',*,*,#209,.T.);
#294=ORIENTED_EDGE('',*,*,#198,.T.);
#295=ORIENTED_EDGE('',*,*,#209,.F.);
#296=ORIENTED_EDGE('',*,*,#210,.T.);
#297=ORIENTED_EDGE('',*,*,#211,.T.);
#298=ORIENTED_EDGE('',*,*,#202,.T.);
#299=ORIENTED_EDGE('',*,*,#211,.F.);
#300=ORIENTED_EDGE('',*,*,#210,.F.);
#301=ORIENTED_EDGE('',*,*,#172,.T.);
#302=ORIENTED_EDGE('',*,*,#212,.T.);
#303=ORIENTED_EDGE('',*,*,#213,.T.);
#304=ORIENTED_EDGE('',*,*,#179,.T.);
#305=ORIENTED_EDGE('',*,*,#165,.T.);
#306=ORIENTED_EDGE('',*,*,#169,.T.);
#307=ORIENTED_EDGE('',*,*,#177,.F.);
#308=ORIENTED_EDGE('',*,*,#180,.T.);
#309=ORIENTED_EDGE('',*,*,#213,.F.);
#310=ORIENTED_EDGE('',*,*,#214,.F.);
#311=ORIENTED_EDGE('',*,*,#174,.T.);
#312=ORIENTED_EDGE('',*,*,#178,.F.);
#313=ORIENTED_EDGE('',*,*,#214,.T.);
#314=ORIENTED_EDGE('',*,*,#212,.F.);
#315=PLANE('',#340);
#316=PLANE('',#341);
#317=PLANE('',#342);
#318=PLANE('',#343);
#319=PLANE('',#346);
#320=PLANE('',#365);
#321=PLANE('',#368);
#322=ADVANCED_FACE('',(#55),#315,.F.);
#323=ADVANCED_FACE('',(#56),#316,.F.);
#324=ADVANCED_FACE('',(#57),#317,.F.);
#325=ADVANCED_FACE('',(#58,#39),#318,.T.);
#326=ADVANCED_FACE('',(#59),#319,.T.);
#327=ADVANCED_FACE('',(#60),#38,.T.);
#328=ADVANCED_FACE('',(#61),#19,.T.);
#329=ADVANCED_FACE('',(#62),#17,.F.);
#330=ADVANCED_FACE('',(#63),#20,.T.);
#331=ADVANCED_FACE('',(#64),#21,.T.);
#332=ADVANCED_FACE('',(#65),#18,.F.);
#333=ADVANCED_FACE('',(#66),#15,.T.);
#334=ADVANCED_FACE('',(#67),#16,.T.);
#335=ADVANCED_FACE('',(#68,#40),#320,.F.);
#336=ADVANCED_FACE('',(#69),#22,.F.);
#337=ADVANCED_FACE('',(#70),#321,.T.);
#338=CLOSED_SHELL('',(#322,#323,#324,#325,#326,#327,#328,#329,#330,#331,
#332,#333,#334,#335,#336,#337));
#339=AXIS2_PLACEMENT_3D('',#450,#369,#370);
#340=AXIS2_PLACEMENT_3D('',#451,#371,#372);
#341=AXIS2_PLACEMENT_3D('',#460,#377,#378);
#342=AXIS2_PLACEMENT_3D('',#466,#382,#383);
#343=AXIS2_PLACEMENT_3D('',#472,#387,#388);
#344=AXIS2_PLACEMENT_3D('',#474,#389,#390);
#345=AXIS2_PLACEMENT_3D('',#478,#392,#393);
#346=AXIS2_PLACEMENT_3D('',#480,#395,#396);
#347=AXIS2_PLACEMENT_3D('',#1058,#399,#400);
#348=AXIS2_PLACEMENT_3D('',#1060,#401,#402);
#349=AXIS2_PLACEMENT_3D('',#1063,#404,#405);
#350=AXIS2_PLACEMENT_3D('',#1064,#406,#407);
#351=AXIS2_PLACEMENT_3D('',#1065,#408,#409);
#352=AXIS2_PLACEMENT_3D('',#1067,#410,#411);
#353=AXIS2_PLACEMENT_3D('',#1068,#412,#413);
#354=AXIS2_PLACEMENT_3D('',#1069,#414,#415);
#355=AXIS2_PLACEMENT_3D('',#1071,#416,#417);
#356=AXIS2_PLACEMENT_3D('',#1074,#419,#420);
#357=AXIS2_PLACEMENT_3D('',#1075,#421,#422);
#358=AXIS2_PLACEMENT_3D('',#1076,#423,#424);
#359=AXIS2_PLACEMENT_3D('',#1078,#425,#426);
#360=AXIS2_PLACEMENT_3D('',#1080,#428,#429);
#361=AXIS2_PLACEMENT_3D('',#1081,#430,#431);
#362=AXIS2_PLACEMENT_3D('',#1082,#432,#433);
#363=AXIS2_PLACEMENT_3D('',#1084,#435,#436);
#364=AXIS2_PLACEMENT_3D('',#1086,#437,#438);
#365=AXIS2_PLACEMENT_3D('',#1088,#440,#441);
#366=AXIS2_PLACEMENT_3D('',#1091,#443,#444);
#367=AXIS2_PLACEMENT_3D('',#1092,#445,#446);
#368=AXIS2_PLACEMENT_3D('',#1094,#448,#449);
#369=DIRECTION('axis',(0.,0.,1.));
#370=DIRECTION('refdir',(1.,0.,0.));
#371=DIRECTION('center_axis',(-1.,0.,0.));
#372=DIRECTION('ref_axis',(0.,1.,0.));
#373=DIRECTION('',(0.,-1.,0.));
#374=DIRECTION('',(0.,0.,-1.));
#375=DIRECTION('',(0.,1.,0.));
#376=DIRECTION('',(0.,0.,-1.));
#377=DIRECTION('center_axis',(0.,-1.,0.));
#378=DIRECTION('ref_axis',(-1.,0.,0.));
#379=DIRECTION('',(1.,0.,0.));
#380=DIRECTION('',(-1.,0.,0.));
#381=DIRECTION('',(0.,0.,-1.));
#382=DIRECTION('center_axis',(1.,0.,0.));
#383=DIRECTION('ref_axis',(0.,-1.,0.));
#384=DIRECTION('',(0.,1.,0.));
#385=DIRECTION('',(0.,-1.,0.));
#386=DIRECTION('',(0.,0.,1.));
#387=DIRECTION('center_axis',(0.,0.,1.));
#388=DIRECTION('ref_axis',(-1.,0.,0.));
#389=DIRECTION('center_axis',(0.,0.,-1.));
#390=DIRECTION('ref_axis',(-1.,0.,0.));
#391=DIRECTION('',(1.,0.,0.));
#392=DIRECTION('center_axis',(0.,0.,1.));
#393=DIRECTION('ref_axis',(0.6,-0.8,0.));
#394=DIRECTION('',(1.,0.,0.));
#395=DIRECTION('center_axis',(0.,1.,0.));
#396=DIRECTION('ref_axis',(1.,0.,0.));
#397=DIRECTION('',(1.,0.,0.));
#398=DIRECTION('',(0.,0.,1.));
#399=DIRECTION('center_axis',(0.,0.,-1.));
#400=DIRECTION('ref_axis',(-1.,0.,0.));
#401=DIRECTION('center_axis',(0.,0.,1.));
#402=DIRECTION('ref_axis',(-1.,0.,0.));
#403=DIRECTION('',(0.,0.,1.));
#404=DIRECTION('center_axis',(0.,0.,1.));
#405=DIRECTION('ref_axis',(-1.,0.,0.));
#406=DIRECTION('center_axis',(0.,0.,1.));
#407=DIRECTION('ref_axis',(-1.,0.,0.));
#408=DIRECTION('center_axis',(0.,0.,1.));
#409=DIRECTION('ref_axis',(1.60906684604732E-7,-0.999999999999987,0.));
#410=DIRECTION('center_axis',(0.,0.,-1.));
#411=DIRECTION('ref_axis',(-1.,0.,0.));
#412=DIRECTION('center_axis',(0.,0.,-1.));
#413=DIRECTION('ref_axis',(-1.,0.,0.));
#414=DIRECTION('center_axis',(0.,0.,-1.));
#415=DIRECTION('ref_axis',(-1.,0.,0.));
#416=DIRECTION('center_axis',(0.,0.,-1.));
#417=DIRECTION('ref_axis',(-1.,0.,0.));
#418=DIRECTION('',(0.,0.,1.));
#419=DIRECTION('center_axis',(0.,0.,-1.));
#420=DIRECTION('ref_axis',(-1.,0.,0.));
#421=DIRECTION('center_axis',(0.,0.,-1.));
#422=DIRECTION('ref_axis',(-1.,0.,0.));
#423=DIRECTION('center_axis',(0.,0.,-1.));
#424=DIRECTION('ref_axis',(-1.,0.,0.));
#425=DIRECTION('center_axis',(0.,0.,1.));
#426=DIRECTION('ref_axis',(-1.,0.,0.));
#427=DIRECTION('',(0.,0.,1.));
#428=DIRECTION('center_axis',(0.,0.,1.));
#429=DIRECTION('ref_axis',(-1.,0.,0.));
#430=DIRECTION('center_axis',(0.,0.,-1.));
#431=DIRECTION('ref_axis',(1.60906685492911E-7,-0.999999999999987,0.));
#432=DIRECTION('center_axis',(0.,0.,-1.));
#433=DIRECTION('ref_axis',(-1.,0.,0.));
#434=DIRECTION('',(0.707106781186547,8.65956056235493E-17,-0.707106781186548));
#435=DIRECTION('center_axis',(0.,0.,1.));
#436=DIRECTION('ref_axis',(-1.,0.,0.));
#437=DIRECTION('center_axis',(0.,0.,1.));
#438=DIRECTION('ref_axis',(-1.,0.,0.));
#439=DIRECTION('',(0.707106781186547,-8.65956056235493E-17,0.707106781186548));
#440=DIRECTION('center_axis',(0.,0.,1.));
#441=DIRECTION('ref_axis',(-1.,0.,0.));
#442=DIRECTION('',(1.,0.,0.));
#443=DIRECTION('center_axis',(0.,0.,1.));
#444=DIRECTION('ref_axis',(0.6,-0.8,0.));
#445=DIRECTION('center_axis',(0.,0.,-1.));
#446=DIRECTION('ref_axis',(-3.11277483539764E-16,1.,0.));
#447=DIRECTION('',(0.,0.,-1.));
#448=DIRECTION('center_axis',(0.,1.,0.));
#449=DIRECTION('ref_axis',(1.,0.,0.));
#450=CARTESIAN_POINT('',(0.,0.,0.));
#451=CARTESIAN_POINT('Origin',(-0.5,-5.67500000000001,50.9999999999999));
#452=CARTESIAN_POINT('',(-0.5,-4.67500000000001,35.9999999999999));
#453=CARTESIAN_POINT('',(-0.5,-5.67500000000001,35.9999999999999));
#454=CARTESIAN_POINT('',(-0.5,-4.08750000000001,35.9999999999999));
#455=CARTESIAN_POINT('',(-0.5,-4.67500000000001,50.9999999999999));
#456=CARTESIAN_POINT('',(-0.5,-4.67500000000001,50.9999999999999));
#457=CARTESIAN_POINT('',(-0.5,-5.67500000000001,50.9999999999999));
#458=CARTESIAN_POINT('',(-0.5,-4.08750000000001,50.9999999999999));
#459=CARTESIAN_POINT('',(-0.5,-5.67500000000001,50.9999999999999));
#460=CARTESIAN_POINT('Origin',(0.5,-5.67500000000001,50.9999999999999));
#461=CARTESIAN_POINT('',(0.5,-5.67500000000001,35.9999999999999));
#462=CARTESIAN_POINT('',(0.25,-5.67500000000001,35.9999999999999));
#463=CARTESIAN_POINT('',(0.5,-5.67500000000001,50.9999999999999));
#464=CARTESIAN_POINT('',(0.25,-5.67500000000001,50.9999999999999));
#465=CARTESIAN_POINT('',(0.5,-5.67500000000001,50.9999999999999));
#466=CARTESIAN_POINT('Origin',(0.5,-4.67500000000001,50.9999999999999));
#467=CARTESIAN_POINT('',(0.5,-4.67500000000001,35.9999999999999));
#468=CARTESIAN_POINT('',(0.5,-3.58750000000001,35.9999999999999));
#469=CARTESIAN_POINT('',(0.5,-4.67500000000001,50.9999999999999));
#470=CARTESIAN_POINT('',(0.5,-3.58750000000001,50.9999999999999));
#471=CARTESIAN_POINT('',(0.5,-4.67500000000001,50.9999999999999));
#472=CARTESIAN_POINT('Origin',(0.,-2.50000000000002,50.9999999999999));
#473=CARTESIAN_POINT('',(18.,-2.50000000000002,50.9999999999999));
#474=CARTESIAN_POINT('Origin',(0.,-2.50000000000002,50.9999999999999));
#475=CARTESIAN_POINT('',(-1.55724115023976,-4.67500000000001,50.9999999999999));
#476=CARTESIAN_POINT('',(-0.75,-4.67500000000001,50.9999999999999));
#477=CARTESIAN_POINT('',(1.55724115023976,-4.67500000000001,50.9999999999999));
#478=CARTESIAN_POINT('Origin',(-2.77555756156289E-16,-2.50000000000002,
50.9999999999999));
#479=CARTESIAN_POINT('',(-0.75,-4.67500000000001,50.9999999999999));
#480=CARTESIAN_POINT('Origin',(-1.5,-4.67500000000001,50.9999999999999));
#481=CARTESIAN_POINT('',(-1.55724115023976,-4.67500000000001,35.9999999999999));
#482=CARTESIAN_POINT('',(-0.75,-4.67500000000001,35.9999999999999));
#483=CARTESIAN_POINT('',(-1.55724115023975,-4.67500000000001,50.9999999999999));
#484=CARTESIAN_POINT('Ctrl Pts',(-1.5,-22.5,45.9999999999999));
#485=CARTESIAN_POINT('Ctrl Pts',(-1.5,-18.4661297934196,45.9999999999999));
#486=CARTESIAN_POINT('Ctrl Pts',(-2.72448979591837,-12.6046519046263,45.776347624988));
#487=CARTESIAN_POINT('Ctrl Pts',(-5.567055393586,-8.67242676514841,45.1253816519637));
#488=CARTESIAN_POINT('Ctrl Pts',(-7.32725947521866,-6.58984180130971,44.5732099667971));
#489=CARTESIAN_POINT('Ctrl Pts',(-8.13629737609329,-5.43116015115436,44.2442430360729));
#490=CARTESIAN_POINT('Ctrl Pts',(-8.55903790087463,-4.63904122221686,44.021997570229));
#491=CARTESIAN_POINT('Ctrl Pts',(-8.8226433430515,-3.90174774637584,43.8278838387464));
#492=CARTESIAN_POINT('Ctrl Pts',(-8.96598639455781,-3.23515044923336,43.66240176598));
#493=CARTESIAN_POINT('Ctrl Pts',(-9.00850340136053,-2.6262240730988,43.5268771111188));
#494=CARTESIAN_POINT('Ctrl Pts',(-8.99149659863945,-2.12560962763598,43.4191489022457));
#495=CARTESIAN_POINT('Ctrl Pts',(-8.95444606413993,-1.77502874598813,43.3371305603182));
#496=CARTESIAN_POINT('Ctrl Pts',(-8.89431486880465,-1.43176371014139,43.2548462753382));
#497=CARTESIAN_POINT('Ctrl Pts',(-8.81231778425655,-1.10247036709901,43.1720092083024));
#498=CARTESIAN_POINT('Ctrl Pts',(-8.72677761580822,-0.835490955113309,43.1027794564023));
#499=CARTESIAN_POINT('Ctrl Pts',(-8.64862730806607,-0.626453027670132,43.047299278769));
#500=CARTESIAN_POINT('Ctrl Pts',(-8.09985422740524,0.716008252498782,42.6864949670024));
#501=CARTESIAN_POINT('Ctrl Pts',(-6.13556851311954,2.88603279747492,42.0048141632902));
#502=CARTESIAN_POINT('Ctrl Pts',(-2.72448979591837,7.60457319066312,41.2236483350434));
#503=CARTESIAN_POINT('Ctrl Pts',(-1.50000000000001,13.4661297934195,40.9999999999999));
#504=CARTESIAN_POINT('Ctrl Pts',(-1.50000000000001,17.5,40.9999999999999));
#505=CARTESIAN_POINT('Ctrl Pts',(-1.5,-22.5,45.5512010494871));
#506=CARTESIAN_POINT('Ctrl Pts',(-1.5,-18.4661297934196,45.5512010494871));
#507=CARTESIAN_POINT('Ctrl Pts',(-2.72392641213597,-12.6046519046263,45.2787340638738));
#508=CARTESIAN_POINT('Ctrl Pts',(-5.56724565570729,-8.67242676514841,44.5143231160722));
#509=CARTESIAN_POINT('Ctrl Pts',(-7.32707160230508,-6.58984180130971,43.891954178247));
#510=CARTESIAN_POINT('Ctrl Pts',(-8.13647742848704,-5.43116015115436,43.530689733808));
#511=CARTESIAN_POINT('Ctrl Pts',(-8.55922615970081,-4.63904122221686,43.291579279766));
#512=CARTESIAN_POINT('Ctrl Pts',(-8.82288890837674,-3.90174774637584,43.0869459887617));
#513=CARTESIAN_POINT('Ctrl Pts',(-8.96628674018367,-3.23515044923336,42.9157421664906));
#514=CARTESIAN_POINT('Ctrl Pts',(-9.00880604878442,-2.6262240730988,42.7785212305175));
#515=CARTESIAN_POINT('Ctrl Pts',(-8.99179458617588,-2.12560962763598,42.6714717614374));
#516=CARTESIAN_POINT('Ctrl Pts',(-8.95473082817738,-1.77502874598813,42.5909322893894));
#517=CARTESIAN_POINT('Ctrl Pts',(-8.89458165660091,-1.43176371014139,42.5110479256073));
#518=CARTESIAN_POINT('Ctrl Pts',(-8.81255239435561,-1.10247036709901,42.431483944411));
#519=CARTESIAN_POINT('Ctrl Pts',(-8.72699113177703,-0.835490955113308,42.365667949546));
#520=CARTESIAN_POINT('Ctrl Pts',(-8.6488001691966,-0.626453027670132,42.3133079127873));
#521=CARTESIAN_POINT('Ctrl Pts',(-8.09997964208126,0.716008252498783,41.974398822089));
#522=CARTESIAN_POINT('Ctrl Pts',(-6.13556914481522,2.88603279747492,41.3710873269275));
#523=CARTESIAN_POINT('Ctrl Pts',(-2.72382182253577,7.60457319066312,40.7260411331676));
#524=CARTESIAN_POINT('Ctrl Pts',(-1.50000000000001,13.4661297934195,40.5512010494871));
#525=CARTESIAN_POINT('Ctrl Pts',(-1.50000000000001,17.5,40.5512010494871));
#526=CARTESIAN_POINT('Ctrl Pts',(-1.12212537305402,-22.5,44.7714044682957));
#527=CARTESIAN_POINT('Ctrl Pts',(-1.12212537305402,-18.4661297934196,44.7714044682957));
#528=CARTESIAN_POINT('Ctrl Pts',(-2.30559931030222,-12.6046519046263,44.4140188994087));
#529=CARTESIAN_POINT('Ctrl Pts',(-5.05253474917817,-8.6724267651484,43.4526320090274));
#530=CARTESIAN_POINT('Ctrl Pts',(-6.75369167036666,-6.58984180130971,42.7082253791183));
#531=CARTESIAN_POINT('Ctrl Pts',(-7.53548088759343,-5.43116015115435,42.2909101971742));
#532=CARTESIAN_POINT('Ctrl Pts',(-7.94402039074878,-4.63904122221686,42.0224980001972));
#533=CARTESIAN_POINT('Ctrl Pts',(-8.19876009773128,-3.90174774637584,41.7995971816078));
#534=CARTESIAN_POINT('Ctrl Pts',(-8.3372773984024,-3.23515044923336,41.6184616578694));
#535=CARTESIAN_POINT('Ctrl Pts',(-8.37836584447745,-2.62622407309879,41.478293819593));
#536=CARTESIAN_POINT('Ctrl Pts',(-8.36193121836548,-2.12560962763598,41.3724228276043));
#537=CARTESIAN_POINT('Ctrl Pts',(-8.32612782948275,-1.77502874598813,41.2944505189199));
#538=CARTESIAN_POINT('Ctrl Pts',(-8.26801998899963,-1.43176371014139,41.2187327995482));
#539=CARTESIAN_POINT('Ctrl Pts',(-8.18878356682491,-1.10247036709901,41.1448500243824));
#540=CARTESIAN_POINT('Ctrl Pts',(-8.10612083887795,-0.835490955113308,41.0849616666231));
#541=CARTESIAN_POINT('Ctrl Pts',(-8.03060369027294,-0.626453027670131,41.0380155521161));
#542=CARTESIAN_POINT('Ctrl Pts',(-7.50027281563985,0.716008252498782,40.737141204079));
#543=CARTESIAN_POINT('Ctrl Pts',(-5.60199031706993,2.88603279747492,40.2699751956056));
#544=CARTESIAN_POINT('Ctrl Pts',(-2.3056203536572,7.60457319066312,39.8613180295937));
#545=CARTESIAN_POINT('Ctrl Pts',(-1.12212537305403,13.4661297934195,39.7714044682957));
#546=CARTESIAN_POINT('Ctrl Pts',(-1.12212537305403,17.5,39.7714044682957));
#547=CARTESIAN_POINT('Ctrl Pts',(-0.223312040206539,-22.5,44.4622181918721));
#548=CARTESIAN_POINT('Ctrl Pts',(-0.22331204020654,-18.4661297934196,44.4622181918721));
#549=CARTESIAN_POINT('Ctrl Pts',(-1.30867807343575,-12.6046519046263,44.0711146603613));
#550=CARTESIAN_POINT('Ctrl Pts',(-3.82887982825392,-8.67242676514841,43.0316918989125));
#551=CARTESIAN_POINT('Ctrl Pts',(-5.38921958195372,-6.58984180130971,42.2388655346704));
#552=CARTESIAN_POINT('Ctrl Pts',(-6.10655257982077,-5.43116015115436,41.7993578541102));
#553=CARTESIAN_POINT('Ctrl Pts',(-6.48132148002,-4.63904122221686,41.5193283316703));
#554=CARTESIAN_POINT('Ctrl Pts',(-6.71502882278435,-3.90174774637584,41.2891894007288));
#555=CARTESIAN_POINT('Ctrl Pts',(-6.84212081901759,-3.23515044923336,41.1041206713153));
#556=CARTESIAN_POINT('Ctrl Pts',(-6.87981352463772,-2.6262240730988,40.9627845943025));
#557=CARTESIAN_POINT('Ctrl Pts',(-6.86473535041379,-2.12560962763598,40.857380466175));
#558=CARTESIAN_POINT('Ctrl Pts',(-6.83188557383295,-1.77502874598813,40.7804248991874));
#559=CARTESIAN_POINT('Ctrl Pts',(-6.77857301970975,-1.43176371014139,40.7063577038615));
#560=CARTESIAN_POINT('Ctrl Pts',(-6.70587184390943,-1.10247036709901,40.6347247585309));
#561=CARTESIAN_POINT('Ctrl Pts',(-6.6300329021378,-0.835490955113308,40.5771848854161));
#562=CARTESIAN_POINT('Ctrl Pts',(-6.56073948229193,-0.626453027670132,40.532381900349));
#563=CARTESIAN_POINT('Ctrl Pts',(-6.07422916637141,0.716008252498784,40.2465841291135));
#564=CARTESIAN_POINT('Ctrl Pts',(-4.33282078158267,2.88603279747492,39.833388621642));
#565=CARTESIAN_POINT('Ctrl Pts',(-1.30864752939145,7.60457319066312,39.518401717177));
#566=CARTESIAN_POINT('Ctrl Pts',(-0.223312040206549,13.4661297934195,39.4622181918721));
#567=CARTESIAN_POINT('Ctrl Pts',(-0.223312040206549,17.5,39.4622181918721));
#568=CARTESIAN_POINT('Ctrl Pts',(0.674777336427083,-22.5,44.5610226692965));
#569=CARTESIAN_POINT('Ctrl Pts',(0.674777336427083,-18.4661297934196,44.5610226692965));
#570=CARTESIAN_POINT('Ctrl Pts',(-0.312966907972032,-12.6046519046263,44.1809190829306));
#571=CARTESIAN_POINT('Ctrl Pts',(-2.6060730289306,-8.67242676514841,43.166132797621));
#572=CARTESIAN_POINT('Ctrl Pts',(-4.02598227263014,-6.58984180130971,42.3889305585579));
#573=CARTESIAN_POINT('Ctrl Pts',(-4.67864511010996,-5.43116015115436,41.9563678823015));
#574=CARTESIAN_POINT('Ctrl Pts',(-5.01966467829301,-4.63904122221686,41.6800475501564));
#575=CARTESIAN_POINT('Ctrl Pts',(-5.23231518862908,-3.90174774637584,41.4521987718295));
#576=CARTESIAN_POINT('Ctrl Pts',(-5.34795149952944,-3.23515044923336,41.2683650779127));
#577=CARTESIAN_POINT('Ctrl Pts',(-5.38224953657256,-2.62622407309879,41.1274014077085));
#578=CARTESIAN_POINT('Ctrl Pts',(-5.36853008884281,-2.12560962763598,41.0218499476724));
#579=CARTESIAN_POINT('Ctrl Pts',(-5.33864110067318,-1.77502874598813,40.9445747472578));
#580=CARTESIAN_POINT('Ctrl Pts',(-5.29013295989499,-1.43176371014139,40.8699872827053));
#581=CARTESIAN_POINT('Ctrl Pts',(-5.22398501776755,-1.10247036709901,40.7976482222235));
#582=CARTESIAN_POINT('Ctrl Pts',(-5.1549796082293,-0.835490955113308,40.7393662823689));
#583=CARTESIAN_POINT('Ctrl Pts',(-5.09193428082149,-0.626453027670131,40.6938946641824));
#584=CARTESIAN_POINT('Ctrl Pts',(-4.64924351216131,0.716008252498781,40.4032979208691));
#585=CARTESIAN_POINT('Ctrl Pts',(-3.06467305214852,2.88603279747492,39.9729052612898));
#586=CARTESIAN_POINT('Ctrl Pts',(-0.31296039309386,7.60457319066312,39.6282517558457));
#587=CARTESIAN_POINT('Ctrl Pts',(0.674777336427074,13.4661297934195,39.5610226692965));
#588=CARTESIAN_POINT('Ctrl Pts',(0.674777336427074,17.5,39.5610226692965));
#589=CARTESIAN_POINT('Ctrl Pts',(1.54700388010739,-22.5,45.2539862415149));
#590=CARTESIAN_POINT('Ctrl Pts',(1.54700388010739,-18.4661297934196,45.2539862415149));
#591=CARTESIAN_POINT('Ctrl Pts',(0.654271988671872,-12.6046519046263,44.9491239111742));
#592=CARTESIAN_POINT('Ctrl Pts',(-1.41854831384969,-8.67242676514841,44.1096757327266));
#593=CARTESIAN_POINT('Ctrl Pts',(-2.70193564008588,-6.58984180130971,43.440773303324));
#594=CARTESIAN_POINT('Ctrl Pts',(-3.29192247722174,-5.43116015115435,43.0581644815542));
#595=CARTESIAN_POINT('Ctrl Pts',(-3.60016755374211,-4.63904122221686,42.8078862676342));
#596=CARTESIAN_POINT('Ctrl Pts',(-3.79238814895558,-3.90174774637584,42.596293381102));
#597=CARTESIAN_POINT('Ctrl Pts',(-3.89691829664152,-3.23515044923336,42.4213069829884));
#598=CARTESIAN_POINT('Ctrl Pts',(-3.92792024811598,-2.6262240730988,42.2829629718409));
#599=CARTESIAN_POINT('Ctrl Pts',(-3.91551872933676,-2.12560962763598,42.1763624312882));
#600=CARTESIAN_POINT('Ctrl Pts',(-3.88850052845558,-1.77502874598813,42.0968007343965));
#601=CARTESIAN_POINT('Ctrl Pts',(-3.84465200517061,-1.43176371014139,42.0185035326385));
#602=CARTESIAN_POINT('Ctrl Pts',(-3.78485705116822,-1.10247036709901,41.9411032451843));
#603=CARTESIAN_POINT('Ctrl Pts',(-3.72248082720439,-0.835490955113308,41.8775454429538));
#604=CARTESIAN_POINT('Ctrl Pts',(-3.66548909699065,-0.626453027670131,41.8272467879463));
#605=CARTESIAN_POINT('Ctrl Pts',(-3.26533897884331,0.716008252498784,41.5028319585905));
#606=CARTESIAN_POINT('Ctrl Pts',(-1.83304518030165,2.88603279747492,40.9514050494118));
#607=CARTESIAN_POINT('Ctrl Pts',(0.654292636830291,7.60457319066312,40.3964225459194));
#608=CARTESIAN_POINT('Ctrl Pts',(1.54700388010738,13.4661297934195,40.2539862415149));
#609=CARTESIAN_POINT('Ctrl Pts',(1.54700388010738,17.5,40.2539862415149));
#610=CARTESIAN_POINT('Ctrl Pts',(1.54806162828683,-22.5,46.7459812172479));
#611=CARTESIAN_POINT('Ctrl Pts',(1.54806162828683,-18.4661297934196,46.7459812172479));
#612=CARTESIAN_POINT('Ctrl Pts',(0.655330037782442,-12.6046519046263,46.6035818878879));
#613=CARTESIAN_POINT('Ctrl Pts',(-1.41706939377355,-8.67242676514841,46.1410275174678));
#614=CARTESIAN_POINT('Ctrl Pts',(-2.70036829296789,-6.5898418013097,45.7056127839261));
#615=CARTESIAN_POINT('Ctrl Pts',(-3.29020407265363,-5.43116015115435,45.4302549502626));
#616=CARTESIAN_POINT('Ctrl Pts',(-3.59840772961487,-4.63904122221686,45.2360403304347));
#617=CARTESIAN_POINT('Ctrl Pts',(-3.79059185996821,-3.90174774637584,45.0594002481529));
#618=CARTESIAN_POINT('Ctrl Pts',(-3.89509736499814,-3.23515044923336,44.9034175518481));
#619=CARTESIAN_POINT('Ctrl Pts',(-3.92609484978665,-2.62622407309879,44.7707119397667));
#620=CARTESIAN_POINT('Ctrl Pts',(-3.91369587979404,-2.12560962763598,44.6618564974731));
#621=CARTESIAN_POINT('Ctrl Pts',(-3.88668385767617,-1.77502874598812,44.577382712212));
#622=CARTESIAN_POINT('Ctrl Pts',(-3.84284465194331,-1.43176371014139,44.4911130058664));
#623=CARTESIAN_POINT('Ctrl Pts',(-3.78306396589058,-1.102470367099,44.4028420598324));
#624=CARTESIAN_POINT('Ctrl Pts',(-3.7207000839668,-0.835490955113306,44.3279423516891));
#625=CARTESIAN_POINT('Ctrl Pts',(-3.6637239878203,-0.62645302767013,44.2672842425535));
#626=CARTESIAN_POINT('Ctrl Pts',(-3.26363513692104,0.716008252498782,43.8700959629553));
#627=CARTESIAN_POINT('Ctrl Pts',(-1.83155145766814,2.88603279747492,43.0581772750109));
#628=CARTESIAN_POINT('Ctrl Pts',(0.655329368629652,7.60457319066311,42.0508933303114));
#629=CARTESIAN_POINT('Ctrl Pts',(1.54806162828682,13.4661297934195,41.7459812172479));
#630=CARTESIAN_POINT('Ctrl Pts',(1.54806162828682,17.5,41.7459812172479));
#631=CARTESIAN_POINT('Ctrl Pts',(0.382472434676791,-22.5,47.6723837082674));
#632=CARTESIAN_POINT('Ctrl Pts',(0.38247243467679,-18.4661297934196,47.6723837082674));
#633=CARTESIAN_POINT('Ctrl Pts',(-0.636983966814931,-12.6046519046263,47.6305762240756));
#634=CARTESIAN_POINT('Ctrl Pts',(-3.00408573986358,-8.6724267651484,47.4024207794021));
#635=CARTESIAN_POINT('Ctrl Pts',(-4.46966040217516,-6.5898418013097,47.1117915656378));
#636=CARTESIAN_POINT('Ctrl Pts',(-5.14341168383527,-5.43116015115435,46.903212925337));
#637=CARTESIAN_POINT('Ctrl Pts',(-5.49541667978774,-4.63904122221686,46.7438131838306));
#638=CARTESIAN_POINT('Ctrl Pts',(-5.71492687198304,-3.90174774637584,46.5889047115694));
#639=CARTESIAN_POINT('Ctrl Pts',(-5.83429766479881,-3.23515044923336,46.4447493106669));
#640=CARTESIAN_POINT('Ctrl Pts',(-5.86970082890865,-2.62622407309879,46.315545826755));
#641=CARTESIAN_POINT('Ctrl Pts',(-5.85553864447041,-2.12560962763598,46.2052879331564));
#642=CARTESIAN_POINT('Ctrl Pts',(-5.82468455932837,-1.77502874598812,46.1177574931751));
#643=CARTESIAN_POINT('Ctrl Pts',(-5.77461075285905,-1.43176371014139,46.0265284777563));
#644=CARTESIAN_POINT('Ctrl Pts',(-5.70632640612413,-1.102470367099,45.9314915577348));
#645=CARTESIAN_POINT('Ctrl Pts',(-5.63509456631837,-0.835490955113306,45.8495388564688));
#646=CARTESIAN_POINT('Ctrl Pts',(-5.57001122881299,-0.626453027670129,45.7824279159693));
#647=CARTESIAN_POINT('Ctrl Pts',(-5.11305317373345,0.716008252498785,45.3400295779746));
#648=CARTESIAN_POINT('Ctrl Pts',(-3.47742246077484,2.88603279747492,44.3663046779273));
#649=CARTESIAN_POINT('Ctrl Pts',(-0.636958266893659,7.60457319066312,43.0778429112903));
#650=CARTESIAN_POINT('Ctrl Pts',(0.382472434676781,13.4661297934195,42.6723837082674));
#651=CARTESIAN_POINT('Ctrl Pts',(0.382472434676781,17.5,42.6723837082674));
#652=CARTESIAN_POINT('Ctrl Pts',(-1.06963308908396,-22.5,47.3437555053351));
#653=CARTESIAN_POINT('Ctrl Pts',(-1.06963308908396,-18.4661297934196,47.3437555053351));
#654=CARTESIAN_POINT('Ctrl Pts',(-2.24729921815995,-12.6046519046263,47.2665143537644));
#655=CARTESIAN_POINT('Ctrl Pts',(-4.98109753023038,-8.67242676514841,46.9548749463737));
#656=CARTESIAN_POINT('Ctrl Pts',(-6.67397803836692,-6.58984180130971,46.6130528225165));
#657=CARTESIAN_POINT('Ctrl Pts',(-7.45205392484346,-5.43116015115436,46.3806220257759));
#658=CARTESIAN_POINT('Ctrl Pts',(-7.85862230334002,-4.63904122221686,46.2088685580908));
#659=CARTESIAN_POINT('Ctrl Pts',(-8.11214163077356,-3.90174774637584,46.0462256877133));
#660=CARTESIAN_POINT('Ctrl Pts',(-8.24999927078312,-3.23515044923336,45.8978504248647));
#661=CARTESIAN_POINT('Ctrl Pts',(-8.29088971885371,-2.62622407309879,45.7674035895519));
#662=CARTESIAN_POINT('Ctrl Pts',(-8.27453366566262,-2.12560962763598,45.6576452624827));
#663=CARTESIAN_POINT('Ctrl Pts',(-8.2389009390316,-1.77502874598813,45.5712049924281));
#664=CARTESIAN_POINT('Ctrl Pts',(-8.18107065867396,-1.43176371014139,45.4817431946163));
#665=CARTESIAN_POINT('Ctrl Pts',(-8.1022114438131,-1.10247036709901,45.3891206796335));
#666=CARTESIAN_POINT('Ctrl Pts',(-8.01994431155065,-0.835490955113309,45.30967928366));
#667=CARTESIAN_POINT('Ctrl Pts',(-7.94478500141916,-0.626453027670133,45.2448754250171));
#668=CARTESIAN_POINT('Ctrl Pts',(-7.41700674453916,0.716008252498781,44.8185357601046));
#669=CARTESIAN_POINT('Ctrl Pts',(-5.5278686652369,2.88603279747492,43.9022646722695));
#670=CARTESIAN_POINT('Ctrl Pts',(-2.24730274358963,7.60457319066312,42.7138433043483));
#671=CARTESIAN_POINT('Ctrl Pts',(-1.06963308908396,13.4661297934195,42.3437555053351));
#672=CARTESIAN_POINT('Ctrl Pts',(-1.06963308908396,17.5,42.3437555053351));
#673=CARTESIAN_POINT('Ctrl Pts',(-1.5,-22.5,46.4487989505128));
#674=CARTESIAN_POINT('Ctrl Pts',(-1.5,-18.4661297934196,46.4487989505128));
#675=CARTESIAN_POINT('Ctrl Pts',(-2.72409362295883,-12.6046519046263,46.2740897382521));
#676=CARTESIAN_POINT('Ctrl Pts',(-5.56718918641077,-8.6724267651484,45.7363967741016));
#677=CARTESIAN_POINT('Ctrl Pts',(-7.32712736249104,-6.58984180130971,45.2545086239347));
#678=CARTESIAN_POINT('Ctrl Pts',(-8.13642398941077,-5.43116015115435,44.9577552542258));
#679=CARTESIAN_POINT('Ctrl Pts',(-8.559170284977,-4.63904122221686,44.7523729040475));
#680=CARTESIAN_POINT('Ctrl Pts',(-8.82281602523494,-3.90174774637584,44.5687656559671));
#681=CARTESIAN_POINT('Ctrl Pts',(-8.96619759839292,-3.23515044923336,44.4089928330103));
#682=CARTESIAN_POINT('Ctrl Pts',(-9.00871622382607,-2.6262240730988,44.2751639340399));
#683=CARTESIAN_POINT('Ctrl Pts',(-8.99170614425986,-2.12560962763598,44.1667580486607));
#684=CARTESIAN_POINT('Ctrl Pts',(-8.95464631096103,-1.77502874598813,44.0832638541739));
#685=CARTESIAN_POINT('Ctrl Pts',(-8.8945024746856,-1.43176371014139,43.9985837497903));
#686=CARTESIAN_POINT('Ctrl Pts',(-8.81248276269608,-1.10247036709901,43.9124809391784));
#687=CARTESIAN_POINT('Ctrl Pts',(-8.72692776079981,-0.835490955113308,43.8398422434735));
#688=CARTESIAN_POINT('Ctrl Pts',(-8.64874886446831,-0.626453027670131,43.7812512015315));
#689=CARTESIAN_POINT('Ctrl Pts',(-8.09994241933572,0.716008252498784,43.3985624949645));
#690=CARTESIAN_POINT('Ctrl Pts',(-6.13556895732961,2.88603279747492,42.6385408555135));
#691=CARTESIAN_POINT('Ctrl Pts',(-2.72402007527652,7.60457319066312,41.7214079541829));
#692=CARTESIAN_POINT('Ctrl Pts',(-1.50000000000001,13.4661297934195,41.4487989505128));
#693=CARTESIAN_POINT('Ctrl Pts',(-1.50000000000001,17.5,41.4487989505128));
#694=CARTESIAN_POINT('Ctrl Pts',(-1.5,-22.5,45.9999999999999));
#695=CARTESIAN_POINT('Ctrl Pts',(-1.5,-18.4661297934196,45.9999999999999));
#696=CARTESIAN_POINT('Ctrl Pts',(-2.72448979591837,-12.6046519046263,45.776347624988));
#697=CARTESIAN_POINT('Ctrl Pts',(-5.567055393586,-8.67242676514841,45.1253816519637));
#698=CARTESIAN_POINT('Ctrl Pts',(-7.32725947521866,-6.58984180130971,44.5732099667971));
#699=CARTESIAN_POINT('Ctrl Pts',(-8.13629737609329,-5.43116015115436,44.2442430360729));
#700=CARTESIAN_POINT('Ctrl Pts',(-8.55903790087463,-4.63904122221686,44.021997570229));
#701=CARTESIAN_POINT('Ctrl Pts',(-8.8226433430515,-3.90174774637584,43.8278838387464));
#702=CARTESIAN_POINT('Ctrl Pts',(-8.96598639455781,-3.23515044923336,43.66240176598));
#703=CARTESIAN_POINT('Ctrl Pts',(-9.00850340136053,-2.6262240730988,43.5268771111188));
#704=CARTESIAN_POINT('Ctrl Pts',(-8.99149659863945,-2.12560962763598,43.4191489022457));
#705=CARTESIAN_POINT('Ctrl Pts',(-8.95444606413993,-1.77502874598813,43.3371305603182));
#706=CARTESIAN_POINT('Ctrl Pts',(-8.89431486880465,-1.43176371014139,43.2548462753382));
#707=CARTESIAN_POINT('Ctrl Pts',(-8.81231778425655,-1.10247036709901,43.1720092083024));
#708=CARTESIAN_POINT('Ctrl Pts',(-8.72677761580822,-0.835490955113309,43.1027794564023));
#709=CARTESIAN_POINT('Ctrl Pts',(-8.64862730806607,-0.626453027670132,43.047299278769));
#710=CARTESIAN_POINT('Ctrl Pts',(-8.09985422740524,0.716008252498782,42.6864949670024));
#711=CARTESIAN_POINT('Ctrl Pts',(-6.13556851311954,2.88603279747492,42.0048141632902));
#712=CARTESIAN_POINT('Ctrl Pts',(-2.72448979591837,7.60457319066312,41.2236483350434));
#713=CARTESIAN_POINT('Ctrl Pts',(-1.50000000000001,13.4661297934195,40.9999999999999));
#714=CARTESIAN_POINT('Ctrl Pts',(-1.50000000000001,17.5,40.9999999999999));
#715=CARTESIAN_POINT('',(-1.52245894133982,-21.1880944913174,45.9958612101546));
#716=CARTESIAN_POINT('',(-0.829228111014512,-22.4828049804629,47.2507427116088));
#717=CARTESIAN_POINT('Ctrl Pts',(-1.52245894133982,-21.1880944913174,45.9958612101546));
#718=CARTESIAN_POINT('Ctrl Pts',(-1.52246020205894,-21.188058404455,46.0066932229642));
#719=CARTESIAN_POINT('Ctrl Pts',(-1.52233907682312,-21.1881734809617,46.0175460749776));
#720=CARTESIAN_POINT('Ctrl Pts',(-1.51937597460071,-21.1914164841529,46.1491096267577));
#721=CARTESIAN_POINT('Ctrl Pts',(-1.50151111654467,-21.2130387787953,46.2661854317536));
#722=CARTESIAN_POINT('Ctrl Pts',(-1.43515525969449,-21.2954654796488,46.5095486311597));
#723=CARTESIAN_POINT('Ctrl Pts',(-1.38249369454319,-21.3616583398831,46.6290070941333));
#724=CARTESIAN_POINT('Ctrl Pts',(-1.27674466929701,-21.5010499690571,46.8108026723219));
#725=CARTESIAN_POINT('Ctrl Pts',(-1.22706708755087,-21.5683135068632,46.8802254266049));
#726=CARTESIAN_POINT('Ctrl Pts',(-1.12130028513874,-21.7206983328502,47.0075300479233));
#727=CARTESIAN_POINT('Ctrl Pts',(-1.06413453137477,-21.807984977346,47.0646690344966));
#728=CARTESIAN_POINT('Ctrl Pts',(-0.978793337247312,-21.9591822843216,47.1401702642511));
#729=CARTESIAN_POINT('Ctrl Pts',(-0.947298812527807,-22.0205050697149,47.1655048638716));
#730=CARTESIAN_POINT('Ctrl Pts',(-0.902021051657109,-22.125978235723,47.1997966634379));
#731=CARTESIAN_POINT('Ctrl Pts',(-0.885746097008802,-22.1690437512724,47.2115087207511));
#732=CARTESIAN_POINT('Ctrl Pts',(-0.85490915285567,-22.2689551541141,47.2330706922866));
#733=CARTESIAN_POINT('Ctrl Pts',(-0.841939035436055,-22.3263186292739,47.2416433121678));
#734=CARTESIAN_POINT('Ctrl Pts',(-0.832828687910855,-22.4034161948085,47.2476216336664));
#735=CARTESIAN_POINT('Ctrl Pts',(-0.831261556021688,-22.4216227725078,47.2486418879102));
#736=CARTESIAN_POINT('Ctrl Pts',(-0.829700562882141,-22.4512618258439,47.2496545268519));
#737=CARTESIAN_POINT('Ctrl Pts',(-0.829336584376733,-22.4626247630286,47.2498891239549));
#738=CARTESIAN_POINT('Ctrl Pts',(-0.829177219472826,-22.4769353585345,47.2499896831266));
#739=CARTESIAN_POINT('Ctrl Pts',(-0.82916034079692,-22.4798702410455,47.2499999999999));
#740=CARTESIAN_POINT('Ctrl Pts',(-0.829159286244262,-22.4828049802333,47.2499999999999));
#741=CARTESIAN_POINT('',(-1.52245894133982,16.1880944913174,41.0041387898453));
#742=CARTESIAN_POINT('Ctrl Pts',(-1.52245894134016,-21.1880969611835,45.9958610833889));
#743=CARTESIAN_POINT('Ctrl Pts',(-1.64014551086338,-17.8194455850055,45.9740732361608));
#744=CARTESIAN_POINT('Ctrl Pts',(-2.85158085643518,-12.428842184148,45.7472429471786));
#745=CARTESIAN_POINT('Ctrl Pts',(-5.567055393586,-8.67242676514841,45.1253816519637));
#746=CARTESIAN_POINT('Ctrl Pts',(-7.32725947521866,-6.58984180130971,44.5732099667971));
#747=CARTESIAN_POINT('Ctrl Pts',(-8.13629737609329,-5.43116015115436,44.2442430360729));
#748=CARTESIAN_POINT('Ctrl Pts',(-8.55903790087463,-4.63904122221686,44.021997570229));
#749=CARTESIAN_POINT('Ctrl Pts',(-8.8226433430515,-3.90174774637584,43.8278838387464));
#750=CARTESIAN_POINT('Ctrl Pts',(-8.96598639455781,-3.23515044923336,43.66240176598));
#751=CARTESIAN_POINT('Ctrl Pts',(-9.00850340136053,-2.6262240730988,43.5268771111188));
#752=CARTESIAN_POINT('Ctrl Pts',(-8.99149659863945,-2.12560962763598,43.4191489022457));
#753=CARTESIAN_POINT('Ctrl Pts',(-8.95444606413993,-1.77502874598813,43.3371305603182));
#754=CARTESIAN_POINT('Ctrl Pts',(-8.89431486880465,-1.43176371014139,43.2548462753382));
#755=CARTESIAN_POINT('Ctrl Pts',(-8.81231778425655,-1.10247036709901,43.1720092083024));
#756=CARTESIAN_POINT('Ctrl Pts',(-8.72677761580822,-0.835490955113309,43.1027794564023));
#757=CARTESIAN_POINT('Ctrl Pts',(-8.64862730806607,-0.626453027670132,43.047299278769));
#758=CARTESIAN_POINT('Ctrl Pts',(-8.09985422740524,0.716008252498782,42.6864949670024));
#759=CARTESIAN_POINT('Ctrl Pts',(-6.13556851311954,2.88603279747492,42.0048141632902));
#760=CARTESIAN_POINT('Ctrl Pts',(-2.85158085643519,7.42876830535289,41.2527532610162));
#761=CARTESIAN_POINT('Ctrl Pts',(-1.64014551086338,12.8194373028369,41.0259263387595));
#762=CARTESIAN_POINT('Ctrl Pts',(-1.52245894134017,16.1880955986936,41.0041388466816));
#763=CARTESIAN_POINT('',(-0.829230320997481,17.4828048955481,42.2507445152804));
#764=CARTESIAN_POINT('Ctrl Pts',(-0.829161329638107,17.4828048954453,42.2499999999999));
#765=CARTESIAN_POINT('Ctrl Pts',(-0.829164069747704,17.4782156923484,42.2499999999999));
#766=CARTESIAN_POINT('Ctrl Pts',(-0.829205941813498,17.4736263600071,42.2499747735048));
#767=CARTESIAN_POINT('Ctrl Pts',(-0.829501509925147,17.4568627391443,42.2497906399716));
#768=CARTESIAN_POINT('Ctrl Pts',(-0.829990581826878,17.4447065721162,42.2494800143395));
#769=CARTESIAN_POINT('Ctrl Pts',(-0.832126385235727,17.4105251849879,42.2481128036779));
#770=CARTESIAN_POINT('Ctrl Pts',(-0.834386382682538,17.3886212698942,42.2466587504839));
#771=CARTESIAN_POINT('Ctrl Pts',(-0.850306182207952,17.2762358196488,42.2362990206967));
#772=CARTESIAN_POINT('Ctrl Pts',(-0.877245027723639,17.1895421542796,42.2185359719267));
#773=CARTESIAN_POINT('Ctrl Pts',(-0.953030007567567,17.0059273100584,42.1626563486236));
#774=CARTESIAN_POINT('Ctrl Pts',(-1.00824127449752,16.9056886814523,42.1185957263006));
#775=CARTESIAN_POINT('Ctrl Pts',(-1.15318747636534,16.6721490227001,41.9786107775879));
#776=CARTESIAN_POINT('Ctrl Pts',(-1.24963220813224,16.5403960095872,41.8656265298257));
#777=CARTESIAN_POINT('Ctrl Pts',(-1.39569703935953,16.3480840040797,41.6087955702051));
#778=CARTESIAN_POINT('Ctrl Pts',(-1.44994585830861,16.2797569899912,41.4787517780134));
#779=CARTESIAN_POINT('Ctrl Pts',(-1.50906943624662,16.2052781570214,41.2279771954534));
#780=CARTESIAN_POINT('Ctrl Pts',(-1.52244578316184,16.1884711314038,41.1171929588769));
#781=CARTESIAN_POINT('Ctrl Pts',(-1.52245894133983,16.1880944913173,41.0041387898453));
#782=CARTESIAN_POINT('',(0.00140077832438024,17.5,42.4993421904353));
#783=CARTESIAN_POINT('Ctrl Pts',(0.00140077832438029,17.5,42.4993421904353));
#784=CARTESIAN_POINT('Ctrl Pts',(-0.0589356286898199,17.4999960488323,42.4990135880626));
#785=CARTESIAN_POINT('Ctrl Pts',(-0.119314305871394,17.4997215023161,42.4950899597281));
#786=CARTESIAN_POINT('Ctrl Pts',(-0.179401996303473,17.499181027421,42.4876416345422));
#787=CARTESIAN_POINT('Ctrl Pts',(-0.214916514379134,17.4988615825347,42.4832393405357));
#788=CARTESIAN_POINT('Ctrl Pts',(-0.250329310152924,17.4984492409415,42.4776047596383));
#789=CARTESIAN_POINT('Ctrl Pts',(-0.285569277538249,17.4979449755345,42.4707441510404));
#790=CARTESIAN_POINT('Ctrl Pts',(-0.345301538438541,17.4970902382832,42.4591153189752));
#791=CARTESIAN_POINT('Ctrl Pts',(-0.404176714092233,17.4959737550793,42.4440371047391));
#792=CARTESIAN_POINT('Ctrl Pts',(-0.461865720581977,17.4946387749907,42.4256250226356));
#793=CARTESIAN_POINT('Ctrl Pts',(-0.519489598083564,17.4933053020507,42.4072337271663));
#794=CARTESIAN_POINT('Ctrl Pts',(-0.575931067245576,17.4917538270003,42.3855158168746));
#795=CARTESIAN_POINT('Ctrl Pts',(-0.630852401308876,17.4900274605261,42.3605356685295));
#796=CARTESIAN_POINT('Ctrl Pts',(-0.684368457115738,17.4883452667819,42.3361946900063));
#797=CARTESIAN_POINT('Ctrl Pts',(-0.736442067871836,17.4864970182319,42.3087558817342));
#798=CARTESIAN_POINT('Ctrl Pts',(-0.786737097838107,17.4845225866997,42.2782358115035));
#799=CARTESIAN_POINT('Ctrl Pts',(-0.801068938265909,17.4839599617708,42.2695389526551));
#800=CARTESIAN_POINT('Ctrl Pts',(-0.815256162912729,17.4833870906932,42.2605916431891));
#801=CARTESIAN_POINT('Ctrl Pts',(-0.829290475662612,17.4828048956378,42.2513936700122));
#802=CARTESIAN_POINT('',(0.828946871173026,17.4828051623859,42.2493369214762));
#803=CARTESIAN_POINT('Ctrl Pts',(0.828759212028927,17.4828051624773,42.2487387664927));
#804=CARTESIAN_POINT('Ctrl Pts',(0.77812550355488,17.4849056941399,42.2824967175689));
#805=CARTESIAN_POINT('Ctrl Pts',(0.72568298593853,17.486885090192,42.3131761603451));
#806=CARTESIAN_POINT('Ctrl Pts',(0.671717652454371,17.488699833086,42.3405866825862));
#807=CARTESIAN_POINT('Ctrl Pts',(0.618214020341264,17.4904990499149,42.3677626936164));
#808=CARTESIAN_POINT('Ctrl Pts',(0.563212612809158,17.4921364176356,42.3917260740581));
#809=CARTESIAN_POINT('Ctrl Pts',(0.506965148069505,17.4935695063467,42.4122482611034));
#810=CARTESIAN_POINT('Ctrl Pts',(0.450717683329852,17.4950025950578,42.4327704481488));
#811=CARTESIAN_POINT('Ctrl Pts',(0.393223319865383,17.4962314031941,42.4498521178261));
#812=CARTESIAN_POINT('Ctrl Pts',(0.334719631486544,17.4972135022537,42.4632119563889));
#813=CARTESIAN_POINT('Ctrl Pts',(0.321026987898482,17.4974433601099,42.4663387935662));
#814=CARTESIAN_POINT('Ctrl Pts',(0.307279024611405,17.4976597037421,42.4692614992666));
#815=CARTESIAN_POINT('Ctrl Pts',(0.293479854039928,17.4978619893508,42.4719808005033));
#816=CARTESIAN_POINT('Ctrl Pts',(0.235742395938024,17.4987083776749,42.4833586974869));
#817=CARTESIAN_POINT('Ctrl Pts',(0.177446153713128,17.4993059983964,42.4911134992915));
#818=CARTESIAN_POINT('Ctrl Pts',(0.118907018608022,17.4996503376354,42.4953923317172));
#819=CARTESIAN_POINT('Ctrl Pts',(0.079816657787789,17.4998802751818,42.4982495844441));
#820=CARTESIAN_POINT('Ctrl Pts',(0.0406175043009179,17.4999972730996,42.4995557714198));
#821=CARTESIAN_POINT('Ctrl Pts',(0.00140077832438029,17.5,42.4993421904353));
#822=CARTESIAN_POINT('',(0.829088019851066,17.4828052471659,39.7511470823798));
#823=CARTESIAN_POINT('Ctrl Pts',(0.82915285551041,17.4828052470668,39.7499999999999));
#824=CARTESIAN_POINT('Ctrl Pts',(0.829151024962215,17.4780975012456,39.7499999999999));
#825=CARTESIAN_POINT('Ctrl Pts',(0.829188469809637,17.4733896043236,39.750026548679));
#826=CARTESIAN_POINT('Ctrl Pts',(0.829465501795697,17.4563693772141,39.7502183514831));
#827=CARTESIAN_POINT('Ctrl Pts',(0.829933601898804,17.4440745525354,39.7505380668461));
#828=CARTESIAN_POINT('Ctrl Pts',(0.83199110881963,17.4095119249821,39.7519420846029));
#829=CARTESIAN_POINT('Ctrl Pts',(0.834178194199428,17.3873616876291,39.7534328018376));
#830=CARTESIAN_POINT('Ctrl Pts',(0.849497493660661,17.274555499328,39.7639721204176));
#831=CARTESIAN_POINT('Ctrl Pts',(0.8753288315782,17.1875243062145,39.7819193029414));
#832=CARTESIAN_POINT('Ctrl Pts',(0.948356063050127,17.0021710303996,39.8388339506577));
#833=CARTESIAN_POINT('Ctrl Pts',(1.00172117334651,16.9006401580118,39.8839566291061));
#834=CARTESIAN_POINT('Ctrl Pts',(1.13905559792736,16.6680680020246,40.0256149684341));
#835=CARTESIAN_POINT('Ctrl Pts',(1.22859383686649,16.5384826893297,40.1381118580356));
#836=CARTESIAN_POINT('Ctrl Pts',(1.36558966219286,16.347182629363,40.3962732148269));
#837=CARTESIAN_POINT('Ctrl Pts',(1.41649507491004,16.279227455307,40.5283593857514));
#838=CARTESIAN_POINT('Ctrl Pts',(1.47439084171585,16.2026368433902,40.7949325681287));
#839=CARTESIAN_POINT('Ctrl Pts',(1.48662859433583,16.1869310809449,40.9208221324706));
#840=CARTESIAN_POINT('Ctrl Pts',(1.47941311049726,16.1973620725988,41.1732963041051));
#841=CARTESIAN_POINT('Ctrl Pts',(1.46089760356222,16.2222392450823,41.2939553254706));
#842=CARTESIAN_POINT('Ctrl Pts',(1.39352323767523,16.3133932377022,41.5425920903991));
#843=CARTESIAN_POINT('Ctrl Pts',(1.34075014142273,16.3849354574628,41.6635428907364));
#844=CARTESIAN_POINT('Ctrl Pts',(1.24118237338762,16.5258664144037,41.835374407201));
#845=CARTESIAN_POINT('Ctrl Pts',(1.19904078309284,16.5868396993675,41.8959107047655));
#846=CARTESIAN_POINT('Ctrl Pts',(1.1043464358401,16.731155868252,42.0143365787487));
#847=CARTESIAN_POINT('Ctrl Pts',(1.05071484792938,16.8173741173922,42.0698499412953));
#848=CARTESIAN_POINT('Ctrl Pts',(0.94335292755685,17.0168168188614,42.1679740629399));
#849=CARTESIAN_POINT('Ctrl Pts',(0.888580349314922,17.1366736150137,42.2086936422789));
#850=CARTESIAN_POINT('Ctrl Pts',(0.846134495119003,17.3074300451292,42.2385337291546));
#851=CARTESIAN_POINT('Ctrl Pts',(0.838062846670383,17.3518994510218,42.2439985924453));
#852=CARTESIAN_POINT('Ctrl Pts',(0.831847265292168,17.4134799866566,42.2481910975241));
#853=CARTESIAN_POINT('Ctrl Pts',(0.830661666908247,17.4297925031156,42.2489867051352));
#854=CARTESIAN_POINT('Ctrl Pts',(0.829535767523485,17.4556855673524,42.2497427736327));
#855=CARTESIAN_POINT('Ctrl Pts',(0.82928264126292,17.4652173184906,42.2499128597924));
#856=CARTESIAN_POINT('Ctrl Pts',(0.829166991072853,17.4774395339661,42.2499913783882));
#857=CARTESIAN_POINT('Ctrl Pts',(0.829154493409433,17.4801224158575,42.2499999999999));
#858=CARTESIAN_POINT('Ctrl Pts',(0.829154898777356,17.4828051622847,42.2499999999999));
#859=CARTESIAN_POINT('',(0.00118768031598576,17.5,39.499669022286));
#860=CARTESIAN_POINT('Ctrl Pts',(0.00118768031598597,17.5,39.499669022286));
#861=CARTESIAN_POINT('Ctrl Pts',(0.0601183511466336,17.499996142373,39.499459532943));
#862=CARTESIAN_POINT('Ctrl Pts',(0.119045057144567,17.4997345684983,39.5027578284709));
#863=CARTESIAN_POINT('Ctrl Pts',(0.17762877946374,17.4992196178735,39.5096150179834));
#864=CARTESIAN_POINT('Ctrl Pts',(0.214567974059323,17.4988949225386,39.5139387285253));
#865=CARTESIAN_POINT('Ctrl Pts',(0.251370749538672,17.4984694915808,39.5196783628349));
#866=CARTESIAN_POINT('Ctrl Pts',(0.287949228277901,17.4979444233504,39.526857068806));
#867=CARTESIAN_POINT('Ctrl Pts',(0.303676331167691,17.4977186675955,39.529943589933));
#868=CARTESIAN_POINT('Ctrl Pts',(0.319336901950687,17.4974746572323,39.5332913334589));
#869=CARTESIAN_POINT('Ctrl Pts',(0.334924316340393,17.4972131887921,39.5369000739505));
#870=CARTESIAN_POINT('Ctrl Pts',(0.392509369326322,17.4962472380832,39.5502319522998));
#871=CARTESIAN_POINT('Ctrl Pts',(0.449096546599494,17.4950430171403,39.5671217071922));
#872=CARTESIAN_POINT('Ctrl Pts',(0.50446513386796,17.4936407000167,39.5873089264145));
#873=CARTESIAN_POINT('Ctrl Pts',(0.56148766275488,17.4921964936059,39.6080991677415));
#874=CARTESIAN_POINT('Ctrl Pts',(0.617218629866476,17.4905421809819,39.632387227648));
#875=CARTESIAN_POINT('Ctrl Pts',(0.671401926758573,17.4887216467303,39.6599427258676));
#876=CARTESIAN_POINT('Ctrl Pts',(0.72558522365067,17.4869011124786,39.6874982240872));
#877=CARTESIAN_POINT('Ctrl Pts',(0.778221748114305,17.4849143579167,39.7183218342954));
#878=CARTESIAN_POINT('Ctrl Pts',(0.829026933833857,17.4828052472593,39.7522278255189));
#879=CARTESIAN_POINT('',(-0.829017734884473,17.482804980343,39.7496503661319));
#880=CARTESIAN_POINT('Ctrl Pts',(-0.828911019949942,17.4828049804258,39.7493867787288));
#881=CARTESIAN_POINT('Ctrl Pts',(-0.779284660187335,17.4848660037262,39.7166620475887));
#882=CARTESIAN_POINT('Ctrl Pts',(-0.727754473255565,17.4868103966202,39.687045275973));
#883=CARTESIAN_POINT('Ctrl Pts',(-0.674665821635044,17.4885970593031,39.660565633946));
#884=CARTESIAN_POINT('Ctrl Pts',(-0.620789336834955,17.4904102359792,39.6336930352337));
#885=CARTESIAN_POINT('Ctrl Pts',(-0.565306821625556,17.4920609651037,39.6100509826446));
#886=CARTESIAN_POINT('Ctrl Pts',(-0.50854966085287,17.4935062697223,39.5897149681557));
#887=CARTESIAN_POINT('Ctrl Pts',(-0.451991579363004,17.4949465048447,39.5694502835064));
#888=CARTESIAN_POINT('Ctrl Pts',(-0.394166734936911,17.4961827524387,39.5524682091754));
#889=CARTESIAN_POINT('Ctrl Pts',(-0.335389128663817,17.4971724872411,39.5388925616742));
#890=CARTESIAN_POINT('Ctrl Pts',(-0.3208162113032,17.4974178753132,39.5355267085594));
#891=CARTESIAN_POINT('Ctrl Pts',(-0.30618470233035,17.4976481101063,39.5323704997991));
#892=CARTESIAN_POINT('Ctrl Pts',(-0.291499369394151,17.4978625437027,39.5294263235029));
#893=CARTESIAN_POINT('Ctrl Pts',(-0.232130795449186,17.4987294370089,39.5175238662072));
#894=CARTESIAN_POINT('Ctrl Pts',(-0.172238427946122,17.4993352934929,39.5091539951042));
#895=CARTESIAN_POINT('Ctrl Pts',(-0.112151294291069,17.4996752646428,39.5043799781678));
#896=CARTESIAN_POINT('Ctrl Pts',(-0.0744224971950374,17.4998887330137,39.5013823661106));
#897=CARTESIAN_POINT('Ctrl Pts',(-0.0366164575986503,17.4999973744487,39.4998034100997));
#898=CARTESIAN_POINT('Ctrl Pts',(0.00118768031598571,17.5,39.499669022286));
#899=CARTESIAN_POINT('Ctrl Pts',(-1.52245894133983,16.1880944913173,41.0041387898453));
#900=CARTESIAN_POINT('Ctrl Pts',(-1.52246020205895,16.188058404455,40.9933067770357));
#901=CARTESIAN_POINT('Ctrl Pts',(-1.52233907682313,16.1881734809617,40.9824539250222));
#902=CARTESIAN_POINT('Ctrl Pts',(-1.51937597460072,16.1914164841529,40.8508903732421));
#903=CARTESIAN_POINT('Ctrl Pts',(-1.50151111654466,16.2130387787953,40.7338145682462));
#904=CARTESIAN_POINT('Ctrl Pts',(-1.43515525969449,16.2954654796488,40.4904513688402));
#905=CARTESIAN_POINT('Ctrl Pts',(-1.3824936945432,16.3616583398831,40.3709929058665));
#906=CARTESIAN_POINT('Ctrl Pts',(-1.27674466929702,16.5010499690571,40.1891973276779));
#907=CARTESIAN_POINT('Ctrl Pts',(-1.22706708755091,16.5683135068632,40.119774573395));
#908=CARTESIAN_POINT('Ctrl Pts',(-1.12130028513877,16.7206983328502,39.9924699520766));
#909=CARTESIAN_POINT('Ctrl Pts',(-1.06413453137479,16.8079849773459,39.9353309655033));
#910=CARTESIAN_POINT('Ctrl Pts',(-0.978793337247216,16.9591822843218,39.8598297357487));
#911=CARTESIAN_POINT('Ctrl Pts',(-0.947298812527792,17.0205050697149,39.8344951361283));
#912=CARTESIAN_POINT('Ctrl Pts',(-0.902021051657238,17.1259782357227,39.8002033365621));
#913=CARTESIAN_POINT('Ctrl Pts',(-0.88574609700885,17.1690437512722,39.7884912792488));
#914=CARTESIAN_POINT('Ctrl Pts',(-0.854909152855702,17.268955154114,39.7669293077132));
#915=CARTESIAN_POINT('Ctrl Pts',(-0.841939035436074,17.3263186292738,39.7583566878321));
#916=CARTESIAN_POINT('Ctrl Pts',(-0.832828687910785,17.4034161948091,39.7523783663334));
#917=CARTESIAN_POINT('Ctrl Pts',(-0.831261556021715,17.421622772508,39.7513581120897));
#918=CARTESIAN_POINT('Ctrl Pts',(-0.829700562882198,17.4512618258433,39.750345473148));
#919=CARTESIAN_POINT('Ctrl Pts',(-0.829336584376766,17.4626247630284,39.750110876045));
#920=CARTESIAN_POINT('Ctrl Pts',(-0.829177219472859,17.4769353585344,39.7500103168732));
#921=CARTESIAN_POINT('Ctrl Pts',(-0.829160340796942,17.4798702410454,39.7499999999999));
#922=CARTESIAN_POINT('Ctrl Pts',(-0.829159286244283,17.4828049802332,39.7499999999999));
#923=CARTESIAN_POINT('',(-0.829019102750864,-22.4828048956921,44.7496486948432));
#924=CARTESIAN_POINT('Ctrl Pts',(-0.829161329638099,-22.4828048954453,44.7499999999999));
#925=CARTESIAN_POINT('Ctrl Pts',(-0.829164069747695,-22.4782156923484,44.7499999999999));
#926=CARTESIAN_POINT('Ctrl Pts',(-0.829205941813503,-22.4736263600071,44.750025226495));
#927=CARTESIAN_POINT('Ctrl Pts',(-0.829501509925152,-22.4568627391443,44.7502093600283));
#928=CARTESIAN_POINT('Ctrl Pts',(-0.829990581826886,-22.4447065721162,44.7505199856603));
#929=CARTESIAN_POINT('Ctrl Pts',(-0.832126385235732,-22.410525184988,44.751887196322));
#930=CARTESIAN_POINT('Ctrl Pts',(-0.834386382682533,-22.3886212698942,44.753341249516));
#931=CARTESIAN_POINT('Ctrl Pts',(-0.850306182207963,-22.2762358196488,44.7637009793031));
#932=CARTESIAN_POINT('Ctrl Pts',(-0.877245027723719,-22.1895421542795,44.7814640280732));
#933=CARTESIAN_POINT('Ctrl Pts',(-0.953030007567428,-22.0059273100588,44.8373436513762));
#934=CARTESIAN_POINT('Ctrl Pts',(-1.00824127449729,-21.9056886814527,44.881404273699));
#935=CARTESIAN_POINT('Ctrl Pts',(-1.15318747636529,-21.6721490227002,45.0213892224119));
#936=CARTESIAN_POINT('Ctrl Pts',(-1.24963220813218,-21.5403960095873,45.1343734701741));
#937=CARTESIAN_POINT('Ctrl Pts',(-1.39569703935949,-21.3480840040798,45.3912044297947));
#938=CARTESIAN_POINT('Ctrl Pts',(-1.44994585830858,-21.2797569899912,45.5212482219864));
#939=CARTESIAN_POINT('Ctrl Pts',(-1.50906943624661,-21.2052781570214,45.7720228045465));
#940=CARTESIAN_POINT('Ctrl Pts',(-1.52244578316183,-21.1884711314038,45.8828070411229));
#941=CARTESIAN_POINT('Ctrl Pts',(-1.52245894133982,-21.1880944913174,45.9958612101546));
#942=CARTESIAN_POINT('',(0.00118768031598812,-22.5,44.499669022286));
#943=CARTESIAN_POINT('Ctrl Pts',(0.00118768031598804,-22.5,44.499669022286));
#944=CARTESIAN_POINT('Ctrl Pts',(-0.0590213857870414,-22.4999960603539,
44.4998830561247));
#945=CARTESIAN_POINT('Ctrl Pts',(-0.119239326022952,-22.4997231011905,44.5037587254442));
#946=CARTESIAN_POINT('Ctrl Pts',(-0.179144868344252,-22.49918574869,44.5112022903959));
#947=CARTESIAN_POINT('Ctrl Pts',(-0.214830471181424,-22.49886564896,44.515636406043));
#948=CARTESIAN_POINT('Ctrl Pts',(-0.250405142838663,-22.4984517287935,44.5213376175066));
#949=CARTESIAN_POINT('Ctrl Pts',(-0.285798609913229,-22.4979449755379,44.5282945786908));
#950=CARTESIAN_POINT('Ctrl Pts',(-0.345231286057014,-22.4970940359546,44.5399767012739));
#951=CARTESIAN_POINT('Ctrl Pts',(-0.403795914077252,-22.4959836711835,44.5551265545699));
#952=CARTESIAN_POINT('Ctrl Pts',(-0.461177122242217,-22.4946565563363,44.5736053697042));
#953=CARTESIAN_POINT('Ctrl Pts',(-0.518686873156578,-22.4933264685472,44.5921255802322));
#954=CARTESIAN_POINT('Ctrl Pts',(-0.575008951824968,-22.4917786601673,44.6139899830823));
#955=CARTESIAN_POINT('Ctrl Pts',(-0.629815945562326,-22.490056101719,44.6391100544274));
#956=CARTESIAN_POINT('Ctrl Pts',(-0.683458655996414,-22.488370136156,44.6636964916932));
#957=CARTESIAN_POINT('Ctrl Pts',(-0.73565086873512,-22.4865167674228,44.6914021688178));
#958=CARTESIAN_POINT('Ctrl Pts',(-0.786061775732282,-22.48453627164,44.7221874216149));
#959=CARTESIAN_POINT('Ctrl Pts',(-0.800494511313556,-22.4839692520473,44.7310012962284));
#960=CARTESIAN_POINT('Ctrl Pts',(-0.814781037196079,-22.4833918118635,44.7400678551762));
#961=CARTESIAN_POINT('Ctrl Pts',(-0.828913061555475,-22.4828048958762,44.7493867695527));
#962=CARTESIAN_POINT('',(0.829090061938352,-22.4828051625066,44.7511470976401));
#963=CARTESIAN_POINT('Ctrl Pts',(0.829028976061532,-22.4828051627156,44.7522278330091));
#964=CARTESIAN_POINT('Ctrl Pts',(0.778390270190762,-22.4849073672301,44.7184331622914));
#965=CARTESIAN_POINT('Ctrl Pts',(0.725930718197244,-22.4868882431249,44.6876996715709));
#966=CARTESIAN_POINT('Ctrl Pts',(0.671931861931319,-22.4887041687803,44.6602117746851));
#967=CARTESIAN_POINT('Ctrl Pts',(0.618459083695667,-22.490502402976,44.6329916756685));
#968=CARTESIAN_POINT('Ctrl Pts',(0.563475950125325,-22.4921388840082,44.6089536681723));
#969=CARTESIAN_POINT('Ctrl Pts',(0.507228750170097,-22.4935712330703,44.5883194558504));
#970=CARTESIAN_POINT('Ctrl Pts',(0.45098155021487,-22.4950035821324,44.5676852435285));
#971=CARTESIAN_POINT('Ctrl Pts',(0.393469456490769,-22.4962317976623,44.5504541674663));
#972=CARTESIAN_POINT('Ctrl Pts',(0.334924316357432,-22.49721350226,44.5369000383717));
#973=CARTESIAN_POINT('Ctrl Pts',(0.321216465365769,-22.4974433601152,44.5337264533136));
#974=CARTESIAN_POINT('Ctrl Pts',(0.307451947625424,-22.4976597037466,44.5307546990721));
#975=CARTESIAN_POINT('Ctrl Pts',(0.2936352664344,-22.4978619893545,44.5279849263556));
#976=CARTESIAN_POINT('Ctrl Pts',(0.235663262322818,-22.4987107389155,44.5163635193704));
#977=CARTESIAN_POINT('Ctrl Pts',(0.177113028353678,-22.4993093309015,44.5083617625281));
#978=CARTESIAN_POINT('Ctrl Pts',(0.118332154984496,-22.4996532136171,44.5038963052912));
#979=CARTESIAN_POINT('Ctrl Pts',(0.0793530989157317,-22.499881250781,44.5009351497651));
#980=CARTESIAN_POINT('Ctrl Pts',(0.0402721148295223,-22.499997284492,44.4995300832176));
#981=CARTESIAN_POINT('Ctrl Pts',(0.00118768031598821,-22.5,44.499669022286));
#982=CARTESIAN_POINT('',(0.82894481818216,-22.4828052472933,47.2493368950388));
#983=CARTESIAN_POINT('Ctrl Pts',(0.829152855510414,-22.4828052470668,47.2499999999999));
#984=CARTESIAN_POINT('Ctrl Pts',(0.829151024962219,-22.4780975012454,47.2499999999999));
#985=CARTESIAN_POINT('Ctrl Pts',(0.829188469809653,-22.4733896043234,47.2499734513208));
#986=CARTESIAN_POINT('Ctrl Pts',(0.829465501795699,-22.4563693772148,47.2497816485167));
#987=CARTESIAN_POINT('Ctrl Pts',(0.82993360189871,-22.4440745525368,47.2494619331538));
#988=CARTESIAN_POINT('Ctrl Pts',(0.831991108819608,-22.4095119249823,47.248057915397));
#989=CARTESIAN_POINT('Ctrl Pts',(0.834178194199377,-22.3873616876294,47.2465671981623));
#990=CARTESIAN_POINT('Ctrl Pts',(0.849497493660629,-22.2745554993281,47.2360278795823));
#991=CARTESIAN_POINT('Ctrl Pts',(0.875328831578159,-22.1875243062146,47.2180806970585));
#992=CARTESIAN_POINT('Ctrl Pts',(0.948356063050382,-22.0021710303989,47.161166049342));
#993=CARTESIAN_POINT('Ctrl Pts',(1.00172117334692,-21.9006401580112,47.1160433708933));
#994=CARTESIAN_POINT('Ctrl Pts',(1.1390555979275,-21.6680680020243,46.9743850315657));
#995=CARTESIAN_POINT('Ctrl Pts',(1.22859383686659,-21.5384826893296,46.861888141964));
#996=CARTESIAN_POINT('Ctrl Pts',(1.36558966219278,-21.3471826293632,46.6037267851732));
#997=CARTESIAN_POINT('Ctrl Pts',(1.41649507490999,-21.2792274553071,46.4716406142487));
#998=CARTESIAN_POINT('Ctrl Pts',(1.47439084171585,-21.2026368433902,46.2050674318712));
#999=CARTESIAN_POINT('Ctrl Pts',(1.48662859433583,-21.186931080945,46.0791778675294));
#1000=CARTESIAN_POINT('Ctrl Pts',(1.47941311049728,-21.1973620725988,45.8267036958949));
#1001=CARTESIAN_POINT('Ctrl Pts',(1.46089760356226,-21.2222392450823,45.7060446745294));
#1002=CARTESIAN_POINT('Ctrl Pts',(1.39352323767529,-21.3133932377021,45.4574079096009));
#1003=CARTESIAN_POINT('Ctrl Pts',(1.34075014142281,-21.3849354574627,45.3364571092636));
#1004=CARTESIAN_POINT('Ctrl Pts',(1.2411823733877,-21.5258664144037,45.164625592799));
#1005=CARTESIAN_POINT('Ctrl Pts',(1.19904078309291,-21.5868396993674,45.1040892952344));
#1006=CARTESIAN_POINT('Ctrl Pts',(1.10434643584006,-21.7311558682521,44.9856634212511));
#1007=CARTESIAN_POINT('Ctrl Pts',(1.05071484792937,-21.8173741173923,44.9301500587046));
#1008=CARTESIAN_POINT('Ctrl Pts',(0.943352927556851,-22.0168168188614,44.83202593706));
#1009=CARTESIAN_POINT('Ctrl Pts',(0.888580349314918,-22.1366736150138,44.791306357721));
#1010=CARTESIAN_POINT('Ctrl Pts',(0.846134495119062,-22.3074300451292,44.7614662708453));
#1011=CARTESIAN_POINT('Ctrl Pts',(0.838062846670394,-22.3518994510219,44.7560014075546));
#1012=CARTESIAN_POINT('Ctrl Pts',(0.831847265292206,-22.4134799866565,44.7518089024758));
#1013=CARTESIAN_POINT('Ctrl Pts',(0.830661666908265,-22.4297925031155,44.7510132948646));
#1014=CARTESIAN_POINT('Ctrl Pts',(0.82953576752345,-22.4556855673535,44.7502572263671));
#1015=CARTESIAN_POINT('Ctrl Pts',(0.829282641262954,-22.4652173184911,44.7500871402075));
#1016=CARTESIAN_POINT('Ctrl Pts',(0.829166991072893,-22.4774395339659,44.7500086216116));
#1017=CARTESIAN_POINT('Ctrl Pts',(0.829154493409467,-22.4801224158574,44.7499999999999));
#1018=CARTESIAN_POINT('Ctrl Pts',(0.82915489877739,-22.4828051622847,44.7499999999999));
#1019=CARTESIAN_POINT('',(0.00140077832438412,-22.5,47.4993421904353));
#1020=CARTESIAN_POINT('Ctrl Pts',(0.00140077832438423,-22.5,47.4993421904353));
#1021=CARTESIAN_POINT('Ctrl Pts',(0.0601182685641036,-22.4999961532229,
47.499661975911));
#1022=CARTESIAN_POINT('Ctrl Pts',(0.118800209297582,-22.4997360378771,47.4965770889773));
#1023=CARTESIAN_POINT('Ctrl Pts',(0.177139000658038,-22.4992239568757,47.4899730260066));
#1024=CARTESIAN_POINT('Ctrl Pts',(0.214192054169222,-22.4988987159117,47.4857785493481));
#1025=CARTESIAN_POINT('Ctrl Pts',(0.251106623907265,-22.4984718337055,47.4801634782641));
#1026=CARTESIAN_POINT('Ctrl Pts',(0.287801071290817,-22.4979444233539,47.4730878200628));
#1027=CARTESIAN_POINT('Ctrl Pts',(0.303507973173062,-22.4977186675997,47.4700591147125));
#1028=CARTESIAN_POINT('Ctrl Pts',(0.31914950965708,-22.4974746572374,47.4667675035481));
#1029=CARTESIAN_POINT('Ctrl Pts',(0.334719631466908,-22.4972131887984,47.4632119208123));
#1030=CARTESIAN_POINT('Ctrl Pts',(0.392104131201735,-22.4962495331668,47.4501076343429));
#1031=CARTESIAN_POINT('Ctrl Pts',(0.448519108397302,-22.4950487382109,47.4334219971709));
#1032=CARTESIAN_POINT('Ctrl Pts',(0.503740289745623,-22.4936506922974,47.4134204118019));
#1033=CARTESIAN_POINT('Ctrl Pts',(0.560812212861696,-22.4922057907771,47.3927484718957));
#1034=CARTESIAN_POINT('Ctrl Pts',(0.616609916698622,-22.4905501965576,47.3685341974236));
#1035=CARTESIAN_POINT('Ctrl Pts',(0.670871107484278,-22.4887279462862,47.3410157525304));
#1036=CARTESIAN_POINT('Ctrl Pts',(0.725132298269935,-22.4869056960147,47.3134973076371));
#1037=CARTESIAN_POINT('Ctrl Pts',(0.777857892177748,-22.4849167910168,47.2826739980689));
#1038=CARTESIAN_POINT('Ctrl Pts',(0.828757168298595,-22.4828052474976,47.2487387736833));
#1039=CARTESIAN_POINT('Ctrl Pts',(-0.829288431825283,-22.4828049806641,
47.2513936540857));
#1040=CARTESIAN_POINT('Ctrl Pts',(-0.779735655706258,-22.4848606073439,
47.2838703399821));
#1041=CARTESIAN_POINT('Ctrl Pts',(-0.728277977930181,-22.4868002135877,
47.3132260505961));
#1042=CARTESIAN_POINT('Ctrl Pts',(-0.67526685756254,-22.4885830216233,47.3394550420362));
#1043=CARTESIAN_POINT('Ctrl Pts',(-0.621303724042108,-22.4903978466525,
47.3661550732254));
#1044=CARTESIAN_POINT('Ctrl Pts',(-0.565729879597565,-22.4920501899332,
47.3896154220589));
#1045=CARTESIAN_POINT('Ctrl Pts',(-0.508886292993634,-22.4934970169071,
47.4097846191284));
#1046=CARTESIAN_POINT('Ctrl Pts',(-0.451976791494363,-22.494945521598,47.4299772040696));
#1047=CARTESIAN_POINT('Ctrl Pts',(-0.39379352670712,-22.4961880314752,47.4468712605196));
#1048=CARTESIAN_POINT('Ctrl Pts',(-0.334664664067857,-22.4971813631465,
47.4603656129988));
#1049=CARTESIAN_POINT('Ctrl Pts',(-0.320255499242062,-22.49742342902,47.4636540636879));
#1050=CARTESIAN_POINT('Ctrl Pts',(-0.305790157522231,-22.4976506974552,
47.4667403812268));
#1051=CARTESIAN_POINT('Ctrl Pts',(-0.29127337479443,-22.4978625437064,47.4696226280991));
#1052=CARTESIAN_POINT('Ctrl Pts',(-0.231694783230738,-22.4987319857523,
47.4814517098183));
#1053=CARTESIAN_POINT('Ctrl Pts',(-0.171607921663735,-22.4993388537523,
47.48977651412));
#1054=CARTESIAN_POINT('Ctrl Pts',(-0.111353719359084,-22.4996782563832,
47.4945569601229));
#1055=CARTESIAN_POINT('Ctrl Pts',(-0.0738075612910125,-22.4998897481023,
47.4975357960281));
#1056=CARTESIAN_POINT('Ctrl Pts',(-0.0361959736981367,-22.4999973867426,
47.4991374321056));
#1057=CARTESIAN_POINT('Ctrl Pts',(0.00140077832438423,-22.5,47.4993421904353));
#1058=CARTESIAN_POINT('Origin',(0.,-2.50000000000002,50.9999999999999));
#1059=CARTESIAN_POINT('',(20.,-2.50000000000002,47.2499999999999));
#1060=CARTESIAN_POINT('Origin',(0.,-2.50000000000001,47.2499999999999));
#1061=CARTESIAN_POINT('',(20.,-2.50000000000001,48.9999999999999));
#1062=CARTESIAN_POINT('',(20.,-2.50000000000002,50.9999999999999));
#1063=CARTESIAN_POINT('Origin',(0.,-2.50000000000002,48.9999999999999));
#1064=CARTESIAN_POINT('Origin',(0.,-2.50000000000001,47.2499999999999));
#1065=CARTESIAN_POINT('Origin',(0.,-2.50000000000001,45.9999999999999));
#1066=CARTESIAN_POINT('',(20.,-2.50000000000002,44.7499999999999));
#1067=CARTESIAN_POINT('Origin',(0.,-2.50000000000001,44.7499999999999));
#1068=CARTESIAN_POINT('Origin',(0.,-2.50000000000001,44.7499999999999));
#1069=CARTESIAN_POINT('Origin',(0.,-2.50000000000002,50.9999999999999));
#1070=CARTESIAN_POINT('',(20.,-2.50000000000002,37.9999999999999));
#1071=CARTESIAN_POINT('Origin',(0.,-2.50000000000002,37.9999999999999));
#1072=CARTESIAN_POINT('',(20.,-2.50000000000002,39.7499999999999));
#1073=CARTESIAN_POINT('',(20.,-2.50000000000002,50.9999999999999));
#1074=CARTESIAN_POINT('Origin',(0.,-2.50000000000001,39.7499999999999));
#1075=CARTESIAN_POINT('Origin',(0.,-2.50000000000001,39.7499999999999));
#1076=CARTESIAN_POINT('Origin',(0.,-2.50000000000002,50.9999999999999));
#1077=CARTESIAN_POINT('',(20.,-2.50000000000002,42.2499999999999));
#1078=CARTESIAN_POINT('Origin',(0.,-2.50000000000001,42.2499999999999));
#1079=CARTESIAN_POINT('',(20.,-2.50000000000002,50.9999999999999));
#1080=CARTESIAN_POINT('Origin',(0.,-2.50000000000001,42.2499999999999));
#1081=CARTESIAN_POINT('Origin',(0.,-2.50000000000001,40.9999999999999));
#1082=CARTESIAN_POINT('Origin',(0.,-2.50000000000002,49.9999999999999));
#1083=CARTESIAN_POINT('',(19.,-2.50000000000001,49.9999999999999));
#1084=CARTESIAN_POINT('Origin',(0.,-2.50000000000002,36.9999999999999));
#1085=CARTESIAN_POINT('',(18.,-2.50000000000001,35.9999999999999));
#1086=CARTESIAN_POINT('Origin',(0.,-2.50000000000002,35.9999999999999));
#1087=CARTESIAN_POINT('',(19.,-2.50000000000002,36.9999999999999));
#1088=CARTESIAN_POINT('Origin',(0.,-2.50000000000002,35.9999999999999));
#1089=CARTESIAN_POINT('',(1.55724115023976,-4.67500000000001,35.9999999999999));
#1090=CARTESIAN_POINT('',(-0.75,-4.67500000000001,35.9999999999999));
#1091=CARTESIAN_POINT('Origin',(-2.77555756156289E-16,-2.50000000000002,
35.9999999999999));
#1092=CARTESIAN_POINT('Origin',(-2.77555756156289E-16,-2.50000000000002,
50.9999999999999));
#1093=CARTESIAN_POINT('',(1.55724115023975,-4.67500000000001,50.9999999999999));
#1094=CARTESIAN_POINT('Origin',(-1.5,-4.67500000000001,50.9999999999999));
#1095=UNCERTAINTY_MEASURE_WITH_UNIT(LENGTH_MEASURE(0.01),#1099,
'DISTANCE_ACCURACY_VALUE',
'Maximum model space distance between geometric entities at asserted c
onnectivities');
#1096=UNCERTAINTY_MEASURE_WITH_UNIT(LENGTH_MEASURE(0.01),#1099,
'DISTANCE_ACCURACY_VALUE',
'Maximum model space distance between geometric entities at asserted c
onnectivities');
#1097=(
GEOMETRIC_REPRESENTATION_CONTEXT(3)
GLOBAL_UNCERTAINTY_ASSIGNED_CONTEXT((#1095))
GLOBAL_UNIT_ASSIGNED_CONTEXT((#1099,#1100,#1101))
REPRESENTATION_CONTEXT('','3D')
);
#1098=(
GEOMETRIC_REPRESENTATION_CONTEXT(3)
GLOBAL_UNCERTAINTY_ASSIGNED_CONTEXT((#1096))
GLOBAL_UNIT_ASSIGNED_CONTEXT((#1099,#1100,#1101))
REPRESENTATION_CONTEXT('','3D')
);
#1099=(
LENGTH_UNIT()
NAMED_UNIT(*)
SI_UNIT(.MILLI.,.METRE.)
);
#1100=(
NAMED_UNIT(*)
PLANE_ANGLE_UNIT()
SI_UNIT($,.RADIAN.)
);
#1101=(
NAMED_UNIT(*)
SI_UNIT($,.STERADIAN.)
SOLID_ANGLE_UNIT()
);
#1102=SHAPE_DEFINITION_REPRESENTATION(#1103,#1104);
#1103=PRODUCT_DEFINITION_SHAPE('',$,#1106);
#1104=SHAPE_REPRESENTATION('',(#339),#1097);
#1105=PRODUCT_DEFINITION_CONTEXT('part definition',#1110,'design');
#1106=PRODUCT_DEFINITION('NEMA 17 Through-Pulley',
'NEMA 17 Through-Pulley v5',#1107,#1105);
#1107=PRODUCT_DEFINITION_FORMATION('',$,#1112);
#1108=PRODUCT_RELATED_PRODUCT_CATEGORY('NEMA 17 Through-Pulley v5',
'NEMA 17 Through-Pulley v5',(#1112));
#1109=APPLICATION_PROTOCOL_DEFINITION('international standard',
'automotive_design',2009,#1110);
#1110=APPLICATION_CONTEXT(
'Core Data for Automotive Mechanical Design Process');
#1111=PRODUCT_CONTEXT('part definition',#1110,'mechanical');
#1112=PRODUCT('NEMA 17 Through-Pulley','NEMA 17 Through-Pulley v5',$,(#1111));
#1113=PRESENTATION_STYLE_ASSIGNMENT((#1114));
#1114=SURFACE_STYLE_USAGE(.BOTH.,#1115);
#1115=SURFACE_SIDE_STYLE('',(#1116));
#1116=SURFACE_STYLE_FILL_AREA(#1117);
#1117=FILL_AREA_STYLE('Steel - Satin',(#1118));
#1118=FILL_AREA_STYLE_COLOUR('Steel - Satin',#1119);
#1119=COLOUR_RGB('Steel - Satin',0.627450980392157,0.627450980392157,0.627450980392157);
ENDSEC;
END-ISO-10303-21;
