ISO-10303-21;
HEADER;
/* Generated by software containing ST-Developer
 * from STEP Tools, Inc. (www.steptools.com) 
 */

FILE_DESCRIPTION(
/* description */ (''),
/* implementation_level */ '2;1');

FILE_NAME(
/* name */ 'Pulley Guide.step',
/* time_stamp */ '2026-03-10T16:05:45-04:00',
/* author */ (''),
/* organization */ (''),
/* preprocessor_version */ 'ST-DEVELOPER v20.1',
/* originating_system */ 'Autodesk Translation Framework v14.24.0.0',
/* authorisation */ '');

FILE_SCHEMA (('AUTOMOTIVE_DESIGN { 1 0 10303 214 3 1 1 }'));
ENDSEC;

DATA;
#10=MECHANICAL_DESIGN_GEOMETRIC_PRESENTATION_REPRESENTATION('',(#13),#1087);
#11=SHAPE_REPRESENTATION_RELATIONSHIP('SRR','None',#1093,#12);
#12=ADVANCED_BREP_SHAPE_REPRESENTATION('',(#14),#1086);
#13=STYLED_ITEM('',(#1102),#14);
#14=MANIFOLD_SOLID_BREP('Body1',#519);
#15=CYLINDRICAL_SURFACE('',#544,1.2387417643696);
#16=CYLINDRICAL_SURFACE('',#546,1.2387417643696);
#17=CYLINDRICAL_SURFACE('',#548,1.6);
#18=CYLINDRICAL_SURFACE('',#549,1.6);
#19=B_SPLINE_SURFACE_WITH_KNOTS('',3,3,((#937,#938,#939,#940),(#941,#942,
#943,#944),(#945,#946,#947,#948),(#949,#950,#951,#952),(#953,#954,#955,
#956),(#957,#958,#959,#960),(#961,#962,#963,#964),(#965,#966,#967,#968),
(#969,#970,#971,#972),(#973,#974,#975,#976)),.UNSPECIFIED.,.F.,.F.,.F.,
(4,1,1,1,1,1,1,4),(4,4),(0.,0.142857142857143,0.285714285714286,0.428571428571429,
0.571428571428571,0.714285714285714,0.857142857142857,1.),(-0.375,0.125),
 .UNSPECIFIED.);
#20=B_SPLINE_SURFACE_WITH_KNOTS('',3,3,((#977,#978,#979,#980),(#981,#982,
#983,#984),(#985,#986,#987,#988),(#989,#990,#991,#992),(#993,#994,#995,
#996),(#997,#998,#999,#1000),(#1001,#1002,#1003,#1004),(#1005,#1006,#1007,
#1008),(#1009,#1010,#1011,#1012),(#1013,#1014,#1015,#1016)),
 .UNSPECIFIED.,.F.,.F.,.F.,(4,1,1,1,1,1,1,4),(4,4),(0.,0.142857142857143,
0.285714285714286,0.428571428571429,0.571428571428571,0.714285714285714,
0.857142857142857,1.),(-1.11700003054738,-0.617000030547381),
 .UNSPECIFIED.);
#21=B_SPLINE_SURFACE_WITH_KNOTS('',3,1,((#1030,#1031),(#1032,#1033),(#1034,
#1035),(#1036,#1037),(#1038,#1039),(#1040,#1041),(#1042,#1043),(#1044,#1045),
(#1046,#1047),(#1048,#1049),(#1050,#1051),(#1052,#1053)),.UNSPECIFIED.,
 .F.,.F.,.F.,(4,2,2,2,2,4),(2,2),(0.19450112536903,0.223775156173773,0.256479842468478,
0.298892516198122,0.345999905657186,0.353001300886601),(0.,2.18240006720424),
 .UNSPECIFIED.);
#22=B_SPLINE_SURFACE_WITH_KNOTS('',3,1,((#1055,#1056),(#1057,#1058),(#1059,
#1060),(#1061,#1062),(#1063,#1064),(#1065,#1066),(#1067,#1068),(#1069,#1070),
(#1071,#1072),(#1073,#1074),(#1075,#1076),(#1077,#1078)),.UNSPECIFIED.,
 .F.,.F.,.F.,(4,2,2,2,2,4),(2,2),(0.0329780663433681,0.0699034670291119,
0.125846054470049,0.164975802869379,0.194146165432571,0.194501125369018),
(0.,2.18240006720424),.UNSPECIFIED.);
#23=B_SPLINE_CURVE_WITH_KNOTS('',3,(#727,#728,#729,#730,#731,#732,#733,
#734,#735,#736,#737,#738,#739,#740,#741,#742,#743,#744,#745,#746,#747,#748),
 .UNSPECIFIED.,.F.,.F.,(4,3,3,3,3,3,3,4),(0.,0.0971383117259779,0.194276623451956,
0.291414935177934,0.388553246903912,0.485691558629889,0.582829870355867,
0.679968182081845),.UNSPECIFIED.);
#24=B_SPLINE_CURVE_WITH_KNOTS('',3,(#760,#761,#762,#763,#764,#765,#766,
#767,#768,#769,#770,#771,#772,#773,#774,#775),.UNSPECIFIED.,.F.,.F.,(4,
3,3,3,3,4),(-0.353001300886601,-0.345999905657186,-0.298892516198122,-0.256479842468478,
-0.223775156173773,-0.19450112536903),.UNSPECIFIED.);
#25=B_SPLINE_CURVE_WITH_KNOTS('',3,(#777,#778,#779,#780,#781,#782,#783,
#784,#785,#786,#787,#788,#789,#790,#791,#792),.UNSPECIFIED.,.F.,.F.,(4,
3,3,3,3,4),(-0.194501125369018,-0.194146165432571,-0.164975802869379,-0.125846054470049,
-0.0699034670291119,-0.0329780663433681),.UNSPECIFIED.);
#26=B_SPLINE_CURVE_WITH_KNOTS('',3,(#803,#804,#805,#806,#807,#808,#809,
#810,#811,#812,#813,#814,#815,#816,#817,#818,#819,#820,#821,#822,#823,#824),
 .UNSPECIFIED.,.F.,.F.,(4,3,3,3,3,3,3,4),(0.,0.0971383117259178,0.194276623451836,
0.291414935177753,0.388553246903671,0.485691558629589,0.582829870355507,
0.679968182081424),.UNSPECIFIED.);
#27=B_SPLINE_CURVE_WITH_KNOTS('',3,(#839,#840,#841,#842,#843,#844,#845,
#846,#847,#848,#849,#850,#851,#852,#853,#854,#855,#856,#857,#858,#859,#860),
 .UNSPECIFIED.,.F.,.F.,(4,3,3,3,3,3,3,4),(0.,0.0971383117259275,0.194276623451855,
0.291414935177782,0.38855324690371,0.485691558629637,0.582829870355565,
0.679968182081492),.UNSPECIFIED.);
#28=B_SPLINE_CURVE_WITH_KNOTS('',3,(#863,#864,#865,#866,#867,#868,#869,
#870,#871,#872,#873,#874,#875,#876,#877,#878,#879,#880,#881,#882,#883,#884),
 .UNSPECIFIED.,.F.,.F.,(4,3,3,3,3,3,3,4),(0.,0.0971383117259779,0.194276623451956,
0.291414935177934,0.388553246903912,0.485691558629889,0.582829870355867,
0.679968182081845),.UNSPECIFIED.);
#29=B_SPLINE_CURVE_WITH_KNOTS('',3,(#896,#897,#898,#899,#900,#901,#902,
#903,#904,#905,#906,#907,#908,#909,#910,#911),.UNSPECIFIED.,.F.,.F.,(4,
3,3,3,3,4),(0.0329780663433681,0.0699034670291118,0.125846054470049,0.164975802869379,
0.194146165432571,0.194501125369018),.UNSPECIFIED.);
#30=B_SPLINE_CURVE_WITH_KNOTS('',3,(#913,#914,#915,#916,#917,#918,#919,
#920,#921,#922,#923,#924,#925,#926,#927,#928),.UNSPECIFIED.,.F.,.F.,(4,
3,3,3,3,4),(0.19450112536903,0.223775156173773,0.256479842468478,0.298892516198122,
0.345999905657186,0.353001300886601),.UNSPECIFIED.);
#31=FACE_BOUND('',#72,.T.);
#32=FACE_BOUND('',#73,.T.);
#33=FACE_BOUND('',#76,.T.);
#34=FACE_BOUND('',#77,.T.);
#35=CIRCLE('',#524,1.6);
#36=CIRCLE('',#525,1.6);
#37=CIRCLE('',#528,1.6);
#38=CIRCLE('',#529,1.6);
#39=CIRCLE('',#533,1.2387417643696);
#40=CIRCLE('',#534,1.2387417643696);
#41=CIRCLE('',#538,1.2387417643696);
#42=CIRCLE('',#539,1.2387417643696);
#43=FACE_OUTER_BOUND('',#69,.T.);
#44=FACE_OUTER_BOUND('',#70,.T.);
#45=FACE_OUTER_BOUND('',#71,.T.);
#46=FACE_OUTER_BOUND('',#74,.T.);
#47=FACE_OUTER_BOUND('',#75,.T.);
#48=FACE_OUTER_BOUND('',#78,.T.);
#49=FACE_OUTER_BOUND('',#79,.T.);
#50=FACE_OUTER_BOUND('',#80,.T.);
#51=FACE_OUTER_BOUND('',#81,.T.);
#52=FACE_OUTER_BOUND('',#82,.T.);
#53=FACE_OUTER_BOUND('',#83,.T.);
#54=FACE_OUTER_BOUND('',#84,.T.);
#55=FACE_OUTER_BOUND('',#85,.T.);
#56=FACE_OUTER_BOUND('',#86,.T.);
#57=FACE_OUTER_BOUND('',#87,.T.);
#58=FACE_OUTER_BOUND('',#88,.T.);
#59=FACE_OUTER_BOUND('',#89,.T.);
#60=FACE_OUTER_BOUND('',#90,.T.);
#61=FACE_OUTER_BOUND('',#91,.T.);
#62=FACE_OUTER_BOUND('',#92,.T.);
#63=FACE_OUTER_BOUND('',#93,.T.);
#64=FACE_OUTER_BOUND('',#94,.T.);
#65=FACE_OUTER_BOUND('',#95,.T.);
#66=FACE_OUTER_BOUND('',#96,.T.);
#67=FACE_OUTER_BOUND('',#97,.T.);
#68=FACE_OUTER_BOUND('',#98,.T.);
#69=EDGE_LOOP('',(#331,#332,#333,#334));
#70=EDGE_LOOP('',(#335,#336,#337,#338));
#71=EDGE_LOOP('',(#339,#340,#341,#342,#343,#344));
#72=EDGE_LOOP('',(#345));
#73=EDGE_LOOP('',(#346));
#74=EDGE_LOOP('',(#347,#348,#349,#350));
#75=EDGE_LOOP('',(#351,#352,#353,#354,#355,#356));
#76=EDGE_LOOP('',(#357));
#77=EDGE_LOOP('',(#358));
#78=EDGE_LOOP('',(#359,#360,#361,#362,#363,#364,#365));
#79=EDGE_LOOP('',(#366,#367,#368,#369));
#80=EDGE_LOOP('',(#370,#371,#372,#373,#374,#375,#376,#377,#378,#379,#380,
#381,#382,#383,#384,#385,#386));
#81=EDGE_LOOP('',(#387,#388,#389,#390));
#82=EDGE_LOOP('',(#391,#392,#393,#394));
#83=EDGE_LOOP('',(#395,#396,#397,#398,#399,#400,#401,#402,#403,#404,#405,
#406,#407,#408,#409,#410,#411));
#84=EDGE_LOOP('',(#412,#413,#414,#415));
#85=EDGE_LOOP('',(#416,#417,#418,#419));
#86=EDGE_LOOP('',(#420,#421,#422,#423));
#87=EDGE_LOOP('',(#424,#425,#426,#427));
#88=EDGE_LOOP('',(#428,#429,#430,#431));
#89=EDGE_LOOP('',(#432,#433,#434,#435));
#90=EDGE_LOOP('',(#436,#437,#438,#439));
#91=EDGE_LOOP('',(#440,#441,#442,#443));
#92=EDGE_LOOP('',(#444,#445,#446,#447));
#93=EDGE_LOOP('',(#448,#449,#450,#451));
#94=EDGE_LOOP('',(#452,#453,#454,#455));
#95=EDGE_LOOP('',(#456,#457,#458,#459));
#96=EDGE_LOOP('',(#460,#461,#462,#463));
#97=EDGE_LOOP('',(#464,#465,#466,#467));
#98=EDGE_LOOP('',(#468,#469,#470,#471,#472,#473,#474));
#99=LINE('',#673,#155);
#100=LINE('',#675,#156);
#101=LINE('',#677,#157);
#102=LINE('',#678,#158);
#103=LINE('',#681,#159);
#104=LINE('',#683,#160);
#105=LINE('',#684,#161);
#106=LINE('',#687,#162);
#107=LINE('',#689,#163);
#108=LINE('',#691,#164);
#109=LINE('',#692,#165);
#110=LINE('',#699,#166);
#111=LINE('',#700,#167);
#112=LINE('',#703,#168);
#113=LINE('',#705,#169);
#114=LINE('',#706,#170);
#115=LINE('',#713,#171);
#116=LINE('',#715,#172);
#117=LINE('',#717,#173);
#118=LINE('',#718,#174);
#119=LINE('',#721,#175);
#120=LINE('',#722,#176);
#121=LINE('',#725,#177);
#122=LINE('',#750,#178);
#123=LINE('',#752,#179);
#124=LINE('',#754,#180);
#125=LINE('',#758,#181);
#126=LINE('',#794,#182);
#127=LINE('',#798,#183);
#128=LINE('',#800,#184);
#129=LINE('',#802,#185);
#130=LINE('',#827,#186);
#131=LINE('',#829,#187);
#132=LINE('',#830,#188);
#133=LINE('',#833,#189);
#134=LINE('',#834,#190);
#135=LINE('',#837,#191);
#136=LINE('',#861,#192);
#137=LINE('',#886,#193);
#138=LINE('',#888,#194);
#139=LINE('',#890,#195);
#140=LINE('',#894,#196);
#141=LINE('',#930,#197);
#142=LINE('',#933,#198);
#143=LINE('',#934,#199);
#144=LINE('',#936,#200);
#145=LINE('',#1017,#201);
#146=LINE('',#1018,#202);
#147=LINE('',#1021,#203);
#148=LINE('',#1022,#204);
#149=LINE('',#1024,#205);
#150=LINE('',#1027,#206);
#151=LINE('',#1029,#207);
#152=LINE('',#1054,#208);
#153=LINE('',#1080,#209);
#154=LINE('',#1082,#210);
#155=VECTOR('',#555,10.);
#156=VECTOR('',#556,10.);
#157=VECTOR('',#557,10.);
#158=VECTOR('',#558,10.);
#159=VECTOR('',#561,10.);
#160=VECTOR('',#562,10.);
#161=VECTOR('',#563,10.);
#162=VECTOR('',#566,10.);
#163=VECTOR('',#567,10.);
#164=VECTOR('',#568,10.);
#165=VECTOR('',#569,10.);
#166=VECTOR('',#576,10.);
#167=VECTOR('',#577,10.);
#168=VECTOR('',#580,10.);
#169=VECTOR('',#581,10.);
#170=VECTOR('',#582,10.);
#171=VECTOR('',#589,10.);
#172=VECTOR('',#590,10.);
#173=VECTOR('',#591,10.);
#174=VECTOR('',#592,10.);
#175=VECTOR('',#595,10.);
#176=VECTOR('',#596,10.);
#177=VECTOR('',#599,10.);
#178=VECTOR('',#600,10.);
#179=VECTOR('',#601,10.);
#180=VECTOR('',#602,10.);
#181=VECTOR('',#605,10.);
#182=VECTOR('',#606,10.);
#183=VECTOR('',#609,10.);
#184=VECTOR('',#610,10.);
#185=VECTOR('',#611,10.);
#186=VECTOR('',#614,10.);
#187=VECTOR('',#615,10.);
#188=VECTOR('',#616,10.);
#189=VECTOR('',#619,10.);
#190=VECTOR('',#620,10.);
#191=VECTOR('',#623,10.);
#192=VECTOR('',#624,10.);
#193=VECTOR('',#625,10.);
#194=VECTOR('',#626,10.);
#195=VECTOR('',#627,10.);
#196=VECTOR('',#630,10.);
#197=VECTOR('',#631,10.);
#198=VECTOR('',#636,10.);
#199=VECTOR('',#637,10.);
#200=VECTOR('',#640,10.);
#201=VECTOR('',#641,10.);
#202=VECTOR('',#642,10.);
#203=VECTOR('',#647,10.);
#204=VECTOR('',#648,10.);
#205=VECTOR('',#651,10.);
#206=VECTOR('',#656,10.);
#207=VECTOR('',#659,10.);
#208=VECTOR('',#660,10.);
#209=VECTOR('',#663,1.6);
#210=VECTOR('',#666,1.6);
#211=VERTEX_POINT('',#671);
#212=VERTEX_POINT('',#672);
#213=VERTEX_POINT('',#674);
#214=VERTEX_POINT('',#676);
#215=VERTEX_POINT('',#680);
#216=VERTEX_POINT('',#682);
#217=VERTEX_POINT('',#686);
#218=VERTEX_POINT('',#688);
#219=VERTEX_POINT('',#690);
#220=VERTEX_POINT('',#693);
#221=VERTEX_POINT('',#695);
#222=VERTEX_POINT('',#698);
#223=VERTEX_POINT('',#702);
#224=VERTEX_POINT('',#704);
#225=VERTEX_POINT('',#707);
#226=VERTEX_POINT('',#709);
#227=VERTEX_POINT('',#712);
#228=VERTEX_POINT('',#714);
#229=VERTEX_POINT('',#716);
#230=VERTEX_POINT('',#720);
#231=VERTEX_POINT('',#724);
#232=VERTEX_POINT('',#726);
#233=VERTEX_POINT('',#749);
#234=VERTEX_POINT('',#751);
#235=VERTEX_POINT('',#753);
#236=VERTEX_POINT('',#755);
#237=VERTEX_POINT('',#757);
#238=VERTEX_POINT('',#759);
#239=VERTEX_POINT('',#776);
#240=VERTEX_POINT('',#793);
#241=VERTEX_POINT('',#795);
#242=VERTEX_POINT('',#797);
#243=VERTEX_POINT('',#799);
#244=VERTEX_POINT('',#801);
#245=VERTEX_POINT('',#826);
#246=VERTEX_POINT('',#828);
#247=VERTEX_POINT('',#832);
#248=VERTEX_POINT('',#836);
#249=VERTEX_POINT('',#838);
#250=VERTEX_POINT('',#862);
#251=VERTEX_POINT('',#885);
#252=VERTEX_POINT('',#887);
#253=VERTEX_POINT('',#889);
#254=VERTEX_POINT('',#891);
#255=VERTEX_POINT('',#893);
#256=VERTEX_POINT('',#895);
#257=VERTEX_POINT('',#912);
#258=VERTEX_POINT('',#929);
#259=EDGE_CURVE('',#211,#212,#99,.T.);
#260=EDGE_CURVE('',#212,#213,#100,.T.);
#261=EDGE_CURVE('',#213,#214,#101,.T.);
#262=EDGE_CURVE('',#214,#211,#102,.T.);
#263=EDGE_CURVE('',#215,#212,#103,.T.);
#264=EDGE_CURVE('',#216,#215,#104,.T.);
#265=EDGE_CURVE('',#213,#216,#105,.T.);
#266=EDGE_CURVE('',#211,#217,#106,.T.);
#267=EDGE_CURVE('',#218,#217,#107,.T.);
#268=EDGE_CURVE('',#218,#219,#108,.T.);
#269=EDGE_CURVE('',#215,#219,#109,.T.);
#270=EDGE_CURVE('',#220,#220,#35,.T.);
#271=EDGE_CURVE('',#221,#221,#36,.T.);
#272=EDGE_CURVE('',#219,#222,#110,.T.);
#273=EDGE_CURVE('',#222,#216,#111,.T.);
#274=EDGE_CURVE('',#222,#223,#112,.T.);
#275=EDGE_CURVE('',#223,#224,#113,.T.);
#276=EDGE_CURVE('',#224,#214,#114,.T.);
#277=EDGE_CURVE('',#225,#225,#37,.T.);
#278=EDGE_CURVE('',#226,#226,#38,.T.);
#279=EDGE_CURVE('',#227,#218,#115,.T.);
#280=EDGE_CURVE('',#227,#228,#116,.T.);
#281=EDGE_CURVE('',#229,#228,#117,.T.);
#282=EDGE_CURVE('',#223,#229,#118,.T.);
#283=EDGE_CURVE('',#217,#230,#119,.T.);
#284=EDGE_CURVE('',#230,#227,#120,.T.);
#285=EDGE_CURVE('',#230,#231,#121,.T.);
#286=EDGE_CURVE('',#232,#231,#23,.T.);
#287=EDGE_CURVE('',#232,#233,#122,.T.);
#288=EDGE_CURVE('',#234,#233,#123,.T.);
#289=EDGE_CURVE('',#234,#235,#124,.T.);
#290=EDGE_CURVE('',#235,#236,#39,.T.);
#291=EDGE_CURVE('',#236,#237,#125,.T.);
#292=EDGE_CURVE('',#237,#238,#24,.T.);
#293=EDGE_CURVE('',#238,#239,#25,.T.);
#294=EDGE_CURVE('',#239,#240,#126,.T.);
#295=EDGE_CURVE('',#240,#241,#40,.T.);
#296=EDGE_CURVE('',#241,#242,#127,.T.);
#297=EDGE_CURVE('',#243,#242,#128,.T.);
#298=EDGE_CURVE('',#243,#244,#129,.T.);
#299=EDGE_CURVE('',#228,#244,#26,.T.);
#300=EDGE_CURVE('',#233,#245,#130,.T.);
#301=EDGE_CURVE('',#245,#246,#131,.T.);
#302=EDGE_CURVE('',#246,#234,#132,.T.);
#303=EDGE_CURVE('',#247,#246,#133,.T.);
#304=EDGE_CURVE('',#247,#235,#134,.T.);
#305=EDGE_CURVE('',#245,#248,#135,.T.);
#306=EDGE_CURVE('',#249,#248,#27,.T.);
#307=EDGE_CURVE('',#224,#249,#136,.T.);
#308=EDGE_CURVE('',#250,#229,#28,.T.);
#309=EDGE_CURVE('',#250,#251,#137,.T.);
#310=EDGE_CURVE('',#252,#251,#138,.T.);
#311=EDGE_CURVE('',#252,#253,#139,.T.);
#312=EDGE_CURVE('',#253,#254,#41,.T.);
#313=EDGE_CURVE('',#254,#255,#140,.T.);
#314=EDGE_CURVE('',#255,#256,#29,.T.);
#315=EDGE_CURVE('',#256,#257,#30,.T.);
#316=EDGE_CURVE('',#257,#258,#141,.T.);
#317=EDGE_CURVE('',#258,#247,#42,.T.);
#318=EDGE_CURVE('',#251,#243,#142,.T.);
#319=EDGE_CURVE('',#242,#252,#143,.T.);
#320=EDGE_CURVE('',#244,#250,#144,.T.);
#321=EDGE_CURVE('',#231,#249,#145,.T.);
#322=EDGE_CURVE('',#248,#232,#146,.T.);
#323=EDGE_CURVE('',#255,#239,#147,.T.);
#324=EDGE_CURVE('',#254,#240,#148,.T.);
#325=EDGE_CURVE('',#253,#241,#149,.T.);
#326=EDGE_CURVE('',#258,#236,#150,.T.);
#327=EDGE_CURVE('',#257,#237,#151,.T.);
#328=EDGE_CURVE('',#256,#238,#152,.T.);
#329=EDGE_CURVE('',#221,#225,#153,.T.);
#330=EDGE_CURVE('',#220,#226,#154,.T.);
#331=ORIENTED_EDGE('',*,*,#259,.T.);
#332=ORIENTED_EDGE('',*,*,#260,.T.);
#333=ORIENTED_EDGE('',*,*,#261,.T.);
#334=ORIENTED_EDGE('',*,*,#262,.T.);
#335=ORIENTED_EDGE('',*,*,#260,.F.);
#336=ORIENTED_EDGE('',*,*,#263,.F.);
#337=ORIENTED_EDGE('',*,*,#264,.F.);
#338=ORIENTED_EDGE('',*,*,#265,.F.);
#339=ORIENTED_EDGE('',*,*,#259,.F.);
#340=ORIENTED_EDGE('',*,*,#266,.T.);
#341=ORIENTED_EDGE('',*,*,#267,.F.);
#342=ORIENTED_EDGE('',*,*,#268,.T.);
#343=ORIENTED_EDGE('',*,*,#269,.F.);
#344=ORIENTED_EDGE('',*,*,#263,.T.);
#345=ORIENTED_EDGE('',*,*,#270,.T.);
#346=ORIENTED_EDGE('',*,*,#271,.T.);
#347=ORIENTED_EDGE('',*,*,#269,.T.);
#348=ORIENTED_EDGE('',*,*,#272,.T.);
#349=ORIENTED_EDGE('',*,*,#273,.T.);
#350=ORIENTED_EDGE('',*,*,#264,.T.);
#351=ORIENTED_EDGE('',*,*,#261,.F.);
#352=ORIENTED_EDGE('',*,*,#265,.T.);
#353=ORIENTED_EDGE('',*,*,#273,.F.);
#354=ORIENTED_EDGE('',*,*,#274,.T.);
#355=ORIENTED_EDGE('',*,*,#275,.T.);
#356=ORIENTED_EDGE('',*,*,#276,.T.);
#357=ORIENTED_EDGE('',*,*,#277,.F.);
#358=ORIENTED_EDGE('',*,*,#278,.F.);
#359=ORIENTED_EDGE('',*,*,#272,.F.);
#360=ORIENTED_EDGE('',*,*,#268,.F.);
#361=ORIENTED_EDGE('',*,*,#279,.F.);
#362=ORIENTED_EDGE('',*,*,#280,.T.);
#363=ORIENTED_EDGE('',*,*,#281,.F.);
#364=ORIENTED_EDGE('',*,*,#282,.F.);
#365=ORIENTED_EDGE('',*,*,#274,.F.);
#366=ORIENTED_EDGE('',*,*,#283,.T.);
#367=ORIENTED_EDGE('',*,*,#284,.T.);
#368=ORIENTED_EDGE('',*,*,#279,.T.);
#369=ORIENTED_EDGE('',*,*,#267,.T.);
#370=ORIENTED_EDGE('',*,*,#284,.F.);
#371=ORIENTED_EDGE('',*,*,#285,.T.);
#372=ORIENTED_EDGE('',*,*,#286,.F.);
#373=ORIENTED_EDGE('',*,*,#287,.T.);
#374=ORIENTED_EDGE('',*,*,#288,.F.);
#375=ORIENTED_EDGE('',*,*,#289,.T.);
#376=ORIENTED_EDGE('',*,*,#290,.T.);
#377=ORIENTED_EDGE('',*,*,#291,.T.);
#378=ORIENTED_EDGE('',*,*,#292,.T.);
#379=ORIENTED_EDGE('',*,*,#293,.T.);
#380=ORIENTED_EDGE('',*,*,#294,.T.);
#381=ORIENTED_EDGE('',*,*,#295,.T.);
#382=ORIENTED_EDGE('',*,*,#296,.T.);
#383=ORIENTED_EDGE('',*,*,#297,.F.);
#384=ORIENTED_EDGE('',*,*,#298,.T.);
#385=ORIENTED_EDGE('',*,*,#299,.F.);
#386=ORIENTED_EDGE('',*,*,#280,.F.);
#387=ORIENTED_EDGE('',*,*,#288,.T.);
#388=ORIENTED_EDGE('',*,*,#300,.T.);
#389=ORIENTED_EDGE('',*,*,#301,.T.);
#390=ORIENTED_EDGE('',*,*,#302,.T.);
#391=ORIENTED_EDGE('',*,*,#302,.F.);
#392=ORIENTED_EDGE('',*,*,#303,.F.);
#393=ORIENTED_EDGE('',*,*,#304,.T.);
#394=ORIENTED_EDGE('',*,*,#289,.F.);
#395=ORIENTED_EDGE('',*,*,#301,.F.);
#396=ORIENTED_EDGE('',*,*,#305,.T.);
#397=ORIENTED_EDGE('',*,*,#306,.F.);
#398=ORIENTED_EDGE('',*,*,#307,.F.);
#399=ORIENTED_EDGE('',*,*,#275,.F.);
#400=ORIENTED_EDGE('',*,*,#282,.T.);
#401=ORIENTED_EDGE('',*,*,#308,.F.);
#402=ORIENTED_EDGE('',*,*,#309,.T.);
#403=ORIENTED_EDGE('',*,*,#310,.F.);
#404=ORIENTED_EDGE('',*,*,#311,.T.);
#405=ORIENTED_EDGE('',*,*,#312,.T.);
#406=ORIENTED_EDGE('',*,*,#313,.T.);
#407=ORIENTED_EDGE('',*,*,#314,.T.);
#408=ORIENTED_EDGE('',*,*,#315,.T.);
#409=ORIENTED_EDGE('',*,*,#316,.T.);
#410=ORIENTED_EDGE('',*,*,#317,.T.);
#411=ORIENTED_EDGE('',*,*,#303,.T.);
#412=ORIENTED_EDGE('',*,*,#310,.T.);
#413=ORIENTED_EDGE('',*,*,#318,.T.);
#414=ORIENTED_EDGE('',*,*,#297,.T.);
#415=ORIENTED_EDGE('',*,*,#319,.T.);
#416=ORIENTED_EDGE('',*,*,#318,.F.);
#417=ORIENTED_EDGE('',*,*,#309,.F.);
#418=ORIENTED_EDGE('',*,*,#320,.F.);
#419=ORIENTED_EDGE('',*,*,#298,.F.);
#420=ORIENTED_EDGE('',*,*,#308,.T.);
#421=ORIENTED_EDGE('',*,*,#281,.T.);
#422=ORIENTED_EDGE('',*,*,#299,.T.);
#423=ORIENTED_EDGE('',*,*,#320,.T.);
#424=ORIENTED_EDGE('',*,*,#286,.T.);
#425=ORIENTED_EDGE('',*,*,#321,.T.);
#426=ORIENTED_EDGE('',*,*,#306,.T.);
#427=ORIENTED_EDGE('',*,*,#322,.T.);
#428=ORIENTED_EDGE('',*,*,#300,.F.);
#429=ORIENTED_EDGE('',*,*,#287,.F.);
#430=ORIENTED_EDGE('',*,*,#322,.F.);
#431=ORIENTED_EDGE('',*,*,#305,.F.);
#432=ORIENTED_EDGE('',*,*,#294,.F.);
#433=ORIENTED_EDGE('',*,*,#323,.F.);
#434=ORIENTED_EDGE('',*,*,#313,.F.);
#435=ORIENTED_EDGE('',*,*,#324,.T.);
#436=ORIENTED_EDGE('',*,*,#295,.F.);
#437=ORIENTED_EDGE('',*,*,#324,.F.);
#438=ORIENTED_EDGE('',*,*,#312,.F.);
#439=ORIENTED_EDGE('',*,*,#325,.T.);
#440=ORIENTED_EDGE('',*,*,#319,.F.);
#441=ORIENTED_EDGE('',*,*,#296,.F.);
#442=ORIENTED_EDGE('',*,*,#325,.F.);
#443=ORIENTED_EDGE('',*,*,#311,.F.);
#444=ORIENTED_EDGE('',*,*,#290,.F.);
#445=ORIENTED_EDGE('',*,*,#304,.F.);
#446=ORIENTED_EDGE('',*,*,#317,.F.);
#447=ORIENTED_EDGE('',*,*,#326,.T.);
#448=ORIENTED_EDGE('',*,*,#291,.F.);
#449=ORIENTED_EDGE('',*,*,#326,.F.);
#450=ORIENTED_EDGE('',*,*,#316,.F.);
#451=ORIENTED_EDGE('',*,*,#327,.T.);
#452=ORIENTED_EDGE('',*,*,#292,.F.);
#453=ORIENTED_EDGE('',*,*,#327,.F.);
#454=ORIENTED_EDGE('',*,*,#315,.F.);
#455=ORIENTED_EDGE('',*,*,#328,.T.);
#456=ORIENTED_EDGE('',*,*,#293,.F.);
#457=ORIENTED_EDGE('',*,*,#328,.F.);
#458=ORIENTED_EDGE('',*,*,#314,.F.);
#459=ORIENTED_EDGE('',*,*,#323,.T.);
#460=ORIENTED_EDGE('',*,*,#271,.F.);
#461=ORIENTED_EDGE('',*,*,#329,.T.);
#462=ORIENTED_EDGE('',*,*,#277,.T.);
#463=ORIENTED_EDGE('',*,*,#329,.F.);
#464=ORIENTED_EDGE('',*,*,#270,.F.);
#465=ORIENTED_EDGE('',*,*,#330,.T.);
#466=ORIENTED_EDGE('',*,*,#278,.T.);
#467=ORIENTED_EDGE('',*,*,#330,.F.);
#468=ORIENTED_EDGE('',*,*,#262,.F.);
#469=ORIENTED_EDGE('',*,*,#276,.F.);
#470=ORIENTED_EDGE('',*,*,#307,.T.);
#471=ORIENTED_EDGE('',*,*,#321,.F.);
#472=ORIENTED_EDGE('',*,*,#285,.F.);
#473=ORIENTED_EDGE('',*,*,#283,.F.);
#474=ORIENTED_EDGE('',*,*,#266,.F.);
#475=PLANE('',#521);
#476=PLANE('',#522);
#477=PLANE('',#523);
#478=PLANE('',#526);
#479=PLANE('',#527);
#480=PLANE('',#530);
#481=PLANE('',#531);
#482=PLANE('',#532);
#483=PLANE('',#535);
#484=PLANE('',#536);
#485=PLANE('',#537);
#486=PLANE('',#540);
#487=PLANE('',#541);
#488=PLANE('',#542);
#489=PLANE('',#543);
#490=PLANE('',#545);
#491=PLANE('',#547);
#492=PLANE('',#550);
#493=ADVANCED_FACE('',(#43),#475,.T.);
#494=ADVANCED_FACE('',(#44),#476,.T.);
#495=ADVANCED_FACE('',(#45,#31,#32),#477,.T.);
#496=ADVANCED_FACE('',(#46),#478,.T.);
#497=ADVANCED_FACE('',(#47,#33,#34),#479,.F.);
#498=ADVANCED_FACE('',(#48),#480,.T.);
#499=ADVANCED_FACE('',(#49),#481,.T.);
#500=ADVANCED_FACE('',(#50),#482,.T.);
#501=ADVANCED_FACE('',(#51),#483,.T.);
#502=ADVANCED_FACE('',(#52),#484,.F.);
#503=ADVANCED_FACE('',(#53),#485,.T.);
#504=ADVANCED_FACE('',(#54),#486,.T.);
#505=ADVANCED_FACE('',(#55),#487,.T.);
#506=ADVANCED_FACE('',(#56),#19,.F.);
#507=ADVANCED_FACE('',(#57),#20,.F.);
#508=ADVANCED_FACE('',(#58),#488,.T.);
#509=ADVANCED_FACE('',(#59),#489,.F.);
#510=ADVANCED_FACE('',(#60),#15,.F.);
#511=ADVANCED_FACE('',(#61),#490,.F.);
#512=ADVANCED_FACE('',(#62),#16,.F.);
#513=ADVANCED_FACE('',(#63),#491,.F.);
#514=ADVANCED_FACE('',(#64),#21,.F.);
#515=ADVANCED_FACE('',(#65),#22,.F.);
#516=ADVANCED_FACE('',(#66),#17,.F.);
#517=ADVANCED_FACE('',(#67),#18,.F.);
#518=ADVANCED_FACE('',(#68),#492,.T.);
#519=CLOSED_SHELL('',(#493,#494,#495,#496,#497,#498,#499,#500,#501,#502,
#503,#504,#505,#506,#507,#508,#509,#510,#511,#512,#513,#514,#515,#516,#517,
#518));
#520=AXIS2_PLACEMENT_3D('',#669,#551,#552);
#521=AXIS2_PLACEMENT_3D('',#670,#553,#554);
#522=AXIS2_PLACEMENT_3D('',#679,#559,#560);
#523=AXIS2_PLACEMENT_3D('',#685,#564,#565);
#524=AXIS2_PLACEMENT_3D('',#694,#570,#571);
#525=AXIS2_PLACEMENT_3D('',#696,#572,#573);
#526=AXIS2_PLACEMENT_3D('',#697,#574,#575);
#527=AXIS2_PLACEMENT_3D('',#701,#578,#579);
#528=AXIS2_PLACEMENT_3D('',#708,#583,#584);
#529=AXIS2_PLACEMENT_3D('',#710,#585,#586);
#530=AXIS2_PLACEMENT_3D('',#711,#587,#588);
#531=AXIS2_PLACEMENT_3D('',#719,#593,#594);
#532=AXIS2_PLACEMENT_3D('',#723,#597,#598);
#533=AXIS2_PLACEMENT_3D('',#756,#603,#604);
#534=AXIS2_PLACEMENT_3D('',#796,#607,#608);
#535=AXIS2_PLACEMENT_3D('',#825,#612,#613);
#536=AXIS2_PLACEMENT_3D('',#831,#617,#618);
#537=AXIS2_PLACEMENT_3D('',#835,#621,#622);
#538=AXIS2_PLACEMENT_3D('',#892,#628,#629);
#539=AXIS2_PLACEMENT_3D('',#931,#632,#633);
#540=AXIS2_PLACEMENT_3D('',#932,#634,#635);
#541=AXIS2_PLACEMENT_3D('',#935,#638,#639);
#542=AXIS2_PLACEMENT_3D('',#1019,#643,#644);
#543=AXIS2_PLACEMENT_3D('',#1020,#645,#646);
#544=AXIS2_PLACEMENT_3D('',#1023,#649,#650);
#545=AXIS2_PLACEMENT_3D('',#1025,#652,#653);
#546=AXIS2_PLACEMENT_3D('',#1026,#654,#655);
#547=AXIS2_PLACEMENT_3D('',#1028,#657,#658);
#548=AXIS2_PLACEMENT_3D('',#1079,#661,#662);
#549=AXIS2_PLACEMENT_3D('',#1081,#664,#665);
#550=AXIS2_PLACEMENT_3D('',#1083,#667,#668);
#551=DIRECTION('axis',(0.,0.,1.));
#552=DIRECTION('refdir',(1.,0.,0.));
#553=DIRECTION('center_axis',(0.707106781186548,0.,-0.707106781186548));
#554=DIRECTION('ref_axis',(-0.707106781186548,0.,-0.707106781186548));
#555=DIRECTION('',(0.707106781186548,0.,0.707106781186548));
#556=DIRECTION('',(0.,-1.,0.));
#557=DIRECTION('',(-0.707106781186548,0.,-0.707106781186548));
#558=DIRECTION('',(0.,1.,0.));
#559=DIRECTION('center_axis',(1.,0.,0.));
#560=DIRECTION('ref_axis',(0.,0.,-1.));
#561=DIRECTION('',(0.,0.,-1.));
#562=DIRECTION('',(0.,1.,0.));
#563=DIRECTION('',(0.,0.,1.));
#564=DIRECTION('center_axis',(0.,1.,0.));
#565=DIRECTION('ref_axis',(-1.,0.,0.));
#566=DIRECTION('',(-1.,0.,0.));
#567=DIRECTION('',(0.,0.,-1.));
#568=DIRECTION('',(1.,0.,0.));
#569=DIRECTION('',(-0.707106781186548,0.,0.707106781186548));
#570=DIRECTION('center_axis',(0.,-1.,0.));
#571=DIRECTION('ref_axis',(-1.,0.,0.));
#572=DIRECTION('center_axis',(0.,-1.,0.));
#573=DIRECTION('ref_axis',(-1.,0.,0.));
#574=DIRECTION('center_axis',(0.707106781186548,0.,0.707106781186548));
#575=DIRECTION('ref_axis',(0.707106781186548,0.,-0.707106781186548));
#576=DIRECTION('',(0.,-1.,0.));
#577=DIRECTION('',(0.707106781186548,0.,-0.707106781186548));
#578=DIRECTION('center_axis',(0.,1.,0.));
#579=DIRECTION('ref_axis',(-1.,0.,0.));
#580=DIRECTION('',(-1.,0.,0.));
#581=DIRECTION('',(0.,0.,-1.));
#582=DIRECTION('',(1.,0.,0.));
#583=DIRECTION('center_axis',(0.,-1.,0.));
#584=DIRECTION('ref_axis',(-1.,0.,0.));
#585=DIRECTION('center_axis',(0.,-1.,0.));
#586=DIRECTION('ref_axis',(-1.,0.,0.));
#587=DIRECTION('center_axis',(0.,0.,1.));
#588=DIRECTION('ref_axis',(1.,0.,0.));
#589=DIRECTION('',(0.707106781186548,-0.707106781186548,0.));
#590=DIRECTION('',(0.,1.,0.));
#591=DIRECTION('',(1.,0.,0.));
#592=DIRECTION('',(0.,1.,0.));
#593=DIRECTION('center_axis',(0.707106781186548,0.707106781186548,0.));
#594=DIRECTION('ref_axis',(0.,0.,-1.));
#595=DIRECTION('',(-0.707106781186548,0.707106781186548,0.));
#596=DIRECTION('',(0.,0.,1.));
#597=DIRECTION('center_axis',(1.,0.,0.));
#598=DIRECTION('ref_axis',(0.,0.,-1.));
#599=DIRECTION('',(0.,1.,0.));
#600=DIRECTION('',(0.,0.,1.));
#601=DIRECTION('',(0.,0.707106781186549,-0.707106781186546));
#602=DIRECTION('',(0.,-1.,0.));
#603=DIRECTION('center_axis',(-1.,0.,0.));
#604=DIRECTION('ref_axis',(0.,0.,1.));
#605=DIRECTION('',(0.,-0.967346874909474,0.253456157161106));
#606=DIRECTION('',(0.,0.967346874910275,0.253456157158046));
#607=DIRECTION('center_axis',(-1.,0.,0.));
#608=DIRECTION('ref_axis',(0.,0.,1.));
#609=DIRECTION('',(0.,1.,0.));
#610=DIRECTION('',(0.,-0.707106781186549,-0.707106781186546));
#611=DIRECTION('',(0.,0.,1.));
#612=DIRECTION('center_axis',(0.,0.707106781186546,0.707106781186549));
#613=DIRECTION('ref_axis',(1.,0.,0.));
#614=DIRECTION('',(-1.,0.,0.));
#615=DIRECTION('',(0.,-0.707106781186549,0.707106781186546));
#616=DIRECTION('',(1.,0.,0.));
#617=DIRECTION('center_axis',(0.,0.,-1.));
#618=DIRECTION('ref_axis',(0.,1.,0.));
#619=DIRECTION('',(0.,1.,0.));
#620=DIRECTION('',(1.,0.,0.));
#621=DIRECTION('center_axis',(-1.,0.,0.));
#622=DIRECTION('ref_axis',(0.,0.,1.));
#623=DIRECTION('',(0.,0.,-1.));
#624=DIRECTION('',(0.,1.,0.));
#625=DIRECTION('',(0.,0.,-1.));
#626=DIRECTION('',(0.,0.707106781186549,0.707106781186546));
#627=DIRECTION('',(0.,-1.,0.));
#628=DIRECTION('center_axis',(1.,0.,0.));
#629=DIRECTION('ref_axis',(0.,0.,1.));
#630=DIRECTION('',(0.,-0.967346874910275,-0.253456157158046));
#631=DIRECTION('',(0.,0.967346874909474,-0.253456157161106));
#632=DIRECTION('center_axis',(1.,0.,0.));
#633=DIRECTION('ref_axis',(0.,0.,1.));
#634=DIRECTION('center_axis',(0.,0.707106781186546,-0.707106781186549));
#635=DIRECTION('ref_axis',(-1.,0.,0.));
#636=DIRECTION('',(1.,0.,0.));
#637=DIRECTION('',(-1.,0.,0.));
#638=DIRECTION('center_axis',(0.,1.,0.));
#639=DIRECTION('ref_axis',(0.,0.,1.));
#640=DIRECTION('',(-1.,0.,0.));
#641=DIRECTION('',(-1.,0.,0.));
#642=DIRECTION('',(1.,0.,0.));
#643=DIRECTION('center_axis',(0.,1.,0.));
#644=DIRECTION('ref_axis',(0.,0.,1.));
#645=DIRECTION('center_axis',(0.,-0.253456157158046,0.967346874910275));
#646=DIRECTION('ref_axis',(0.,-0.967346874910275,-0.253456157158046));
#647=DIRECTION('',(1.,0.,0.));
#648=DIRECTION('',(1.,0.,0.));
#649=DIRECTION('center_axis',(1.,0.,0.));
#650=DIRECTION('ref_axis',(0.,0.,1.));
#651=DIRECTION('',(1.,0.,0.));
#652=DIRECTION('center_axis',(0.,0.,1.));
#653=DIRECTION('ref_axis',(0.,-1.,0.));
#654=DIRECTION('center_axis',(1.,0.,0.));
#655=DIRECTION('ref_axis',(0.,0.,1.));
#656=DIRECTION('',(1.,0.,0.));
#657=DIRECTION('center_axis',(0.,-0.253456157161106,-0.967346874909474));
#658=DIRECTION('ref_axis',(0.,0.967346874909474,-0.253456157161106));
#659=DIRECTION('',(1.,0.,0.));
#660=DIRECTION('',(1.,0.,0.));
#661=DIRECTION('center_axis',(0.,1.,0.));
#662=DIRECTION('ref_axis',(-1.,0.,0.));
#663=DIRECTION('',(0.,-1.,0.));
#664=DIRECTION('center_axis',(0.,1.,0.));
#665=DIRECTION('ref_axis',(-1.,0.,0.));
#666=DIRECTION('',(0.,-1.,0.));
#667=DIRECTION('center_axis',(0.,0.,-1.));
#668=DIRECTION('ref_axis',(-1.,0.,0.));
#669=CARTESIAN_POINT('',(0.,0.,0.));
#670=CARTESIAN_POINT('Origin',(44.7500006109476,-23.650000205,32.2499999999999));
#671=CARTESIAN_POINT('',(43.5000006109476,-18.650000205,30.9999999999999));
#672=CARTESIAN_POINT('',(46.0000006109476,-18.650000205,33.4999999999999));
#673=CARTESIAN_POINT('',(44.7700005345792,-18.650000205,32.2699999236315));
#674=CARTESIAN_POINT('',(46.0000006109476,-23.650000205,33.4999999999999));
#675=CARTESIAN_POINT('',(46.0000006109476,-23.650000205,33.4999999999999));
#676=CARTESIAN_POINT('',(43.5000006109476,-23.650000205,30.9999999999999));
#677=CARTESIAN_POINT('',(44.7700005345792,-23.650000205,32.2699999236315));
#678=CARTESIAN_POINT('',(43.5000006109476,-23.650000205,30.9999999999999));
#679=CARTESIAN_POINT('Origin',(46.0000006109476,-23.650000205,50.9999999999999));
#680=CARTESIAN_POINT('',(46.0000006109476,-18.650000205,48.4999999999999));
#681=CARTESIAN_POINT('',(46.0000006109476,-18.650000205,30.9999999999999));
#682=CARTESIAN_POINT('',(46.0000006109476,-23.650000205,48.4999999999999));
#683=CARTESIAN_POINT('',(46.0000006109476,-23.650000205,48.4999999999999));
#684=CARTESIAN_POINT('',(46.0000006109476,-23.650000205,30.9999999999999));
#685=CARTESIAN_POINT('Origin',(36.0800003054738,-18.650000205,40.9999999999999));
#686=CARTESIAN_POINT('',(36.16,-18.650000205,30.9999999999999));
#687=CARTESIAN_POINT('',(26.16,-18.650000205,30.9999999999999));
#688=CARTESIAN_POINT('',(36.16,-18.650000205,50.9999999999999));
#689=CARTESIAN_POINT('',(36.16,-18.650000205,45.9999997690319));
#690=CARTESIAN_POINT('',(43.5000006109476,-18.650000205,50.9999999999999));
#691=CARTESIAN_POINT('',(46.0000006109476,-18.650000205,50.9999999999999));
#692=CARTESIAN_POINT('',(44.7700005345792,-18.650000205,49.7300000763684));
#693=CARTESIAN_POINT('',(42.6000006109476,-18.650000205,33.9999999999999));
#694=CARTESIAN_POINT('Origin',(41.0000006109476,-18.650000205,33.9999999999999));
#695=CARTESIAN_POINT('',(42.6000006109476,-18.650000205,47.9999999999999));
#696=CARTESIAN_POINT('Origin',(41.0000006109476,-18.650000205,47.9999999999999));
#697=CARTESIAN_POINT('Origin',(44.7500006109476,-23.650000205,49.7499999999999));
#698=CARTESIAN_POINT('',(43.5000006109476,-23.650000205,50.9999999999999));
#699=CARTESIAN_POINT('',(43.5000006109476,-23.650000205,50.9999999999999));
#700=CARTESIAN_POINT('',(44.7700005345792,-23.650000205,49.7300000763684));
#701=CARTESIAN_POINT('Origin',(36.0800003054738,-23.650000205,40.9999999999999));
#702=CARTESIAN_POINT('',(26.16,-23.650000205,50.9999999999999));
#703=CARTESIAN_POINT('',(46.0000006109476,-23.650000205,50.9999999999999));
#704=CARTESIAN_POINT('',(26.16,-23.650000205,30.9999999999999));
#705=CARTESIAN_POINT('',(26.16,-23.650000205,50.9999999999999));
#706=CARTESIAN_POINT('',(26.16,-23.650000205,30.9999999999999));
#707=CARTESIAN_POINT('',(42.6000006109476,-23.650000205,47.9999999999999));
#708=CARTESIAN_POINT('Origin',(41.0000006109476,-23.650000205,47.9999999999999));
#709=CARTESIAN_POINT('',(42.6000006109476,-23.650000205,33.9999999999999));
#710=CARTESIAN_POINT('Origin',(41.0000006109476,-23.650000205,33.9999999999999));
#711=CARTESIAN_POINT('Origin',(26.16,-23.650000205,50.9999999999999));
#712=CARTESIAN_POINT('',(31.16,-13.650000205,50.9999995380639));
#713=CARTESIAN_POINT('',(33.66,-16.150000205,50.9999999999999));
#714=CARTESIAN_POINT('',(31.16,18.66,50.9999995380639));
#715=CARTESIAN_POINT('',(31.16,-18.650000205,50.9999995380639));
#716=CARTESIAN_POINT('',(26.16,18.66,50.9999999999999));
#717=CARTESIAN_POINT('',(27.41,18.66,50.9999999999999));
#718=CARTESIAN_POINT('',(26.16,-23.650000205,50.9999999999999));
#719=CARTESIAN_POINT('Origin',(33.66,-16.150000205,45.9999997690319));
#720=CARTESIAN_POINT('',(31.16,-13.650000205,30.9999999999999));
#721=CARTESIAN_POINT('',(38.6200001527369,-21.1100003577369,30.9999999999999));
#722=CARTESIAN_POINT('',(31.16,-13.650000205,45.9999997690319));
#723=CARTESIAN_POINT('Origin',(31.16,-18.650000205,50.9999995380639));
#724=CARTESIAN_POINT('',(31.16,18.66,30.9999999999999));
#725=CARTESIAN_POINT('',(31.16,-18.650000205,30.9999999999999));
#726=CARTESIAN_POINT('',(31.16,23.66,35.9999999999999));
#727=CARTESIAN_POINT('Ctrl Pts',(31.16,23.66,35.9999999999999));
#728=CARTESIAN_POINT('Ctrl Pts',(31.16,23.66,35.6260008745726));
#729=CARTESIAN_POINT('Ctrl Pts',(31.16,23.6580989502307,35.2559592820529));
#730=CARTESIAN_POINT('Ctrl Pts',(31.16,23.6161698636483,34.8873215857931));
#731=CARTESIAN_POINT('Ctrl Pts',(31.16,23.5742407770659,34.5186838895333));
#732=CARTESIAN_POINT('Ctrl Pts',(31.16,23.4922836536704,34.1514500895333));
#733=CARTESIAN_POINT('Ctrl Pts',(31.16,23.3532519230743,33.7926231750953));
#734=CARTESIAN_POINT('Ctrl Pts',(31.16,23.2142201924783,33.4337962606573));
#735=CARTESIAN_POINT('Ctrl Pts',(31.16,23.0181138546816,33.0833762317813));
#736=CARTESIAN_POINT('Ctrl Pts',(31.16,22.7708991875892,32.7589333085576));
#737=CARTESIAN_POINT('Ctrl Pts',(31.16,22.5236845204968,32.4344903853339));
#738=CARTESIAN_POINT('Ctrl Pts',(31.16,22.2253615241087,32.1360245677626));
#739=CARTESIAN_POINT('Ctrl Pts',(31.16,21.9010569786375,31.8889548980854));
#740=CARTESIAN_POINT('Ctrl Pts',(31.16,21.5767524331664,31.6418852284081));
#741=CARTESIAN_POINT('Ctrl Pts',(31.16,21.2264663386122,31.446211706625));
#742=CARTESIAN_POINT('Ctrl Pts',(31.16,20.8676494332683,31.3072422684484));
#743=CARTESIAN_POINT('Ctrl Pts',(31.16,20.5088325279243,31.1682728302719));
#744=CARTESIAN_POINT('Ctrl Pts',(31.16,20.1414848117906,31.0860074757021));
#745=CARTESIAN_POINT('Ctrl Pts',(31.16,19.7727764611664,31.0439392681341));
#746=CARTESIAN_POINT('Ctrl Pts',(31.16,19.4040681105421,31.0018710605661));
#747=CARTESIAN_POINT('Ctrl Pts',(31.16,19.0339991254273,30.9999999999999));
#748=CARTESIAN_POINT('Ctrl Pts',(31.16,18.66,31.));
#749=CARTESIAN_POINT('',(31.16,23.66,38.7612582356304));
#750=CARTESIAN_POINT('',(31.16,23.66,45.9999997690319));
#751=CARTESIAN_POINT('',(31.16,22.66,39.7612582356303));
#752=CARTESIAN_POINT('',(31.16,9.77281462314154,52.6484436124887));
#753=CARTESIAN_POINT('',(31.16,17.4286454399457,39.7612582356303));
#754=CARTESIAN_POINT('',(31.16,-0.610677382527176,39.7612582356303));
#755=CARTESIAN_POINT('',(31.16,17.1823018611915,39.7859999999999));
#756=CARTESIAN_POINT('Origin',(31.16,17.4286454399457,40.9999999999999));
#757=CARTESIAN_POINT('',(31.16,17.180362615341,39.7865081050177));
#758=CARTESIAN_POINT('',(31.16,-0.95860915382856,44.5391301465141));
#759=CARTESIAN_POINT('',(31.16,16.1899036755761,40.9999999999999));
#760=CARTESIAN_POINT('Ctrl Pts',(31.16,17.180362615341,39.7865081050177));
#761=CARTESIAN_POINT('Ctrl Pts',(31.16,17.1555045109425,39.7925532182839));
#762=CARTESIAN_POINT('Ctrl Pts',(31.16,17.1322850600903,39.7989738727964));
#763=CARTESIAN_POINT('Ctrl Pts',(31.16,17.1108699746557,39.8054455036472));
#764=CARTESIAN_POINT('Ctrl Pts',(31.16,16.9667831552705,39.8489884868571));
#765=CARTESIAN_POINT('Ctrl Pts',(31.16,16.8247738113591,39.9188925101892));
#766=CARTESIAN_POINT('Ctrl Pts',(31.16,16.6951960561437,40.0164322794268));
#767=CARTESIAN_POINT('Ctrl Pts',(31.16,16.5785320015723,40.1042512491436));
#768=CARTESIAN_POINT('Ctrl Pts',(31.16,16.4738975282,40.2130706867361));
#769=CARTESIAN_POINT('Ctrl Pts',(31.16,16.3899702718147,40.3407768812083));
#770=CARTESIAN_POINT('Ctrl Pts',(31.16,16.3252534230455,40.4392519515311));
#771=CARTESIAN_POINT('Ctrl Pts',(31.16,16.2728656237001,40.5489691260283));
#772=CARTESIAN_POINT('Ctrl Pts',(31.16,16.2378315342486,40.668181871779));
#773=CARTESIAN_POINT('Ctrl Pts',(31.16,16.2064724499701,40.7748894414519));
#774=CARTESIAN_POINT('Ctrl Pts',(31.16,16.1899036915657,40.8862871215041));
#775=CARTESIAN_POINT('Ctrl Pts',(31.16,16.1899036915657,40.9999999999998));
#776=CARTESIAN_POINT('',(31.16,17.180362615341,42.2134918949822));
#777=CARTESIAN_POINT('Ctrl Pts',(31.16,16.1899036915657,41.));
#778=CARTESIAN_POINT('Ctrl Pts',(31.16,16.1899036915657,41.0013788164804));
#779=CARTESIAN_POINT('Ctrl Pts',(31.16,16.1899061328416,41.0027579733549));
#780=CARTESIAN_POINT('Ctrl Pts',(31.16,16.1899110190177,41.0041374663894));
#781=CARTESIAN_POINT('Ctrl Pts',(31.16,16.1903125616003,41.1175032517582));
#782=CARTESIAN_POINT('Ctrl Pts',(31.16,16.207173312261,41.2284610878605));
#783=CARTESIAN_POINT('Ctrl Pts',(31.16,16.2386740237581,41.3346717762299));
#784=CARTESIAN_POINT('Ctrl Pts',(31.16,16.2809297520718,41.4771450658302));
#785=CARTESIAN_POINT('Ctrl Pts',(31.16,16.347866118574,41.6058180263388));
#786=CARTESIAN_POINT('Ctrl Pts',(31.16,16.431010656264,41.7179787135052));
#787=CARTESIAN_POINT('Ctrl Pts',(31.16,16.5498798225691,41.8783313686055));
#788=CARTESIAN_POINT('Ctrl Pts',(31.16,16.6980901084161,42.0001671509579));
#789=CARTESIAN_POINT('Ctrl Pts',(31.16,16.8523991132114,42.0854438674875));
#790=CARTESIAN_POINT('Ctrl Pts',(31.16,16.9542521395395,42.1417315200804));
#791=CARTESIAN_POINT('Ctrl Pts',(31.16,17.0648182856567,42.1853932697206));
#792=CARTESIAN_POINT('Ctrl Pts',(31.16,17.180362615341,42.2134918949822));
#793=CARTESIAN_POINT('',(31.16,17.1823018611915,42.214));
#794=CARTESIAN_POINT('',(31.16,1.49416057136293,38.1035241123912));
#795=CARTESIAN_POINT('',(31.16,17.4286454399457,42.2387417643695));
#796=CARTESIAN_POINT('Origin',(31.16,17.4286454399457,40.9999999999999));
#797=CARTESIAN_POINT('',(31.16,22.66,42.2387417643695));
#798=CARTESIAN_POINT('',(31.16,2.50499989749997,42.2387417643695));
#799=CARTESIAN_POINT('',(31.16,23.66,43.2387417643695));
#800=CARTESIAN_POINT('',(31.16,14.7728143921735,34.3515561565431));
#801=CARTESIAN_POINT('',(31.16,23.66,45.9999999999999));
#802=CARTESIAN_POINT('',(31.16,23.66,45.9999997690319));
#803=CARTESIAN_POINT('Ctrl Pts',(31.16,18.66,50.9999999999999));
#804=CARTESIAN_POINT('Ctrl Pts',(31.16,19.0339991254273,50.9999999999999));
#805=CARTESIAN_POINT('Ctrl Pts',(31.16,19.4040690910764,50.9981265935743));
#806=CARTESIAN_POINT('Ctrl Pts',(31.16,19.7727780109683,50.9560570255142));
#807=CARTESIAN_POINT('Ctrl Pts',(31.16,20.1414869308602,50.9139874574542));
#808=CARTESIAN_POINT('Ctrl Pts',(31.16,20.508834804995,50.8317217277598));
#809=CARTESIAN_POINT('Ctrl Pts',(31.16,20.8676516061397,50.6927523141176));
#810=CARTESIAN_POINT('Ctrl Pts',(31.16,21.2264684072844,50.5537829004754));
#811=CARTESIAN_POINT('Ctrl Pts',(31.16,21.5767541354391,50.3581098028854));
#812=CARTESIAN_POINT('Ctrl Pts',(31.16,21.9010582316085,50.1110405413325));
#813=CARTESIAN_POINT('Ctrl Pts',(31.16,22.2253623277779,49.8639712797796));
#814=CARTESIAN_POINT('Ctrl Pts',(31.16,22.5236847919621,49.5655058542638));
#815=CARTESIAN_POINT('Ctrl Pts',(31.16,22.770899309742,49.2410632697));
#816=CARTESIAN_POINT('Ctrl Pts',(31.16,23.018113827522,48.9166206851363));
#817=CARTESIAN_POINT('Ctrl Pts',(31.16,23.2142203988977,48.5662009415244));
#818=CARTESIAN_POINT('Ctrl Pts',(31.16,23.3532520504985,48.2073743735053));
#819=CARTESIAN_POINT('Ctrl Pts',(31.16,23.4922837020993,47.8485478054862));
#820=CARTESIAN_POINT('Ctrl Pts',(31.16,23.5742404339252,47.4813144130598));
#821=CARTESIAN_POINT('Ctrl Pts',(31.16,23.6161695084004,47.1126772430451));
#822=CARTESIAN_POINT('Ctrl Pts',(31.16,23.6580985828755,46.7440400730303));
#823=CARTESIAN_POINT('Ctrl Pts',(31.16,23.66,46.3739991254273));
#824=CARTESIAN_POINT('Ctrl Pts',(31.16,23.66,45.9999999999999));
#825=CARTESIAN_POINT('Origin',(27.41,23.16,39.2612582356303));
#826=CARTESIAN_POINT('',(26.16,23.66,38.7612582356304));
#827=CARTESIAN_POINT('',(27.41,23.66,38.7612582356304));
#828=CARTESIAN_POINT('',(26.16,22.66,39.7612582356303));
#829=CARTESIAN_POINT('',(26.16,13.5228145076575,48.8984437279728));
#830=CARTESIAN_POINT('',(27.41,22.66,39.7612582356303));
#831=CARTESIAN_POINT('Origin',(26.16,17.4286454399457,39.7612582356303));
#832=CARTESIAN_POINT('',(26.16,17.4286454399457,39.7612582356303));
#833=CARTESIAN_POINT('',(26.16,-3.11067738252718,39.7612582356303));
#834=CARTESIAN_POINT('',(26.16,17.4286454399457,39.7612582356303));
#835=CARTESIAN_POINT('Origin',(26.16,-23.650000205,30.9999999999999));
#836=CARTESIAN_POINT('',(26.16,23.66,35.9999999999999));
#837=CARTESIAN_POINT('',(26.16,23.66,35.9999999999999));
#838=CARTESIAN_POINT('',(26.16,18.66,30.9999999999999));
#839=CARTESIAN_POINT('Ctrl Pts',(26.16,18.66,31.));
#840=CARTESIAN_POINT('Ctrl Pts',(26.16,19.0339991254273,30.9999999999999));
#841=CARTESIAN_POINT('Ctrl Pts',(26.16,19.4040681105421,31.0018710605661));
#842=CARTESIAN_POINT('Ctrl Pts',(26.16,19.7727764611664,31.0439392681341));
#843=CARTESIAN_POINT('Ctrl Pts',(26.16,20.1414848117906,31.0860074757021));
#844=CARTESIAN_POINT('Ctrl Pts',(26.16,20.5088325279243,31.1682728302719));
#845=CARTESIAN_POINT('Ctrl Pts',(26.16,20.8676494332683,31.3072422684484));
#846=CARTESIAN_POINT('Ctrl Pts',(26.16,21.2264663386122,31.446211706625));
#847=CARTESIAN_POINT('Ctrl Pts',(26.16,21.5767524331664,31.6418852284081));
#848=CARTESIAN_POINT('Ctrl Pts',(26.16,21.9010569786375,31.8889548980854));
#849=CARTESIAN_POINT('Ctrl Pts',(26.16,22.2253615241087,32.1360245677626));
#850=CARTESIAN_POINT('Ctrl Pts',(26.16,22.5236845204968,32.4344903853339));
#851=CARTESIAN_POINT('Ctrl Pts',(26.16,22.7708991875892,32.7589333085576));
#852=CARTESIAN_POINT('Ctrl Pts',(26.16,23.0181138546816,33.0833762317813));
#853=CARTESIAN_POINT('Ctrl Pts',(26.16,23.2142201924783,33.4337962606573));
#854=CARTESIAN_POINT('Ctrl Pts',(26.16,23.3532519230743,33.7926231750953));
#855=CARTESIAN_POINT('Ctrl Pts',(26.16,23.4922836536704,34.1514500895333));
#856=CARTESIAN_POINT('Ctrl Pts',(26.16,23.5742407770659,34.5186838895333));
#857=CARTESIAN_POINT('Ctrl Pts',(26.16,23.6161698636483,34.8873215857931));
#858=CARTESIAN_POINT('Ctrl Pts',(26.16,23.6580989502307,35.2559592820529));
#859=CARTESIAN_POINT('Ctrl Pts',(26.16,23.66,35.6260008745726));
#860=CARTESIAN_POINT('Ctrl Pts',(26.16,23.66,35.9999999999999));
#861=CARTESIAN_POINT('',(26.16,-23.650000205,30.9999999999999));
#862=CARTESIAN_POINT('',(26.16,23.66,45.9999999999999));
#863=CARTESIAN_POINT('Ctrl Pts',(26.16,23.66,45.9999999999999));
#864=CARTESIAN_POINT('Ctrl Pts',(26.16,23.66,46.3739991254273));
#865=CARTESIAN_POINT('Ctrl Pts',(26.16,23.6580985828755,46.7440400730303));
#866=CARTESIAN_POINT('Ctrl Pts',(26.16,23.6161695084004,47.1126772430451));
#867=CARTESIAN_POINT('Ctrl Pts',(26.16,23.5742404339252,47.4813144130598));
#868=CARTESIAN_POINT('Ctrl Pts',(26.16,23.4922837020993,47.8485478054862));
#869=CARTESIAN_POINT('Ctrl Pts',(26.16,23.3532520504985,48.2073743735053));
#870=CARTESIAN_POINT('Ctrl Pts',(26.16,23.2142203988977,48.5662009415244));
#871=CARTESIAN_POINT('Ctrl Pts',(26.16,23.018113827522,48.9166206851363));
#872=CARTESIAN_POINT('Ctrl Pts',(26.16,22.770899309742,49.2410632697));
#873=CARTESIAN_POINT('Ctrl Pts',(26.16,22.5236847919621,49.5655058542638));
#874=CARTESIAN_POINT('Ctrl Pts',(26.16,22.2253623277779,49.8639712797796));
#875=CARTESIAN_POINT('Ctrl Pts',(26.16,21.9010582316085,50.1110405413325));
#876=CARTESIAN_POINT('Ctrl Pts',(26.16,21.5767541354391,50.3581098028854));
#877=CARTESIAN_POINT('Ctrl Pts',(26.16,21.2264684072844,50.5537829004754));
#878=CARTESIAN_POINT('Ctrl Pts',(26.16,20.8676516061397,50.6927523141176));
#879=CARTESIAN_POINT('Ctrl Pts',(26.16,20.508834804995,50.8317217277598));
#880=CARTESIAN_POINT('Ctrl Pts',(26.16,20.1414869308602,50.9139874574542));
#881=CARTESIAN_POINT('Ctrl Pts',(26.16,19.7727780109683,50.9560570255143));
#882=CARTESIAN_POINT('Ctrl Pts',(26.16,19.4040690910764,50.9981265935743));
#883=CARTESIAN_POINT('Ctrl Pts',(26.16,19.0339991254273,50.9999999999999));
#884=CARTESIAN_POINT('Ctrl Pts',(26.16,18.66,50.9999999999999));
#885=CARTESIAN_POINT('',(26.16,23.66,43.2387417643695));
#886=CARTESIAN_POINT('',(26.16,23.66,35.9999999999999));
#887=CARTESIAN_POINT('',(26.16,22.66,42.2387417643695));
#888=CARTESIAN_POINT('',(26.16,8.52281450765753,28.1015562720271));
#889=CARTESIAN_POINT('',(26.16,17.4286454399457,42.2387417643695));
#890=CARTESIAN_POINT('',(26.16,0.00499989749997098,42.2387417643695));
#891=CARTESIAN_POINT('',(26.16,17.1823018611915,42.214));
#892=CARTESIAN_POINT('Origin',(26.16,17.4286454399457,40.9999999999999));
#893=CARTESIAN_POINT('',(26.16,17.180362615341,42.2134918949822));
#894=CARTESIAN_POINT('',(26.16,-3.29703952854105,36.8481738373313));
#895=CARTESIAN_POINT('',(26.16,16.1899036755761,40.9999999999999));
#896=CARTESIAN_POINT('Ctrl Pts',(26.16,17.180362615341,42.2134918949822));
#897=CARTESIAN_POINT('Ctrl Pts',(26.16,17.0648182856567,42.1853932697206));
#898=CARTESIAN_POINT('Ctrl Pts',(26.16,16.9542521395395,42.1417315200804));
#899=CARTESIAN_POINT('Ctrl Pts',(26.16,16.8523991132114,42.0854438674875));
#900=CARTESIAN_POINT('Ctrl Pts',(26.16,16.6980901084161,42.0001671509579));
#901=CARTESIAN_POINT('Ctrl Pts',(26.16,16.5498798225691,41.8783313686055));
#902=CARTESIAN_POINT('Ctrl Pts',(26.16,16.431010656264,41.7179787135052));
#903=CARTESIAN_POINT('Ctrl Pts',(26.16,16.347866118574,41.6058180263388));
#904=CARTESIAN_POINT('Ctrl Pts',(26.16,16.2809297520718,41.4771450658302));
#905=CARTESIAN_POINT('Ctrl Pts',(26.16,16.2386740237581,41.3346717762299));
#906=CARTESIAN_POINT('Ctrl Pts',(26.16,16.207173312261,41.2284610878605));
#907=CARTESIAN_POINT('Ctrl Pts',(26.16,16.1903125616003,41.1175032517582));
#908=CARTESIAN_POINT('Ctrl Pts',(26.16,16.1899110190177,41.0041374663894));
#909=CARTESIAN_POINT('Ctrl Pts',(26.16,16.1899061328416,41.0027579733549));
#910=CARTESIAN_POINT('Ctrl Pts',(26.16,16.1899036915657,41.0013788164804));
#911=CARTESIAN_POINT('Ctrl Pts',(26.16,16.1899036915657,41.));
#912=CARTESIAN_POINT('',(26.16,17.180362615341,39.7865081050177));
#913=CARTESIAN_POINT('Ctrl Pts',(26.16,16.1899036915657,40.9999999999998));
#914=CARTESIAN_POINT('Ctrl Pts',(26.16,16.1899036915657,40.8862871215041));
#915=CARTESIAN_POINT('Ctrl Pts',(26.16,16.2064724499701,40.7748894414519));
#916=CARTESIAN_POINT('Ctrl Pts',(26.16,16.2378315342486,40.668181871779));
#917=CARTESIAN_POINT('Ctrl Pts',(26.16,16.2728656237001,40.5489691260283));
#918=CARTESIAN_POINT('Ctrl Pts',(26.16,16.3252534230455,40.4392519515311));
#919=CARTESIAN_POINT('Ctrl Pts',(26.16,16.3899702718147,40.3407768812083));
#920=CARTESIAN_POINT('Ctrl Pts',(26.16,16.4738975282,40.2130706867361));
#921=CARTESIAN_POINT('Ctrl Pts',(26.16,16.5785320015723,40.1042512491436));
#922=CARTESIAN_POINT('Ctrl Pts',(26.16,16.6951960561437,40.0164322794268));
#923=CARTESIAN_POINT('Ctrl Pts',(26.16,16.8247738113591,39.9188925101892));
#924=CARTESIAN_POINT('Ctrl Pts',(26.16,16.9667831552705,39.8489884868571));
#925=CARTESIAN_POINT('Ctrl Pts',(26.16,17.1108699746557,39.8054455036472));
#926=CARTESIAN_POINT('Ctrl Pts',(26.16,17.1322850600903,39.7989738727964));
#927=CARTESIAN_POINT('Ctrl Pts',(26.16,17.1555045109425,39.7925532182839));
#928=CARTESIAN_POINT('Ctrl Pts',(26.16,17.180362615341,39.7865081050177));
#929=CARTESIAN_POINT('',(26.16,17.1823018611915,39.7859999999999));
#930=CARTESIAN_POINT('',(26.16,-0.846208935886515,44.5096799792137));
#931=CARTESIAN_POINT('Origin',(26.16,17.4286454399457,40.9999999999999));
#932=CARTESIAN_POINT('Origin',(27.41,23.16,42.7387417643695));
#933=CARTESIAN_POINT('',(27.41,23.66,43.2387417643695));
#934=CARTESIAN_POINT('',(27.41,22.66,42.2387417643695));
#935=CARTESIAN_POINT('Origin',(28.66,23.66,40.9999999999999));
#936=CARTESIAN_POINT('',(27.41,23.66,45.9999999999999));
#937=CARTESIAN_POINT('Ctrl Pts',(31.16,23.66,45.9999999999999));
#938=CARTESIAN_POINT('Ctrl Pts',(29.4933333333333,23.66,45.9999999999999));
#939=CARTESIAN_POINT('Ctrl Pts',(27.8266666666667,23.66,45.9999999999999));
#940=CARTESIAN_POINT('Ctrl Pts',(26.16,23.66,45.9999999999999));
#941=CARTESIAN_POINT('Ctrl Pts',(31.16,23.66,46.3739991254273));
#942=CARTESIAN_POINT('Ctrl Pts',(29.4933333333333,23.66,46.3739991254273));
#943=CARTESIAN_POINT('Ctrl Pts',(27.8266666666667,23.66,46.3739991254273));
#944=CARTESIAN_POINT('Ctrl Pts',(26.16,23.66,46.3739991254273));
#945=CARTESIAN_POINT('Ctrl Pts',(31.16,23.6561971657511,47.1140810206334));
#946=CARTESIAN_POINT('Ctrl Pts',(29.4933333333333,23.6561971657511,47.1140810206334));
#947=CARTESIAN_POINT('Ctrl Pts',(27.8266666666667,23.6561971657511,47.1140810206334));
#948=CARTESIAN_POINT('Ctrl Pts',(26.16,23.6561971657511,47.1140810206334));
#949=CARTESIAN_POINT('Ctrl Pts',(31.16,23.4103269702735,48.2157811979126));
#950=CARTESIAN_POINT('Ctrl Pts',(29.4933333333333,23.4103269702735,48.2157811979126));
#951=CARTESIAN_POINT('Ctrl Pts',(27.8266666666667,23.4103269702735,48.2157811979126));
#952=CARTESIAN_POINT('Ctrl Pts',(26.16,23.4103269702735,48.2157811979126));
#953=CARTESIAN_POINT('Ctrl Pts',(31.16,22.8220072561463,49.2670404287481));
#954=CARTESIAN_POINT('Ctrl Pts',(29.4933333333333,22.8220072561463,49.2670404287481));
#955=CARTESIAN_POINT('Ctrl Pts',(27.8266666666667,22.8220072561463,49.2670404287481));
#956=CARTESIAN_POINT('Ctrl Pts',(26.16,22.8220072561463,49.2670404287481));
#957=CARTESIAN_POINT('Ctrl Pts',(31.16,21.9270398635938,50.1624367052954));
#958=CARTESIAN_POINT('Ctrl Pts',(29.4933333333333,21.9270398635938,50.1624367052954));
#959=CARTESIAN_POINT('Ctrl Pts',(27.8266666666667,21.9270398635938,50.1624367052954));
#960=CARTESIAN_POINT('Ctrl Pts',(26.16,21.9270398635938,50.1624367052954));
#961=CARTESIAN_POINT('Ctrl Pts',(31.16,20.8761826791297,50.7494559980654));
#962=CARTESIAN_POINT('Ctrl Pts',(29.4933333333333,20.8761826791297,50.7494559980654));
#963=CARTESIAN_POINT('Ctrl Pts',(27.8266666666667,20.8761826791297,50.7494559980654));
#964=CARTESIAN_POINT('Ctrl Pts',(26.16,20.8761826791297,50.7494559980654));
#965=CARTESIAN_POINT('Ctrl Pts',(31.16,19.7741390567255,50.9962531871486));
#966=CARTESIAN_POINT('Ctrl Pts',(29.4933333333333,19.7741390567255,50.9962531871486));
#967=CARTESIAN_POINT('Ctrl Pts',(27.8266666666667,19.7741390567255,50.9962531871486));
#968=CARTESIAN_POINT('Ctrl Pts',(26.16,19.7741390567255,50.9962531871486));
#969=CARTESIAN_POINT('Ctrl Pts',(31.16,19.0339991254273,50.9999999999999));
#970=CARTESIAN_POINT('Ctrl Pts',(29.4933333333333,19.0339991254273,50.9999999999999));
#971=CARTESIAN_POINT('Ctrl Pts',(27.8266666666667,19.0339991254273,50.9999999999999));
#972=CARTESIAN_POINT('Ctrl Pts',(26.16,19.0339991254273,50.9999999999999));
#973=CARTESIAN_POINT('Ctrl Pts',(31.16,18.66,50.9999999999999));
#974=CARTESIAN_POINT('Ctrl Pts',(29.4933333333333,18.66,50.9999999999999));
#975=CARTESIAN_POINT('Ctrl Pts',(27.8266666666667,18.66,50.9999999999999));
#976=CARTESIAN_POINT('Ctrl Pts',(26.16,18.66,50.9999999999999));
#977=CARTESIAN_POINT('Ctrl Pts',(26.16,23.66,35.9999999999999));
#978=CARTESIAN_POINT('Ctrl Pts',(27.8266666666667,23.66,35.9999999999999));
#979=CARTESIAN_POINT('Ctrl Pts',(29.4933333333333,23.66,35.9999999999999));
#980=CARTESIAN_POINT('Ctrl Pts',(31.16,23.66,35.9999999999999));
#981=CARTESIAN_POINT('Ctrl Pts',(26.16,23.66,35.6260008745726));
#982=CARTESIAN_POINT('Ctrl Pts',(27.8266666666667,23.66,35.6260008745726));
#983=CARTESIAN_POINT('Ctrl Pts',(29.4933333333333,23.66,35.6260008745726));
#984=CARTESIAN_POINT('Ctrl Pts',(31.16,23.66,35.6260008745726));
#985=CARTESIAN_POINT('Ctrl Pts',(26.16,23.6561979004614,34.8859176895333));
#986=CARTESIAN_POINT('Ctrl Pts',(27.8266666666667,23.6561979004614,34.8859176895333));
#987=CARTESIAN_POINT('Ctrl Pts',(29.4933333333333,23.6561979004614,34.8859176895333));
#988=CARTESIAN_POINT('Ctrl Pts',(31.16,23.6561979004614,34.8859176895333));
#989=CARTESIAN_POINT('Ctrl Pts',(26.16,23.4103265302749,33.7842162895333));
#990=CARTESIAN_POINT('Ctrl Pts',(27.8266666666667,23.4103265302749,33.7842162895333));
#991=CARTESIAN_POINT('Ctrl Pts',(29.4933333333333,23.4103265302749,33.7842162895333));
#992=CARTESIAN_POINT('Ctrl Pts',(31.16,23.4103265302749,33.7842162895333));
#993=CARTESIAN_POINT('Ctrl Pts',(26.16,22.8220075168849,32.7329562029053));
#994=CARTESIAN_POINT('Ctrl Pts',(27.8266666666667,22.8220075168849,32.7329562029053));
#995=CARTESIAN_POINT('Ctrl Pts',(29.4933333333333,22.8220075168849,32.7329562029053));
#996=CARTESIAN_POINT('Ctrl Pts',(31.16,22.8220075168849,32.7329562029053));
#997=CARTESIAN_POINT('Ctrl Pts',(26.16,21.9270385277206,31.8375587501913));
#998=CARTESIAN_POINT('Ctrl Pts',(27.8266666666666,21.9270385277206,31.8375587501913));
#999=CARTESIAN_POINT('Ctrl Pts',(29.4933333333333,21.9270385277206,31.8375587501913));
#1000=CARTESIAN_POINT('Ctrl Pts',(31.16,21.9270385277206,31.8375587501913));
#1001=CARTESIAN_POINT('Ctrl Pts',(26.16,20.876180244058,31.2505381848418));
#1002=CARTESIAN_POINT('Ctrl Pts',(27.8266666666667,20.876180244058,31.2505381848418));
#1003=CARTESIAN_POINT('Ctrl Pts',(29.4933333333333,20.876180244058,31.2505381848418));
#1004=CARTESIAN_POINT('Ctrl Pts',(31.16,20.876180244058,31.2505381848418));
#1005=CARTESIAN_POINT('Ctrl Pts',(26.16,19.7741370956569,31.0037421211322));
#1006=CARTESIAN_POINT('Ctrl Pts',(27.8266666666667,19.7741370956569,31.0037421211322));
#1007=CARTESIAN_POINT('Ctrl Pts',(29.4933333333333,19.7741370956569,31.0037421211322));
#1008=CARTESIAN_POINT('Ctrl Pts',(31.16,19.7741370956569,31.0037421211322));
#1009=CARTESIAN_POINT('Ctrl Pts',(26.16,19.0339991254273,30.9999999999999));
#1010=CARTESIAN_POINT('Ctrl Pts',(27.8266666666667,19.0339991254273,30.9999999999999));
#1011=CARTESIAN_POINT('Ctrl Pts',(29.4933333333333,19.0339991254273,30.9999999999999));
#1012=CARTESIAN_POINT('Ctrl Pts',(31.16,19.0339991254273,30.9999999999999));
#1013=CARTESIAN_POINT('Ctrl Pts',(26.16,18.66,31.));
#1014=CARTESIAN_POINT('Ctrl Pts',(27.8266666666667,18.66,31.));
#1015=CARTESIAN_POINT('Ctrl Pts',(29.4933333333333,18.66,31.));
#1016=CARTESIAN_POINT('Ctrl Pts',(31.16,18.66,31.));
#1017=CARTESIAN_POINT('',(37.3300003054738,18.66,30.9999999999999));
#1018=CARTESIAN_POINT('',(37.3300003054738,23.66,35.9999999999999));
#1019=CARTESIAN_POINT('Origin',(28.66,23.66,40.9999999999999));
#1020=CARTESIAN_POINT('Origin',(26.16,17.1823018611915,42.214));
#1021=CARTESIAN_POINT('',(26.16,17.180362615341,42.2134918949822));
#1022=CARTESIAN_POINT('',(26.16,17.1823018611915,42.214));
#1023=CARTESIAN_POINT('Origin',(26.16,17.4286454399457,40.9999999999999));
#1024=CARTESIAN_POINT('',(26.16,17.4286454399457,42.2387417643695));
#1025=CARTESIAN_POINT('Origin',(26.16,23.66,42.2387417643695));
#1026=CARTESIAN_POINT('Origin',(26.16,17.4286454399457,40.9999999999999));
#1027=CARTESIAN_POINT('',(26.16,17.1823018611915,39.7859999999999));
#1028=CARTESIAN_POINT('Origin',(26.16,17.180362615341,39.7865081050177));
#1029=CARTESIAN_POINT('',(26.16,17.180362615341,39.7865081050177));
#1030=CARTESIAN_POINT('Ctrl Pts',(26.16,16.1899036915657,40.9999999999998));
#1031=CARTESIAN_POINT('Ctrl Pts',(47.9840006720424,16.1899036915657,40.9999999999998));
#1032=CARTESIAN_POINT('Ctrl Pts',(26.16,16.1899036915657,40.8862871215041));
#1033=CARTESIAN_POINT('Ctrl Pts',(47.9840006720424,16.1899036915657,40.8862871215041));
#1034=CARTESIAN_POINT('Ctrl Pts',(26.16,16.2064724499701,40.7748894414519));
#1035=CARTESIAN_POINT('Ctrl Pts',(47.9840006720424,16.2064724499701,40.7748894414519));
#1036=CARTESIAN_POINT('Ctrl Pts',(26.16,16.2728656237001,40.5489691260283));
#1037=CARTESIAN_POINT('Ctrl Pts',(47.9840006720424,16.2728656237001,40.5489691260283));
#1038=CARTESIAN_POINT('Ctrl Pts',(26.16,16.3252534230455,40.4392519515311));
#1039=CARTESIAN_POINT('Ctrl Pts',(47.9840006720424,16.3252534230455,40.4392519515311));
#1040=CARTESIAN_POINT('Ctrl Pts',(26.16,16.4738975282,40.2130706867361));
#1041=CARTESIAN_POINT('Ctrl Pts',(47.9840006720424,16.4738975282,40.2130706867361));
#1042=CARTESIAN_POINT('Ctrl Pts',(26.16,16.5785320015723,40.1042512491436));
#1043=CARTESIAN_POINT('Ctrl Pts',(47.9840006720424,16.5785320015723,40.1042512491436));
#1044=CARTESIAN_POINT('Ctrl Pts',(26.16,16.8247738113591,39.9188925101892));
#1045=CARTESIAN_POINT('Ctrl Pts',(47.9840006720424,16.8247738113591,39.9188925101892));
#1046=CARTESIAN_POINT('Ctrl Pts',(26.16,16.9667831552705,39.8489884868571));
#1047=CARTESIAN_POINT('Ctrl Pts',(47.9840006720424,16.9667831552705,39.8489884868571));
#1048=CARTESIAN_POINT('Ctrl Pts',(26.16,17.1322850600903,39.7989738727964));
#1049=CARTESIAN_POINT('Ctrl Pts',(47.9840006720424,17.1322850600903,39.7989738727964));
#1050=CARTESIAN_POINT('Ctrl Pts',(26.16,17.1555045109425,39.7925532182839));
#1051=CARTESIAN_POINT('Ctrl Pts',(47.9840006720424,17.1555045109425,39.7925532182839));
#1052=CARTESIAN_POINT('Ctrl Pts',(26.16,17.180362615341,39.7865081050177));
#1053=CARTESIAN_POINT('Ctrl Pts',(47.9840006720424,17.180362615341,39.7865081050177));
#1054=CARTESIAN_POINT('',(26.16,16.1899036755761,40.9999999999999));
#1055=CARTESIAN_POINT('Ctrl Pts',(26.16,17.180362615341,42.2134918949822));
#1056=CARTESIAN_POINT('Ctrl Pts',(47.9840006720424,17.180362615341,42.2134918949822));
#1057=CARTESIAN_POINT('Ctrl Pts',(26.16,17.0648182856567,42.1853932697206));
#1058=CARTESIAN_POINT('Ctrl Pts',(47.9840006720424,17.0648182856567,42.1853932697206));
#1059=CARTESIAN_POINT('Ctrl Pts',(26.16,16.9542521395395,42.1417315200804));
#1060=CARTESIAN_POINT('Ctrl Pts',(47.9840006720424,16.9542521395395,42.1417315200804));
#1061=CARTESIAN_POINT('Ctrl Pts',(26.16,16.6980901084161,42.0001671509579));
#1062=CARTESIAN_POINT('Ctrl Pts',(47.9840006720424,16.6980901084161,42.0001671509579));
#1063=CARTESIAN_POINT('Ctrl Pts',(26.16,16.5498798225691,41.8783313686055));
#1064=CARTESIAN_POINT('Ctrl Pts',(47.9840006720424,16.5498798225691,41.8783313686055));
#1065=CARTESIAN_POINT('Ctrl Pts',(26.16,16.347866118574,41.6058180263388));
#1066=CARTESIAN_POINT('Ctrl Pts',(47.9840006720424,16.347866118574,41.6058180263388));
#1067=CARTESIAN_POINT('Ctrl Pts',(26.16,16.2809297520718,41.4771450658302));
#1068=CARTESIAN_POINT('Ctrl Pts',(47.9840006720424,16.2809297520718,41.4771450658302));
#1069=CARTESIAN_POINT('Ctrl Pts',(26.16,16.207173312261,41.2284610878605));
#1070=CARTESIAN_POINT('Ctrl Pts',(47.9840006720424,16.207173312261,41.2284610878605));
#1071=CARTESIAN_POINT('Ctrl Pts',(26.16,16.1903125616003,41.1175032517582));
#1072=CARTESIAN_POINT('Ctrl Pts',(47.9840006720424,16.1903125616003,41.1175032517582));
#1073=CARTESIAN_POINT('Ctrl Pts',(26.16,16.1899061328416,41.0027579733549));
#1074=CARTESIAN_POINT('Ctrl Pts',(47.9840006720424,16.1899061328416,41.0027579733549));
#1075=CARTESIAN_POINT('Ctrl Pts',(26.16,16.1899036915657,41.0013788164804));
#1076=CARTESIAN_POINT('Ctrl Pts',(47.9840006720424,16.1899036915657,41.0013788164804));
#1077=CARTESIAN_POINT('Ctrl Pts',(26.16,16.1899036915657,41.));
#1078=CARTESIAN_POINT('Ctrl Pts',(47.9840006720424,16.1899036915657,41.));
#1079=CARTESIAN_POINT('Origin',(41.0000006109476,-23.650000205,47.9999999999999));
#1080=CARTESIAN_POINT('',(42.6000006109476,-23.650000205,47.9999999999999));
#1081=CARTESIAN_POINT('Origin',(41.0000006109476,-23.650000205,33.9999999999999));
#1082=CARTESIAN_POINT('',(42.6000006109476,-23.650000205,33.9999999999999));
#1083=CARTESIAN_POINT('Origin',(46.0000006109476,-23.650000205,30.9999999999999));
#1084=UNCERTAINTY_MEASURE_WITH_UNIT(LENGTH_MEASURE(0.01),#1088,
'DISTANCE_ACCURACY_VALUE',
'Maximum model space distance between geometric entities at asserted c
onnectivities');
#1085=UNCERTAINTY_MEASURE_WITH_UNIT(LENGTH_MEASURE(0.01),#1088,
'DISTANCE_ACCURACY_VALUE',
'Maximum model space distance between geometric entities at asserted c
onnectivities');
#1086=(
GEOMETRIC_REPRESENTATION_CONTEXT(3)
GLOBAL_UNCERTAINTY_ASSIGNED_CONTEXT((#1084))
GLOBAL_UNIT_ASSIGNED_CONTEXT((#1088,#1089,#1090))
REPRESENTATION_CONTEXT('','3D')
);
#1087=(
GEOMETRIC_REPRESENTATION_CONTEXT(3)
GLOBAL_UNCERTAINTY_ASSIGNED_CONTEXT((#1085))
GLOBAL_UNIT_ASSIGNED_CONTEXT((#1088,#1089,#1090))
REPRESENTATION_CONTEXT('','3D')
);
#1088=(
LENGTH_UNIT()
NAMED_UNIT(*)
SI_UNIT(.MILLI.,.METRE.)
);
#1089=(
NAMED_UNIT(*)
PLANE_ANGLE_UNIT()
SI_UNIT($,.RADIAN.)
);
#1090=(
NAMED_UNIT(*)
SI_UNIT($,.STERADIAN.)
SOLID_ANGLE_UNIT()
);
#1091=SHAPE_DEFINITION_REPRESENTATION(#1092,#1093);
#1092=PRODUCT_DEFINITION_SHAPE('',$,#1095);
#1093=SHAPE_REPRESENTATION('',(#520),#1086);
#1094=PRODUCT_DEFINITION_CONTEXT('part definition',#1099,'design');
#1095=PRODUCT_DEFINITION('Pulley Guide','Pulley Guide v1',#1096,#1094);
#1096=PRODUCT_DEFINITION_FORMATION('',$,#1101);
#1097=PRODUCT_RELATED_PRODUCT_CATEGORY('Pulley Guide v1',
'Pulley Guide v1',(#1101));
#1098=APPLICATION_PROTOCOL_DEFINITION('international standard',
'automotive_design',2009,#1099);
#1099=APPLICATION_CONTEXT(
'Core Data for Automotive Mechanical Design Process');
#1100=PRODUCT_CONTEXT('part definition',#1099,'mechanical');
#1101=PRODUCT('Pulley Guide','Pulley Guide v1',$,(#1100));
#1102=PRESENTATION_STYLE_ASSIGNMENT((#1103));
#1103=SURFACE_STYLE_USAGE(.BOTH.,#1104);
#1104=SURFACE_SIDE_STYLE('',(#1105));
#1105=SURFACE_STYLE_FILL_AREA(#1106);
#1106=FILL_AREA_STYLE('Steel - Satin',(#1107));
#1107=FILL_AREA_STYLE_COLOUR('Steel - Satin',#1108);
#1108=COLOUR_RGB('Steel - Satin',0.627450980392157,0.627450980392157,0.627450980392157);
ENDSEC;
END-ISO-10303-21;
